<?xml version="1.0" encoding="UTF-8" standalone="no"?>
<svg
   xmlns:ns1="http://www.iki.fi/pav/software/textext/"
   xmlns:dc="http://purl.org/dc/elements/1.1/"
   xmlns:cc="http://creativecommons.org/ns#"
   xmlns:rdf="http://www.w3.org/1999/02/22-rdf-syntax-ns#"
   xmlns:svg="http://www.w3.org/2000/svg"
   xmlns="http://www.w3.org/2000/svg"
   xmlns:sodipodi="http://sodipodi.sourceforge.net/DTD/sodipodi-0.dtd"
   xmlns:inkscape="http://www.inkscape.org/namespaces/inkscape"
   sodipodi:docname="arkim.svg"
   inkscape:version="1.0 (4035a4f, 2020-05-01)"
   id="svg2502"
   version="1.1"
   viewBox="0 0 210 297"
   height="297mm"
   width="210mm">
  <defs
     id="defs2496">
    <g
       id="id-442a3c0c-3bcc-43fb-85c1-ac4f24dc460f">
      <symbol
         overflow="visible"
         id="id-59bbbb06-b1a4-4cd7-9558-f105dcd6e42c">
        <path
           style="stroke:none;stroke-width:0"
           d=""
           id="id-c3a270d4-d896-437f-a5a6-7bb2e1f8a12b" />
      </symbol>
      <symbol
         overflow="visible"
         id="id-8dd7a130-1c39-4862-b868-155d9c3c437d">
        <path
           style="stroke:none;stroke-width:0"
           d="m 8.453125,-1.421875 c 0,-0.109375 -0.09375,-0.109375 -0.125,-0.109375 -0.09375,0 -0.09375,0.03125 -0.140625,0.1875 -0.15625,0.53125 -0.46875,1.234375 -1.015625,1.234375 -0.171875,0 -0.25,-0.09375 -0.25,-0.328125 0,-0.25 0.09375,-0.484375 0.1875,-0.703125 0.1875,-0.53125 0.609375,-1.625 0.609375,-2.203125 0,-0.640625 -0.40625,-1.0625 -1.15625,-1.0625 -0.734375,0 -1.25,0.4375 -1.625,0.96875 0,-0.125 -0.03125,-0.46875 -0.3125,-0.703125 -0.25,-0.21875 -0.5625,-0.265625 -0.8125,-0.265625 -0.90625,0 -1.390625,0.640625 -1.5625,0.875 -0.046875,-0.578125 -0.46875,-0.875 -0.921875,-0.875 -0.453125,0 -0.640625,0.390625 -0.734375,0.5625 -0.171875,0.359375 -0.296875,0.9375 -0.296875,0.96875 0,0.109375 0.109375,0.109375 0.109375,0.109375 0.109375,0 0.109375,-0.015625 0.171875,-0.234375 0.171875,-0.703125 0.375,-1.1875 0.734375,-1.1875 0.15625,0 0.296875,0.078125 0.296875,0.453125 0,0.21875 -0.03125,0.328125 -0.15625,0.84375 L 0.875,-0.59375 c -0.03125,0.15625 -0.09375,0.390625 -0.09375,0.4375 0,0.171875 0.140625,0.265625 0.296875,0.265625 0.125,0 0.296875,-0.078125 0.375,-0.28125 0,-0.015625 0.125,-0.484375 0.1875,-0.734375 l 0.21875,-0.890625 C 1.90625,-2.03125 1.96875,-2.25 2.03125,-2.46875 l 0.125,-0.5 c 0.140625,-0.3125 0.671875,-1.21875 1.625,-1.21875 0.453125,0 0.53125,0.375 0.53125,0.703125 0,0.25 -0.0625,0.53125 -0.140625,0.828125 L 3.890625,-1.5 C 3.78125,-1.140625 3.78125,-1.078125 3.6875,-0.75 c -0.03125,0.203125 -0.125,0.546875 -0.125,0.59375 0,0.171875 0.140625,0.265625 0.28125,0.265625 0.3125,0 0.375,-0.25 0.453125,-0.5625 l 0.59375,-2.40625 c 0.03125,-0.125 0.5625,-1.328125 1.65625,-1.328125 0.421875,0 0.53125,0.34375 0.53125,0.703125 0,0.5625 -0.421875,1.703125 -0.625,2.234375 -0.078125,0.234375 -0.125,0.34375 -0.125,0.546875 0,0.46875 0.34375,0.8125 0.8125,0.8125 0.9375,0 1.3125,-1.453125 1.3125,-1.53125 z m 0,0"
           id="id-db475718-b7a8-498e-8cf5-588b097cdb5a" />
      </symbol>
    </g>
    <g
       id="id-e769f983-9267-461b-8b17-283e6b679f85">
      <symbol
         overflow="visible"
         id="id-4a31f83f-9970-44fd-a16b-3662a9d3c575">
        <path
           style="stroke:none;stroke-width:0"
           d=""
           id="id-614591f1-489b-4555-875c-a9eba907182e" />
      </symbol>
      <symbol
         overflow="visible"
         id="id-575128b4-f683-4b11-ac7a-e915401fa5b1">
        <path
           style="stroke:none;stroke-width:0"
           d="m 4.890625,-1.421875 c 0,-0.109375 -0.09375,-0.109375 -0.125,-0.109375 -0.09375,0 -0.109375,0.046875 -0.140625,0.1875 -0.203125,0.71875 -0.421875,1.234375 -0.859375,1.234375 -0.203125,0 -0.328125,-0.109375 -0.328125,-0.46875 0,-0.171875 0.046875,-0.40625 0.078125,-0.5625 C 3.5625,-1.3125 3.5625,-1.34375 3.5625,-1.453125 3.5625,-2.09375 2.9375,-2.375 2.078125,-2.5 2.390625,-2.671875 2.71875,-2.984375 2.9375,-3.234375 3.421875,-3.765625 3.875,-4.1875 4.359375,-4.1875 c 0.0625,0 0.078125,0 0.09375,0.015625 0.125,0.015625 0.125,0.015625 0.21875,0.078125 0.015625,0 0.015625,0.015625 0.03125,0.03125 -0.46875,0.03125 -0.5625,0.421875 -0.5625,0.546875 0,0.15625 0.109375,0.34375 0.375,0.34375 0.265625,0 0.546875,-0.21875 0.546875,-0.609375 0,-0.296875 -0.234375,-0.625 -0.671875,-0.625 -0.28125,0 -0.734375,0.078125 -1.453125,0.875 -0.34375,0.375 -0.734375,0.78125 -1.109375,0.921875 L 2.859375,-6.8125 c 0,0 0,-0.109375 -0.125,-0.109375 -0.234375,0 -0.953125,0.078125 -1.21875,0.109375 -0.078125,0 -0.1875,0.015625 -0.1875,0.1875 0,0.125 0.09375,0.125 0.234375,0.125 0.484375,0 0.5,0.0625 0.5,0.171875 L 2.03125,-6.125 0.59375,-0.390625 c -0.046875,0.140625 -0.046875,0.15625 -0.046875,0.21875 0,0.234375 0.203125,0.28125 0.296875,0.28125 0.125,0 0.265625,-0.09375 0.328125,-0.203125 0.046875,-0.09375 0.5,-1.9375 0.5625,-2.1875 0.34375,0.03125 1.15625,0.1875 1.15625,0.84375 0,0.078125 0,0.109375 -0.03125,0.21875 -0.015625,0.109375 -0.03125,0.234375 -0.03125,0.34375 0,0.578125 0.390625,0.984375 0.90625,0.984375 0.296875,0 0.578125,-0.15625 0.796875,-0.53125 0.25,-0.4375 0.359375,-1 0.359375,-1 z m 0,0"
           id="id-46fadabf-b51e-4298-afd9-f872e19c0fb5" />
      </symbol>
    </g>
  </defs>
  <sodipodi:namedview
     inkscape:window-maximized="0"
     inkscape:window-y="254"
     inkscape:window-x="0"
     inkscape:window-height="847"
     inkscape:window-width="1252"
     showgrid="false"
     inkscape:document-rotation="0"
     inkscape:current-layer="layer1"
     inkscape:document-units="mm"
     inkscape:cy="480.21156"
     inkscape:cx="272.01885"
     inkscape:zoom="3.4944468"
     inkscape:pageshadow="2"
     inkscape:pageopacity="0.0"
     borderopacity="1.0"
     bordercolor="#666666"
     pagecolor="#ffffff"
     id="base" />
  <metadata
     id="metadata2499">
    <rdf:RDF>
      <cc:Work
         rdf:about="">
        <dc:format>image/svg+xml</dc:format>
        <dc:type
           rdf:resource="http://purl.org/dc/dcmitype/StillImage" />
        <dc:title></dc:title>
      </cc:Work>
    </rdf:RDF>
  </metadata>
  <g
     id="layer1"
     inkscape:groupmode="layer"
     inkscape:label="Layer 1">
    <path
       style="fill:none;stroke:#000000;stroke-width:0.165105;stroke-linecap:butt;stroke-linejoin:miter;stroke-miterlimit:4;stroke-dasharray:none;stroke-opacity:1"
       d="m 67.359686,113.04737 v 19.12512"
       id="path852" />
    <path
       style="fill:none;stroke:#000000;stroke-width:0.165105;stroke-linecap:butt;stroke-linejoin:miter;stroke-miterlimit:4;stroke-dasharray:none;stroke-opacity:1"
       d="m 67.344786,116.87205 c 0.59361,0.15941 1.40896,-0.57646 1.98481,-0.3295 0.42386,0.18177 1.04907,0.78571 1.53664,0.57662 0.64256,-0.27557 1.20332,-0.70849 1.9208,-0.57662 0.5696,0.10469 0.98626,0.79073 1.60065,0.65899 0.68697,-0.1473 1.03068,-0.82373 1.72872,-0.82373"
       id="path892" />
    <path
       id="path852-6"
       d="m 76.091156,113.06157 v 19.12512"
       style="fill:none;stroke:#000000;stroke-width:0.165;stroke-linecap:butt;stroke-linejoin:miter;stroke-miterlimit:4;stroke-dasharray:none;stroke-opacity:1" />
    <path
       style="fill:none;stroke:#000000;stroke-width:0.165;stroke-linecap:butt;stroke-linejoin:miter;stroke-miterlimit:4;stroke-dasharray:none;stroke-opacity:1"
       d="m 67.359686,132.17249 8.73147,0.0142"
       id="path1548" />
    <path
       id="path7229-3"
       d="m 71.640183,123.16872 c 0.48505,0.0367 0.87296,0.24474 0.87111,0.49366 -10e-4,0.24895 -0.39282,0.45356 -0.87837,0.48605 -0.48616,0.0324 -0.87459,-0.10699 -0.87325,-0.28667 8.73e-4,-0.1797 0.39179,-0.31579 0.87744,-0.27905 0.48504,0.0367 0.87295,0.24473 0.87109,0.49365 -0.002,0.24891 -0.3928,0.45356 -0.87837,0.48606 -0.48615,0.0324 -0.87457,-0.107 -0.87323,-0.28668 8.73e-4,-0.18037 0.39179,-0.31578 0.87745,-0.27972 0.48503,0.0367 0.87294,0.24474 0.8711,0.49367 -0.001,0.24893 -0.39283,0.45422 -0.87838,0.48605 -0.48615,0.0326 -0.87458,-0.10629 -0.87325,-0.28669 9e-4,-0.17969 0.39181,-0.31578 0.87744,-0.27904 0.48505,0.0367 0.87296,0.24474 0.87112,0.49367 -0.001,0.24892 -0.39283,0.45355 -0.87839,0.48603 -0.48615,0.0326 -0.87457,-0.10698 -0.87324,-0.28665 8.73e-4,-0.17972 0.3918,-0.3158 0.87744,-0.27907 0.48505,0.0367 0.87295,0.24474 0.87111,0.49367 -0.001,0.24894 -0.39282,0.45356 -0.87838,0.48605 -0.48616,0.0325 -0.87458,-0.10699 -0.87324,-0.28668 8.73e-4,-0.18037 0.39179,-0.31577 0.87744,-0.27906 0.48504,0.036 0.87295,0.24475 0.87111,0.493 -10e-4,0.24894 -0.39282,0.45422 -0.87837,0.48606 -0.48616,0.0326 -0.87459,-0.1063 -0.87325,-0.28668 9e-4,-0.1797 0.3918,-0.31578 0.87745,-0.27907 0.48503,0.0367 0.87293,0.24475 0.87109,0.49369 -10e-4,0.24893 -0.39282,0.45355 -0.87838,0.48605 -0.48614,0.0326 -0.87457,-0.107 -0.87324,-0.28668 8.73e-4,-0.17971 0.3918,-0.31579 0.87744,-0.27905 0.48505,0.0367 0.87295,0.24474 0.87111,0.49365 -0.001,0.24894 -0.39282,0.45356 -0.87838,0.48605 -0.48616,0.0326 -0.87457,-0.10698 -0.87324,-0.28666 8.73e-4,-0.18038 0.3918,-0.31579 0.87744,-0.27907 0.48505,0.036 0.87295,0.24474 0.87111,0.49366 -10e-4,0.24893 -0.39282,0.45357 -0.87837,0.4854 -0.48616,0.0325 -0.87458,-0.10629 -0.87325,-0.28668 9e-4,-0.17971 0.3918,-0.31577 0.87744,-0.27906 0.48504,0.0367 0.87296,0.24474 0.87111,0.49367 -0.001,0.24894 -0.39282,0.45355 -0.87839,0.48606 -0.48614,0.0324 -0.87457,-0.107 -0.87323,-0.28668 8.73e-4,-0.17971 0.39179,-0.31579 0.87744,-0.27906 0.48504,0.0367 0.87295,0.24473 0.8711,0.49366 -0.001,0.24894 -0.39282,0.45356 -0.87837,0.48606 -0.48616,0.0324 -0.87458,-0.10699 -0.87325,-0.28668 8.73e-4,-0.18037 0.3918,-0.31579 0.87745,-0.27905 0.48504,0.036 0.87294,0.24473 0.8711,0.49366 -0.002,0.24891 -0.39282,0.45356 -0.87837,0.48538 -0.48615,0.0324 -0.87458,-0.10628 -0.87325,-0.28668 8.73e-4,-0.1797 0.39181,-0.31577 0.87744,-0.27906 0.48505,0.0367 0.87295,0.24476 0.87111,0.49368 -0.001,0.24893 -0.39282,0.45355 -0.87838,0.48605 -0.48615,0.0324 -0.87457,-0.10699 -0.87324,-0.28668 8.73e-4,-0.1797 0.3918,-0.31577 0.87744,-0.27905 0.48505,0.0367 0.87295,0.24474 0.87111,0.49366 -10e-4,0.24894 -0.39282,0.45356 -0.87839,0.48606 -0.48615,0.0325 -0.87456,-0.10699 -0.87323,-0.28668 8.73e-4,-0.18039 0.3918,-0.31578 0.87744,-0.27907 0.48504,0.036 0.87296,0.24475 0.8711,0.49367 -10e-4,0.24895 -0.39282,0.45356 -0.87838,0.48606 -0.48614,0.0318 -0.87456,-0.10699 -0.87324,-0.28734 8.73e-4,-0.1797 0.3918,-0.31578 0.87745,-0.27906 0.48505,0.0367 0.87295,0.24474 0.8711,0.49366 -0.001,0.24893 -0.39282,0.45357 -0.87837,0.48606 -0.48616,0.0326 -0.87457,-0.107 -0.87325,-0.28668 8.73e-4,-0.17971 0.39181,-0.31577 0.87745,-0.27905 0.48505,0.0367 0.87295,0.24474 0.8711,0.49367 -10e-4,0.24892 -0.39282,0.45354 -0.87837,0.48605 -0.48616,0.0324 -0.87458,-0.10699 -0.87325,-0.28668 8.73e-4,-0.18038 0.3918,-0.31578 0.87745,-0.27906 0.48504,0.036 0.87295,0.24475 0.8711,0.49367 -0.001,0.24893 -0.39282,0.45355 -0.87837,0.48604 -0.48616,0.0319 -0.87458,-0.10698 -0.87325,-0.28732 8.73e-4,-0.17972 0.3918,-0.31514 0.87745,-0.27907 0.48503,0.0367 0.87295,0.24475 0.87109,0.49366 -0.001,0.24895 -0.39282,0.45356 -0.87837,0.48606 -0.48615,0.0325 -0.87457,-0.10699 -0.87324,-0.28669 8.73e-4,-0.17968 0.3918,-0.31577 0.87745,-0.27905 0.48503,0.0367 0.87294,0.24474 0.87109,0.49366 -10e-4,0.24895 -0.39282,0.45355 -0.87837,0.48606 l -0.002,0.22363"
       style="fill:none;stroke:#000000;stroke-width:0.0646218;stroke-linecap:butt;stroke-linejoin:miter;stroke-miterlimit:10;stroke-opacity:1" />
    <circle
       style="fill:none;stroke:#000000;stroke-width:0.23;stroke-miterlimit:4;stroke-dasharray:none"
       id="path2247"
       cx="71.571152"
       cy="121.19565"
       r="2.0837901" />
    <path
       style="fill:none;stroke:#000000;stroke-width:0.264583px;stroke-linecap:butt;stroke-linejoin:miter;stroke-opacity:1"
       d="m 71.632643,108.5214 v 10.67649"
       id="path2249"
       sodipodi:nodetypes="cc" />
    <g
       id="g2379"
       ns1:jacobian_sqrt="0.352778"
       ns1:alignment="middle center"
       ns1:scale="1.0000000566928784"
       ns1:preamble="/Users/mbh/Library/Application Support/org.inkscape.Inkscape/config/inkscape/extensions/textext/default_packages.tex"
       ns1:text="$m$"
       ns1:pdfconverter="inkscape"
       ns1:texconverter="pdflatex"
       ns1:version="1.3.1"
       transform="matrix(0.35277801,0,0,0.35277801,70.120133,120.59732)">
      <defs
         id="id-4af98745-5580-4374-89d7-d33da015d8cf">
        <g
           id="g3172">
          <symbol
             overflow="visible"
             id="symbol3166">
            <path
               style="stroke:none;stroke-width:0"
               d=""
               id="path3164" />
          </symbol>
          <symbol
             overflow="visible"
             id="symbol3170">
            <path
               style="stroke:none;stroke-width:0"
               d="m 8.453125,-1.421875 c 0,-0.109375 -0.09375,-0.109375 -0.125,-0.109375 -0.09375,0 -0.09375,0.03125 -0.140625,0.1875 -0.15625,0.53125 -0.46875,1.234375 -1.015625,1.234375 -0.171875,0 -0.25,-0.09375 -0.25,-0.328125 0,-0.25 0.09375,-0.484375 0.1875,-0.703125 0.1875,-0.53125 0.609375,-1.625 0.609375,-2.203125 0,-0.640625 -0.40625,-1.0625 -1.15625,-1.0625 -0.734375,0 -1.25,0.4375 -1.625,0.96875 0,-0.125 -0.03125,-0.46875 -0.3125,-0.703125 -0.25,-0.21875 -0.5625,-0.265625 -0.8125,-0.265625 -0.90625,0 -1.390625,0.640625 -1.5625,0.875 -0.046875,-0.578125 -0.46875,-0.875 -0.921875,-0.875 -0.453125,0 -0.640625,0.390625 -0.734375,0.5625 -0.171875,0.359375 -0.296875,0.9375 -0.296875,0.96875 0,0.109375 0.109375,0.109375 0.109375,0.109375 0.109375,0 0.109375,-0.015625 0.171875,-0.234375 0.171875,-0.703125 0.375,-1.1875 0.734375,-1.1875 0.15625,0 0.296875,0.078125 0.296875,0.453125 0,0.21875 -0.03125,0.328125 -0.15625,0.84375 L 0.875,-0.59375 c -0.03125,0.15625 -0.09375,0.390625 -0.09375,0.4375 0,0.171875 0.140625,0.265625 0.296875,0.265625 0.125,0 0.296875,-0.078125 0.375,-0.28125 0,-0.015625 0.125,-0.484375 0.1875,-0.734375 l 0.21875,-0.890625 C 1.90625,-2.03125 1.96875,-2.25 2.03125,-2.46875 l 0.125,-0.5 c 0.140625,-0.3125 0.671875,-1.21875 1.625,-1.21875 0.453125,0 0.53125,0.375 0.53125,0.703125 0,0.25 -0.0625,0.53125 -0.140625,0.828125 L 3.890625,-1.5 C 3.78125,-1.140625 3.78125,-1.078125 3.6875,-0.75 c -0.03125,0.203125 -0.125,0.546875 -0.125,0.59375 0,0.171875 0.140625,0.265625 0.28125,0.265625 0.3125,0 0.375,-0.25 0.453125,-0.5625 l 0.59375,-2.40625 c 0.03125,-0.125 0.5625,-1.328125 1.65625,-1.328125 0.421875,0 0.53125,0.34375 0.53125,0.703125 0,0.5625 -0.421875,1.703125 -0.625,2.234375 -0.078125,0.234375 -0.125,0.34375 -0.125,0.546875 0,0.46875 0.34375,0.8125 0.8125,0.8125 0.9375,0 1.3125,-1.453125 1.3125,-1.53125 z m 0,0"
               id="path3168" />
          </symbol>
        </g>
      </defs>
      <g
         id="id-b8fa05c5-449c-4668-a40f-024c60e5c944"
         transform="translate(-149.009,-130.359)">
        <g
           style="fill:#000000;fill-opacity:1"
           id="id-a9387f26-b562-41bc-83c9-4433978187a3">
          <g
             id="g2375"
             transform="translate(148.712,134.765)">
            <path
               style="stroke:none;stroke-width:0"
               d="m 8.453125,-1.421875 c 0,-0.109375 -0.09375,-0.109375 -0.125,-0.109375 -0.09375,0 -0.09375,0.03125 -0.140625,0.1875 -0.15625,0.53125 -0.46875,1.234375 -1.015625,1.234375 -0.171875,0 -0.25,-0.09375 -0.25,-0.328125 0,-0.25 0.09375,-0.484375 0.1875,-0.703125 0.1875,-0.53125 0.609375,-1.625 0.609375,-2.203125 0,-0.640625 -0.40625,-1.0625 -1.15625,-1.0625 -0.734375,0 -1.25,0.4375 -1.625,0.96875 0,-0.125 -0.03125,-0.46875 -0.3125,-0.703125 -0.25,-0.21875 -0.5625,-0.265625 -0.8125,-0.265625 -0.90625,0 -1.390625,0.640625 -1.5625,0.875 -0.046875,-0.578125 -0.46875,-0.875 -0.921875,-0.875 -0.453125,0 -0.640625,0.390625 -0.734375,0.5625 -0.171875,0.359375 -0.296875,0.9375 -0.296875,0.96875 0,0.109375 0.109375,0.109375 0.109375,0.109375 0.109375,0 0.109375,-0.015625 0.171875,-0.234375 0.171875,-0.703125 0.375,-1.1875 0.734375,-1.1875 0.15625,0 0.296875,0.078125 0.296875,0.453125 0,0.21875 -0.03125,0.328125 -0.15625,0.84375 L 0.875,-0.59375 c -0.03125,0.15625 -0.09375,0.390625 -0.09375,0.4375 0,0.171875 0.140625,0.265625 0.296875,0.265625 0.125,0 0.296875,-0.078125 0.375,-0.28125 0,-0.015625 0.125,-0.484375 0.1875,-0.734375 l 0.21875,-0.890625 C 1.90625,-2.03125 1.96875,-2.25 2.03125,-2.46875 l 0.125,-0.5 c 0.140625,-0.3125 0.671875,-1.21875 1.625,-1.21875 0.453125,0 0.53125,0.375 0.53125,0.703125 0,0.25 -0.0625,0.53125 -0.140625,0.828125 L 3.890625,-1.5 C 3.78125,-1.140625 3.78125,-1.078125 3.6875,-0.75 c -0.03125,0.203125 -0.125,0.546875 -0.125,0.59375 0,0.171875 0.140625,0.265625 0.28125,0.265625 0.3125,0 0.375,-0.25 0.453125,-0.5625 l 0.59375,-2.40625 c 0.03125,-0.125 0.5625,-1.328125 1.65625,-1.328125 0.421875,0 0.53125,0.34375 0.53125,0.703125 0,0.5625 -0.421875,1.703125 -0.625,2.234375 -0.078125,0.234375 -0.125,0.34375 -0.125,0.546875 0,0.46875 0.34375,0.8125 0.8125,0.8125 0.9375,0 1.3125,-1.453125 1.3125,-1.53125 z m 0,0"
               id="id-c8ce091e-59eb-4663-9cf8-3ab4bd5f2229" />
          </g>
        </g>
      </g>
    </g>
    <g
       id="g2463"
       ns1:jacobian_sqrt="0.352778"
       ns1:alignment="middle center"
       ns1:scale="1.0000000566928784"
       ns1:preamble="/Users/mbh/Library/Application Support/org.inkscape.Inkscape/config/inkscape/extensions/textext/default_packages.tex"
       ns1:text="$k$"
       ns1:pdfconverter="inkscape"
       ns1:texconverter="pdflatex"
       ns1:version="1.3.1"
       transform="matrix(0.35277801,0,0,0.35277801,73.579062,125.53001)">
      <defs
         id="id-b23d141a-0c1d-4b73-a67a-028f9871773c">
        <g
           id="g3188">
          <symbol
             overflow="visible"
             id="symbol3182">
            <path
               style="stroke:none;stroke-width:0"
               d=""
               id="path3180" />
          </symbol>
          <symbol
             overflow="visible"
             id="symbol3186">
            <path
               style="stroke:none;stroke-width:0"
               d="m 4.890625,-1.421875 c 0,-0.109375 -0.09375,-0.109375 -0.125,-0.109375 -0.09375,0 -0.109375,0.046875 -0.140625,0.1875 -0.203125,0.71875 -0.421875,1.234375 -0.859375,1.234375 -0.203125,0 -0.328125,-0.109375 -0.328125,-0.46875 0,-0.171875 0.046875,-0.40625 0.078125,-0.5625 C 3.5625,-1.3125 3.5625,-1.34375 3.5625,-1.453125 3.5625,-2.09375 2.9375,-2.375 2.078125,-2.5 2.390625,-2.671875 2.71875,-2.984375 2.9375,-3.234375 3.421875,-3.765625 3.875,-4.1875 4.359375,-4.1875 c 0.0625,0 0.078125,0 0.09375,0.015625 0.125,0.015625 0.125,0.015625 0.21875,0.078125 0.015625,0 0.015625,0.015625 0.03125,0.03125 -0.46875,0.03125 -0.5625,0.421875 -0.5625,0.546875 0,0.15625 0.109375,0.34375 0.375,0.34375 0.265625,0 0.546875,-0.21875 0.546875,-0.609375 0,-0.296875 -0.234375,-0.625 -0.671875,-0.625 -0.28125,0 -0.734375,0.078125 -1.453125,0.875 -0.34375,0.375 -0.734375,0.78125 -1.109375,0.921875 L 2.859375,-6.8125 c 0,0 0,-0.109375 -0.125,-0.109375 -0.234375,0 -0.953125,0.078125 -1.21875,0.109375 -0.078125,0 -0.1875,0.015625 -0.1875,0.1875 0,0.125 0.09375,0.125 0.234375,0.125 0.484375,0 0.5,0.0625 0.5,0.171875 L 2.03125,-6.125 0.59375,-0.390625 c -0.046875,0.140625 -0.046875,0.15625 -0.046875,0.21875 0,0.234375 0.203125,0.28125 0.296875,0.28125 0.125,0 0.265625,-0.09375 0.328125,-0.203125 0.046875,-0.09375 0.5,-1.9375 0.5625,-2.1875 0.34375,0.03125 1.15625,0.1875 1.15625,0.84375 0,0.078125 0,0.109375 -0.03125,0.21875 -0.015625,0.109375 -0.03125,0.234375 -0.03125,0.34375 0,0.578125 0.390625,0.984375 0.90625,0.984375 0.296875,0 0.578125,-0.15625 0.796875,-0.53125 0.25,-0.4375 0.359375,-1 0.359375,-1 z m 0,0"
               id="path3184" />
          </symbol>
        </g>
      </defs>
      <g
         id="id-2612e960-5afd-4870-810c-670ff8722fa0"
         transform="translate(-149.259,-127.843)">
        <g
           style="fill:#000000;fill-opacity:1"
           id="id-9465e738-0676-4425-94f5-17bbf2c8f248">
          <g
             id="g2459"
             transform="translate(148.712,134.765)">
            <path
               style="stroke:none;stroke-width:0"
               d="m 4.890625,-1.421875 c 0,-0.109375 -0.09375,-0.109375 -0.125,-0.109375 -0.09375,0 -0.109375,0.046875 -0.140625,0.1875 -0.203125,0.71875 -0.421875,1.234375 -0.859375,1.234375 -0.203125,0 -0.328125,-0.109375 -0.328125,-0.46875 0,-0.171875 0.046875,-0.40625 0.078125,-0.5625 C 3.5625,-1.3125 3.5625,-1.34375 3.5625,-1.453125 3.5625,-2.09375 2.9375,-2.375 2.078125,-2.5 2.390625,-2.671875 2.71875,-2.984375 2.9375,-3.234375 3.421875,-3.765625 3.875,-4.1875 4.359375,-4.1875 c 0.0625,0 0.078125,0 0.09375,0.015625 0.125,0.015625 0.125,0.015625 0.21875,0.078125 0.015625,0 0.015625,0.015625 0.03125,0.03125 -0.46875,0.03125 -0.5625,0.421875 -0.5625,0.546875 0,0.15625 0.109375,0.34375 0.375,0.34375 0.265625,0 0.546875,-0.21875 0.546875,-0.609375 0,-0.296875 -0.234375,-0.625 -0.671875,-0.625 -0.28125,0 -0.734375,0.078125 -1.453125,0.875 -0.34375,0.375 -0.734375,0.78125 -1.109375,0.921875 L 2.859375,-6.8125 c 0,0 0,-0.109375 -0.125,-0.109375 -0.234375,0 -0.953125,0.078125 -1.21875,0.109375 -0.078125,0 -0.1875,0.015625 -0.1875,0.1875 0,0.125 0.09375,0.125 0.234375,0.125 0.484375,0 0.5,0.0625 0.5,0.171875 L 2.03125,-6.125 0.59375,-0.390625 c -0.046875,0.140625 -0.046875,0.15625 -0.046875,0.21875 0,0.234375 0.203125,0.28125 0.296875,0.28125 0.125,0 0.265625,-0.09375 0.328125,-0.203125 0.046875,-0.09375 0.5,-1.9375 0.5625,-2.1875 0.34375,0.03125 1.15625,0.1875 1.15625,0.84375 0,0.078125 0,0.109375 -0.03125,0.21875 -0.015625,0.109375 -0.03125,0.234375 -0.03125,0.34375 0,0.578125 0.390625,0.984375 0.90625,0.984375 0.296875,0 0.578125,-0.15625 0.796875,-0.53125 0.25,-0.4375 0.359375,-1 0.359375,-1 z m 0,0"
               id="id-ce3a3c44-376f-4df0-be36-39ef0334296e" />
          </g>
        </g>
      </g>
    </g>
    <path
       sodipodi:nodetypes="cc"
       id="path3196"
       d="m 67.629809,108.47942 h 7.95382"
       style="fill:none;stroke:#000000;stroke-width:0.264583px;stroke-linecap:butt;stroke-linejoin:miter;stroke-opacity:1" />
    <path
       id="path3198"
       d="m 68.158976,108.47942 1.57558,-1.57558"
       style="fill:none;stroke:#000000;stroke-width:0.264583px;stroke-linecap:butt;stroke-linejoin:miter;stroke-opacity:1" />
    <path
       style="fill:none;stroke:#000000;stroke-width:0.264583px;stroke-linecap:butt;stroke-linejoin:miter;stroke-opacity:1"
       d="m 69.746478,108.47942 1.575579,-1.57558"
       id="path3198-8" />
    <path
       style="fill:none;stroke:#000000;stroke-width:0.264583px;stroke-linecap:butt;stroke-linejoin:miter;stroke-opacity:1"
       d="m 71.333978,108.47942 1.57558,-1.57558"
       id="path3198-6" />
    <path
       style="fill:none;stroke:#000000;stroke-width:0.264583px;stroke-linecap:butt;stroke-linejoin:miter;stroke-opacity:1"
       d="m 72.921479,108.47942 1.57558,-1.57558"
       id="path3198-9" />
    <path
       style="fill:none;stroke:#000000;stroke-width:0.264583px;stroke-linecap:butt;stroke-linejoin:miter;stroke-opacity:1"
       d="m 74.50898,108.47942 1.57558,-1.57558"
       id="path3198-0" />
  </g>
</svg>
