<?xml version="1.0" encoding="UTF-8" standalone="no"?>
<svg
   xmlns:ns1="http://www.iki.fi/pav/software/textext/"
   xmlns:dc="http://purl.org/dc/elements/1.1/"
   xmlns:cc="http://creativecommons.org/ns#"
   xmlns:rdf="http://www.w3.org/1999/02/22-rdf-syntax-ns#"
   xmlns:svg="http://www.w3.org/2000/svg"
   xmlns="http://www.w3.org/2000/svg"
   xmlns:sodipodi="http://sodipodi.sourceforge.net/DTD/sodipodi-0.dtd"
   xmlns:inkscape="http://www.inkscape.org/namespaces/inkscape"
   sodipodi:docname="exam-torque.svg"
   inkscape:version="1.0 (4035a4f, 2020-05-01)"
   width="210mm"
   height="297mm"
   viewBox="0 0 210 297"
   version="1.1"
   id="svg6671">
  <defs
     id="defs6665" />
  <sodipodi:namedview
     inkscape:window-maximized="0"
     inkscape:window-y="25"
     inkscape:window-x="80"
     inkscape:window-height="847"
     inkscape:window-width="1252"
     showgrid="false"
     inkscape:document-rotation="0"
     inkscape:current-layer="layer1"
     inkscape:document-units="mm"
     inkscape:cy="322.72516"
     inkscape:cx="210.54746"
     inkscape:zoom="3.0872173"
     inkscape:pageshadow="2"
     inkscape:pageopacity="0.0"
     borderopacity="1.0"
     bordercolor="#666666"
     pagecolor="#ffffff"
     id="base" />
  <metadata
     id="metadata6668">
    <rdf:RDF>
      <cc:Work
         rdf:about="">
        <dc:format>image/svg+xml</dc:format>
        <dc:type
           rdf:resource="http://purl.org/dc/dcmitype/StillImage" />
        <dc:title></dc:title>
      </cc:Work>
    </rdf:RDF>
  </metadata>
  <g
     id="layer1"
     inkscape:groupmode="layer"
     inkscape:label="Layer 1">
    <path
       id="path7234"
       d="M 40.233914,67.853951 40.016432,97.648796"
       style="fill:none;stroke:#000000;stroke-width:0.264583px;stroke-linecap:butt;stroke-linejoin:miter;stroke-opacity:1" />
    <path
       d="m 40.033507,80.668145 a 1.7365826,1.4432508 0 0 1 1.671686,0.597653 1.7365826,1.4432508 0 0 1 0.111957,1.509547 1.7365826,1.4432508 0 0 1 -1.570715,0.763752"
       sodipodi:arc-type="arc"
       sodipodi:open="true"
       sodipodi:end="1.5929196"
       sodipodi:start="4.5671442"
       sodipodi:ry="1.4432508"
       sodipodi:rx="1.7365826"
       sodipodi:cy="82.096199"
       sodipodi:cx="40.284851"
       sodipodi:type="arc"
       id="path7236"
       style="fill:none;stroke:#000000;stroke-width:0.3;stroke-miterlimit:4;stroke-dasharray:none;stroke-dashoffset:0;stroke-opacity:1" />
    <path
       id="path7238"
       d="M 40.047444,80.65076 H 60.915623"
       style="fill:none;stroke:#000000;stroke-width:0.264583px;stroke-linecap:butt;stroke-linejoin:miter;stroke-opacity:1" />
    <path
       sodipodi:nodetypes="cc"
       style="fill:none;stroke:#000000;stroke-width:0.264583px;stroke-linecap:butt;stroke-linejoin:miter;stroke-opacity:1"
       d="m 40.204618,83.556662 h 20.70012"
       id="path7238-8" />
    <ellipse
       ry="0.2670629"
       rx="0.25037149"
       cy="82.155228"
       cx="40.910698"
       id="path7259"
       style="fill:#000000;fill-opacity:1;stroke:#000000;stroke-width:0.3;stroke-miterlimit:4;stroke-dasharray:none;stroke-dashoffset:0;stroke-opacity:1" />
    <path
       id="path7261"
       d="m 37.962199,71.368935 2.151192,-1.391946"
       style="fill:none;stroke:#000000;stroke-width:0.264583px;stroke-linecap:butt;stroke-linejoin:miter;stroke-opacity:1" />
    <path
       style="fill:none;stroke:#000000;stroke-width:0.264583px;stroke-linecap:butt;stroke-linejoin:miter;stroke-opacity:1"
       d="m 37.962199,74.543937 2.151192,-1.391946"
       id="path7261-0" />
    <path
       style="fill:none;stroke:#000000;stroke-width:0.264583px;stroke-linecap:butt;stroke-linejoin:miter;stroke-opacity:1"
       d="m 37.962199,77.718939 2.151192,-1.391946"
       id="path7261-3" />
    <path
       id="path7261-0-8"
       d="m 37.962199,80.893942 2.151192,-1.391947"
       style="fill:none;stroke:#000000;stroke-width:0.264583px;stroke-linecap:butt;stroke-linejoin:miter;stroke-opacity:1" />
    <path
       style="fill:none;stroke:#000000;stroke-width:0.264583px;stroke-linecap:butt;stroke-linejoin:miter;stroke-opacity:1"
       d="m 37.962199,84.068943 2.151192,-1.391946"
       id="path7261-09" />
    <path
       id="path7261-0-3"
       d="m 37.962199,87.243945 2.151192,-1.391946"
       style="fill:none;stroke:#000000;stroke-width:0.264583px;stroke-linecap:butt;stroke-linejoin:miter;stroke-opacity:1" />
    <path
       id="path7261-09-4"
       d="m 37.962199,90.418947 2.151192,-1.391946"
       style="fill:none;stroke:#000000;stroke-width:0.264583px;stroke-linecap:butt;stroke-linejoin:miter;stroke-opacity:1" />
    <path
       style="fill:none;stroke:#000000;stroke-width:0.264583px;stroke-linecap:butt;stroke-linejoin:miter;stroke-opacity:1"
       d="m 37.962199,93.593949 2.151192,-1.391946"
       id="path7261-0-3-4" />
    <path
       id="path7261-0-3-4-0"
       d="m 37.962199,96.768951 2.151192,-1.391946"
       style="fill:none;stroke:#000000;stroke-width:0.264583px;stroke-linecap:butt;stroke-linejoin:miter;stroke-opacity:1" />
    <path
       sodipodi:nodetypes="cc"
       id="path7337"
       d="m 60.915623,80.514591 v 3.172685"
       style="fill:none;stroke:#000000;stroke-width:0.264583px;stroke-linecap:butt;stroke-linejoin:miter;stroke-opacity:1" />
    <path
       style="fill:none;stroke:#000000;stroke-width:0.264583px;stroke-linecap:butt;stroke-linejoin:miter;stroke-opacity:1"
       d="m 68.567886,67.853951 0.217482,29.794848"
       id="path7234-7" />
    <path
       style="fill:none;stroke:#000000;stroke-width:0.264583px;stroke-linecap:butt;stroke-linejoin:miter;stroke-opacity:1"
       d="M 70.839601,71.368935 68.688409,69.976989"
       id="path7261-1" />
    <path
       id="path7261-0-0"
       d="M 70.839601,74.543937 68.688409,73.151991"
       style="fill:none;stroke:#000000;stroke-width:0.264583px;stroke-linecap:butt;stroke-linejoin:miter;stroke-opacity:1" />
    <path
       id="path7261-3-6"
       d="M 70.839601,77.718939 68.688409,76.326993"
       style="fill:none;stroke:#000000;stroke-width:0.264583px;stroke-linecap:butt;stroke-linejoin:miter;stroke-opacity:1" />
    <path
       style="fill:none;stroke:#000000;stroke-width:0.264583px;stroke-linecap:butt;stroke-linejoin:miter;stroke-opacity:1"
       d="M 70.839601,80.893943 68.688409,79.501996"
       id="path7261-0-8-0" />
    <path
       id="path7261-09-3"
       d="M 70.839601,84.068944 68.688409,82.676998"
       style="fill:none;stroke:#000000;stroke-width:0.264583px;stroke-linecap:butt;stroke-linejoin:miter;stroke-opacity:1" />
    <path
       style="fill:none;stroke:#000000;stroke-width:0.264583px;stroke-linecap:butt;stroke-linejoin:miter;stroke-opacity:1"
       d="M 70.839601,87.243946 68.688409,85.852"
       id="path7261-0-3-3" />
    <path
       style="fill:none;stroke:#000000;stroke-width:0.264583px;stroke-linecap:butt;stroke-linejoin:miter;stroke-opacity:1"
       d="M 70.839601,90.418949 68.688409,89.027002"
       id="path7261-09-4-5" />
    <path
       id="path7261-0-3-4-02"
       d="m 70.839601,93.593949 -2.151192,-1.39195"
       style="fill:none;stroke:#000000;stroke-width:0.264583px;stroke-linecap:butt;stroke-linejoin:miter;stroke-opacity:1" />
    <path
       style="fill:none;stroke:#000000;stroke-width:0.264583px;stroke-linecap:butt;stroke-linejoin:miter;stroke-opacity:1"
       d="m 70.839601,96.768949 -2.151192,-1.39194"
       id="path7261-0-3-4-0-3" />
    <path
       id="path7381"
       d="m 60.904738,81.969161 7.661175,-9.221256"
       style="fill:none;stroke:#000000;stroke-width:0.3;stroke-linecap:butt;stroke-linejoin:miter;stroke-miterlimit:4;stroke-dasharray:none;stroke-opacity:1" />
    <path
       id="path7383"
       d="m 61.433905,81.969159 h 4.657574"
       style="fill:none;stroke:#000000;stroke-width:0.264583;stroke-linecap:butt;stroke-linejoin:miter;stroke-miterlimit:4;stroke-dasharray:0.529166, 1.05833;stroke-dashoffset:0;stroke-opacity:1" />
    <path
       id="path7385"
       d="m 62.074834,80.613839 c 0.5211,0.272005 0.467186,0.92003 0.399079,1.396775"
       style="fill:none;stroke:#000000;stroke-width:0.264583px;stroke-linecap:butt;stroke-linejoin:miter;stroke-opacity:1" />
    <g
       transform="matrix(0.352778,0,0,0.352778,63.507585,78.8692)"
       ns1:version="1.3.1"
       ns1:texconverter="pdflatex"
       ns1:pdfconverter="inkscape"
       ns1:text="$\\ang{50}$"
       ns1:preamble="/Users/mbh/Library/Application Support/org.inkscape.Inkscape/config/inkscape/extensions/textext/default_packages.tex"
       ns1:scale="1.0000000283464388"
       ns1:alignment="middle center"
       ns1:jacobian_sqrt="0.352778"
       id="g7497">
      <defs
         id="id-2c1ee3fb-73f3-4888-ae2f-4f6b82c612e4">
        <g
           id="id-8e71ef85-d66b-4303-a78e-409b96b388d4">
          <symbol
             id="id-82728c65-ef6b-46da-8584-28acb5d9f3ba"
             overflow="visible">
            <path
               id="id-e50c6e32-84c5-48c4-b3b1-0c3005a7688f"
               d=""
               style="stroke:none;stroke-width:0" />
          </symbol>
          <symbol
             id="id-e81a5c5c-c9cc-46d1-ab36-81893ba2fb13"
             overflow="visible">
            <path
               id="id-3aa4a9a2-7462-4aea-a815-74de3cc012e6"
               d="m 4.46875,-2 c 0,-1.1875 -0.8125,-2.1875 -1.890625,-2.1875 -0.46875,0 -0.90625,0.15625 -1.265625,0.515625 V -5.625 c 0.203125,0.0625 0.53125,0.125 0.84375,0.125 1.234375,0 1.9375,-0.90625 1.9375,-1.03125 0,-0.0625 -0.03125,-0.109375 -0.109375,-0.109375 0,0 -0.03125,0 -0.078125,0.03125 C 3.703125,-6.515625 3.21875,-6.3125 2.546875,-6.3125 2.15625,-6.3125 1.6875,-6.390625 1.21875,-6.59375 1.140625,-6.625 1.109375,-6.625 1.109375,-6.625 1,-6.625 1,-6.546875 1,-6.390625 V -3.4375 c 0,0.171875 0,0.25 0.140625,0.25 0.078125,0 0.09375,-0.015625 0.140625,-0.078125 C 1.390625,-3.421875 1.75,-3.96875 2.5625,-3.96875 c 0.515625,0 0.765625,0.453125 0.84375,0.640625 0.15625,0.375 0.1875,0.75 0.1875,1.25 0,0.359375 0,0.953125 -0.25,1.375 C 3.109375,-0.3125 2.734375,-0.0625 2.28125,-0.0625 c -0.71875,0 -1.296875,-0.53125 -1.46875,-1.109375 0.03125,0 0.0625,0.015625 0.171875,0.015625 0.328125,0 0.5,-0.25 0.5,-0.484375 0,-0.25 -0.171875,-0.5 -0.5,-0.5 C 0.84375,-2.140625 0.5,-2.0625 0.5,-1.609375 0.5,-0.75 1.1875,0.21875 2.296875,0.21875 3.453125,0.21875 4.46875,-0.734375 4.46875,-2 Z m 0,0"
               style="stroke:none;stroke-width:0" />
          </symbol>
          <symbol
             id="id-d8255d56-132c-4452-a38f-49406a16e5ce"
             overflow="visible">
            <path
               id="id-fe871f0f-c262-471f-8691-3bddd33769e6"
               d="m 4.578125,-3.1875 c 0,-0.796875 -0.046875,-1.59375 -0.390625,-2.328125 -0.453125,-0.96875 -1.28125,-1.125 -1.6875,-1.125 -0.609375,0 -1.328125,0.265625 -1.75,1.1875 -0.3125,0.6875 -0.359375,1.46875 -0.359375,2.265625 0,0.75 0.03125,1.640625 0.453125,2.40625 0.421875,0.796875 1.15625,1 1.640625,1 0.53125,0 1.296875,-0.203125 1.734375,-1.15625 0.3125,-0.6875 0.359375,-1.46875 0.359375,-2.25 z m -0.8125,-0.125 c 0,0.75 0,1.421875 -0.109375,2.0625 C 3.5,-0.296875 2.9375,0 2.484375,0 2.09375,0 1.5,-0.25 1.328125,-1.203125 1.21875,-1.796875 1.21875,-2.71875 1.21875,-3.3125 c 0,-0.640625 0,-1.296875 0.078125,-1.828125 0.1875,-1.1875 0.9375,-1.28125 1.1875,-1.28125 0.328125,0 0.984375,0.1875 1.171875,1.171875 0.109375,0.5625 0.109375,1.3125 0.109375,1.9375 z m 0,0"
               style="stroke:none;stroke-width:0" />
          </symbol>
          <symbol
             id="id-3bf0ade5-4ab2-492b-829e-02f86fa311c9"
             overflow="visible">
            <path
               id="id-9a0ed558-c1b4-49cd-9497-ca3aa664421a"
               d="M 3.25,-5.421875 C 3.25,-6.1875 2.625,-6.8125 1.875,-6.8125 c -0.765625,0 -1.390625,0.625 -1.390625,1.390625 0,0.75 0.625,1.375 1.390625,1.375 0.75,0 1.375,-0.625 1.375,-1.375 z m -0.40625,0 c 0,0.53125 -0.4375,0.96875 -0.96875,0.96875 -0.546875,0 -0.984375,-0.4375 -0.984375,-0.96875 0,-0.546875 0.4375,-0.984375 0.984375,-0.984375 0.53125,0 0.96875,0.4375 0.96875,0.984375 z m 0,0"
               style="stroke:none;stroke-width:0" />
          </symbol>
        </g>
      </defs>
      <g
         transform="translate(-149.212,-127.953)"
         id="id-35c1763c-f077-4b2e-a579-acc5023477a4">
        <g
           id="id-0ece1176-12d6-49d9-95a0-dc1fca4cef52"
           style="fill:#000000;fill-opacity:1">
          <g
             transform="translate(148.712,134.765)"
             id="g7486">
            <path
               id="id-6b9c3adc-b938-4dd7-a28f-1b26dec7deae"
               d="m 4.46875,-2 c 0,-1.1875 -0.8125,-2.1875 -1.890625,-2.1875 -0.46875,0 -0.90625,0.15625 -1.265625,0.515625 V -5.625 c 0.203125,0.0625 0.53125,0.125 0.84375,0.125 1.234375,0 1.9375,-0.90625 1.9375,-1.03125 0,-0.0625 -0.03125,-0.109375 -0.109375,-0.109375 0,0 -0.03125,0 -0.078125,0.03125 C 3.703125,-6.515625 3.21875,-6.3125 2.546875,-6.3125 2.15625,-6.3125 1.6875,-6.390625 1.21875,-6.59375 1.140625,-6.625 1.109375,-6.625 1.109375,-6.625 1,-6.625 1,-6.546875 1,-6.390625 V -3.4375 c 0,0.171875 0,0.25 0.140625,0.25 0.078125,0 0.09375,-0.015625 0.140625,-0.078125 C 1.390625,-3.421875 1.75,-3.96875 2.5625,-3.96875 c 0.515625,0 0.765625,0.453125 0.84375,0.640625 0.15625,0.375 0.1875,0.75 0.1875,1.25 0,0.359375 0,0.953125 -0.25,1.375 C 3.109375,-0.3125 2.734375,-0.0625 2.28125,-0.0625 c -0.71875,0 -1.296875,-0.53125 -1.46875,-1.109375 0.03125,0 0.0625,0.015625 0.171875,0.015625 0.328125,0 0.5,-0.25 0.5,-0.484375 0,-0.25 -0.171875,-0.5 -0.5,-0.5 C 0.84375,-2.140625 0.5,-2.0625 0.5,-1.609375 0.5,-0.75 1.1875,0.21875 2.296875,0.21875 3.453125,0.21875 4.46875,-0.734375 4.46875,-2 Z m 0,0"
               style="stroke:none;stroke-width:0" />
          </g>
          <g
             transform="translate(153.693,134.765)"
             id="g7489">
            <path
               id="id-299d3956-bdcf-4f17-bc9c-d31113deed1b"
               d="m 4.578125,-3.1875 c 0,-0.796875 -0.046875,-1.59375 -0.390625,-2.328125 -0.453125,-0.96875 -1.28125,-1.125 -1.6875,-1.125 -0.609375,0 -1.328125,0.265625 -1.75,1.1875 -0.3125,0.6875 -0.359375,1.46875 -0.359375,2.265625 0,0.75 0.03125,1.640625 0.453125,2.40625 0.421875,0.796875 1.15625,1 1.640625,1 0.53125,0 1.296875,-0.203125 1.734375,-1.15625 0.3125,-0.6875 0.359375,-1.46875 0.359375,-2.25 z m -0.8125,-0.125 c 0,0.75 0,1.421875 -0.109375,2.0625 C 3.5,-0.296875 2.9375,0 2.484375,0 2.09375,0 1.5,-0.25 1.328125,-1.203125 1.21875,-1.796875 1.21875,-2.71875 1.21875,-3.3125 c 0,-0.640625 0,-1.296875 0.078125,-1.828125 0.1875,-1.1875 0.9375,-1.28125 1.1875,-1.28125 0.328125,0 0.984375,0.1875 1.171875,1.171875 0.109375,0.5625 0.109375,1.3125 0.109375,1.9375 z m 0,0"
               style="stroke:none;stroke-width:0" />
          </g>
        </g>
        <g
           id="id-b87916aa-c15d-46fc-acd0-6d4c60a1d437"
           style="fill:#000000;fill-opacity:1">
          <g
             transform="translate(158.675,134.765)"
             id="g7493">
            <path
               id="id-4aedc64c-1fd8-4626-96cd-f59b3eef0ea7"
               d="M 3.25,-5.421875 C 3.25,-6.1875 2.625,-6.8125 1.875,-6.8125 c -0.765625,0 -1.390625,0.625 -1.390625,1.390625 0,0.75 0.625,1.375 1.390625,1.375 0.75,0 1.375,-0.625 1.375,-1.375 z m -0.40625,0 c 0,0.53125 -0.4375,0.96875 -0.96875,0.96875 -0.546875,0 -0.984375,-0.4375 -0.984375,-0.96875 0,-0.546875 0.4375,-0.984375 0.984375,-0.984375 0.53125,0 0.96875,0.4375 0.96875,0.984375 z m 0,0"
               style="stroke:none;stroke-width:0" />
          </g>
        </g>
      </g>
    </g>
    <g
       transform="matrix(0.352778,0,0,0.352778,47.027469,76.8377)"
       ns1:version="1.3.1"
       ns1:texconverter="pdflatex"
       ns1:pdfconverter="inkscape"
       ns1:text="$\\SI{3.0}{m}$"
       ns1:preamble="/Users/mbh/Library/Application Support/org.inkscape.Inkscape/config/inkscape/extensions/textext/default_packages.tex"
       ns1:scale="1.0000000283464388"
       ns1:alignment="middle center"
       ns1:jacobian_sqrt="0.352778"
       id="g7603">
      <defs
         id="id-e167b4d3-5e81-4854-93c1-652d40196999">
        <g
           id="id-1285309e-f25a-4c05-8e89-313bf0d31b41">
          <symbol
             id="id-03365be3-7c20-40f5-8c4f-d4a1f040fd14"
             overflow="visible">
            <path
               id="id-3822de02-372f-4fd1-8a44-27b010358e08"
               d=""
               style="stroke:none;stroke-width:0" />
          </symbol>
          <symbol
             id="id-1a41334c-ddf0-4f1e-8d1d-f7ef95a290a9"
             overflow="visible">
            <path
               id="id-ba9d1f3a-ad26-4195-8ed1-c94d6a89ac5f"
               d="m 4.5625,-1.703125 c 0,-0.8125 -0.640625,-1.59375 -1.671875,-1.8125 0.8125,-0.265625 1.390625,-0.953125 1.390625,-1.75 0,-0.8125 -0.875,-1.375 -1.828125,-1.375 -1,0 -1.765625,0.59375 -1.765625,1.359375 0,0.328125 0.21875,0.515625 0.515625,0.515625 0.296875,0 0.5,-0.21875 0.5,-0.515625 0,-0.484375 -0.46875,-0.484375 -0.609375,-0.484375 0.296875,-0.5 0.953125,-0.625 1.3125,-0.625 0.421875,0 0.96875,0.21875 0.96875,1.109375 0,0.125 -0.03125,0.703125 -0.28125,1.140625 C 2.796875,-3.65625 2.453125,-3.625 2.203125,-3.625 2.125,-3.609375 1.890625,-3.59375 1.8125,-3.59375 c -0.078125,0.015625 -0.140625,0.03125 -0.140625,0.125 0,0.109375 0.0625,0.109375 0.234375,0.109375 h 0.4375 c 0.8125,0 1.1875,0.671875 1.1875,1.65625 0,1.359375 -0.6875,1.640625 -1.125,1.640625 -0.4375,0 -1.1875,-0.171875 -1.53125,-0.75 0.34375,0.046875 0.65625,-0.171875 0.65625,-0.546875 0,-0.359375 -0.265625,-0.5625 -0.546875,-0.5625 -0.25,0 -0.5625,0.140625 -0.5625,0.578125 0,0.90625 0.921875,1.5625 2.015625,1.5625 1.21875,0 2.125,-0.90625 2.125,-1.921875 z m 0,0"
               style="stroke:none;stroke-width:0" />
          </symbol>
          <symbol
             id="id-6d2e19e1-1f47-4210-a9f4-a6dcf33239e8"
             overflow="visible">
            <path
               id="id-e7fa6d4a-0560-475a-9b4f-4479b9dbfea3"
               d="m 4.578125,-3.1875 c 0,-0.796875 -0.046875,-1.59375 -0.390625,-2.328125 -0.453125,-0.96875 -1.28125,-1.125 -1.6875,-1.125 -0.609375,0 -1.328125,0.265625 -1.75,1.1875 -0.3125,0.6875 -0.359375,1.46875 -0.359375,2.265625 0,0.75 0.03125,1.640625 0.453125,2.40625 0.421875,0.796875 1.15625,1 1.640625,1 0.53125,0 1.296875,-0.203125 1.734375,-1.15625 0.3125,-0.6875 0.359375,-1.46875 0.359375,-2.25 z m -0.8125,-0.125 c 0,0.75 0,1.421875 -0.109375,2.0625 C 3.5,-0.296875 2.9375,0 2.484375,0 2.09375,0 1.5,-0.25 1.328125,-1.203125 1.21875,-1.796875 1.21875,-2.71875 1.21875,-3.3125 c 0,-0.640625 0,-1.296875 0.078125,-1.828125 0.1875,-1.1875 0.9375,-1.28125 1.1875,-1.28125 0.328125,0 0.984375,0.1875 1.171875,1.171875 0.109375,0.5625 0.109375,1.3125 0.109375,1.9375 z m 0,0"
               style="stroke:none;stroke-width:0" />
          </symbol>
          <symbol
             id="id-dcf919c5-0a0e-4037-b50d-7cf7d678a573"
             overflow="visible">
            <path
               id="id-08e8d727-73ba-4232-9a20-40259a0528e0"
               d="m 8.109375,0 v -0.3125 c -0.515625,0 -0.765625,0 -0.78125,-0.296875 v -1.90625 c 0,-0.859375 0,-1.15625 -0.3125,-1.515625 -0.140625,-0.171875 -0.46875,-0.375 -1.046875,-0.375 -0.828125,0 -1.28125,0.59375 -1.4375,0.984375 C 4.390625,-4.296875 3.65625,-4.40625 3.203125,-4.40625 2.46875,-4.40625 2,-3.984375 1.71875,-3.359375 V -4.40625 L 0.3125,-4.296875 v 0.3125 c 0.703125,0 0.78125,0.0625 0.78125,0.5625 V -0.75 c 0,0.4375 -0.109375,0.4375 -0.78125,0.4375 V 0 L 1.453125,-0.03125 2.5625,0 v -0.3125 c -0.671875,0 -0.78125,0 -0.78125,-0.4375 V -2.59375 C 1.78125,-3.625 2.5,-4.1875 3.125,-4.1875 c 0.640625,0 0.75,0.53125 0.75,1.109375 V -0.75 c 0,0.4375 -0.109375,0.4375 -0.78125,0.4375 V 0 L 4.21875,-0.03125 5.328125,0 v -0.3125 c -0.65625,0 -0.765625,0 -0.765625,-0.4375 v -1.84375 c 0,-1.03125 0.703125,-1.59375 1.34375,-1.59375 0.625,0 0.734375,0.53125 0.734375,1.109375 V -0.75 c 0,0.4375 -0.109375,0.4375 -0.78125,0.4375 V 0 l 1.125,-0.03125 z m 0,0"
               style="stroke:none;stroke-width:0" />
          </symbol>
          <symbol
             id="id-ee9f6c8d-7ebc-46e1-9f5e-6288c279aca7"
             overflow="visible">
            <path
               id="id-ecf13275-28fd-4a23-ab75-0319a7a80053"
               d=""
               style="stroke:none;stroke-width:0" />
          </symbol>
          <symbol
             id="id-4e210d83-33c8-4408-841b-4e32e20ffcdc"
             overflow="visible">
            <path
               id="id-c64f20d1-1f29-4d7a-8837-89f4f628e830"
               d="m 2.03125,-0.015625 c 0,-0.65625 -0.25,-1.046875 -0.640625,-1.046875 -0.328125,0 -0.53125,0.25 -0.53125,0.53125 C 0.859375,-0.265625 1.0625,0 1.390625,0 1.5,0 1.640625,-0.046875 1.734375,-0.125 1.765625,-0.15625 1.78125,-0.15625 1.78125,-0.15625 c 0,0 0.015625,0 0.015625,0.140625 0,0.75 -0.34375,1.34375 -0.671875,1.671875 -0.109375,0.109375 -0.109375,0.125 -0.109375,0.15625 0,0.078125 0.046875,0.109375 0.09375,0.109375 0.109375,0 0.921875,-0.765625 0.921875,-1.9375 z m 0,0"
               style="stroke:none;stroke-width:0" />
          </symbol>
        </g>
      </defs>
      <g
         transform="translate(-149.134,-128.124)"
         id="id-e36a9f8d-a1a4-40b5-b237-2207414f610f">
        <g
           id="id-0728bdd0-20c6-499d-92c7-0ace230e5df2"
           style="fill:#000000;fill-opacity:1">
          <g
             transform="translate(148.712,134.765)"
             id="g7587">
            <path
               id="id-228a7957-d448-44b0-ba16-dbfcd0eafb33"
               d="m 4.5625,-1.703125 c 0,-0.8125 -0.640625,-1.59375 -1.671875,-1.8125 0.8125,-0.265625 1.390625,-0.953125 1.390625,-1.75 0,-0.8125 -0.875,-1.375 -1.828125,-1.375 -1,0 -1.765625,0.59375 -1.765625,1.359375 0,0.328125 0.21875,0.515625 0.515625,0.515625 0.296875,0 0.5,-0.21875 0.5,-0.515625 0,-0.484375 -0.46875,-0.484375 -0.609375,-0.484375 0.296875,-0.5 0.953125,-0.625 1.3125,-0.625 0.421875,0 0.96875,0.21875 0.96875,1.109375 0,0.125 -0.03125,0.703125 -0.28125,1.140625 C 2.796875,-3.65625 2.453125,-3.625 2.203125,-3.625 2.125,-3.609375 1.890625,-3.59375 1.8125,-3.59375 c -0.078125,0.015625 -0.140625,0.03125 -0.140625,0.125 0,0.109375 0.0625,0.109375 0.234375,0.109375 h 0.4375 c 0.8125,0 1.1875,0.671875 1.1875,1.65625 0,1.359375 -0.6875,1.640625 -1.125,1.640625 -0.4375,0 -1.1875,-0.171875 -1.53125,-0.75 0.34375,0.046875 0.65625,-0.171875 0.65625,-0.546875 0,-0.359375 -0.265625,-0.5625 -0.546875,-0.5625 -0.25,0 -0.5625,0.140625 -0.5625,0.578125 0,0.90625 0.921875,1.5625 2.015625,1.5625 1.21875,0 2.125,-0.90625 2.125,-1.921875 z m 0,0"
               style="stroke:none;stroke-width:0" />
          </g>
        </g>
        <g
           id="id-2ef39321-e630-4a59-86d6-b1dc3b90db44"
           style="fill:#000000;fill-opacity:1">
          <g
             transform="translate(153.694,134.765)"
             id="g7591">
            <path
               id="id-7fface48-7ed5-41be-b1ee-ab2bb11d32d2"
               d="m 2.03125,-0.015625 c 0,-0.65625 -0.25,-1.046875 -0.640625,-1.046875 -0.328125,0 -0.53125,0.25 -0.53125,0.53125 C 0.859375,-0.265625 1.0625,0 1.390625,0 1.5,0 1.640625,-0.046875 1.734375,-0.125 1.765625,-0.15625 1.78125,-0.15625 1.78125,-0.15625 c 0,0 0.015625,0 0.015625,0.140625 0,0.75 -0.34375,1.34375 -0.671875,1.671875 -0.109375,0.109375 -0.109375,0.125 -0.109375,0.15625 0,0.078125 0.046875,0.109375 0.09375,0.109375 0.109375,0 0.921875,-0.765625 0.921875,-1.9375 z m 0,0"
               style="stroke:none;stroke-width:0" />
          </g>
        </g>
        <g
           id="id-16a518eb-55f4-4759-a31e-ce4f73cd3466"
           style="fill:#000000;fill-opacity:1">
          <g
             transform="translate(156.461,134.765)"
             id="g7595">
            <path
               id="id-655addaa-44c2-4b7c-a2ae-b4b6f62c5b62"
               d="m 4.578125,-3.1875 c 0,-0.796875 -0.046875,-1.59375 -0.390625,-2.328125 -0.453125,-0.96875 -1.28125,-1.125 -1.6875,-1.125 -0.609375,0 -1.328125,0.265625 -1.75,1.1875 -0.3125,0.6875 -0.359375,1.46875 -0.359375,2.265625 0,0.75 0.03125,1.640625 0.453125,2.40625 0.421875,0.796875 1.15625,1 1.640625,1 0.53125,0 1.296875,-0.203125 1.734375,-1.15625 0.3125,-0.6875 0.359375,-1.46875 0.359375,-2.25 z m -0.8125,-0.125 c 0,0.75 0,1.421875 -0.109375,2.0625 C 3.5,-0.296875 2.9375,0 2.484375,0 2.09375,0 1.5,-0.25 1.328125,-1.203125 1.21875,-1.796875 1.21875,-2.71875 1.21875,-3.3125 c 0,-0.640625 0,-1.296875 0.078125,-1.828125 0.1875,-1.1875 0.9375,-1.28125 1.1875,-1.28125 0.328125,0 0.984375,0.1875 1.171875,1.171875 0.109375,0.5625 0.109375,1.3125 0.109375,1.9375 z m 0,0"
               style="stroke:none;stroke-width:0" />
          </g>
        </g>
        <g
           id="id-25be9318-c33b-47c6-92ed-c6505b4144db"
           style="fill:#000000;fill-opacity:1">
          <g
             transform="translate(163.106,134.765)"
             id="g7599">
            <path
               id="id-64180440-8b44-43ac-874a-d10e90dafc28"
               d="m 8.109375,0 v -0.3125 c -0.515625,0 -0.765625,0 -0.78125,-0.296875 v -1.90625 c 0,-0.859375 0,-1.15625 -0.3125,-1.515625 -0.140625,-0.171875 -0.46875,-0.375 -1.046875,-0.375 -0.828125,0 -1.28125,0.59375 -1.4375,0.984375 C 4.390625,-4.296875 3.65625,-4.40625 3.203125,-4.40625 2.46875,-4.40625 2,-3.984375 1.71875,-3.359375 V -4.40625 L 0.3125,-4.296875 v 0.3125 c 0.703125,0 0.78125,0.0625 0.78125,0.5625 V -0.75 c 0,0.4375 -0.109375,0.4375 -0.78125,0.4375 V 0 L 1.453125,-0.03125 2.5625,0 v -0.3125 c -0.671875,0 -0.78125,0 -0.78125,-0.4375 V -2.59375 C 1.78125,-3.625 2.5,-4.1875 3.125,-4.1875 c 0.640625,0 0.75,0.53125 0.75,1.109375 V -0.75 c 0,0.4375 -0.109375,0.4375 -0.78125,0.4375 V 0 L 4.21875,-0.03125 5.328125,0 v -0.3125 c -0.65625,0 -0.765625,0 -0.765625,-0.4375 v -1.84375 c 0,-1.03125 0.703125,-1.59375 1.34375,-1.59375 0.625,0 0.734375,0.53125 0.734375,1.109375 V -0.75 c 0,0.4375 -0.109375,0.4375 -0.78125,0.4375 V 0 l 1.125,-0.03125 z m 0,0"
               style="stroke:none;stroke-width:0" />
          </g>
        </g>
      </g>
    </g>
  </g>
</svg>
