<?xml version="1.0" encoding="UTF-8" standalone="no"?>
<svg
   xmlns:ns1="http://www.iki.fi/pav/software/textext/"
   xmlns:dc="http://purl.org/dc/elements/1.1/"
   xmlns:cc="http://creativecommons.org/ns#"
   xmlns:rdf="http://www.w3.org/1999/02/22-rdf-syntax-ns#"
   xmlns:svg="http://www.w3.org/2000/svg"
   xmlns="http://www.w3.org/2000/svg"
   xmlns:sodipodi="http://sodipodi.sourceforge.net/DTD/sodipodi-0.dtd"
   xmlns:inkscape="http://www.inkscape.org/namespaces/inkscape"
   sodipodi:docname="kubbson.svg"
   inkscape:version="1.0 (4035a4f, 2020-05-01)"
   id="svg8"
   version="1.1"
   viewBox="0 0 210 297"
   height="297mm"
   width="210mm">
  <defs
     id="defs2">
    <g
       id="id-5a02d36d-ad35-443c-9c61-4ddfeacc1ddc">
      <symbol
         overflow="visible"
         id="id-48b93063-c69e-4c76-94cf-63e48dcb08e8">
        <path
           style="stroke:none;stroke-width:0"
           d=""
           id="id-b0fb4bed-3e4b-4f25-b55b-b7be9bc0103c" />
      </symbol>
      <symbol
         overflow="visible"
         id="id-9f633ed7-864b-4c44-9157-fa48a02a3022">
        <path
           style="stroke:none;stroke-width:0"
           d="m 4.890625,-1.421875 c 0,-0.109375 -0.09375,-0.109375 -0.125,-0.109375 -0.09375,0 -0.109375,0.046875 -0.140625,0.1875 -0.203125,0.71875 -0.421875,1.234375 -0.859375,1.234375 -0.203125,0 -0.328125,-0.109375 -0.328125,-0.46875 0,-0.171875 0.046875,-0.40625 0.078125,-0.5625 C 3.5625,-1.3125 3.5625,-1.34375 3.5625,-1.453125 3.5625,-2.09375 2.9375,-2.375 2.078125,-2.5 2.390625,-2.671875 2.71875,-2.984375 2.9375,-3.234375 3.421875,-3.765625 3.875,-4.1875 4.359375,-4.1875 c 0.0625,0 0.078125,0 0.09375,0.015625 0.125,0.015625 0.125,0.015625 0.21875,0.078125 0.015625,0 0.015625,0.015625 0.03125,0.03125 -0.46875,0.03125 -0.5625,0.421875 -0.5625,0.546875 0,0.15625 0.109375,0.34375 0.375,0.34375 0.265625,0 0.546875,-0.21875 0.546875,-0.609375 0,-0.296875 -0.234375,-0.625 -0.671875,-0.625 -0.28125,0 -0.734375,0.078125 -1.453125,0.875 -0.34375,0.375 -0.734375,0.78125 -1.109375,0.921875 L 2.859375,-6.8125 c 0,0 0,-0.109375 -0.125,-0.109375 -0.234375,0 -0.953125,0.078125 -1.21875,0.109375 -0.078125,0 -0.1875,0.015625 -0.1875,0.1875 0,0.125 0.09375,0.125 0.234375,0.125 0.484375,0 0.5,0.0625 0.5,0.171875 L 2.03125,-6.125 0.59375,-0.390625 c -0.046875,0.140625 -0.046875,0.15625 -0.046875,0.21875 0,0.234375 0.203125,0.28125 0.296875,0.28125 0.125,0 0.265625,-0.09375 0.328125,-0.203125 0.046875,-0.09375 0.5,-1.9375 0.5625,-2.1875 0.34375,0.03125 1.15625,0.1875 1.15625,0.84375 0,0.078125 0,0.109375 -0.03125,0.21875 -0.015625,0.109375 -0.03125,0.234375 -0.03125,0.34375 0,0.578125 0.390625,0.984375 0.90625,0.984375 0.296875,0 0.578125,-0.15625 0.796875,-0.53125 0.25,-0.4375 0.359375,-1 0.359375,-1 z m 0,0"
           id="id-07efee3f-1484-47f2-a2d3-8bd80cb0e744" />
      </symbol>
    </g>
  </defs>
  <sodipodi:namedview
     inkscape:window-maximized="0"
     inkscape:window-y="25"
     inkscape:window-x="152"
     inkscape:window-height="847"
     inkscape:window-width="1252"
     showgrid="false"
     inkscape:document-rotation="0"
     inkscape:current-layer="layer1"
     inkscape:document-units="mm"
     inkscape:cy="452.38414"
     inkscape:cx="378.30813"
     inkscape:zoom="2.1253045"
     inkscape:pageshadow="2"
     inkscape:pageopacity="0.0"
     borderopacity="1.0"
     bordercolor="#666666"
     pagecolor="#ffffff"
     id="base" />
  <metadata
     id="metadata5">
    <rdf:RDF>
      <cc:Work
         rdf:about="">
        <dc:format>image/svg+xml</dc:format>
        <dc:type
           rdf:resource="http://purl.org/dc/dcmitype/StillImage" />
        <dc:title></dc:title>
      </cc:Work>
    </rdf:RDF>
  </metadata>
  <g
     id="layer1"
     inkscape:groupmode="layer"
     inkscape:label="Layer 1">
    <path
       id="path833"
       d="m 77.94082,130.48802 39.92613,-23.05137"
       style="fill:none;stroke:#000000;stroke-width:0.264583px;stroke-linecap:butt;stroke-linejoin:miter;stroke-opacity:1" />
    <path
       sodipodi:nodetypes="cc"
       id="path835"
       d="m 77.94082,130.48802 h 40.01165"
       style="fill:none;stroke:#000000;stroke-width:0.264583px;stroke-linecap:butt;stroke-linejoin:miter;stroke-opacity:1" />
    <path
       sodipodi:nodetypes="cc"
       id="path837"
       d="m 117.86695,107.43665 0,23.08398"
       style="fill:none;stroke:#000000;stroke-width:0.264583px;stroke-linecap:butt;stroke-linejoin:miter;stroke-opacity:1" />
    <path
       id="path839"
       d="m 81.873578,128.22107 c 0.616728,0.64034 0.629153,1.48217 0.629153,2.30689"
       style="fill:none;stroke:#000000;stroke-width:0.264583px;stroke-linecap:butt;stroke-linejoin:miter;stroke-opacity:1" />
    <g
       transform="matrix(0.352778,0,0,0.352778,83.964072,127.31892)"
       ns1:version="1.3.1"
       ns1:texconverter="pdflatex"
       ns1:pdfconverter="inkscape"
       ns1:text="$\\theta$"
       ns1:preamble="/Users/mbh/Library/Application Support/org.inkscape.Inkscape/config/inkscape/extensions/textext/default_packages.tex"
       ns1:scale="1.0000000566928784"
       ns1:alignment="middle center"
       ns1:jacobian_sqrt="0.352778"
       id="g859">
      <defs
         id="id-e128dfca-7d97-492b-bab5-aef30902fa75">
        <g
           id="id-257b0a38-361e-4fa1-8f12-3607037cfc16">
          <symbol
             id="id-bf44e40f-3057-4576-8f1b-165fe1ec213b"
             overflow="visible">
            <path
               id="id-71791138-c9ac-4f18-bf13-9e26a0475697"
               d=""
               style="stroke:none;stroke-width:0" />
          </symbol>
          <symbol
             id="id-62c880ef-e31e-41d4-bdc3-2cdb5957bad8"
             overflow="visible">
            <path
               id="id-5191e084-1c29-426c-8b8c-a6db31a2b328"
               d="m 4.53125,-4.984375 c 0,-0.65625 -0.171875,-2.046875 -1.1875,-2.046875 -1.390625,0 -2.921875,2.8125 -2.921875,5.09375 0,0.9375 0.28125,2.046875 1.1875,2.046875 1.40625,0 2.921875,-2.859375 2.921875,-5.09375 z M 3.5625,-3.625 H 1.46875 C 1.640625,-4.25 1.84375,-5.046875 2.25,-5.765625 2.515625,-6.25 2.875,-6.8125 3.328125,-6.8125 c 0.484375,0 0.546875,0.640625 0.546875,1.203125 0,0.5 -0.078125,1 -0.3125,1.984375 z M 3.46875,-3.296875 C 3.359375,-2.84375 3.15625,-2 2.765625,-1.28125 c -0.34375,0.6875 -0.71875,1.171875 -1.15625,1.171875 -0.328125,0 -0.53125,-0.296875 -0.53125,-1.21875 0,-0.421875 0.0625,-1 0.3125,-1.96875 z m 0,0"
               style="stroke:none;stroke-width:0" />
          </symbol>
        </g>
      </defs>
      <g
         transform="translate(-149.134,-127.734)"
         id="id-b25a4ad6-d8f2-4605-a5d1-cf08d1fcd35e">
        <g
           id="id-62bcf985-5dfc-40c7-b4c0-d3382a98bd19"
           style="fill:#000000;fill-opacity:1">
          <g
             transform="translate(148.712,134.765)"
             id="g855">
            <path
               id="id-bbe8583e-2c2f-4bd6-9a52-c1b1b83dec31"
               d="m 4.53125,-4.984375 c 0,-0.65625 -0.171875,-2.046875 -1.1875,-2.046875 -1.390625,0 -2.921875,2.8125 -2.921875,5.09375 0,0.9375 0.28125,2.046875 1.1875,2.046875 1.40625,0 2.921875,-2.859375 2.921875,-5.09375 z M 3.5625,-3.625 H 1.46875 C 1.640625,-4.25 1.84375,-5.046875 2.25,-5.765625 2.515625,-6.25 2.875,-6.8125 3.328125,-6.8125 c 0.484375,0 0.546875,0.640625 0.546875,1.203125 0,0.5 -0.078125,1 -0.3125,1.984375 z M 3.46875,-3.296875 C 3.359375,-2.84375 3.15625,-2 2.765625,-1.28125 c -0.34375,0.6875 -0.71875,1.171875 -1.15625,1.171875 -0.328125,0 -0.53125,-0.296875 -0.53125,-1.21875 0,-0.421875 0.0625,-1 0.3125,-1.96875 z m 0,0"
               style="stroke:none;stroke-width:0" />
          </g>
        </g>
      </g>
    </g>
    <rect
       transform="rotate(-29.597184)"
       y="145.4894"
       x="27.531912"
       height="6.1606994"
       width="6.1606994"
       id="rect874"
       style="fill:none;stroke:#000000;stroke-width:0.25" />
    <circle
       r="1.28132"
       transform="rotate(18.719429)"
       cy="59.009106"
       cx="147.76312"
       id="path880"
       style="fill:none;stroke:#000000;stroke-width:0.25" />
    <circle
       r="0.31082204"
       transform="rotate(18.719429)"
       cy="59.008385"
       cx="147.74733"
       id="path882"
       style="fill:#000000;stroke:#000000;stroke-width:0.173459" />
    <path
       id="path852"
       d="m 118.54419,111.3629 v 19.12512"
       style="fill:none;stroke:#000000;stroke-width:0.165105;stroke-linecap:butt;stroke-linejoin:miter;stroke-miterlimit:4;stroke-dasharray:none;stroke-opacity:1" />
    <path
       id="path892"
       d="m 118.52929,115.18758 c 0.59361,0.15941 1.40896,-0.57646 1.98481,-0.3295 0.42386,0.18177 1.04907,0.78571 1.53664,0.57662 0.64256,-0.27557 1.20332,-0.70849 1.9208,-0.57662 0.5696,0.10469 0.98626,0.79073 1.60065,0.65899 0.68697,-0.1473 1.03068,-0.82373 1.72872,-0.82373"
       style="fill:none;stroke:#000000;stroke-width:0.165105;stroke-linecap:butt;stroke-linejoin:miter;stroke-miterlimit:4;stroke-dasharray:none;stroke-opacity:1" />
    <path
       style="fill:none;stroke:#000000;stroke-width:0.165;stroke-linecap:butt;stroke-linejoin:miter;stroke-miterlimit:4;stroke-dasharray:none;stroke-opacity:1"
       d="m 127.27566,111.3771 v 19.12512"
       id="path852-6" />
    <path
       id="path1548"
       d="m 118.54419,130.48802 8.73147,0.0142"
       style="fill:none;stroke:#000000;stroke-width:0.165;stroke-linecap:butt;stroke-linejoin:miter;stroke-miterlimit:4;stroke-dasharray:none;stroke-opacity:1" />
    <path
       style="fill:none;stroke:#000000;stroke-width:0.0646217;stroke-linecap:butt;stroke-linejoin:miter;stroke-miterlimit:10;stroke-opacity:1"
       d="m 122.29552,121.48425 c 0.48505,0.0367 0.87296,0.24474 0.87111,0.49366 -0.001,0.24895 -0.39282,0.45356 -0.87837,0.48605 -0.48616,0.0324 -0.87459,-0.10699 -0.87325,-0.28667 8.8e-4,-0.1797 0.39179,-0.31579 0.87744,-0.27905 0.48504,0.0367 0.87295,0.24473 0.87109,0.49365 -0.002,0.24891 -0.3928,0.45356 -0.87837,0.48606 -0.48615,0.0324 -0.87457,-0.107 -0.87323,-0.28668 8.8e-4,-0.18037 0.39179,-0.31578 0.87745,-0.27972 0.48503,0.0367 0.87294,0.24474 0.8711,0.49367 -10e-4,0.24893 -0.39283,0.45422 -0.87838,0.48605 -0.48615,0.0326 -0.87458,-0.10629 -0.87325,-0.28669 8.9e-4,-0.17969 0.39181,-0.31578 0.87744,-0.27904 0.48505,0.0367 0.87296,0.24474 0.87112,0.49367 -0.001,0.24892 -0.39283,0.45355 -0.87839,0.48603 -0.48615,0.0326 -0.87457,-0.10698 -0.87324,-0.28665 8.8e-4,-0.17972 0.3918,-0.3158 0.87744,-0.27907 0.48505,0.0367 0.87295,0.24474 0.87111,0.49367 -0.001,0.24894 -0.39282,0.45356 -0.87838,0.48605 -0.48616,0.0325 -0.87458,-0.10699 -0.87324,-0.28668 8.8e-4,-0.18037 0.39179,-0.31577 0.87744,-0.27906 0.48504,0.036 0.87295,0.24475 0.87111,0.493 -10e-4,0.24894 -0.39282,0.45422 -0.87837,0.48606 -0.48616,0.0326 -0.87459,-0.1063 -0.87325,-0.28668 8.9e-4,-0.1797 0.3918,-0.31578 0.87745,-0.27907 0.48503,0.0367 0.87293,0.24475 0.87109,0.49369 -0.001,0.24893 -0.39282,0.45355 -0.87838,0.48605 -0.48614,0.0326 -0.87457,-0.107 -0.87324,-0.28668 8.8e-4,-0.17971 0.3918,-0.31579 0.87744,-0.27905 0.48505,0.0367 0.87295,0.24474 0.87111,0.49365 -0.001,0.24894 -0.39282,0.45356 -0.87838,0.48605 -0.48616,0.0326 -0.87457,-0.10698 -0.87324,-0.28666 8.8e-4,-0.18038 0.3918,-0.31579 0.87744,-0.27907 0.48505,0.036 0.87295,0.24474 0.87111,0.49366 -10e-4,0.24893 -0.39282,0.45357 -0.87837,0.4854 -0.48616,0.0325 -0.87458,-0.10629 -0.87325,-0.28668 8.9e-4,-0.17971 0.3918,-0.31577 0.87744,-0.27906 0.48504,0.0367 0.87296,0.24474 0.87111,0.49367 -0.001,0.24894 -0.39282,0.45355 -0.87839,0.48606 -0.48614,0.0324 -0.87457,-0.107 -0.87323,-0.28668 8.8e-4,-0.17971 0.39179,-0.31579 0.87744,-0.27906 0.48504,0.0367 0.87295,0.24473 0.8711,0.49366 -0.001,0.24894 -0.39282,0.45356 -0.87837,0.48606 -0.48616,0.0324 -0.87458,-0.10699 -0.87325,-0.28668 8.8e-4,-0.18037 0.3918,-0.31579 0.87745,-0.27905 0.48504,0.036 0.87294,0.24473 0.8711,0.49366 -0.002,0.24891 -0.39282,0.45356 -0.87837,0.48538 -0.48615,0.0324 -0.87458,-0.10628 -0.87325,-0.28668 8.8e-4,-0.1797 0.39181,-0.31577 0.87744,-0.27906 0.48505,0.0367 0.87295,0.24476 0.87111,0.49368 -0.001,0.24893 -0.39282,0.45355 -0.87838,0.48605 -0.48615,0.0324 -0.87457,-0.10699 -0.87324,-0.28668 8.8e-4,-0.1797 0.3918,-0.31577 0.87744,-0.27905 0.48505,0.0367 0.87295,0.24474 0.87111,0.49366 -10e-4,0.24894 -0.39282,0.45356 -0.87839,0.48606 -0.48615,0.0325 -0.87456,-0.10699 -0.87323,-0.28668 8.8e-4,-0.18039 0.3918,-0.31578 0.87744,-0.27907 0.48504,0.036 0.87296,0.24475 0.8711,0.49367 -0.001,0.24895 -0.39282,0.45356 -0.87838,0.48606 -0.48614,0.0318 -0.87456,-0.10699 -0.87324,-0.28734 8.8e-4,-0.1797 0.3918,-0.31578 0.87745,-0.27906 0.48505,0.0367 0.87295,0.24474 0.8711,0.49366 -0.001,0.24893 -0.39282,0.45357 -0.87837,0.48606 -0.48616,0.0326 -0.87457,-0.107 -0.87325,-0.28668 8.8e-4,-0.17971 0.39181,-0.31577 0.87745,-0.27905 0.48505,0.0367 0.87295,0.24474 0.8711,0.49367 -10e-4,0.24892 -0.39282,0.45354 -0.87837,0.48605 -0.48616,0.0324 -0.87458,-0.10699 -0.87325,-0.28668 8.8e-4,-0.18038 0.3918,-0.31578 0.87745,-0.27906 0.48504,0.036 0.87295,0.24475 0.8711,0.49367 -0.001,0.24893 -0.39282,0.45355 -0.87837,0.48604 -0.48616,0.0319 -0.87458,-0.10698 -0.87325,-0.28732 8.8e-4,-0.17972 0.3918,-0.31514 0.87745,-0.27907 0.48503,0.0367 0.87295,0.24475 0.87109,0.49366 -0.001,0.24895 -0.39282,0.45356 -0.87837,0.48606 -0.48615,0.0325 -0.87457,-0.10699 -0.87324,-0.28669 8.8e-4,-0.17968 0.3918,-0.31577 0.87745,-0.27905 0.48503,0.0367 0.87294,0.24474 0.87109,0.49366 -0.001,0.24895 -0.39282,0.45355 -0.87837,0.48606 l -0.002,0.22363"
       id="path7229-3" />
    <circle
       r="2.0837901"
       cy="119.51118"
       cx="122.22649"
       id="path2247"
       style="fill:none;stroke:#000000;stroke-width:0.258961;stroke-miterlimit:4;stroke-dasharray:none" />
    <path
       sodipodi:nodetypes="cc"
       id="path2249"
       d="m 122.28798,103.02967 v 14.48375"
       style="fill:none;stroke:#000000;stroke-width:0.264583px;stroke-linecap:butt;stroke-linejoin:miter;stroke-opacity:1" />
    <path
       id="path2251"
       d="m 102.48939,112.36379 18.09495,-10.26354"
       style="fill:none;stroke:#000000;stroke-width:0.264583px;stroke-linecap:butt;stroke-linejoin:miter;stroke-opacity:1" />
    <path
       id="path2253"
       d="m 116.22336,108.34546 3.54992,-4.57113"
       style="fill:none;stroke:#000000;stroke-width:0.264583px;stroke-linecap:butt;stroke-linejoin:miter;stroke-opacity:1" />
    <path
       id="path2257"
       d="m 117.92537,109.95021 3.54992,-5.44645"
       style="fill:none;stroke:#000000;stroke-width:0.264583px;stroke-linecap:butt;stroke-linejoin:miter;stroke-opacity:1" />
    <g
       transform="matrix(0.29597095,-0.19197268,0.19197268,0.29597095,97.998511,114.17949)"
       ns1:version="1.3.1"
       ns1:texconverter="pdflatex"
       ns1:pdfconverter="inkscape"
       ns1:text="$M$"
       ns1:preamble="/Users/mbh/Library/Application Support/org.inkscape.Inkscape/config/inkscape/extensions/textext/default_packages.tex"
       ns1:scale="1.0000000566928784"
       ns1:alignment="middle center"
       ns1:jacobian_sqrt="0.352778"
       id="g2306">
      <defs
         id="id-cf2d53b7-27c6-43c3-a7b6-a4c6ab527986">
        <g
           id="id-9c7500f2-6053-49e0-bb7b-9c6ebe6653e1">
          <symbol
             id="id-1a63a10b-030c-4a00-a989-635dfa3788d1"
             overflow="visible">
            <path
               id="id-d481c09a-6388-4984-ac66-5e661973d5bb"
               d=""
               style="stroke:none;stroke-width:0" />
          </symbol>
          <symbol
             id="id-dc4b3893-afd8-41ad-b6d7-39751b0a0357"
             overflow="visible">
            <path
               id="id-16612ad9-49c4-4678-ad99-56d5e1cf2fa1"
               d="M 8.78125,-0.203125 C 8.78125,-0.3125 8.6875,-0.3125 8.5,-0.3125 c -0.359375,0 -0.640625,0 -0.640625,-0.171875 0,-0.046875 0,-0.0625 0.046875,-0.25 l 1.328125,-5.3125 C 9.328125,-6.40625 9.34375,-6.5 10.09375,-6.5 c 0.21875,0 0.3125,0 0.3125,-0.203125 0,-0.109375 -0.09375,-0.109375 -0.265625,-0.109375 h -1.3125 c -0.265625,0 -0.28125,0 -0.390625,0.1875 L 4.796875,-0.9375 4.015625,-6.578125 C 3.984375,-6.8125 3.96875,-6.8125 3.703125,-6.8125 H 2.34375 c -0.1875,0 -0.296875,0 -0.296875,0.1875 0,0.125 0.09375,0.125 0.28125,0.125 0.140625,0 0.3125,0.015625 0.4375,0.015625 0.15625,0.03125 0.21875,0.046875 0.21875,0.171875 0,0.03125 -0.015625,0.0625 -0.046875,0.1875 l -1.265625,5.0625 c -0.09375,0.40625 -0.265625,0.71875 -1.078125,0.75 -0.046875,0 -0.171875,0.015625 -0.171875,0.1875 0,0.09375 0.0625,0.125 0.140625,0.125 0.3125,0 0.65625,-0.03125 1,-0.03125 C 1.890625,-0.03125 2.25,0 2.578125,0 c 0.046875,0 0.1875,0 0.1875,-0.203125 0,-0.109375 -0.109375,-0.109375 -0.1875,-0.109375 -0.5625,0 -0.671875,-0.203125 -0.671875,-0.4375 0,-0.0625 0,-0.125 0.03125,-0.234375 L 3.296875,-6.40625 H 3.3125 l 0.859375,6.171875 C 4.1875,-0.109375 4.203125,0 4.3125,0 4.421875,0 4.484375,-0.109375 4.53125,-0.171875 l 4.03125,-6.3125 h 0.015625 l -1.4375,5.703125 c -0.09375,0.390625 -0.109375,0.46875 -0.90625,0.46875 -0.15625,0 -0.265625,0 -0.265625,0.1875 C 5.96875,0 6.078125,0 6.109375,0 L 7.34375,-0.03125 C 7.75,-0.03125 8.1875,0 8.59375,0 c 0.0625,0 0.1875,0 0.1875,-0.203125 z m 0,0"
               style="stroke:none;stroke-width:0" />
          </symbol>
        </g>
      </defs>
      <g
         transform="translate(-149.134,-127.953)"
         id="id-4d3bac9c-a142-459e-abd3-2324fc2aa59c">
        <g
           id="id-096e8089-6f6d-4f70-a74f-725f35c5faea"
           style="fill:#000000;fill-opacity:1">
          <g
             transform="translate(148.712,134.765)"
             id="g2302">
            <path
               id="id-f2877866-0613-41c4-bc30-39d99bb39db7"
               d="M 8.78125,-0.203125 C 8.78125,-0.3125 8.6875,-0.3125 8.5,-0.3125 c -0.359375,0 -0.640625,0 -0.640625,-0.171875 0,-0.046875 0,-0.0625 0.046875,-0.25 l 1.328125,-5.3125 C 9.328125,-6.40625 9.34375,-6.5 10.09375,-6.5 c 0.21875,0 0.3125,0 0.3125,-0.203125 0,-0.109375 -0.09375,-0.109375 -0.265625,-0.109375 h -1.3125 c -0.265625,0 -0.28125,0 -0.390625,0.1875 L 4.796875,-0.9375 4.015625,-6.578125 C 3.984375,-6.8125 3.96875,-6.8125 3.703125,-6.8125 H 2.34375 c -0.1875,0 -0.296875,0 -0.296875,0.1875 0,0.125 0.09375,0.125 0.28125,0.125 0.140625,0 0.3125,0.015625 0.4375,0.015625 0.15625,0.03125 0.21875,0.046875 0.21875,0.171875 0,0.03125 -0.015625,0.0625 -0.046875,0.1875 l -1.265625,5.0625 c -0.09375,0.40625 -0.265625,0.71875 -1.078125,0.75 -0.046875,0 -0.171875,0.015625 -0.171875,0.1875 0,0.09375 0.0625,0.125 0.140625,0.125 0.3125,0 0.65625,-0.03125 1,-0.03125 C 1.890625,-0.03125 2.25,0 2.578125,0 c 0.046875,0 0.1875,0 0.1875,-0.203125 0,-0.109375 -0.109375,-0.109375 -0.1875,-0.109375 -0.5625,0 -0.671875,-0.203125 -0.671875,-0.4375 0,-0.0625 0,-0.125 0.03125,-0.234375 L 3.296875,-6.40625 H 3.3125 l 0.859375,6.171875 C 4.1875,-0.109375 4.203125,0 4.3125,0 4.421875,0 4.484375,-0.109375 4.53125,-0.171875 l 4.03125,-6.3125 h 0.015625 l -1.4375,5.703125 c -0.09375,0.390625 -0.109375,0.46875 -0.90625,0.46875 -0.15625,0 -0.265625,0 -0.265625,0.1875 C 5.96875,0 6.078125,0 6.109375,0 L 7.34375,-0.03125 C 7.75,-0.03125 8.1875,0 8.59375,0 c 0.0625,0 0.1875,0 0.1875,-0.203125 z m 0,0"
               style="stroke:none;stroke-width:0" />
          </g>
        </g>
      </g>
    </g>
    <g
       transform="matrix(0.352778,0,0,0.352778,120.77547,118.91285)"
       ns1:version="1.3.1"
       ns1:texconverter="pdflatex"
       ns1:pdfconverter="inkscape"
       ns1:text="$m$"
       ns1:preamble="/Users/mbh/Library/Application Support/org.inkscape.Inkscape/config/inkscape/extensions/textext/default_packages.tex"
       ns1:scale="1.0000000566928784"
       ns1:alignment="middle center"
       ns1:jacobian_sqrt="0.352778"
       id="g2379">
      <defs
         id="id-4af98745-5580-4374-89d7-d33da015d8cf">
        <g
           id="id-442a3c0c-3bcc-43fb-85c1-ac4f24dc460f">
          <symbol
             id="id-59bbbb06-b1a4-4cd7-9558-f105dcd6e42c"
             overflow="visible">
            <path
               id="id-c3a270d4-d896-437f-a5a6-7bb2e1f8a12b"
               d=""
               style="stroke:none;stroke-width:0" />
          </symbol>
          <symbol
             id="id-8dd7a130-1c39-4862-b868-155d9c3c437d"
             overflow="visible">
            <path
               id="id-db475718-b7a8-498e-8cf5-588b097cdb5a"
               d="m 8.453125,-1.421875 c 0,-0.109375 -0.09375,-0.109375 -0.125,-0.109375 -0.09375,0 -0.09375,0.03125 -0.140625,0.1875 -0.15625,0.53125 -0.46875,1.234375 -1.015625,1.234375 -0.171875,0 -0.25,-0.09375 -0.25,-0.328125 0,-0.25 0.09375,-0.484375 0.1875,-0.703125 0.1875,-0.53125 0.609375,-1.625 0.609375,-2.203125 0,-0.640625 -0.40625,-1.0625 -1.15625,-1.0625 -0.734375,0 -1.25,0.4375 -1.625,0.96875 0,-0.125 -0.03125,-0.46875 -0.3125,-0.703125 -0.25,-0.21875 -0.5625,-0.265625 -0.8125,-0.265625 -0.90625,0 -1.390625,0.640625 -1.5625,0.875 -0.046875,-0.578125 -0.46875,-0.875 -0.921875,-0.875 -0.453125,0 -0.640625,0.390625 -0.734375,0.5625 -0.171875,0.359375 -0.296875,0.9375 -0.296875,0.96875 0,0.109375 0.109375,0.109375 0.109375,0.109375 0.109375,0 0.109375,-0.015625 0.171875,-0.234375 0.171875,-0.703125 0.375,-1.1875 0.734375,-1.1875 0.15625,0 0.296875,0.078125 0.296875,0.453125 0,0.21875 -0.03125,0.328125 -0.15625,0.84375 L 0.875,-0.59375 c -0.03125,0.15625 -0.09375,0.390625 -0.09375,0.4375 0,0.171875 0.140625,0.265625 0.296875,0.265625 0.125,0 0.296875,-0.078125 0.375,-0.28125 0,-0.015625 0.125,-0.484375 0.1875,-0.734375 l 0.21875,-0.890625 C 1.90625,-2.03125 1.96875,-2.25 2.03125,-2.46875 l 0.125,-0.5 c 0.140625,-0.3125 0.671875,-1.21875 1.625,-1.21875 0.453125,0 0.53125,0.375 0.53125,0.703125 0,0.25 -0.0625,0.53125 -0.140625,0.828125 L 3.890625,-1.5 C 3.78125,-1.140625 3.78125,-1.078125 3.6875,-0.75 c -0.03125,0.203125 -0.125,0.546875 -0.125,0.59375 0,0.171875 0.140625,0.265625 0.28125,0.265625 0.3125,0 0.375,-0.25 0.453125,-0.5625 l 0.59375,-2.40625 c 0.03125,-0.125 0.5625,-1.328125 1.65625,-1.328125 0.421875,0 0.53125,0.34375 0.53125,0.703125 0,0.5625 -0.421875,1.703125 -0.625,2.234375 -0.078125,0.234375 -0.125,0.34375 -0.125,0.546875 0,0.46875 0.34375,0.8125 0.8125,0.8125 0.9375,0 1.3125,-1.453125 1.3125,-1.53125 z m 0,0"
               style="stroke:none;stroke-width:0" />
          </symbol>
        </g>
      </defs>
      <g
         transform="translate(-149.009,-130.359)"
         id="id-b8fa05c5-449c-4668-a40f-024c60e5c944">
        <g
           id="id-a9387f26-b562-41bc-83c9-4433978187a3"
           style="fill:#000000;fill-opacity:1">
          <g
             transform="translate(148.712,134.765)"
             id="g2375">
            <path
               id="id-c8ce091e-59eb-4663-9cf8-3ab4bd5f2229"
               d="m 8.453125,-1.421875 c 0,-0.109375 -0.09375,-0.109375 -0.125,-0.109375 -0.09375,0 -0.09375,0.03125 -0.140625,0.1875 -0.15625,0.53125 -0.46875,1.234375 -1.015625,1.234375 -0.171875,0 -0.25,-0.09375 -0.25,-0.328125 0,-0.25 0.09375,-0.484375 0.1875,-0.703125 0.1875,-0.53125 0.609375,-1.625 0.609375,-2.203125 0,-0.640625 -0.40625,-1.0625 -1.15625,-1.0625 -0.734375,0 -1.25,0.4375 -1.625,0.96875 0,-0.125 -0.03125,-0.46875 -0.3125,-0.703125 -0.25,-0.21875 -0.5625,-0.265625 -0.8125,-0.265625 -0.90625,0 -1.390625,0.640625 -1.5625,0.875 -0.046875,-0.578125 -0.46875,-0.875 -0.921875,-0.875 -0.453125,0 -0.640625,0.390625 -0.734375,0.5625 -0.171875,0.359375 -0.296875,0.9375 -0.296875,0.96875 0,0.109375 0.109375,0.109375 0.109375,0.109375 0.109375,0 0.109375,-0.015625 0.171875,-0.234375 0.171875,-0.703125 0.375,-1.1875 0.734375,-1.1875 0.15625,0 0.296875,0.078125 0.296875,0.453125 0,0.21875 -0.03125,0.328125 -0.15625,0.84375 L 0.875,-0.59375 c -0.03125,0.15625 -0.09375,0.390625 -0.09375,0.4375 0,0.171875 0.140625,0.265625 0.296875,0.265625 0.125,0 0.296875,-0.078125 0.375,-0.28125 0,-0.015625 0.125,-0.484375 0.1875,-0.734375 l 0.21875,-0.890625 C 1.90625,-2.03125 1.96875,-2.25 2.03125,-2.46875 l 0.125,-0.5 c 0.140625,-0.3125 0.671875,-1.21875 1.625,-1.21875 0.453125,0 0.53125,0.375 0.53125,0.703125 0,0.25 -0.0625,0.53125 -0.140625,0.828125 L 3.890625,-1.5 C 3.78125,-1.140625 3.78125,-1.078125 3.6875,-0.75 c -0.03125,0.203125 -0.125,0.546875 -0.125,0.59375 0,0.171875 0.140625,0.265625 0.28125,0.265625 0.3125,0 0.375,-0.25 0.453125,-0.5625 l 0.59375,-2.40625 c 0.03125,-0.125 0.5625,-1.328125 1.65625,-1.328125 0.421875,0 0.53125,0.34375 0.53125,0.703125 0,0.5625 -0.421875,1.703125 -0.625,2.234375 -0.078125,0.234375 -0.125,0.34375 -0.125,0.546875 0,0.46875 0.34375,0.8125 0.8125,0.8125 0.9375,0 1.3125,-1.453125 1.3125,-1.53125 z m 0,0"
               style="stroke:none;stroke-width:0" />
          </g>
        </g>
      </g>
    </g>
    <g
       transform="matrix(0.352778,0,0,0.352778,124.2344,123.84554)"
       ns1:version="1.3.1"
       ns1:texconverter="pdflatex"
       ns1:pdfconverter="inkscape"
       ns1:text="$k$"
       ns1:preamble="/Users/mbh/Library/Application Support/org.inkscape.Inkscape/config/inkscape/extensions/textext/default_packages.tex"
       ns1:scale="1.0000000566928784"
       ns1:alignment="middle center"
       ns1:jacobian_sqrt="0.352778"
       id="g2463">
      <defs
         id="id-b23d141a-0c1d-4b73-a67a-028f9871773c">
        <g
           id="id-e769f983-9267-461b-8b17-283e6b679f85">
          <symbol
             id="id-4a31f83f-9970-44fd-a16b-3662a9d3c575"
             overflow="visible">
            <path
               id="id-614591f1-489b-4555-875c-a9eba907182e"
               d=""
               style="stroke:none;stroke-width:0" />
          </symbol>
          <symbol
             id="id-575128b4-f683-4b11-ac7a-e915401fa5b1"
             overflow="visible">
            <path
               id="id-46fadabf-b51e-4298-afd9-f872e19c0fb5"
               d="m 4.890625,-1.421875 c 0,-0.109375 -0.09375,-0.109375 -0.125,-0.109375 -0.09375,0 -0.109375,0.046875 -0.140625,0.1875 -0.203125,0.71875 -0.421875,1.234375 -0.859375,1.234375 -0.203125,0 -0.328125,-0.109375 -0.328125,-0.46875 0,-0.171875 0.046875,-0.40625 0.078125,-0.5625 C 3.5625,-1.3125 3.5625,-1.34375 3.5625,-1.453125 3.5625,-2.09375 2.9375,-2.375 2.078125,-2.5 2.390625,-2.671875 2.71875,-2.984375 2.9375,-3.234375 3.421875,-3.765625 3.875,-4.1875 4.359375,-4.1875 c 0.0625,0 0.078125,0 0.09375,0.015625 0.125,0.015625 0.125,0.015625 0.21875,0.078125 0.015625,0 0.015625,0.015625 0.03125,0.03125 -0.46875,0.03125 -0.5625,0.421875 -0.5625,0.546875 0,0.15625 0.109375,0.34375 0.375,0.34375 0.265625,0 0.546875,-0.21875 0.546875,-0.609375 0,-0.296875 -0.234375,-0.625 -0.671875,-0.625 -0.28125,0 -0.734375,0.078125 -1.453125,0.875 -0.34375,0.375 -0.734375,0.78125 -1.109375,0.921875 L 2.859375,-6.8125 c 0,0 0,-0.109375 -0.125,-0.109375 -0.234375,0 -0.953125,0.078125 -1.21875,0.109375 -0.078125,0 -0.1875,0.015625 -0.1875,0.1875 0,0.125 0.09375,0.125 0.234375,0.125 0.484375,0 0.5,0.0625 0.5,0.171875 L 2.03125,-6.125 0.59375,-0.390625 c -0.046875,0.140625 -0.046875,0.15625 -0.046875,0.21875 0,0.234375 0.203125,0.28125 0.296875,0.28125 0.125,0 0.265625,-0.09375 0.328125,-0.203125 0.046875,-0.09375 0.5,-1.9375 0.5625,-2.1875 0.34375,0.03125 1.15625,0.1875 1.15625,0.84375 0,0.078125 0,0.109375 -0.03125,0.21875 -0.015625,0.109375 -0.03125,0.234375 -0.03125,0.34375 0,0.578125 0.390625,0.984375 0.90625,0.984375 0.296875,0 0.578125,-0.15625 0.796875,-0.53125 0.25,-0.4375 0.359375,-1 0.359375,-1 z m 0,0"
               style="stroke:none;stroke-width:0" />
          </symbol>
        </g>
      </defs>
      <g
         transform="translate(-149.259,-127.843)"
         id="id-2612e960-5afd-4870-810c-670ff8722fa0">
        <g
           id="id-9465e738-0676-4425-94f5-17bbf2c8f248"
           style="fill:#000000;fill-opacity:1">
          <g
             transform="translate(148.712,134.765)"
             id="g2459">
            <path
               id="id-ce3a3c44-376f-4df0-be36-39ef0334296e"
               d="m 4.890625,-1.421875 c 0,-0.109375 -0.09375,-0.109375 -0.125,-0.109375 -0.09375,0 -0.109375,0.046875 -0.140625,0.1875 -0.203125,0.71875 -0.421875,1.234375 -0.859375,1.234375 -0.203125,0 -0.328125,-0.109375 -0.328125,-0.46875 0,-0.171875 0.046875,-0.40625 0.078125,-0.5625 C 3.5625,-1.3125 3.5625,-1.34375 3.5625,-1.453125 3.5625,-2.09375 2.9375,-2.375 2.078125,-2.5 2.390625,-2.671875 2.71875,-2.984375 2.9375,-3.234375 3.421875,-3.765625 3.875,-4.1875 4.359375,-4.1875 c 0.0625,0 0.078125,0 0.09375,0.015625 0.125,0.015625 0.125,0.015625 0.21875,0.078125 0.015625,0 0.015625,0.015625 0.03125,0.03125 -0.46875,0.03125 -0.5625,0.421875 -0.5625,0.546875 0,0.15625 0.109375,0.34375 0.375,0.34375 0.265625,0 0.546875,-0.21875 0.546875,-0.609375 0,-0.296875 -0.234375,-0.625 -0.671875,-0.625 -0.28125,0 -0.734375,0.078125 -1.453125,0.875 -0.34375,0.375 -0.734375,0.78125 -1.109375,0.921875 L 2.859375,-6.8125 c 0,0 0,-0.109375 -0.125,-0.109375 -0.234375,0 -0.953125,0.078125 -1.21875,0.109375 -0.078125,0 -0.1875,0.015625 -0.1875,0.1875 0,0.125 0.09375,0.125 0.234375,0.125 0.484375,0 0.5,0.0625 0.5,0.171875 L 2.03125,-6.125 0.59375,-0.390625 c -0.046875,0.140625 -0.046875,0.15625 -0.046875,0.21875 0,0.234375 0.203125,0.28125 0.296875,0.28125 0.125,0 0.265625,-0.09375 0.328125,-0.203125 0.046875,-0.09375 0.5,-1.9375 0.5625,-2.1875 0.34375,0.03125 1.15625,0.1875 1.15625,0.84375 0,0.078125 0,0.109375 -0.03125,0.21875 -0.015625,0.109375 -0.03125,0.234375 -0.03125,0.34375 0,0.578125 0.390625,0.984375 0.90625,0.984375 0.296875,0 0.578125,-0.15625 0.796875,-0.53125 0.25,-0.4375 0.359375,-1 0.359375,-1 z m 0,0"
               style="stroke:none;stroke-width:0" />
          </g>
        </g>
      </g>
    </g>
  </g>
</svg>
