<?xml version="1.0" encoding="UTF-8" standalone="no"?>
<svg
   xmlns:ns4="http://www.iki.fi/pav/software/textext/"
   xmlns:dc="http://purl.org/dc/elements/1.1/"
   xmlns:cc="http://creativecommons.org/ns#"
   xmlns:rdf="http://www.w3.org/1999/02/22-rdf-syntax-ns#"
   xmlns:svg="http://www.w3.org/2000/svg"
   xmlns="http://www.w3.org/2000/svg"
   xmlns:sodipodi="http://sodipodi.sourceforge.net/DTD/sodipodi-0.dtd"
   xmlns:inkscape="http://www.inkscape.org/namespaces/inkscape"
   sodipodi:docname="snellsson.svg"
   inkscape:version="1.0 (4035a4f, 2020-05-01)"
   id="svg8"
   version="1.1"
   viewBox="0 0 210 297"
   height="297mm"
   width="210mm">
  <defs
     id="defs2">
    <marker
       inkscape:isstock="true"
       style="overflow:visible;"
       id="Arrow1Mend"
       refX="0.0"
       refY="0.0"
       orient="auto"
       inkscape:stockid="Arrow1Mend">
      <path
         transform="scale(0.4) rotate(180) translate(10,0)"
         style="fill-rule:evenodd;stroke:#000000;stroke-width:1pt;stroke-opacity:1;fill:#000000;fill-opacity:1"
         d="M 0.0,0.0 L 5.0,-5.0 L -12.5,0.0 L 5.0,5.0 L 0.0,0.0 z "
         id="path1795" />
    </marker>
  </defs>
  <sodipodi:namedview
     inkscape:window-maximized="0"
     inkscape:window-y="261"
     inkscape:window-x="59"
     inkscape:window-height="847"
     inkscape:window-width="1252"
     showgrid="false"
     inkscape:document-rotation="0"
     inkscape:current-layer="layer1"
     inkscape:document-units="mm"
     inkscape:cy="575.1553"
     inkscape:cx="338.33777"
     inkscape:zoom="2.1242278"
     inkscape:pageshadow="2"
     inkscape:pageopacity="0.0"
     borderopacity="1.0"
     bordercolor="#666666"
     pagecolor="#ffffff"
     id="base" />
  <metadata
     id="metadata5">
    <rdf:RDF>
      <cc:Work
         rdf:about="">
        <dc:format>image/svg+xml</dc:format>
        <dc:type
           rdf:resource="http://purl.org/dc/dcmitype/StillImage" />
        <dc:title></dc:title>
      </cc:Work>
    </rdf:RDF>
  </metadata>
  <g
     id="layer1"
     inkscape:groupmode="layer"
     inkscape:label="Layer 1">
    <path
       sodipodi:nodetypes="cc"
       id="path852"
       d="m 82.500488,124.7724 0,23.03311"
       style="fill:none;stroke:#000000;stroke-width:0.3;stroke-linecap:butt;stroke-linejoin:miter;stroke-miterlimit:4;stroke-dasharray:none;stroke-opacity:1" />
    <path
       id="path892"
       d="m 82.46978,129.11597 c 1.223437,0.25536 2.90386,-0.92344 4.090692,-0.52783 0.873551,0.29118 2.16213,1.25866 3.166987,0.92371 1.324309,-0.44144 2.480037,-1.13495 3.958734,-0.92371 1.173951,0.16771 2.03269,1.2667 3.298944,1.05566 1.41583,-0.23597 2.124226,-1.31958 3.562863,-1.31958"
       style="fill:none;stroke:#000000;stroke-width:0.3;stroke-linecap:butt;stroke-linejoin:miter;stroke-miterlimit:4;stroke-dasharray:none;stroke-opacity:1" />
    <path
       id="path1523"
       d="M 82.500487,147.80551 H 100.58235"
       style="fill:none;stroke:#000000;stroke-width:0.264583px;stroke-linecap:butt;stroke-linejoin:miter;stroke-opacity:1" />
    <g
       transform="matrix(0.264583,0,0,0.264583,86.107336,131.9759)"
       ns4:version="1.3.1"
       ns4:texconverter="pdflatex"
       ns4:pdfconverter="inkscape"
       ns4:text="Vatn"
       ns4:preamble="/Users/mbh/Library/Application Support/org.inkscape.Inkscape/config/inkscape/extensions/textext/default_packages.tex"
       ns4:scale="0.75"
       ns4:alignment="middle center"
       ns4:jacobian_sqrt="0.264583"
       id="g1559">
      <defs
         id="id-97d8ae92-2024-4406-a997-ea62f5538d34">
        <g
           id="id-d8d51715-c55a-422d-920f-6cf74c879347">
          <symbol
             id="id-31fb4297-d254-416e-b4ec-8b3a8732a606"
             overflow="visible">
            <path
               id="id-210f1671-ef1d-4eee-9f5b-70b00a44bc79"
               d=""
               style="stroke:none;stroke-width:0" />
          </symbol>
          <symbol
             id="id-6044b9b3-cf8f-4963-91c3-09c6b2ea650c"
             overflow="visible">
            <path
               id="id-3598e73e-ebf7-462f-9b71-96ff4bf8b994"
               d="M 7.28125,-6.5 V -6.8125 C 6.96875,-6.78125 6.5625,-6.78125 6.3125,-6.78125 L 5.171875,-6.8125 V -6.5 C 5.6875,-6.484375 5.90625,-6.234375 5.90625,-6 c 0,0.078125 -0.03125,0.140625 -0.046875,0.203125 L 4.03125,-1 2.125,-6.03125 C 2.0625,-6.171875 2.0625,-6.203125 2.0625,-6.203125 2.0625,-6.5 2.625,-6.5 2.875,-6.5 V -6.8125 C 2.515625,-6.78125 1.828125,-6.78125 1.453125,-6.78125 L 0.1875,-6.8125 V -6.5 c 0.65625,0 0.84375,0 0.984375,0.375 L 3.484375,0 c 0.0625,0.1875 0.109375,0.21875 0.25,0.21875 0.15625,0 0.1875,-0.046875 0.234375,-0.1875 L 6.1875,-5.828125 C 6.328125,-6.203125 6.59375,-6.484375 7.28125,-6.5 Z m 0,0"
               style="stroke:none;stroke-width:0" />
          </symbol>
          <symbol
             id="id-50e730d7-fbd1-4369-aa7d-2fd96f5e508b"
             overflow="visible">
            <path
               id="id-210b44d8-d406-43c3-a76c-0c58d3d82cc9"
               d="m 4.8125,-0.890625 v -0.5625 h -0.25 v 0.5625 C 4.5625,-0.3125 4.3125,-0.25 4.203125,-0.25 3.875,-0.25 3.84375,-0.703125 3.84375,-0.75 v -1.984375 c 0,-0.421875 0,-0.8125 -0.359375,-1.1875 C 3.09375,-4.3125 2.59375,-4.46875 2.109375,-4.46875 c -0.8125,0 -1.5,0.46875 -1.5,1.125 0,0.296875 0.203125,0.46875 0.453125,0.46875 0.28125,0 0.46875,-0.203125 0.46875,-0.453125 0,-0.125 -0.0625,-0.453125 -0.515625,-0.453125 C 1.28125,-4.140625 1.78125,-4.25 2.09375,-4.25 c 0.484375,0 1.0625,0.390625 1.0625,1.28125 v 0.359375 C 2.640625,-2.578125 1.9375,-2.546875 1.3125,-2.25 c -0.75,0.34375 -1,0.859375 -1,1.296875 0,0.8125 0.96875,1.0625 1.59375,1.0625 0.671875,0 1.125,-0.40625 1.3125,-0.859375 0.046875,0.390625 0.3125,0.8125 0.78125,0.8125 0.203125,0 0.8125,-0.140625 0.8125,-0.953125 z m -1.65625,-0.5 c 0,0.9375 -0.71875,1.28125 -1.171875,1.28125 -0.484375,0 -0.890625,-0.34375 -0.890625,-0.84375 0,-0.546875 0.40625,-1.375 2.0625,-1.4375 z m 0,0"
               style="stroke:none;stroke-width:0" />
          </symbol>
          <symbol
             id="id-25da3ce7-2526-469b-adb0-761147b7ff87"
             overflow="visible">
            <path
               id="id-3213eac6-45ab-4424-a5bf-6250b979d3cd"
               d="m 3.3125,-1.234375 v -0.5625 h -0.25 V -1.25 c 0,0.734375 -0.296875,1.109375 -0.671875,1.109375 -0.671875,0 -0.671875,-0.90625 -0.671875,-1.078125 v -2.765625 h 1.4375 v -0.3125 H 1.71875 V -6.125 h -0.25 c 0,0.8125 -0.296875,1.875 -1.28125,1.921875 v 0.21875 h 0.84375 v 2.75 c 0,1.21875 0.9375,1.34375 1.296875,1.34375 0.703125,0 0.984375,-0.703125 0.984375,-1.34375 z m 0,0"
               style="stroke:none;stroke-width:0" />
          </symbol>
          <symbol
             id="id-4e6fabe9-bd52-46a1-882e-3e00cba0d930"
             overflow="visible">
            <path
               id="id-5140a5c7-a652-486f-9635-d80db8ec0c5e"
               d="m 5.328125,0 v -0.3125 c -0.515625,0 -0.765625,0 -0.765625,-0.296875 v -1.90625 c 0,-0.859375 0,-1.15625 -0.3125,-1.515625 -0.140625,-0.171875 -0.46875,-0.375 -1.046875,-0.375 C 2.46875,-4.40625 2,-3.984375 1.71875,-3.359375 V -4.40625 L 0.3125,-4.296875 v 0.3125 c 0.703125,0 0.78125,0.0625 0.78125,0.5625 V -0.75 c 0,0.4375 -0.109375,0.4375 -0.78125,0.4375 V 0 L 1.453125,-0.03125 2.5625,0 v -0.3125 c -0.671875,0 -0.78125,0 -0.78125,-0.4375 V -2.59375 C 1.78125,-3.625 2.5,-4.1875 3.125,-4.1875 c 0.640625,0 0.75,0.53125 0.75,1.109375 V -0.75 c 0,0.4375 -0.109375,0.4375 -0.78125,0.4375 V 0 l 1.125,-0.03125 z m 0,0"
               style="stroke:none;stroke-width:0" />
          </symbol>
        </g>
      </defs>
      <g
         transform="translate(-148.9,-127.953)"
         id="id-d4c62e22-d2ae-4f6c-a63e-d1ec9c775977">
        <g
           id="id-5f314512-7ac7-42be-9ad0-cf5ee8dc8b4f"
           style="fill:#000000;fill-opacity:1">
          <g
             transform="translate(148.712,134.765)"
             id="g1545">
            <path
               id="id-ce30d692-7ab8-4093-a43c-af9d8af2ac3c"
               d="M 7.28125,-6.5 V -6.8125 C 6.96875,-6.78125 6.5625,-6.78125 6.3125,-6.78125 L 5.171875,-6.8125 V -6.5 C 5.6875,-6.484375 5.90625,-6.234375 5.90625,-6 c 0,0.078125 -0.03125,0.140625 -0.046875,0.203125 L 4.03125,-1 2.125,-6.03125 C 2.0625,-6.171875 2.0625,-6.203125 2.0625,-6.203125 2.0625,-6.5 2.625,-6.5 2.875,-6.5 V -6.8125 C 2.515625,-6.78125 1.828125,-6.78125 1.453125,-6.78125 L 0.1875,-6.8125 V -6.5 c 0.65625,0 0.84375,0 0.984375,0.375 L 3.484375,0 c 0.0625,0.1875 0.109375,0.21875 0.25,0.21875 0.15625,0 0.1875,-0.046875 0.234375,-0.1875 L 6.1875,-5.828125 C 6.328125,-6.203125 6.59375,-6.484375 7.28125,-6.5 Z m 0,0"
               style="stroke:none;stroke-width:0" />
          </g>
        </g>
        <g
           id="id-78900d5b-0781-47f6-8c84-c64459b7c26e"
           style="fill:#000000;fill-opacity:1">
          <g
             transform="translate(155.357,134.765)"
             id="g1549">
            <path
               id="id-cdd27880-8bdd-40e0-9b2b-3be4b306ec68"
               d="m 4.8125,-0.890625 v -0.5625 h -0.25 v 0.5625 C 4.5625,-0.3125 4.3125,-0.25 4.203125,-0.25 3.875,-0.25 3.84375,-0.703125 3.84375,-0.75 v -1.984375 c 0,-0.421875 0,-0.8125 -0.359375,-1.1875 C 3.09375,-4.3125 2.59375,-4.46875 2.109375,-4.46875 c -0.8125,0 -1.5,0.46875 -1.5,1.125 0,0.296875 0.203125,0.46875 0.453125,0.46875 0.28125,0 0.46875,-0.203125 0.46875,-0.453125 0,-0.125 -0.0625,-0.453125 -0.515625,-0.453125 C 1.28125,-4.140625 1.78125,-4.25 2.09375,-4.25 c 0.484375,0 1.0625,0.390625 1.0625,1.28125 v 0.359375 C 2.640625,-2.578125 1.9375,-2.546875 1.3125,-2.25 c -0.75,0.34375 -1,0.859375 -1,1.296875 0,0.8125 0.96875,1.0625 1.59375,1.0625 0.671875,0 1.125,-0.40625 1.3125,-0.859375 0.046875,0.390625 0.3125,0.8125 0.78125,0.8125 0.203125,0 0.8125,-0.140625 0.8125,-0.953125 z m -1.65625,-0.5 c 0,0.9375 -0.71875,1.28125 -1.171875,1.28125 -0.484375,0 -0.890625,-0.34375 -0.890625,-0.84375 0,-0.546875 0.40625,-1.375 2.0625,-1.4375 z m 0,0"
               style="stroke:none;stroke-width:0" />
          </g>
          <g
             transform="translate(160.338,134.765)"
             id="g1552">
            <path
               id="id-7e085a43-583d-4015-8e73-baa64cd45c36"
               d="m 3.3125,-1.234375 v -0.5625 h -0.25 V -1.25 c 0,0.734375 -0.296875,1.109375 -0.671875,1.109375 -0.671875,0 -0.671875,-0.90625 -0.671875,-1.078125 v -2.765625 h 1.4375 v -0.3125 H 1.71875 V -6.125 h -0.25 c 0,0.8125 -0.296875,1.875 -1.28125,1.921875 v 0.21875 h 0.84375 v 2.75 c 0,1.21875 0.9375,1.34375 1.296875,1.34375 0.703125,0 0.984375,-0.703125 0.984375,-1.34375 z m 0,0"
               style="stroke:none;stroke-width:0" />
          </g>
          <g
             transform="translate(164.213,134.765)"
             id="g1555">
            <path
               id="id-db2e141f-aa8a-4411-8108-ad640ee86cca"
               d="m 5.328125,0 v -0.3125 c -0.515625,0 -0.765625,0 -0.765625,-0.296875 v -1.90625 c 0,-0.859375 0,-1.15625 -0.3125,-1.515625 -0.140625,-0.171875 -0.46875,-0.375 -1.046875,-0.375 C 2.46875,-4.40625 2,-3.984375 1.71875,-3.359375 V -4.40625 L 0.3125,-4.296875 v 0.3125 c 0.703125,0 0.78125,0.0625 0.78125,0.5625 V -0.75 c 0,0.4375 -0.109375,0.4375 -0.78125,0.4375 V 0 L 1.453125,-0.03125 2.5625,0 v -0.3125 c -0.671875,0 -0.78125,0 -0.78125,-0.4375 V -2.59375 C 1.78125,-3.625 2.5,-4.1875 3.125,-4.1875 c 0.640625,0 0.75,0.53125 0.75,1.109375 V -0.75 c 0,0.4375 -0.109375,0.4375 -0.78125,0.4375 V 0 l 1.125,-0.03125 z m 0,0"
               style="stroke:none;stroke-width:0" />
          </g>
        </g>
      </g>
    </g>
    <path
       id="path1587"
       d="M 82.500487,147.80551 95.486552,137.78597"
       style="fill:none;stroke:#000000;stroke-width:0.264583px;stroke-linecap:butt;stroke-linejoin:miter;stroke-opacity:1" />
    <path
       id="path1589"
       d="m 95.48655,137.78597 5.00942,10.04229"
       style="fill:none;stroke:#000000;stroke-width:0.264583px;stroke-linecap:butt;stroke-linejoin:miter;stroke-opacity:1" />
    <path
       sodipodi:nodetypes="cc"
       id="path1591"
       d="m 70.029134,141.96414 19.952379,0"
       style="fill:none;stroke:#000000;stroke-width:0.264583px;stroke-linecap:butt;stroke-linejoin:miter;stroke-opacity:1" />
    <path
       style="fill:none;stroke:#000000;stroke-width:0.3;stroke-linecap:butt;stroke-linejoin:miter;stroke-miterlimit:4;stroke-dasharray:none;stroke-opacity:1"
       d="m 100.58235,124.7724 v 23.03311"
       id="path852-7"
       sodipodi:nodetypes="cc" />
    <g
       transform="matrix(0.264583,0,0,0.264583,90.117908,144.82626)"
       ns4:version="1.3.1"
       ns4:texconverter="pdflatex"
       ns4:pdfconverter="inkscape"
       ns4:text="Gler"
       ns4:preamble="/Users/mbh/Library/Application Support/org.inkscape.Inkscape/config/inkscape/extensions/textext/default_packages.tex"
       ns4:scale="0.75"
       ns4:alignment="middle center"
       ns4:jacobian_sqrt="0.264583"
       id="g1757">
      <defs
         id="id-71157259-e510-4b15-b8f0-c01a70c10d2a">
        <g
           id="id-ff5601fe-9f93-4e3e-afd6-a6a5471df104">
          <symbol
             id="id-ab9bc56b-9fc6-4a17-8106-4db0d00a18f9"
             overflow="visible">
            <path
               id="id-abf1ca7c-cdd8-431f-8962-237cda13a111"
               d=""
               style="stroke:none;stroke-width:0" />
          </symbol>
          <symbol
             id="id-fc29af34-6eda-47ce-a7a1-1308321e5d1e"
             overflow="visible">
            <path
               id="id-5b36a66a-d267-45e9-baaa-19fa8d682cf9"
               d="m 7.328125,-2.40625 v -0.3125 l -1.21875,0.03125 c -0.390625,0 -1.25,0 -1.609375,-0.03125 v 0.3125 H 4.828125 C 5.71875,-2.40625 5.75,-2.296875 5.75,-1.9375 v 0.640625 c 0,1.125 -1.265625,1.203125 -1.546875,1.203125 -0.640625,0 -2.625,-0.34375 -2.625,-3.3125 0,-2.984375 1.96875,-3.3125 2.5625,-3.3125 1.078125,0 1.984375,0.890625 2.171875,2.359375 0.03125,0.140625 0.03125,0.171875 0.171875,0.171875 0.15625,0 0.15625,-0.03125 0.15625,-0.234375 V -6.78125 c 0,-0.171875 0,-0.25 -0.109375,-0.25 -0.046875,0 -0.078125,0 -0.15625,0.125 l -0.5,0.734375 C 5.546875,-6.484375 5.015625,-7.03125 4.03125,-7.03125 c -1.859375,0 -3.46875,1.578125 -3.46875,3.625 0,2.046875 1.59375,3.625 3.484375,3.625 0.734375,0 1.53125,-0.265625 1.859375,-0.84375 0.140625,0.21875 0.53125,0.609375 0.640625,0.609375 0.09375,0 0.09375,-0.078125 0.09375,-0.21875 V -1.96875 c 0,-0.390625 0.03125,-0.4375 0.6875,-0.4375 z m 0,0"
               style="stroke:none;stroke-width:0" />
          </symbol>
          <symbol
             id="id-55598274-de8c-403a-92b1-51502c4d69fb"
             overflow="visible">
            <path
               id="id-e8bef81f-8ffa-4d76-a7cb-28aeefb3d31b"
               d="m 2.546875,0 v -0.3125 c -0.671875,0 -0.78125,0 -0.78125,-0.4375 V -6.921875 L 0.328125,-6.8125 V -6.5 c 0.703125,0 0.78125,0.0625 0.78125,0.5625 V -0.75 c 0,0.4375 -0.109375,0.4375 -0.78125,0.4375 V 0 L 1.4375,-0.03125 Z m 0,0"
               style="stroke:none;stroke-width:0" />
          </symbol>
          <symbol
             id="id-d42f09b7-b7e3-47a1-9831-0b4cff3bdedb"
             overflow="visible">
            <path
               id="id-083f1ba3-ee50-4447-99fc-4046059c2e26"
               d="m 4.140625,-1.1875 c 0,-0.09375 -0.078125,-0.125 -0.140625,-0.125 -0.078125,0 -0.109375,0.0625 -0.125,0.140625 -0.34375,1.03125 -1.25,1.03125 -1.34375,1.03125 -0.5,0 -0.890625,-0.296875 -1.125,-0.671875 -0.296875,-0.46875 -0.296875,-1.125 -0.296875,-1.484375 h 2.78125 c 0.21875,0 0.25,0 0.25,-0.21875 0,-0.984375 -0.546875,-1.953125 -1.78125,-1.953125 -1.15625,0 -2.078125,1.03125 -2.078125,2.28125 0,1.328125 1.046875,2.296875 2.1875,2.296875 C 3.6875,0.109375 4.140625,-1 4.140625,-1.1875 Z m -0.65625,-1.328125 h -2.375 C 1.171875,-4 2.015625,-4.25 2.359375,-4.25 c 1.015625,0 1.125,1.34375 1.125,1.734375 z m 0,0"
               style="stroke:none;stroke-width:0" />
          </symbol>
          <symbol
             id="id-36980f5e-74b8-4643-b667-3c16d11e5c10"
             overflow="visible">
            <path
               id="id-3e8aa453-a84f-46ed-abee-6e38b44b4f5f"
               d="m 3.625,-3.796875 c 0,-0.3125 -0.3125,-0.609375 -0.734375,-0.609375 -0.734375,0 -1.09375,0.671875 -1.21875,1.09375 V -4.40625 L 0.28125,-4.296875 v 0.3125 c 0.703125,0 0.78125,0.0625 0.78125,0.5625 V -0.75 c 0,0.4375 -0.109375,0.4375 -0.78125,0.4375 V 0 l 1.140625,-0.03125 c 0.390625,0 0.859375,0 1.265625,0.03125 V -0.3125 H 2.46875 c -0.734375,0 -0.75,-0.109375 -0.75,-0.46875 V -2.3125 c 0,-0.984375 0.421875,-1.875 1.171875,-1.875 0.0625,0 0.09375,0 0.109375,0.015625 -0.03125,0 -0.234375,0.125 -0.234375,0.390625 0,0.265625 0.21875,0.421875 0.4375,0.421875 0.171875,0 0.421875,-0.125 0.421875,-0.4375 z m 0,0"
               style="stroke:none;stroke-width:0" />
          </symbol>
        </g>
      </defs>
      <g
         transform="translate(-149.275,-127.734)"
         id="id-f6498a78-894f-4e12-bd58-8fcba1ac6e7f">
        <g
           id="id-b617fb3c-61a6-4afa-972b-588a4d0b7872"
           style="fill:#000000;fill-opacity:1">
          <g
             transform="translate(148.712,134.765)"
             id="g1744">
            <path
               id="id-356d462b-a141-4ff7-a76c-7ee8633fbbf4"
               d="m 7.328125,-2.40625 v -0.3125 l -1.21875,0.03125 c -0.390625,0 -1.25,0 -1.609375,-0.03125 v 0.3125 H 4.828125 C 5.71875,-2.40625 5.75,-2.296875 5.75,-1.9375 v 0.640625 c 0,1.125 -1.265625,1.203125 -1.546875,1.203125 -0.640625,0 -2.625,-0.34375 -2.625,-3.3125 0,-2.984375 1.96875,-3.3125 2.5625,-3.3125 1.078125,0 1.984375,0.890625 2.171875,2.359375 0.03125,0.140625 0.03125,0.171875 0.171875,0.171875 0.15625,0 0.15625,-0.03125 0.15625,-0.234375 V -6.78125 c 0,-0.171875 0,-0.25 -0.109375,-0.25 -0.046875,0 -0.078125,0 -0.15625,0.125 l -0.5,0.734375 C 5.546875,-6.484375 5.015625,-7.03125 4.03125,-7.03125 c -1.859375,0 -3.46875,1.578125 -3.46875,3.625 0,2.046875 1.59375,3.625 3.484375,3.625 0.734375,0 1.53125,-0.265625 1.859375,-0.84375 0.140625,0.21875 0.53125,0.609375 0.640625,0.609375 0.09375,0 0.09375,-0.078125 0.09375,-0.21875 V -1.96875 c 0,-0.390625 0.03125,-0.4375 0.6875,-0.4375 z m 0,0"
               style="stroke:none;stroke-width:0" />
          </g>
          <g
             transform="translate(156.53,134.765)"
             id="g1747">
            <path
               id="id-b500d3c9-0f5c-46d4-8e13-fb34774661cd"
               d="m 2.546875,0 v -0.3125 c -0.671875,0 -0.78125,0 -0.78125,-0.4375 V -6.921875 L 0.328125,-6.8125 V -6.5 c 0.703125,0 0.78125,0.0625 0.78125,0.5625 V -0.75 c 0,0.4375 -0.109375,0.4375 -0.78125,0.4375 V 0 L 1.4375,-0.03125 Z m 0,0"
               style="stroke:none;stroke-width:0" />
          </g>
          <g
             transform="translate(159.297,134.765)"
             id="g1750">
            <path
               id="id-99eb7e21-32be-4bdd-b23d-d2c94e1e2467"
               d="m 4.140625,-1.1875 c 0,-0.09375 -0.078125,-0.125 -0.140625,-0.125 -0.078125,0 -0.109375,0.0625 -0.125,0.140625 -0.34375,1.03125 -1.25,1.03125 -1.34375,1.03125 -0.5,0 -0.890625,-0.296875 -1.125,-0.671875 -0.296875,-0.46875 -0.296875,-1.125 -0.296875,-1.484375 h 2.78125 c 0.21875,0 0.25,0 0.25,-0.21875 0,-0.984375 -0.546875,-1.953125 -1.78125,-1.953125 -1.15625,0 -2.078125,1.03125 -2.078125,2.28125 0,1.328125 1.046875,2.296875 2.1875,2.296875 C 3.6875,0.109375 4.140625,-1 4.140625,-1.1875 Z m -0.65625,-1.328125 h -2.375 C 1.171875,-4 2.015625,-4.25 2.359375,-4.25 c 1.015625,0 1.125,1.34375 1.125,1.734375 z m 0,0"
               style="stroke:none;stroke-width:0" />
          </g>
          <g
             transform="translate(163.726,134.765)"
             id="g1753">
            <path
               id="id-3858ca50-6e37-4417-935a-de2bd275990c"
               d="m 3.625,-3.796875 c 0,-0.3125 -0.3125,-0.609375 -0.734375,-0.609375 -0.734375,0 -1.09375,0.671875 -1.21875,1.09375 V -4.40625 L 0.28125,-4.296875 v 0.3125 c 0.703125,0 0.78125,0.0625 0.78125,0.5625 V -0.75 c 0,0.4375 -0.109375,0.4375 -0.78125,0.4375 V 0 l 1.140625,-0.03125 c 0.390625,0 0.859375,0 1.265625,0.03125 V -0.3125 H 2.46875 c -0.734375,0 -0.75,-0.109375 -0.75,-0.46875 V -2.3125 c 0,-0.984375 0.421875,-1.875 1.171875,-1.875 0.0625,0 0.09375,0 0.109375,0.015625 -0.03125,0 -0.234375,0.125 -0.234375,0.390625 0,0.265625 0.21875,0.421875 0.4375,0.421875 0.171875,0 0.421875,-0.125 0.421875,-0.4375 z m 0,0"
               style="stroke:none;stroke-width:0" />
          </g>
        </g>
      </g>
    </g>
    <path
       sodipodi:nodetypes="cc"
       id="path1784"
       d="m 77.951796,141.98952 0.673132,0"
       style="opacity:1;fill:none;stroke:#000000;stroke-width:0.265;stroke-linecap:butt;stroke-linejoin:miter;stroke-miterlimit:4;stroke-dasharray:none;stroke-opacity:1;marker-end:url(#Arrow1Mend)" />
    <g
       transform="matrix(0.264583,0,0,0.264583,67.510676,136.91528)"
       ns4:version="1.3.1"
       ns4:texconverter="pdflatex"
       ns4:pdfconverter="inkscape"
       ns4:text="Leisigeisli"
       ns4:preamble="/Users/mbh/Library/Application Support/org.inkscape.Inkscape/config/inkscape/extensions/textext/default_packages.tex"
       ns4:scale="0.75"
       ns4:alignment="middle center"
       ns4:jacobian_sqrt="0.264583"
       id="g2185">
      <defs
         id="id-a5d8b69d-d081-4bba-8851-b6614afad4a3">
        <g
           id="id-8b6bb67a-9214-44e9-902a-88ef97999a41">
          <symbol
             id="id-91875d84-5068-4258-b276-6d0717b60855"
             overflow="visible">
            <path
               id="id-fecf0776-7c60-4aeb-a87a-d1c5875b9f21"
               d=""
               style="stroke:none;stroke-width:0" />
          </symbol>
          <symbol
             id="id-0840afba-c8b4-4c0a-91fa-d7be5be0b438"
             overflow="visible">
            <path
               id="id-e2c9a09f-d488-4cdc-86b2-09917fdc8db2"
               d="m 5.796875,-2.578125 h -0.25 c -0.109375,1.015625 -0.25,2.265625 -2,2.265625 h -0.8125 C 2.265625,-0.3125 2.25,-0.375 2.25,-0.703125 v -5.3125 C 2.25,-6.359375 2.25,-6.5 3.1875,-6.5 H 3.515625 V -6.8125 C 3.15625,-6.78125 2.25,-6.78125 1.84375,-6.78125 c -0.390625,0 -1.171875,0 -1.515625,-0.03125 V -6.5 H 0.5625 c 0.765625,0 0.796875,0.109375 0.796875,0.46875 v 5.25 c 0,0.359375 -0.03125,0.46875 -0.796875,0.46875 H 0.328125 V 0 h 5.1875 z m 0,0"
               style="stroke:none;stroke-width:0" />
          </symbol>
          <symbol
             id="id-4f3fdf86-ba9d-4698-a4c6-4c417a317d22"
             overflow="visible">
            <path
               id="id-a30bbf27-bc97-49ce-8f22-b163fb7214fb"
               d="m 4.140625,-1.1875 c 0,-0.09375 -0.078125,-0.125 -0.140625,-0.125 -0.078125,0 -0.109375,0.0625 -0.125,0.140625 -0.34375,1.03125 -1.25,1.03125 -1.34375,1.03125 -0.5,0 -0.890625,-0.296875 -1.125,-0.671875 -0.296875,-0.46875 -0.296875,-1.125 -0.296875,-1.484375 h 2.78125 c 0.21875,0 0.25,0 0.25,-0.21875 0,-0.984375 -0.546875,-1.953125 -1.78125,-1.953125 -1.15625,0 -2.078125,1.03125 -2.078125,2.28125 0,1.328125 1.046875,2.296875 2.1875,2.296875 C 3.6875,0.109375 4.140625,-1 4.140625,-1.1875 Z m -0.65625,-1.328125 h -2.375 C 1.171875,-4 2.015625,-4.25 2.359375,-4.25 c 1.015625,0 1.125,1.34375 1.125,1.734375 z m 0,0"
               style="stroke:none;stroke-width:0" />
          </symbol>
          <symbol
             id="id-9dd8ebb4-af90-4d20-b229-bd569fdbfa5b"
             overflow="visible">
            <path
               id="id-62652ee5-aabc-4861-92b9-c830db1e2666"
               d="m 2.46875,0 v -0.3125 c -0.671875,0 -0.703125,-0.046875 -0.703125,-0.4375 V -4.40625 L 0.375,-4.296875 v 0.3125 c 0.640625,0 0.734375,0.0625 0.734375,0.546875 V -0.75 c 0,0.4375 -0.109375,0.4375 -0.78125,0.4375 V 0 l 1.09375,-0.03125 C 1.78125,-0.03125 2.125,-0.015625 2.46875,0 Z m -0.5625,-6.015625 c 0,-0.28125 -0.21875,-0.53125 -0.515625,-0.53125 -0.34375,0 -0.546875,0.28125 -0.546875,0.53125 C 0.84375,-5.75 1.078125,-5.5 1.375,-5.5 c 0.34375,0 0.53125,-0.265625 0.53125,-0.515625 z m 0,0"
               style="stroke:none;stroke-width:0" />
          </symbol>
          <symbol
             id="id-76ea6251-88c5-491e-9182-1204297acecd"
             overflow="visible">
            <path
               id="id-92f3560f-23ea-455a-b45f-5776315c18c8"
               d="m 3.59375,-1.28125 c 0,-0.515625 -0.296875,-0.828125 -0.421875,-0.9375 C 2.84375,-2.546875 2.453125,-2.625 2.03125,-2.703125 1.46875,-2.8125 0.8125,-2.9375 0.8125,-3.515625 c 0,-0.359375 0.25,-0.765625 1.109375,-0.765625 1.09375,0 1.15625,0.90625 1.171875,1.203125 0,0.09375 0.109375,0.09375 0.109375,0.09375 0.140625,0 0.140625,-0.046875 0.140625,-0.234375 v -1.015625 c 0,-0.15625 0,-0.234375 -0.109375,-0.234375 -0.046875,0 -0.078125,0 -0.203125,0.125 -0.03125,0.03125 -0.125,0.125 -0.171875,0.15625 -0.375,-0.28125 -0.78125,-0.28125 -0.9375,-0.28125 -1.21875,0 -1.59375,0.671875 -1.59375,1.234375 0,0.34375 0.15625,0.625 0.421875,0.84375 0.328125,0.25 0.609375,0.3125 1.328125,0.453125 0.21875,0.046875 1.03125,0.203125 1.03125,0.921875 0,0.5 -0.34375,0.90625 -1.125,0.90625 -0.84375,0 -1.203125,-0.5625 -1.390625,-1.421875 C 0.5625,-1.65625 0.5625,-1.6875 0.453125,-1.6875 c -0.125,0 -0.125,0.0625 -0.125,0.234375 V -0.125 c 0,0.171875 0,0.234375 0.109375,0.234375 0.046875,0 0.0625,-0.015625 0.25,-0.203125 0.015625,-0.015625 0.015625,-0.03125 0.203125,-0.21875 0.4375,0.40625 0.890625,0.421875 1.09375,0.421875 1.140625,0 1.609375,-0.671875 1.609375,-1.390625 z m 0,0"
               style="stroke:none;stroke-width:0" />
          </symbol>
          <symbol
             id="id-67ebf78e-14d1-4be4-95d7-9f587539a41f"
             overflow="visible">
            <path
               id="id-8173907a-8b4d-460d-81e3-d29dfefd6a75"
               d="m 4.828125,-4.03125 c 0,-0.171875 -0.109375,-0.484375 -0.5,-0.484375 -0.203125,0 -0.640625,0.0625 -1.0625,0.46875 C 2.84375,-4.375 2.4375,-4.40625 2.21875,-4.40625 c -0.9375,0 -1.625,0.6875 -1.625,1.453125 0,0.4375 0.21875,0.8125 0.46875,1.03125 -0.125,0.140625 -0.3125,0.46875 -0.3125,0.828125 0,0.3125 0.140625,0.6875 0.453125,0.890625 -0.609375,0.15625 -0.921875,0.59375 -0.921875,0.984375 0,0.71875 0.984375,1.265625 2.203125,1.265625 1.171875,0 2.203125,-0.5 2.203125,-1.28125 0,-0.34375 -0.125,-0.859375 -0.640625,-1.140625 -0.53125,-0.265625 -1.109375,-0.265625 -1.71875,-0.265625 -0.25,0 -0.671875,0 -0.75,-0.015625 C 1.265625,-0.703125 1.0625,-1 1.0625,-1.328125 c 0,-0.03125 0,-0.265625 0.15625,-0.46875 0.390625,0.28125 0.8125,0.3125 1,0.3125 0.921875,0 1.609375,-0.6875 1.609375,-1.453125 0,-0.375 -0.15625,-0.734375 -0.40625,-0.96875 C 3.78125,-4.25 4.140625,-4.296875 4.3125,-4.296875 c 0,0 0.078125,0 0.109375,0.015625 C 4.3125,-4.25 4.25,-4.140625 4.25,-4.015625 c 0,0.171875 0.140625,0.28125 0.296875,0.28125 0.09375,0 0.28125,-0.0625 0.28125,-0.296875 z m -1.75,1.078125 c 0,0.265625 0,0.59375 -0.15625,0.84375 C 2.84375,-2 2.609375,-1.71875 2.21875,-1.71875 c -0.875,0 -0.875,-1 -0.875,-1.21875 0,-0.265625 0.015625,-0.59375 0.15625,-0.84375 0.078125,-0.109375 0.3125,-0.390625 0.71875,-0.390625 0.859375,0 0.859375,0.984375 0.859375,1.21875 z m 1.09375,3.734375 c 0,0.546875 -0.703125,1.046875 -1.671875,1.046875 -1.015625,0 -1.703125,-0.515625 -1.703125,-1.046875 0,-0.453125 0.375,-0.828125 0.8125,-0.84375 h 0.59375 c 0.859375,0 1.96875,0 1.96875,0.84375 z m 0,0"
               style="stroke:none;stroke-width:0" />
          </symbol>
          <symbol
             id="id-c045ce23-1f32-4c3e-914f-3df342431d60"
             overflow="visible">
            <path
               id="id-f7b32563-e25d-4efc-b535-e63c1ee04ceb"
               d="m 2.546875,0 v -0.3125 c -0.671875,0 -0.78125,0 -0.78125,-0.4375 V -6.921875 L 0.328125,-6.8125 V -6.5 c 0.703125,0 0.78125,0.0625 0.78125,0.5625 V -0.75 c 0,0.4375 -0.109375,0.4375 -0.78125,0.4375 V 0 L 1.4375,-0.03125 Z m 0,0"
               style="stroke:none;stroke-width:0" />
          </symbol>
        </g>
      </defs>
      <g
         transform="translate(-149.04,-127.843)"
         id="id-328e2004-1858-44cf-940f-6043fc8ef226">
        <g
           id="id-8eb8ed7e-e485-41a3-9c31-6db797fb0dad"
           style="fill:#000000;fill-opacity:1">
          <g
             transform="translate(148.712,134.765)"
             id="g2151">
            <path
               id="id-f902b886-c08a-463b-85dd-110de0abb6b3"
               d="m 5.796875,-2.578125 h -0.25 c -0.109375,1.015625 -0.25,2.265625 -2,2.265625 h -0.8125 C 2.265625,-0.3125 2.25,-0.375 2.25,-0.703125 v -5.3125 C 2.25,-6.359375 2.25,-6.5 3.1875,-6.5 H 3.515625 V -6.8125 C 3.15625,-6.78125 2.25,-6.78125 1.84375,-6.78125 c -0.390625,0 -1.171875,0 -1.515625,-0.03125 V -6.5 H 0.5625 c 0.765625,0 0.796875,0.109375 0.796875,0.46875 v 5.25 c 0,0.359375 -0.03125,0.46875 -0.796875,0.46875 H 0.328125 V 0 h 5.1875 z m 0,0"
               style="stroke:none;stroke-width:0" />
          </g>
          <g
             transform="translate(154.939,134.765)"
             id="g2154">
            <path
               id="id-cae7a75c-766c-42d5-94a9-73a5807daf5a"
               d="m 4.140625,-1.1875 c 0,-0.09375 -0.078125,-0.125 -0.140625,-0.125 -0.078125,0 -0.109375,0.0625 -0.125,0.140625 -0.34375,1.03125 -1.25,1.03125 -1.34375,1.03125 -0.5,0 -0.890625,-0.296875 -1.125,-0.671875 -0.296875,-0.46875 -0.296875,-1.125 -0.296875,-1.484375 h 2.78125 c 0.21875,0 0.25,0 0.25,-0.21875 0,-0.984375 -0.546875,-1.953125 -1.78125,-1.953125 -1.15625,0 -2.078125,1.03125 -2.078125,2.28125 0,1.328125 1.046875,2.296875 2.1875,2.296875 C 3.6875,0.109375 4.140625,-1 4.140625,-1.1875 Z m -0.65625,-1.328125 h -2.375 C 1.171875,-4 2.015625,-4.25 2.359375,-4.25 c 1.015625,0 1.125,1.34375 1.125,1.734375 z m 0,0"
               style="stroke:none;stroke-width:0" />
          </g>
          <g
             transform="translate(159.367,134.765)"
             id="g2157">
            <path
               id="id-bfc01b8b-ab2e-4bb6-acc2-8ee39f9cac8e"
               d="m 2.46875,0 v -0.3125 c -0.671875,0 -0.703125,-0.046875 -0.703125,-0.4375 V -4.40625 L 0.375,-4.296875 v 0.3125 c 0.640625,0 0.734375,0.0625 0.734375,0.546875 V -0.75 c 0,0.4375 -0.109375,0.4375 -0.78125,0.4375 V 0 l 1.09375,-0.03125 C 1.78125,-0.03125 2.125,-0.015625 2.46875,0 Z m -0.5625,-6.015625 c 0,-0.28125 -0.21875,-0.53125 -0.515625,-0.53125 -0.34375,0 -0.546875,0.28125 -0.546875,0.53125 C 0.84375,-5.75 1.078125,-5.5 1.375,-5.5 c 0.34375,0 0.53125,-0.265625 0.53125,-0.515625 z m 0,0"
               style="stroke:none;stroke-width:0" />
          </g>
          <g
             transform="translate(162.135,134.765)"
             id="g2160">
            <path
               id="id-f82c81ca-4852-4ee5-9b4c-c284c8056dba"
               d="m 3.59375,-1.28125 c 0,-0.515625 -0.296875,-0.828125 -0.421875,-0.9375 C 2.84375,-2.546875 2.453125,-2.625 2.03125,-2.703125 1.46875,-2.8125 0.8125,-2.9375 0.8125,-3.515625 c 0,-0.359375 0.25,-0.765625 1.109375,-0.765625 1.09375,0 1.15625,0.90625 1.171875,1.203125 0,0.09375 0.109375,0.09375 0.109375,0.09375 0.140625,0 0.140625,-0.046875 0.140625,-0.234375 v -1.015625 c 0,-0.15625 0,-0.234375 -0.109375,-0.234375 -0.046875,0 -0.078125,0 -0.203125,0.125 -0.03125,0.03125 -0.125,0.125 -0.171875,0.15625 -0.375,-0.28125 -0.78125,-0.28125 -0.9375,-0.28125 -1.21875,0 -1.59375,0.671875 -1.59375,1.234375 0,0.34375 0.15625,0.625 0.421875,0.84375 0.328125,0.25 0.609375,0.3125 1.328125,0.453125 0.21875,0.046875 1.03125,0.203125 1.03125,0.921875 0,0.5 -0.34375,0.90625 -1.125,0.90625 -0.84375,0 -1.203125,-0.5625 -1.390625,-1.421875 C 0.5625,-1.65625 0.5625,-1.6875 0.453125,-1.6875 c -0.125,0 -0.125,0.0625 -0.125,0.234375 V -0.125 c 0,0.171875 0,0.234375 0.109375,0.234375 0.046875,0 0.0625,-0.015625 0.25,-0.203125 0.015625,-0.015625 0.015625,-0.03125 0.203125,-0.21875 0.4375,0.40625 0.890625,0.421875 1.09375,0.421875 1.140625,0 1.609375,-0.671875 1.609375,-1.390625 z m 0,0"
               style="stroke:none;stroke-width:0" />
          </g>
          <g
             transform="translate(166.065,134.765)"
             id="g2163">
            <path
               id="id-2b8bd54d-93f9-475b-b7fa-92442a30d5e4"
               d="m 2.46875,0 v -0.3125 c -0.671875,0 -0.703125,-0.046875 -0.703125,-0.4375 V -4.40625 L 0.375,-4.296875 v 0.3125 c 0.640625,0 0.734375,0.0625 0.734375,0.546875 V -0.75 c 0,0.4375 -0.109375,0.4375 -0.78125,0.4375 V 0 l 1.09375,-0.03125 C 1.78125,-0.03125 2.125,-0.015625 2.46875,0 Z m -0.5625,-6.015625 c 0,-0.28125 -0.21875,-0.53125 -0.515625,-0.53125 -0.34375,0 -0.546875,0.28125 -0.546875,0.53125 C 0.84375,-5.75 1.078125,-5.5 1.375,-5.5 c 0.34375,0 0.53125,-0.265625 0.53125,-0.515625 z m 0,0"
               style="stroke:none;stroke-width:0" />
          </g>
          <g
             transform="translate(168.832,134.765)"
             id="g2166">
            <path
               id="id-357628a1-529e-4bf7-b22e-38da0f59ac15"
               d="m 4.828125,-4.03125 c 0,-0.171875 -0.109375,-0.484375 -0.5,-0.484375 -0.203125,0 -0.640625,0.0625 -1.0625,0.46875 C 2.84375,-4.375 2.4375,-4.40625 2.21875,-4.40625 c -0.9375,0 -1.625,0.6875 -1.625,1.453125 0,0.4375 0.21875,0.8125 0.46875,1.03125 -0.125,0.140625 -0.3125,0.46875 -0.3125,0.828125 0,0.3125 0.140625,0.6875 0.453125,0.890625 -0.609375,0.15625 -0.921875,0.59375 -0.921875,0.984375 0,0.71875 0.984375,1.265625 2.203125,1.265625 1.171875,0 2.203125,-0.5 2.203125,-1.28125 0,-0.34375 -0.125,-0.859375 -0.640625,-1.140625 -0.53125,-0.265625 -1.109375,-0.265625 -1.71875,-0.265625 -0.25,0 -0.671875,0 -0.75,-0.015625 C 1.265625,-0.703125 1.0625,-1 1.0625,-1.328125 c 0,-0.03125 0,-0.265625 0.15625,-0.46875 0.390625,0.28125 0.8125,0.3125 1,0.3125 0.921875,0 1.609375,-0.6875 1.609375,-1.453125 0,-0.375 -0.15625,-0.734375 -0.40625,-0.96875 C 3.78125,-4.25 4.140625,-4.296875 4.3125,-4.296875 c 0,0 0.078125,0 0.109375,0.015625 C 4.3125,-4.25 4.25,-4.140625 4.25,-4.015625 c 0,0.171875 0.140625,0.28125 0.296875,0.28125 0.09375,0 0.28125,-0.0625 0.28125,-0.296875 z m -1.75,1.078125 c 0,0.265625 0,0.59375 -0.15625,0.84375 C 2.84375,-2 2.609375,-1.71875 2.21875,-1.71875 c -0.875,0 -0.875,-1 -0.875,-1.21875 0,-0.265625 0.015625,-0.59375 0.15625,-0.84375 0.078125,-0.109375 0.3125,-0.390625 0.71875,-0.390625 0.859375,0 0.859375,0.984375 0.859375,1.21875 z m 1.09375,3.734375 c 0,0.546875 -0.703125,1.046875 -1.671875,1.046875 -1.015625,0 -1.703125,-0.515625 -1.703125,-1.046875 0,-0.453125 0.375,-0.828125 0.8125,-0.84375 h 0.59375 c 0.859375,0 1.96875,0 1.96875,0.84375 z m 0,0"
               style="stroke:none;stroke-width:0" />
          </g>
          <g
             transform="translate(173.814,134.765)"
             id="g2169">
            <path
               id="id-a3d7e545-e2e4-4388-bed0-d98ac0973238"
               d="m 4.140625,-1.1875 c 0,-0.09375 -0.078125,-0.125 -0.140625,-0.125 -0.078125,0 -0.109375,0.0625 -0.125,0.140625 -0.34375,1.03125 -1.25,1.03125 -1.34375,1.03125 -0.5,0 -0.890625,-0.296875 -1.125,-0.671875 -0.296875,-0.46875 -0.296875,-1.125 -0.296875,-1.484375 h 2.78125 c 0.21875,0 0.25,0 0.25,-0.21875 0,-0.984375 -0.546875,-1.953125 -1.78125,-1.953125 -1.15625,0 -2.078125,1.03125 -2.078125,2.28125 0,1.328125 1.046875,2.296875 2.1875,2.296875 C 3.6875,0.109375 4.140625,-1 4.140625,-1.1875 Z m -0.65625,-1.328125 h -2.375 C 1.171875,-4 2.015625,-4.25 2.359375,-4.25 c 1.015625,0 1.125,1.34375 1.125,1.734375 z m 0,0"
               style="stroke:none;stroke-width:0" />
          </g>
          <g
             transform="translate(178.242,134.765)"
             id="g2172">
            <path
               id="id-b6d4137e-3571-4ecd-8309-fa0ade223fd2"
               d="m 2.46875,0 v -0.3125 c -0.671875,0 -0.703125,-0.046875 -0.703125,-0.4375 V -4.40625 L 0.375,-4.296875 v 0.3125 c 0.640625,0 0.734375,0.0625 0.734375,0.546875 V -0.75 c 0,0.4375 -0.109375,0.4375 -0.78125,0.4375 V 0 l 1.09375,-0.03125 C 1.78125,-0.03125 2.125,-0.015625 2.46875,0 Z m -0.5625,-6.015625 c 0,-0.28125 -0.21875,-0.53125 -0.515625,-0.53125 -0.34375,0 -0.546875,0.28125 -0.546875,0.53125 C 0.84375,-5.75 1.078125,-5.5 1.375,-5.5 c 0.34375,0 0.53125,-0.265625 0.53125,-0.515625 z m 0,0"
               style="stroke:none;stroke-width:0" />
          </g>
          <g
             transform="translate(181.01,134.765)"
             id="g2175">
            <path
               id="id-eaaf9c28-b9ef-4b64-a166-793d24e7f527"
               d="m 3.59375,-1.28125 c 0,-0.515625 -0.296875,-0.828125 -0.421875,-0.9375 C 2.84375,-2.546875 2.453125,-2.625 2.03125,-2.703125 1.46875,-2.8125 0.8125,-2.9375 0.8125,-3.515625 c 0,-0.359375 0.25,-0.765625 1.109375,-0.765625 1.09375,0 1.15625,0.90625 1.171875,1.203125 0,0.09375 0.109375,0.09375 0.109375,0.09375 0.140625,0 0.140625,-0.046875 0.140625,-0.234375 v -1.015625 c 0,-0.15625 0,-0.234375 -0.109375,-0.234375 -0.046875,0 -0.078125,0 -0.203125,0.125 -0.03125,0.03125 -0.125,0.125 -0.171875,0.15625 -0.375,-0.28125 -0.78125,-0.28125 -0.9375,-0.28125 -1.21875,0 -1.59375,0.671875 -1.59375,1.234375 0,0.34375 0.15625,0.625 0.421875,0.84375 0.328125,0.25 0.609375,0.3125 1.328125,0.453125 0.21875,0.046875 1.03125,0.203125 1.03125,0.921875 0,0.5 -0.34375,0.90625 -1.125,0.90625 -0.84375,0 -1.203125,-0.5625 -1.390625,-1.421875 C 0.5625,-1.65625 0.5625,-1.6875 0.453125,-1.6875 c -0.125,0 -0.125,0.0625 -0.125,0.234375 V -0.125 c 0,0.171875 0,0.234375 0.109375,0.234375 0.046875,0 0.0625,-0.015625 0.25,-0.203125 0.015625,-0.015625 0.015625,-0.03125 0.203125,-0.21875 0.4375,0.40625 0.890625,0.421875 1.09375,0.421875 1.140625,0 1.609375,-0.671875 1.609375,-1.390625 z m 0,0"
               style="stroke:none;stroke-width:0" />
          </g>
          <g
             transform="translate(184.94,134.765)"
             id="g2178">
            <path
               id="id-649490a9-f9db-43b5-b07e-bc4b1755641f"
               d="m 2.546875,0 v -0.3125 c -0.671875,0 -0.78125,0 -0.78125,-0.4375 V -6.921875 L 0.328125,-6.8125 V -6.5 c 0.703125,0 0.78125,0.0625 0.78125,0.5625 V -0.75 c 0,0.4375 -0.109375,0.4375 -0.78125,0.4375 V 0 L 1.4375,-0.03125 Z m 0,0"
               style="stroke:none;stroke-width:0" />
          </g>
          <g
             transform="translate(187.708,134.765)"
             id="g2181">
            <path
               id="id-eb9d4274-5b2e-4bb2-9235-4b84ffb2baa5"
               d="m 2.46875,0 v -0.3125 c -0.671875,0 -0.703125,-0.046875 -0.703125,-0.4375 V -4.40625 L 0.375,-4.296875 v 0.3125 c 0.640625,0 0.734375,0.0625 0.734375,0.546875 V -0.75 c 0,0.4375 -0.109375,0.4375 -0.78125,0.4375 V 0 l 1.09375,-0.03125 C 1.78125,-0.03125 2.125,-0.015625 2.46875,0 Z m -0.5625,-6.015625 c 0,-0.28125 -0.21875,-0.53125 -0.515625,-0.53125 -0.34375,0 -0.546875,0.28125 -0.546875,0.53125 C 0.84375,-5.75 1.078125,-5.5 1.375,-5.5 c 0.34375,0 0.53125,-0.265625 0.53125,-0.515625 z m 0,0"
               style="stroke:none;stroke-width:0" />
          </g>
        </g>
      </g>
    </g>
  </g>
</svg>
