<?xml version="1.0" encoding="UTF-8" standalone="no"?>
<svg
   xmlns:ns3="http://www.iki.fi/pav/software/textext/"
   xmlns:dc="http://purl.org/dc/elements/1.1/"
   xmlns:cc="http://creativecommons.org/ns#"
   xmlns:rdf="http://www.w3.org/1999/02/22-rdf-syntax-ns#"
   xmlns:svg="http://www.w3.org/2000/svg"
   xmlns="http://www.w3.org/2000/svg"
   xmlns:sodipodi="http://sodipodi.sourceforge.net/DTD/sodipodi-0.dtd"
   xmlns:inkscape="http://www.inkscape.org/namespaces/inkscape"
   sodipodi:docname="asdis-mynd.svg"
   inkscape:version="1.0 (4035a4f, 2020-05-01)"
   id="svg8"
   version="1.1"
   viewBox="0 0 210 297"
   height="297mm"
   width="210mm">
  <defs
     id="defs2">
    <marker
       inkscape:isstock="true"
       style="overflow:visible;"
       id="Arrow1Mend"
       refX="0.0"
       refY="0.0"
       orient="auto"
       inkscape:stockid="Arrow1Mend">
      <path
         transform="scale(0.4) rotate(180) translate(10,0)"
         style="fill-rule:evenodd;stroke:#000000;stroke-width:1pt;stroke-opacity:1;fill:#000000;fill-opacity:1"
         d="M 0.0,0.0 L 5.0,-5.0 L -12.5,0.0 L 5.0,5.0 L 0.0,0.0 z "
         id="path26666" />
    </marker>
  </defs>
  <sodipodi:namedview
     inkscape:window-maximized="0"
     inkscape:window-y="36"
     inkscape:window-x="310"
     inkscape:window-height="654"
     inkscape:window-width="1080"
     showgrid="false"
     inkscape:document-rotation="0"
     inkscape:current-layer="layer1"
     inkscape:document-units="mm"
     inkscape:cy="495.12178"
     inkscape:cx="376.47603"
     inkscape:zoom="0.725335"
     inkscape:pageshadow="2"
     inkscape:pageopacity="0.0"
     borderopacity="1.0"
     bordercolor="#666666"
     pagecolor="#ffffff"
     id="base" />
  <metadata
     id="metadata5">
    <rdf:RDF>
      <cc:Work
         rdf:about="">
        <dc:format>image/svg+xml</dc:format>
        <dc:type
           rdf:resource="http://purl.org/dc/dcmitype/StillImage" />
        <dc:title></dc:title>
      </cc:Work>
    </rdf:RDF>
  </metadata>
  <g
     id="layer1"
     inkscape:groupmode="layer"
     inkscape:label="Layer 1">
    <rect
       y="109.37629"
       x="49.296356"
       height="35.739861"
       width="71.479721"
       id="rect833"
       style="fill:none;stroke:#000000;stroke-width:0.35;stroke-miterlimit:4;stroke-dasharray:none" />
    <rect
       style="fill:none;stroke:#000000;stroke-width:0.35;stroke-miterlimit:4;stroke-dasharray:none"
       id="rect833-0"
       width="77.336327"
       height="40.628681"
       x="46.20451"
       y="106.6063" />
    <circle
       r="1.0928854"
       cy="116.26619"
       cx="61.790058"
       id="path852"
       style="fill:none;stroke:#000000;stroke-width:0.349999;stroke-miterlimit:4;stroke-dasharray:none" />
    <circle
       style="fill:none;stroke:#000000;stroke-width:0.349999;stroke-miterlimit:4;stroke-dasharray:none"
       id="path852-9"
       cx="96.342049"
       cy="123.48108"
       r="1.0928854" />
    <circle
       style="fill:none;stroke:#000000;stroke-width:0.349999;stroke-miterlimit:4;stroke-dasharray:none"
       id="path852-5"
       cx="78.687744"
       cy="128.1198"
       r="1.0928854" />
    <circle
       style="fill:none;stroke:#000000;stroke-width:0.349999;stroke-miterlimit:4;stroke-dasharray:none"
       id="path852-4"
       cx="84.068108"
       cy="115.1733"
       r="1.0928854" />
    <circle
       style="fill:none;stroke:#000000;stroke-width:0.349999;stroke-miterlimit:4;stroke-dasharray:none"
       id="path852-91"
       cx="101.7224"
       cy="116.35026"
       r="1.0928854" />
    <circle
       style="fill:none;stroke:#000000;stroke-width:0.349999;stroke-miterlimit:4;stroke-dasharray:none"
       id="path852-7"
       cx="101.04987"
       cy="135.68593"
       r="1.0928854" />
    <circle
       style="fill:none;stroke:#000000;stroke-width:0.349999;stroke-miterlimit:4;stroke-dasharray:none"
       id="path852-55"
       cx="89.11219"
       cy="133.66829"
       r="1.0928854" />
    <circle
       style="fill:none;stroke:#000000;stroke-width:0.349999;stroke-miterlimit:4;stroke-dasharray:none"
       id="path852-41"
       cx="84.068108"
       cy="125.09334"
       r="1.0928854" />
    <circle
       style="fill:none;stroke:#000000;stroke-width:0.349999;stroke-miterlimit:4;stroke-dasharray:none"
       id="path852-8"
       cx="69.103981"
       cy="124.4208"
       r="1.0928854" />
    <circle
       style="fill:none;stroke:#000000;stroke-width:0.349999;stroke-miterlimit:4;stroke-dasharray:none"
       id="path852-6"
       cx="61.20158"
       cy="130.30556"
       r="1.0928854" />
    <circle
       style="fill:none;stroke:#000000;stroke-width:0.349999;stroke-miterlimit:4;stroke-dasharray:none"
       id="path852-67"
       cx="107.99297"
       cy="134.20256"
       r="1.0928854" />
    <circle
       style="fill:none;stroke:#000000;stroke-width:0.349999;stroke-miterlimit:4;stroke-dasharray:none"
       id="path852-84"
       cx="110.29736"
       cy="120.55367"
       r="1.0928854" />
    <circle
       style="fill:none;stroke:#000000;stroke-width:0.349999;stroke-miterlimit:4;stroke-dasharray:none"
       id="path852-1"
       cx="67.927032"
       cy="138.71237"
       r="1.0928854" />
    <circle
       style="fill:none;stroke:#000000;stroke-width:0.349999;stroke-miterlimit:4;stroke-dasharray:none"
       id="path852-71"
       cx="53.971725"
       cy="121.89875"
       r="1.0928854" />
    <circle
       style="fill:none;stroke:#000000;stroke-width:0.349999;stroke-miterlimit:4;stroke-dasharray:none"
       id="path852-87"
       cx="57.166313"
       cy="139.72119"
       r="1.0928854" />
    <circle
       style="fill:none;stroke:#000000;stroke-width:0.349999;stroke-miterlimit:4;stroke-dasharray:none"
       id="path852-877"
       cx="61.70599"
       cy="123.74825"
       r="1.0928854" />
    <circle
       style="fill:none;stroke:#000000;stroke-width:0.349999;stroke-miterlimit:4;stroke-dasharray:none"
       id="path852-44"
       cx="74.148071"
       cy="116.85467"
       r="1.0928854" />
    <circle
       style="fill:none;stroke:#000000;stroke-width:0.349999;stroke-miterlimit:4;stroke-dasharray:none"
       id="path852-915"
       cx="81.041656"
       cy="138.71237"
       r="1.0928854" />
    <circle
       style="fill:none;stroke:#000000;stroke-width:0.349999;stroke-miterlimit:4;stroke-dasharray:none"
       id="path852-558"
       cx="97.182732"
       cy="142.0751"
       r="1.0928854" />
    <circle
       style="fill:none;stroke:#000000;stroke-width:0.349999;stroke-miterlimit:4;stroke-dasharray:none"
       id="path852-2"
       cx="94.324417"
       cy="117.35908"
       r="1.0928854" />
    <rect
       ry="0"
       y="126.21989"
       x="93.997841"
       height="3.0264516"
       width="24.211613"
       id="rect997"
       style="fill:#ffffff;stroke:#000000;stroke-width:0.349999;stroke-miterlimit:4;stroke-dasharray:none" />
    <rect
       style="fill:#ffffff;stroke:#000000;stroke-width:0.349999;stroke-miterlimit:4;stroke-dasharray:none"
       id="rect995"
       width="12.242255"
       height="7.5661297"
       x="116.70097"
       y="123.97026"
       ry="2.3539066" />
    <rect
       ry="1.0236999"
       y="125.55774"
       x="128.94322"
       height="4.0947995"
       width="2.0473998"
       id="rect1014"
       style="fill:#ffffff;stroke:#000000;stroke-width:0.349999;stroke-miterlimit:4;stroke-dasharray:none" />
    <path
       id="path1016"
       d="M 130.98009,127.46985 H 155.201"
       style="fill:none;stroke:#000000;stroke-width:0.264583px;stroke-linecap:butt;stroke-linejoin:miter;stroke-opacity:1" />
    <path
       sodipodi:nodetypes="cc"
       id="path1018"
       d="m 155.201,127.46985 0,-40.952616"
       style="fill:none;stroke:#000000;stroke-width:0.264583px;stroke-linecap:butt;stroke-linejoin:miter;stroke-opacity:1" />
    <rect
       ry="0"
       y="76.399689"
       x="160.32059"
       height="13.459012"
       width="21.777138"
       id="rect1020"
       style="fill:#ffffff;stroke:#000000;stroke-width:0.349999;stroke-miterlimit:4;stroke-dasharray:none" />
    <rect
       ry="0"
       y="79.52002"
       x="164.95937"
       height="3.3505628"
       width="13.402251"
       id="rect1022"
       style="fill:#ffffff;stroke:#000000;stroke-width:0.349999;stroke-miterlimit:4;stroke-dasharray:none" />
    <path
       transform="scale(1,-1)"
       d="m 178.26162,-82.903145 a 6.6643906,2.5030744 0 0 1 -6.30572,2.499447 6.6643906,2.5030744 0 0 1 -6.98446,-2.230412"
       sodipodi:arc-type="arc"
       sodipodi:open="true"
       sodipodi:end="3.0339028"
       sodipodi:start="0"
       sodipodi:ry="2.5030744"
       sodipodi:rx="6.6643906"
       sodipodi:cy="-82.903145"
       sodipodi:cx="171.59723"
       sodipodi:type="arc"
       id="path1024"
       style="fill:none;stroke:#000000;stroke-width:0.3;stroke-miterlimit:4;stroke-dasharray:none" />
    <circle
       r="0.44168991"
       cy="87.675446"
       cx="162.76273"
       id="path1028"
       style="fill:none;stroke:#000000;stroke-width:0.3;stroke-miterlimit:4;stroke-dasharray:none" />
    <circle
       style="fill:none;stroke:#000000;stroke-width:0.3;stroke-miterlimit:4;stroke-dasharray:none"
       id="path1028-6"
       cx="164.43224"
       cy="87.637848"
       r="0.44168991" />
    <circle
       style="fill:none;stroke:#000000;stroke-width:0.35;stroke-miterlimit:4;stroke-dasharray:none"
       id="path1028-9"
       cx="178.73564"
       cy="87.565536"
       r="0.84938246" />
    <rect
       ry="0"
       y="90.00499"
       x="162.46046"
       height="1.6748502"
       width="3.3497005"
       id="rect1051"
       style="fill:none;stroke:#000000;stroke-width:0.349999;stroke-miterlimit:4;stroke-dasharray:none" />
    <rect
       style="fill:none;stroke:#000000;stroke-width:0.349999;stroke-miterlimit:4;stroke-dasharray:none"
       id="rect1051-5"
       width="3.3497005"
       height="1.6748502"
       x="176.58746"
       y="89.968582"
       ry="0" />
    <path
       id="path1068"
       d="m 171.47843,82.858376 2.4112,-1.392105"
       style="fill:none;stroke:#000000;stroke-width:0.264583px;stroke-linecap:butt;stroke-linejoin:miter;stroke-opacity:1" />
    <g
       transform="matrix(0.352778,0,0,0.352778,159.35684,94.361991)"
       ns3:version="1.3.1"
       ns3:texconverter="pdflatex"
       ns3:pdfconverter="inkscape"
       ns3:text="$(+)$"
       ns3:preamble="/Users/mbh/Library/Application Support/org.inkscape.Inkscape/config/inkscape/extensions/textext/default_packages.tex"
       ns3:scale="1.0"
       ns3:alignment="middle center"
       ns3:jacobian_sqrt="0.352778"
       id="g1130">
      <defs
         id="id-c90a38eb-e1ee-411a-aa9c-a9be3b4948fc">
        <g
           id="id-a2a69415-5e8c-4236-91be-0cae28425f9d">
          <symbol
             id="id-70b91afb-9e17-4a5f-a36e-bb77678b621f"
             overflow="visible">
            <path
               id="id-9d2f73a7-74d4-448d-90b1-ded043f187d6"
               d=""
               style="stroke:none;stroke-width:0" />
          </symbol>
          <symbol
             id="id-6578adfb-f05a-417f-811a-13459f485fff"
             overflow="visible">
            <path
               id="id-8ee0a2a7-8f4c-4a8a-bf62-690e5a450edd"
               d="m 3.296875,2.390625 c 0,-0.03125 0,-0.046875 -0.171875,-0.21875 C 1.890625,0.921875 1.5625,-0.96875 1.5625,-2.5 c 0,-1.734375 0.375,-3.46875 1.609375,-4.703125 0.125,-0.125 0.125,-0.140625 0.125,-0.171875 0,-0.078125 -0.03125,-0.109375 -0.09375,-0.109375 -0.109375,0 -1,0.6875 -1.59375,1.953125 -0.5,1.09375 -0.625,2.203125 -0.625,3.03125 0,0.78125 0.109375,1.984375 0.65625,3.125 C 2.25,1.84375 3.09375,2.5 3.203125,2.5 c 0.0625,0 0.09375,-0.03125 0.09375,-0.109375 z m 0,0"
               style="stroke:none;stroke-width:0" />
          </symbol>
          <symbol
             id="id-ab33fb78-9c2a-4303-a25d-2284939b12a5"
             overflow="visible">
            <path
               id="id-dcaa4b37-f4b9-4427-8dbb-91c8e1e7fc0a"
               d="M 7.1875,-2.5 C 7.1875,-2.6875 7,-2.6875 6.859375,-2.6875 h -2.78125 v -2.796875 c 0,-0.140625 0,-0.328125 -0.203125,-0.328125 -0.203125,0 -0.203125,0.1875 -0.203125,0.328125 V -2.6875 h -2.78125 c -0.140625,0 -0.328125,0 -0.328125,0.1875 0,0.203125 0.1875,0.203125 0.328125,0.203125 h 2.78125 V 0.5 c 0,0.140625 0,0.328125 0.203125,0.328125 0.203125,0 0.203125,-0.1875 0.203125,-0.328125 v -2.796875 h 2.78125 c 0.140625,0 0.328125,0 0.328125,-0.203125 z m 0,0"
               style="stroke:none;stroke-width:0" />
          </symbol>
          <symbol
             id="id-a947d60a-7d39-4693-95fa-050fb492c508"
             overflow="visible">
            <path
               id="id-17ad6b24-068b-496e-ad20-91241c78eba6"
               d="m 2.875,-2.5 c 0,-0.765625 -0.109375,-1.96875 -0.65625,-3.109375 -0.59375,-1.21875 -1.453125,-1.875 -1.546875,-1.875 -0.0625,0 -0.109375,0.046875 -0.109375,0.109375 0,0.03125 0,0.046875 0.1875,0.234375 0.984375,0.984375 1.546875,2.5625 1.546875,4.640625 0,1.71875 -0.359375,3.46875 -1.59375,4.71875 C 0.5625,2.34375 0.5625,2.359375 0.5625,2.390625 0.5625,2.453125 0.609375,2.5 0.671875,2.5 0.765625,2.5 1.671875,1.8125 2.25,0.546875 2.765625,-0.546875 2.875,-1.65625 2.875,-2.5 Z m 0,0"
               style="stroke:none;stroke-width:0" />
          </symbol>
        </g>
      </defs>
      <g
         transform="translate(-149.696,-127.281)"
         id="id-261c2180-7edc-4fd7-bc6d-3b037d3b1727">
        <g
           id="id-395ff138-cd1e-4995-aa0c-6b46a4306aaa"
           style="fill:#000000;fill-opacity:1">
          <g
             transform="translate(148.712,134.765)"
             id="g1120">
            <path
               id="id-1d87be57-11e3-445e-9446-2dc90394a71e"
               d="m 3.296875,2.390625 c 0,-0.03125 0,-0.046875 -0.171875,-0.21875 C 1.890625,0.921875 1.5625,-0.96875 1.5625,-2.5 c 0,-1.734375 0.375,-3.46875 1.609375,-4.703125 0.125,-0.125 0.125,-0.140625 0.125,-0.171875 0,-0.078125 -0.03125,-0.109375 -0.09375,-0.109375 -0.109375,0 -1,0.6875 -1.59375,1.953125 -0.5,1.09375 -0.625,2.203125 -0.625,3.03125 0,0.78125 0.109375,1.984375 0.65625,3.125 C 2.25,1.84375 3.09375,2.5 3.203125,2.5 c 0.0625,0 0.09375,-0.03125 0.09375,-0.109375 z m 0,0"
               style="stroke:none;stroke-width:0" />
          </g>
          <g
             transform="translate(152.586,134.765)"
             id="g1123">
            <path
               id="id-38c3762c-8754-44f5-a8b4-e50f5f67e0a6"
               d="M 7.1875,-2.5 C 7.1875,-2.6875 7,-2.6875 6.859375,-2.6875 h -2.78125 v -2.796875 c 0,-0.140625 0,-0.328125 -0.203125,-0.328125 -0.203125,0 -0.203125,0.1875 -0.203125,0.328125 V -2.6875 h -2.78125 c -0.140625,0 -0.328125,0 -0.328125,0.1875 0,0.203125 0.1875,0.203125 0.328125,0.203125 h 2.78125 V 0.5 c 0,0.140625 0,0.328125 0.203125,0.328125 0.203125,0 0.203125,-0.1875 0.203125,-0.328125 v -2.796875 h 2.78125 c 0.140625,0 0.328125,0 0.328125,-0.203125 z m 0,0"
               style="stroke:none;stroke-width:0" />
          </g>
          <g
             transform="translate(160.335,134.765)"
             id="g1126">
            <path
               id="id-2ec9a1cc-363a-44ab-a148-f124c213c7c4"
               d="m 2.875,-2.5 c 0,-0.765625 -0.109375,-1.96875 -0.65625,-3.109375 -0.59375,-1.21875 -1.453125,-1.875 -1.546875,-1.875 -0.0625,0 -0.109375,0.046875 -0.109375,0.109375 0,0.03125 0,0.046875 0.1875,0.234375 0.984375,0.984375 1.546875,2.5625 1.546875,4.640625 0,1.71875 -0.359375,3.46875 -1.59375,4.71875 C 0.5625,2.34375 0.5625,2.359375 0.5625,2.390625 0.5625,2.453125 0.609375,2.5 0.671875,2.5 0.765625,2.5 1.671875,1.8125 2.25,0.546875 2.765625,-0.546875 2.875,-1.65625 2.875,-2.5 Z m 0,0"
               style="stroke:none;stroke-width:0" />
          </g>
        </g>
      </g>
    </g>
    <path
       sodipodi:nodetypes="cc"
       id="path1155"
       d="m 155.07672,86.517233 h 5.24926"
       style="fill:none;stroke:#000000;stroke-width:0.264583px;stroke-linecap:butt;stroke-linejoin:miter;stroke-opacity:1" />
    <path
       sodipodi:nodetypes="cc"
       id="path1157"
       d="m 86.738422,106.47809 0,-20.085686"
       style="fill:none;stroke:#000000;stroke-width:0.264583px;stroke-linecap:butt;stroke-linejoin:miter;stroke-opacity:1" />
    <path
       id="path1161"
       d="M 160.30472,80.084262 H 146.75305"
       style="fill:none;stroke:#000000;stroke-width:0.264583px;stroke-linecap:butt;stroke-linejoin:miter;stroke-opacity:1" />
    <path
       sodipodi:nodetypes="cc"
       id="path1163"
       d="m 146.75305,80.084262 0,6.380617"
       style="fill:none;stroke:#000000;stroke-width:0.264583px;stroke-linecap:butt;stroke-linejoin:miter;stroke-opacity:1" />
    <path
       id="path1165"
       d="M 146.75305,86.464877 H 86.605905"
       style="fill:none;stroke:#000000;stroke-width:0.264583px;stroke-linecap:butt;stroke-linejoin:miter;stroke-opacity:1" />
    <g
       transform="matrix(0.352778,0,0,0.352778,150.69966,75.680181)"
       ns3:version="1.3.1"
       ns3:texconverter="pdflatex"
       ns3:pdfconverter="inkscape"
       ns3:text="$(-)$"
       ns3:preamble="/Users/mbh/Library/Application Support/org.inkscape.Inkscape/config/inkscape/extensions/textext/default_packages.tex"
       ns3:scale="1.0"
       ns3:alignment="middle center"
       ns3:jacobian_sqrt="0.352778"
       id="g1255">
      <defs
         id="id-6c136fc1-c4c4-4d19-8ec9-2fc8506a6446">
        <g
           id="id-dac58ef8-7757-4e77-979a-3a071730958b">
          <symbol
             id="id-db36b385-d6a8-450b-a015-c8b1d4226405"
             overflow="visible">
            <path
               id="id-784e23af-d711-4503-9bd7-7beca42ccf93"
               d=""
               style="stroke:none;stroke-width:0" />
          </symbol>
          <symbol
             id="id-246e880f-1e09-47ea-a431-3c8b13fc3531"
             overflow="visible">
            <path
               id="id-d75c4120-bffb-48aa-a2c2-7cb0636758e7"
               d="m 3.296875,2.390625 c 0,-0.03125 0,-0.046875 -0.171875,-0.21875 C 1.890625,0.921875 1.5625,-0.96875 1.5625,-2.5 c 0,-1.734375 0.375,-3.46875 1.609375,-4.703125 0.125,-0.125 0.125,-0.140625 0.125,-0.171875 0,-0.078125 -0.03125,-0.109375 -0.09375,-0.109375 -0.109375,0 -1,0.6875 -1.59375,1.953125 -0.5,1.09375 -0.625,2.203125 -0.625,3.03125 0,0.78125 0.109375,1.984375 0.65625,3.125 C 2.25,1.84375 3.09375,2.5 3.203125,2.5 c 0.0625,0 0.09375,-0.03125 0.09375,-0.109375 z m 0,0"
               style="stroke:none;stroke-width:0" />
          </symbol>
          <symbol
             id="id-a0f41a7a-d94a-4b75-baf4-28cff850e46c"
             overflow="visible">
            <path
               id="id-d673c60f-ba42-473a-8c0e-c8328665098b"
               d="m 2.875,-2.5 c 0,-0.765625 -0.109375,-1.96875 -0.65625,-3.109375 -0.59375,-1.21875 -1.453125,-1.875 -1.546875,-1.875 -0.0625,0 -0.109375,0.046875 -0.109375,0.109375 0,0.03125 0,0.046875 0.1875,0.234375 0.984375,0.984375 1.546875,2.5625 1.546875,4.640625 0,1.71875 -0.359375,3.46875 -1.59375,4.71875 C 0.5625,2.34375 0.5625,2.359375 0.5625,2.390625 0.5625,2.453125 0.609375,2.5 0.671875,2.5 0.765625,2.5 1.671875,1.8125 2.25,0.546875 2.765625,-0.546875 2.875,-1.65625 2.875,-2.5 Z m 0,0"
               style="stroke:none;stroke-width:0" />
          </symbol>
          <symbol
             id="id-1c4f63b7-ee99-48b2-81a2-889cae0fa1d8"
             overflow="visible">
            <path
               id="id-7ebdc94b-8c0a-4b8e-8058-03152d69f90c"
               d=""
               style="stroke:none;stroke-width:0" />
          </symbol>
          <symbol
             id="id-6f18d548-3320-42b9-80e0-2a261859c7cd"
             overflow="visible">
            <path
               id="id-9cb86525-2531-45e5-b2d9-6c459cb4a6fa"
               d="m 6.921875,-2.5 c 0,-0.1875 -0.1875,-0.1875 -0.328125,-0.1875 h -5.4375 c -0.140625,0 -0.328125,0 -0.328125,0.1875 0,0.203125 0.1875,0.203125 0.328125,0.203125 h 5.4375 c 0.140625,0 0.328125,0 0.328125,-0.203125 z m 0,0"
               style="stroke:none;stroke-width:0" />
          </symbol>
        </g>
      </defs>
      <g
         transform="translate(-149.696,-127.281)"
         id="id-fabfa62e-d951-4b91-909a-1567290958cf">
        <g
           id="id-1398be2b-324f-4ed0-90a2-3191d709ff54"
           style="fill:#000000;fill-opacity:1">
          <g
             transform="translate(148.712,134.765)"
             id="g1243">
            <path
               id="id-8d9f7bdd-4532-4e6c-97ea-0f8963feb4ab"
               d="m 3.296875,2.390625 c 0,-0.03125 0,-0.046875 -0.171875,-0.21875 C 1.890625,0.921875 1.5625,-0.96875 1.5625,-2.5 c 0,-1.734375 0.375,-3.46875 1.609375,-4.703125 0.125,-0.125 0.125,-0.140625 0.125,-0.171875 0,-0.078125 -0.03125,-0.109375 -0.09375,-0.109375 -0.109375,0 -1,0.6875 -1.59375,1.953125 -0.5,1.09375 -0.625,2.203125 -0.625,3.03125 0,0.78125 0.109375,1.984375 0.65625,3.125 C 2.25,1.84375 3.09375,2.5 3.203125,2.5 c 0.0625,0 0.09375,-0.03125 0.09375,-0.109375 z m 0,0"
               style="stroke:none;stroke-width:0" />
          </g>
        </g>
        <g
           id="id-83f40586-ddd0-4800-991c-e9799a6b1913"
           style="fill:#000000;fill-opacity:1">
          <g
             transform="translate(152.587,134.765)"
             id="g1247">
            <path
               id="id-d7f67efc-a7b3-48de-b23d-62b88d57c4eb"
               d="m 6.921875,-2.5 c 0,-0.1875 -0.1875,-0.1875 -0.328125,-0.1875 h -5.4375 c -0.140625,0 -0.328125,0 -0.328125,0.1875 0,0.203125 0.1875,0.203125 0.328125,0.203125 h 5.4375 c 0.140625,0 0.328125,0 0.328125,-0.203125 z m 0,0"
               style="stroke:none;stroke-width:0" />
          </g>
        </g>
        <g
           id="id-c6117c82-7d7b-44fa-9478-0f4897942803"
           style="fill:#000000;fill-opacity:1">
          <g
             transform="translate(160.336,134.765)"
             id="g1251">
            <path
               id="id-2f6cb9b3-d7ea-490e-aae8-95baca093473"
               d="m 2.875,-2.5 c 0,-0.765625 -0.109375,-1.96875 -0.65625,-3.109375 -0.59375,-1.21875 -1.453125,-1.875 -1.546875,-1.875 -0.0625,0 -0.109375,0.046875 -0.109375,0.109375 0,0.03125 0,0.046875 0.1875,0.234375 0.984375,0.984375 1.546875,2.5625 1.546875,4.640625 0,1.71875 -0.359375,3.46875 -1.59375,4.71875 C 0.5625,2.34375 0.5625,2.359375 0.5625,2.390625 0.5625,2.453125 0.609375,2.5 0.671875,2.5 0.765625,2.5 1.671875,1.8125 2.25,0.546875 2.765625,-0.546875 2.875,-1.65625 2.875,-2.5 Z m 0,0"
               style="stroke:none;stroke-width:0" />
          </g>
        </g>
      </g>
    </g>
    <rect
       ry="0.83742476"
       y="81.7761"
       x="121.59749"
       height="8.3846893"
       width="1.5839717"
       id="rect1282"
       style="fill:#ffffff;stroke:none;stroke-width:0.193504;stroke-miterlimit:4;stroke-dasharray:none" />
    <path
       sodipodi:nodetypes="cc"
       id="path1284"
       d="m 123.18146,82.638614 v 7.576315"
       style="fill:none;stroke:#000000;stroke-width:0.264583px;stroke-linecap:butt;stroke-linejoin:miter;stroke-opacity:1" />
    <path
       id="path1286"
       d="m 121.50237,84.780263 v 3.388206"
       style="fill:none;stroke:#000000;stroke-width:0.264583px;stroke-linecap:butt;stroke-linejoin:miter;stroke-opacity:1" />
    <path
       id="path1288"
       d="m 46.295323,119.38911 h 3.029391"
       style="fill:none;stroke:#000000;stroke-width:0.264583px;stroke-linecap:butt;stroke-linejoin:miter;stroke-opacity:1" />
    <path
       id="path1290"
       d="m 46.13997,132.74951 h 3.029392"
       style="fill:none;stroke:#000000;stroke-width:0.264583px;stroke-linecap:butt;stroke-linejoin:miter;stroke-opacity:1" />
    <path
       id="path19918"
       d="m 38.528101,135.00669 c 0.909454,-0.46306 0.43098,-1.76629 1.310556,-2.21411 0.834688,-0.425 1.654562,0.71692 2.504166,0.27807 m -0.0046,-0.004 c 0.909433,-0.46305 0.430977,-1.76628 1.308059,-2.21284 0.837181,-0.42626 1.657066,0.71567 2.504166,0.27807 m -0.0026,-0.006 c 0.90696,-0.4618 0.428519,-1.76502 1.308052,-2.21286 0.837181,-0.42626 1.657065,0.71567 2.504166,0.27807"
       style="fill:none;stroke:#211e1e;stroke-width:0.35;stroke-linecap:butt;stroke-linejoin:miter;stroke-miterlimit:4;stroke-dasharray:none;stroke-opacity:1" />
    <path
       id="path19920"
       d="m 54.359067,126.15541 -4.061979,0.61239 1.266246,0.79229 -0.131694,1.48523 2.927427,-2.88991"
       style="fill:#211e1e;fill-opacity:1;fill-rule:nonzero;stroke:none;stroke-width:0.35;stroke-miterlimit:4;stroke-dasharray:none" />
    <path
       id="path19922"
       d="m 49.933385,129.18381 c 0.313938,-0.15984 0.417386,-0.54824 0.488724,-0.88262 0.195972,-0.90301 1.096803,-0.48947 1.430684,-0.65947"
       style="fill:none;stroke:#211e1e;stroke-width:0.35;stroke-linecap:butt;stroke-linejoin:miter;stroke-miterlimit:4;stroke-dasharray:none;stroke-opacity:1" />
  </g>
</svg>
