<?xml version="1.0" encoding="UTF-8" standalone="no"?>
<svg
   xmlns:dc="http://purl.org/dc/elements/1.1/"
   xmlns:cc="http://creativecommons.org/ns#"
   xmlns:rdf="http://www.w3.org/1999/02/22-rdf-syntax-ns#"
   xmlns:svg="http://www.w3.org/2000/svg"
   xmlns="http://www.w3.org/2000/svg"
   xmlns:sodipodi="http://sodipodi.sourceforge.net/DTD/sodipodi-0.dtd"
   xmlns:inkscape="http://www.inkscape.org/namespaces/inkscape"
   sodipodi:docname="bladra.svg"
   inkscape:version="1.0 (4035a4f, 2020-05-01)"
   id="svg1948"
   version="1.1"
   viewBox="0 0 210 297"
   height="297mm"
   width="210mm">
  <defs
     id="defs1942" />
  <sodipodi:namedview
     inkscape:window-maximized="0"
     inkscape:window-y="25"
     inkscape:window-x="0"
     inkscape:window-height="847"
     inkscape:window-width="1252"
     showgrid="false"
     inkscape:document-rotation="0"
     inkscape:current-layer="layer1"
     inkscape:document-units="mm"
     inkscape:cy="273.4149"
     inkscape:cx="466.42922"
     inkscape:zoom="0.94574087"
     inkscape:pageshadow="2"
     inkscape:pageopacity="0.0"
     borderopacity="1.0"
     bordercolor="#666666"
     pagecolor="#ffffff"
     id="base" />
  <metadata
     id="metadata1945">
    <rdf:RDF>
      <cc:Work
         rdf:about="">
        <dc:format>image/svg+xml</dc:format>
        <dc:type
           rdf:resource="http://purl.org/dc/dcmitype/StillImage" />
        <dc:title></dc:title>
      </cc:Work>
    </rdf:RDF>
  </metadata>
  <g
     id="layer1"
     inkscape:groupmode="layer"
     inkscape:label="Layer 1">
    <rect
       y="62.000362"
       x="51.019264"
       height="37.856136"
       width="37.856136"
       id="rect2511"
       style="fill:#ffffff;stroke:#000000;stroke-width:0.548437" />
    <path
       id="path2513"
       d="M 69.189407,99.643101 V 86.142327"
       style="fill:none;stroke:#000000;stroke-width:0.408558;stroke-linecap:butt;stroke-linejoin:miter;stroke-miterlimit:4;stroke-dasharray:none;stroke-opacity:1" />
    <path
       sodipodi:nodetypes="csssssc"
       id="path2515"
       d="m 69.189407,86.142327 c 0,0 -1.556799,0.03862 -3.143831,-2.490346 -1.196305,-1.906332 -1.82152,-3.273348 -1.752051,-5.669462 0.0473,-1.631279 1.830942,-4.46023 4.946502,-4.46023 3.115542,0 4.791113,2.234825 4.93004,5.015977 0.11101,2.222631 -0.907894,3.93455 -1.874548,5.564713 -1.375374,2.319414 -3.106112,2.039348 -3.106112,2.039348 z"
       style="fill:none;stroke:#000000;stroke-width:0.30885px;stroke-linecap:butt;stroke-linejoin:miter;stroke-opacity:1" />
    <rect
       style="fill:#ffffff;stroke:#000000;stroke-width:0.548436"
       id="rect2511-9"
       width="37.856136"
       height="37.856136"
       x="97.34211"
       y="62.000362" />
    <path
       sodipodi:nodetypes="cc"
       style="fill:none;stroke:#000000;stroke-width:0.408559;stroke-linecap:butt;stroke-linejoin:miter;stroke-miterlimit:4;stroke-dasharray:none;stroke-opacity:1"
       d="m 115.51208,99.643103 v -2.22291"
       id="path2513-7" />
    <path
       style="fill:none;stroke:#000000;stroke-width:0.308851px;stroke-linecap:butt;stroke-linejoin:miter;stroke-opacity:1"
       d="m 115.51208,81.379822 c 0,0 -1.5568,0.03862 -3.14384,-2.490346 -1.1963,-1.906332 -1.82152,-3.273348 -1.75205,-5.669462 0.0473,-1.631279 1.83095,-4.46023 4.94651,-4.46023 3.11556,0 4.79114,2.234825 4.93007,5.015977 0.11101,2.222631 -0.9079,3.93455 -1.87456,5.564713 -1.37538,2.319414 -3.10613,2.039348 -3.10613,2.039348 z"
       id="path2515-5"
       sodipodi:nodetypes="csssssc" />
    <rect
       y="62.000362"
       x="144.19417"
       height="37.856136"
       width="37.856136"
       id="rect2511-9-9"
       style="fill:#ffffff;stroke:#000000;stroke-width:0.548436" />
    <path
       sodipodi:nodetypes="csssssc"
       id="path2515-5-3"
       d="m 162.36411,74.500652 c 0,0 -1.5568,0.03862 -3.14384,-2.490346 -1.1963,-1.906332 -1.82152,-3.273348 -1.75205,-5.669462 0.0473,-1.63128 1.83095,-4.460231 4.94651,-4.460231 3.11556,0 4.79114,2.234825 4.93007,5.015978 0.11101,2.222631 -0.9079,3.93455 -1.87456,5.564713 -1.37538,2.319414 -3.10613,2.039348 -3.10613,2.039348 z"
       style="fill:none;stroke:#000000;stroke-width:0.308851px;stroke-linecap:butt;stroke-linejoin:miter;stroke-opacity:1" />
    <path
       id="path2513-7-8"
       d="m 162.47244,99.744583 v -2.22291"
       style="fill:none;stroke:#000000;stroke-width:0.408559;stroke-linecap:butt;stroke-linejoin:miter;stroke-miterlimit:4;stroke-dasharray:none;stroke-opacity:1"
       sodipodi:nodetypes="cc" />
  </g>
</svg>
