<?xml version="1.0" encoding="UTF-8" standalone="no"?>
<svg
   xmlns:ns1="http://www.iki.fi/pav/software/textext/"
   xmlns:dc="http://purl.org/dc/elements/1.1/"
   xmlns:cc="http://creativecommons.org/ns#"
   xmlns:rdf="http://www.w3.org/1999/02/22-rdf-syntax-ns#"
   xmlns:svg="http://www.w3.org/2000/svg"
   xmlns="http://www.w3.org/2000/svg"
   xmlns:sodipodi="http://sodipodi.sourceforge.net/DTD/sodipodi-0.dtd"
   xmlns:inkscape="http://www.inkscape.org/namespaces/inkscape"
   sodipodi:docname="board-spring.svg"
   inkscape:version="1.0 (4035a4f, 2020-05-01)"
   id="svg8"
   version="1.1"
   viewBox="0 0 210 297"
   height="297mm"
   width="210mm">
  <defs
     id="defs2">
    <inkscape:path-effect
       effect="spiro"
       id="path-effect835"
       is_visible="true"
       lpeversion="1" />
    <g
       id="id-854f286c-26ea-40b8-a361-97939c9ce2fc">
      <symbol
         overflow="visible"
         id="id-a4ab1702-8844-45db-9ae2-8d78d992705f">
        <path
           style="stroke:none;stroke-width:0"
           d=""
           id="id-e7bd5ce4-cd8b-4b21-9b07-6cdb500965e7" />
      </symbol>
      <symbol
         overflow="visible"
         id="id-b5172a68-8b28-45ef-b4bf-fa7e9758d324">
        <path
           style="stroke:none;stroke-width:0"
           d="m 4.890625,-1.421875 c 0,-0.109375 -0.09375,-0.109375 -0.125,-0.109375 -0.09375,0 -0.109375,0.046875 -0.140625,0.1875 -0.203125,0.71875 -0.421875,1.234375 -0.859375,1.234375 -0.203125,0 -0.328125,-0.109375 -0.328125,-0.46875 0,-0.171875 0.046875,-0.40625 0.078125,-0.5625 C 3.5625,-1.3125 3.5625,-1.34375 3.5625,-1.453125 3.5625,-2.09375 2.9375,-2.375 2.078125,-2.5 2.390625,-2.671875 2.71875,-2.984375 2.9375,-3.234375 3.421875,-3.765625 3.875,-4.1875 4.359375,-4.1875 c 0.0625,0 0.078125,0 0.09375,0.015625 0.125,0.015625 0.125,0.015625 0.21875,0.078125 0.015625,0 0.015625,0.015625 0.03125,0.03125 -0.46875,0.03125 -0.5625,0.421875 -0.5625,0.546875 0,0.15625 0.109375,0.34375 0.375,0.34375 0.265625,0 0.546875,-0.21875 0.546875,-0.609375 0,-0.296875 -0.234375,-0.625 -0.671875,-0.625 -0.28125,0 -0.734375,0.078125 -1.453125,0.875 -0.34375,0.375 -0.734375,0.78125 -1.109375,0.921875 L 2.859375,-6.8125 c 0,0 0,-0.109375 -0.125,-0.109375 -0.234375,0 -0.953125,0.078125 -1.21875,0.109375 -0.078125,0 -0.1875,0.015625 -0.1875,0.1875 0,0.125 0.09375,0.125 0.234375,0.125 0.484375,0 0.5,0.0625 0.5,0.171875 L 2.03125,-6.125 0.59375,-0.390625 c -0.046875,0.140625 -0.046875,0.15625 -0.046875,0.21875 0,0.234375 0.203125,0.28125 0.296875,0.28125 0.125,0 0.265625,-0.09375 0.328125,-0.203125 0.046875,-0.09375 0.5,-1.9375 0.5625,-2.1875 0.34375,0.03125 1.15625,0.1875 1.15625,0.84375 0,0.078125 0,0.109375 -0.03125,0.21875 -0.015625,0.109375 -0.03125,0.234375 -0.03125,0.34375 0,0.578125 0.390625,0.984375 0.90625,0.984375 0.296875,0 0.578125,-0.15625 0.796875,-0.53125 0.25,-0.4375 0.359375,-1 0.359375,-1 z m 0,0"
           id="id-0b933d1c-bf36-485b-a7bc-788945af954a" />
      </symbol>
    </g>
  </defs>
  <sodipodi:namedview
     inkscape:window-maximized="0"
     inkscape:window-y="51"
     inkscape:window-x="32"
     inkscape:window-height="847"
     inkscape:window-width="1252"
     showgrid="false"
     inkscape:document-rotation="0"
     inkscape:current-layer="layer1"
     inkscape:document-units="mm"
     inkscape:cy="297.52574"
     inkscape:cx="286.46132"
     inkscape:zoom="1.9634542"
     inkscape:pageshadow="2"
     inkscape:pageopacity="0.0"
     borderopacity="1.0"
     bordercolor="#666666"
     pagecolor="#ffffff"
     id="base" />
  <metadata
     id="metadata5">
    <rdf:RDF>
      <cc:Work
         rdf:about="">
        <dc:format>image/svg+xml</dc:format>
        <dc:type
           rdf:resource="http://purl.org/dc/dcmitype/StillImage" />
        <dc:title></dc:title>
      </cc:Work>
    </rdf:RDF>
  </metadata>
  <g
     id="layer1"
     inkscape:groupmode="layer"
     inkscape:label="Layer 1">
    <path
       id="path833"
       d="M 47.994156,66.400079 V 91.455274"
       style="fill:none;stroke:#000000;stroke-width:0.265;stroke-linecap:butt;stroke-linejoin:miter;stroke-opacity:1;stroke-miterlimit:4;stroke-dasharray:none" />
    <path
       sodipodi:nodetypes="cc"
       id="path835"
       d="m 47.994156,91.455274 66.763924,0"
       style="fill:none;stroke:#000000;stroke-width:0.265;stroke-linecap:butt;stroke-linejoin:miter;stroke-miterlimit:4;stroke-dasharray:none;stroke-opacity:1" />
    <path
       style="fill:none;stroke:#000000;stroke-width:0.141065;stroke-linecap:butt;stroke-linejoin:miter;stroke-miterlimit:10;stroke-dasharray:none;stroke-opacity:1"
       d="m 69.920594,86.745039 c -0.0829,1.10932 -0.57688,1.99953 -1.17289,1.99953 -0.596,0 -1.09001,-0.89021 -1.17288,-1.99953 -0.0829,-1.1107 0.247,-2.00091 0.67727,-2.00091 0.43027,0 0.76015,0.89021 0.67728,2.00091 -0.0829,1.10932 -0.57688,1.99953 -1.17289,1.99953 -0.596,0 -1.09001,-0.89021 -1.17288,-1.99953 -0.0829,-1.1107 0.247,-2.00091 0.67727,-2.00091 0.43187,0 0.76016,0.89021 0.67888,2.00091 -0.0829,1.10932 -0.57688,1.99953 -1.17289,1.99953 -0.596,0 -1.09161,-0.89021 -1.17288,-1.99953 -0.0829,-1.1107 0.2454,-2.00091 0.67727,-2.00091 0.43027,0 0.76015,0.89021 0.67728,2.00091 -0.0829,1.10932 -0.57688,1.99953 -1.17289,1.99953 -0.596,0 -1.09002,-0.89021 -1.17288,-1.99953 -0.0829,-1.1107 0.247,-2.00091 0.67727,-2.00091 0.43027,0 0.76016,0.89021 0.67729,2.00091 -0.0829,1.10932 -0.57689,1.99953 -1.1729,1.99953 -0.596,0 -1.09002,-0.89021 -1.17288,-1.99953 -0.0829,-1.1107 0.247,-2.00091 0.67727,-2.00091 0.43187,0 0.76016,0.89021 0.67729,2.00091 -0.0813,1.10932 -0.57689,1.99953 -1.1713,1.99953 -0.59601,0 -1.09162,-0.89021 -1.17289,-1.99953 -0.0829,-1.1107 0.24541,-2.00091 0.67728,-2.00091 0.43027,0 0.76015,0.89021 0.67728,2.00091 -0.0829,1.10932 -0.57688,1.99953 -1.17289,1.99953 -0.59601,0 -1.09002,-0.89021 -1.17289,-1.99953 -0.0829,-1.1107 0.24701,-2.00091 0.67728,-2.00091 0.43027,0 0.76016,0.89021 0.67729,2.00091 -0.0829,1.10932 -0.57689,1.99953 -1.1729,1.99953 -0.59601,0 -1.09002,-0.89021 -1.17288,-1.99953 -0.0829,-1.1107 0.247,-2.00091 0.67727,-2.00091 0.43187,0 0.76016,0.89021 0.67729,2.00091 -0.0813,1.10932 -0.57688,1.99953 -1.17289,1.99953 -0.596,0 -1.09003,-0.89021 -1.1713,-1.99953 -0.0829,-1.1107 0.24542,-2.00091 0.67728,-2.00091 0.43027,0 0.76014,0.89021 0.67729,2.00091 -0.0829,1.10932 -0.57689,1.99953 -1.1729,1.99953 -0.596,0 -1.09001,-0.89021 -1.17288,-1.99953 -0.0829,-1.1107 0.24701,-2.00091 0.67727,-2.00091 0.43028,0 0.76016,0.89021 0.67729,2.00091 -0.0829,1.10932 -0.57688,1.99953 -1.17289,1.99953 -0.59601,0 -1.090021,-0.89021 -1.172891,-1.99953 -0.0829,-1.1107 0.247011,-2.00091 0.677281,-2.00091 0.431869,0 0.76016,0.89021 0.67729,2.00091 -0.0813,1.10932 -0.576891,1.99953 -1.172901,1.99953 -0.59601,0 -1.090019,-0.89021 -1.17129,-1.99953 -0.0829,-1.1107 0.24541,-2.00091 0.677281,-2.00091 0.430269,0 0.76014,0.89021 0.67728,2.00091 -0.0829,1.10932 -0.576881,1.99953 -1.172891,1.99953 -0.59601,0 -1.09002,-0.89021 -1.17289,-1.99953 -0.0829,-1.1107 0.24701,-2.00091 0.67728,-2.00091 0.430271,0 0.760141,0.89021 0.677291,2.00091 -0.0829,1.10932 -0.576891,1.99953 -1.1729,1.99953 -0.596011,0 -1.090021,-0.89021 -1.17289,-1.99953 -0.0829,-1.1107 0.24702,-2.00091 0.677279,-2.00091 0.431871,0 0.76015,0.89021 0.67729,2.00091 -0.0813,1.10932 -0.57688,1.99953 -1.17289,1.99953 -0.59601,0 -1.09002,-0.89021 -1.17289,-1.99953 -0.0813,-1.1107 0.24701,-2.00091 0.67888,-2.00091 0.43027,0 0.76013,0.89021 0.67727,2.00091 -0.0829,1.10932 -0.57689,1.99953 -1.17288,1.99953 -0.59601,0 -1.090029,-0.89021 -1.1729,-1.99953 -0.0829,-1.1107 0.24702,-2.00091 0.67729,-2.00091 0.43027,0 0.760141,0.89021 0.67727,2.00091 -0.0829,1.10932 -0.57688,1.99953 -1.17288,1.99953 -0.59601,0 -1.09003,-0.89021 -1.17289,-1.99953 -0.0829,-1.1107 0.24701,-2.00091 0.67728,-2.00091 0.43187,0 0.76014,0.89021 0.67727,2.00091 -0.0813,1.10932 -0.57687,1.99953 -1.17288,1.99953 -0.59601,0 -1.09002,-0.89021 -1.17289,-1.99953 -0.0813,-1.1107 0.24701,-2.00091 0.67888,-2.00091 0.43027,0 0.75854,0.89021 0.67727,2.00091 -0.0829,1.10932 -0.57688,1.99953 -1.17288,1.99953 -0.59602,0 -1.09003,-0.89021 -1.1729,-1.99953 -0.0829,-1.1107 0.24701,-2.00091 0.67729,-2.00091 0.43027,0 0.76014,0.89021 0.67727,2.00091 -0.0829,1.10932 -0.57688,1.99953 -1.17289,1.99953 -0.59601,0 -1.09002,-0.89021 -1.17289,-1.99953 h -0.53545"
       id="path7229-3" />
    <g
       transform="matrix(0.35277801,0,0,0.35277801,59.557066,80.444543)"
       ns1:version="1.2.0"
       ns1:texconverter="pdflatex"
       ns1:pdfconverter="inkscape"
       ns1:text="$$k$$"
       ns1:preamble="/Users/mbh/Library/Application Support/org.inkscape.Inkscape/config/inkscape/extensions/textext/default_packages.tex"
       ns1:scale="1.0000000566928784"
       ns1:alignment="middle center"
       ns1:inkscapeversion="1.0.1"
       ns1:jacobian_sqrt="0.352778"
       id="g23853">
      <defs
         id="id-36bb099c-f466-4d86-a057-5e8304c74442">
        <g
           id="g1543">
          <symbol
             overflow="visible"
             id="symbol1537">
            <path
               style="stroke:none;stroke-width:0"
               d=""
               id="path1535" />
          </symbol>
          <symbol
             overflow="visible"
             id="symbol1541">
            <path
               style="stroke:none;stroke-width:0"
               d="m 4.890625,-1.421875 c 0,-0.109375 -0.09375,-0.109375 -0.125,-0.109375 -0.09375,0 -0.109375,0.046875 -0.140625,0.1875 -0.203125,0.71875 -0.421875,1.234375 -0.859375,1.234375 -0.203125,0 -0.328125,-0.109375 -0.328125,-0.46875 0,-0.171875 0.046875,-0.40625 0.078125,-0.5625 C 3.5625,-1.3125 3.5625,-1.34375 3.5625,-1.453125 3.5625,-2.09375 2.9375,-2.375 2.078125,-2.5 2.390625,-2.671875 2.71875,-2.984375 2.9375,-3.234375 3.421875,-3.765625 3.875,-4.1875 4.359375,-4.1875 c 0.0625,0 0.078125,0 0.09375,0.015625 0.125,0.015625 0.125,0.015625 0.21875,0.078125 0.015625,0 0.015625,0.015625 0.03125,0.03125 -0.46875,0.03125 -0.5625,0.421875 -0.5625,0.546875 0,0.15625 0.109375,0.34375 0.375,0.34375 0.265625,0 0.546875,-0.21875 0.546875,-0.609375 0,-0.296875 -0.234375,-0.625 -0.671875,-0.625 -0.28125,0 -0.734375,0.078125 -1.453125,0.875 -0.34375,0.375 -0.734375,0.78125 -1.109375,0.921875 L 2.859375,-6.8125 c 0,0 0,-0.109375 -0.125,-0.109375 -0.234375,0 -0.953125,0.078125 -1.21875,0.109375 -0.078125,0 -0.1875,0.015625 -0.1875,0.1875 0,0.125 0.09375,0.125 0.234375,0.125 0.484375,0 0.5,0.0625 0.5,0.171875 L 2.03125,-6.125 0.59375,-0.390625 c -0.046875,0.140625 -0.046875,0.15625 -0.046875,0.21875 0,0.234375 0.203125,0.28125 0.296875,0.28125 0.125,0 0.265625,-0.09375 0.328125,-0.203125 0.046875,-0.09375 0.5,-1.9375 0.5625,-2.1875 0.34375,0.03125 1.15625,0.1875 1.15625,0.84375 0,0.078125 0,0.109375 -0.03125,0.21875 -0.015625,0.109375 -0.03125,0.234375 -0.03125,0.34375 0,0.578125 0.390625,0.984375 0.90625,0.984375 0.296875,0 0.578125,-0.15625 0.796875,-0.53125 0.25,-0.4375 0.359375,-1 0.359375,-1 z m 0,0"
               id="path1539" />
          </symbol>
        </g>
      </defs>
      <g
         id="id-cb11206a-a258-4942-8f59-5fec25f8e761"
         transform="translate(-303.421,-139.798)">
        <g
           style="fill:#000000;fill-opacity:1"
           id="id-a19e5291-7c26-47f2-84e6-31fe54550ff5">
          <g
             transform="translate(302.874,146.72)"
             id="g23849">
            <path
               style="stroke:none;stroke-width:0"
               d="m 4.890625,-1.421875 c 0,-0.109375 -0.09375,-0.109375 -0.125,-0.109375 -0.09375,0 -0.109375,0.046875 -0.140625,0.1875 -0.203125,0.71875 -0.421875,1.234375 -0.859375,1.234375 -0.203125,0 -0.328125,-0.109375 -0.328125,-0.46875 0,-0.171875 0.046875,-0.40625 0.078125,-0.5625 C 3.5625,-1.3125 3.5625,-1.34375 3.5625,-1.453125 3.5625,-2.09375 2.9375,-2.375 2.078125,-2.5 2.390625,-2.671875 2.71875,-2.984375 2.9375,-3.234375 3.421875,-3.765625 3.875,-4.1875 4.359375,-4.1875 c 0.0625,0 0.078125,0 0.09375,0.015625 0.125,0.015625 0.125,0.015625 0.21875,0.078125 0.015625,0 0.015625,0.015625 0.03125,0.03125 -0.46875,0.03125 -0.5625,0.421875 -0.5625,0.546875 0,0.15625 0.109375,0.34375 0.375,0.34375 0.265625,0 0.546875,-0.21875 0.546875,-0.609375 0,-0.296875 -0.234375,-0.625 -0.671875,-0.625 -0.28125,0 -0.734375,0.078125 -1.453125,0.875 -0.34375,0.375 -0.734375,0.78125 -1.109375,0.921875 L 2.859375,-6.8125 c 0,0 0,-0.109375 -0.125,-0.109375 -0.234375,0 -0.953125,0.078125 -1.21875,0.109375 -0.078125,0 -0.1875,0.015625 -0.1875,0.1875 0,0.125 0.09375,0.125 0.234375,0.125 0.484375,0 0.5,0.0625 0.5,0.171875 L 2.03125,-6.125 0.59375,-0.390625 c -0.046875,0.140625 -0.046875,0.15625 -0.046875,0.21875 0,0.234375 0.203125,0.28125 0.296875,0.28125 0.125,0 0.265625,-0.09375 0.328125,-0.203125 0.046875,-0.09375 0.5,-1.9375 0.5625,-2.1875 0.34375,0.03125 1.15625,0.1875 1.15625,0.84375 0,0.078125 0,0.109375 -0.03125,0.21875 -0.015625,0.109375 -0.03125,0.234375 -0.03125,0.34375 0,0.578125 0.390625,0.984375 0.90625,0.984375 0.296875,0 0.578125,-0.15625 0.796875,-0.53125 0.25,-0.4375 0.359375,-1 0.359375,-1 z m 0,0"
               id="id-e2f241bd-8d3c-4b47-96fe-d199cb847735" />
          </g>
        </g>
      </g>
    </g>
    <rect
       ry="0"
       y="83.677979"
       x="70.037315"
       height="7.7772994"
       width="23.05619"
       id="rect1551"
       style="fill:none;stroke:#000000;stroke-width:0.264999;stroke-miterlimit:4;stroke-dasharray:none" />
    <circle
       r="4.0416503"
       cy="79.651604"
       cx="81.268265"
       id="path1553"
       style="fill:none;stroke:#000000;stroke-width:0.264999;stroke-miterlimit:4;stroke-dasharray:none" />
    <g
       transform="matrix(0.352778,0,0,0.352778,79.6686,78.800668)"
       ns1:version="1.3.1"
       ns1:texconverter="pdflatex"
       ns1:pdfconverter="inkscape"
       ns1:text="$m$"
       ns1:preamble="/Users/mbh/Library/Application Support/org.inkscape.Inkscape/config/inkscape/extensions/textext/default_packages.tex"
       ns1:scale="1.0000000283464388"
       ns1:alignment="middle center"
       ns1:jacobian_sqrt="0.352778"
       id="g1591">
      <defs
         id="id-d63e4ef1-7b49-4e53-9410-626659fe1b83">
        <g
           id="id-b4f5d510-f05e-4364-966e-e4b28f5acbdb">
          <symbol
             id="id-35b8318d-ddeb-49ce-9b81-4a29bc938548"
             overflow="visible">
            <path
               id="id-ee4fc51f-94ee-45e6-8e2b-07bdc849c58e"
               d=""
               style="stroke:none;stroke-width:0" />
          </symbol>
          <symbol
             id="id-bb245b3e-cc65-484b-b3eb-33138836252c"
             overflow="visible">
            <path
               id="id-42002bf2-90fe-494f-88a9-07121d8d4efa"
               d="m 0.875,-0.59375 c -0.03125,0.15625 -0.09375,0.390625 -0.09375,0.4375 0,0.171875 0.140625,0.265625 0.296875,0.265625 0.125,0 0.296875,-0.078125 0.375,-0.28125 0,-0.015625 0.125,-0.484375 0.1875,-0.734375 l 0.21875,-0.890625 C 1.90625,-2.03125 1.96875,-2.25 2.03125,-2.46875 c 0.03125,-0.171875 0.109375,-0.46875 0.125,-0.5 0.140625,-0.3125 0.671875,-1.21875 1.625,-1.21875 0.453125,0 0.53125,0.375 0.53125,0.703125 0,0.25 -0.0625,0.53125 -0.140625,0.828125 L 3.890625,-1.5 3.6875,-0.75 c -0.03125,0.203125 -0.125,0.546875 -0.125,0.59375 0,0.171875 0.140625,0.265625 0.28125,0.265625 0.3125,0 0.375,-0.25 0.453125,-0.5625 0.140625,-0.5625 0.515625,-2.015625 0.59375,-2.40625 0.03125,-0.125 0.5625,-1.328125 1.65625,-1.328125 0.421875,0 0.53125,0.34375 0.53125,0.703125 0,0.5625 -0.421875,1.703125 -0.625,2.234375 -0.078125,0.234375 -0.125,0.34375 -0.125,0.546875 0,0.46875 0.34375,0.8125 0.8125,0.8125 0.9375,0 1.3125,-1.453125 1.3125,-1.53125 0,-0.109375 -0.09375,-0.109375 -0.125,-0.109375 -0.09375,0 -0.09375,0.03125 -0.140625,0.1875 -0.15625,0.53125 -0.46875,1.234375 -1.015625,1.234375 -0.171875,0 -0.25,-0.09375 -0.25,-0.328125 0,-0.25 0.09375,-0.484375 0.1875,-0.703125 0.1875,-0.53125 0.609375,-1.625 0.609375,-2.203125 0,-0.640625 -0.40625,-1.0625 -1.15625,-1.0625 -0.734375,0 -1.25,0.4375 -1.625,0.96875 0,-0.125 -0.03125,-0.46875 -0.3125,-0.703125 -0.25,-0.21875 -0.5625,-0.265625 -0.8125,-0.265625 -0.90625,0 -1.390625,0.640625 -1.5625,0.875 -0.046875,-0.578125 -0.46875,-0.875 -0.921875,-0.875 -0.453125,0 -0.640625,0.390625 -0.734375,0.5625 -0.171875,0.359375 -0.296875,0.9375 -0.296875,0.96875 0,0.109375 0.09375,0.109375 0.109375,0.109375 0.109375,0 0.109375,-0.015625 0.171875,-0.234375 0.171875,-0.703125 0.375,-1.1875 0.734375,-1.1875 0.15625,0 0.296875,0.078125 0.296875,0.453125 0,0.21875 -0.03125,0.328125 -0.15625,0.84375 z m 0,0"
               style="stroke:none;stroke-width:0" />
          </symbol>
        </g>
      </defs>
      <g
         transform="translate(-149.009,-130.359)"
         id="id-0a3a4ffd-edfe-4bdc-b05d-3d3c713bcf7b">
        <g
           id="id-1d4f01c0-b84b-4d97-81bf-c7dbe0d104e2"
           style="fill:#000000;fill-opacity:1">
          <g
             transform="translate(148.712,134.765)"
             id="g1587">
            <path
               id="id-8f9c90ff-95c6-4585-8dbc-a4443108df6c"
               d="m 0.875,-0.59375 c -0.03125,0.15625 -0.09375,0.390625 -0.09375,0.4375 0,0.171875 0.140625,0.265625 0.296875,0.265625 0.125,0 0.296875,-0.078125 0.375,-0.28125 0,-0.015625 0.125,-0.484375 0.1875,-0.734375 l 0.21875,-0.890625 C 1.90625,-2.03125 1.96875,-2.25 2.03125,-2.46875 c 0.03125,-0.171875 0.109375,-0.46875 0.125,-0.5 0.140625,-0.3125 0.671875,-1.21875 1.625,-1.21875 0.453125,0 0.53125,0.375 0.53125,0.703125 0,0.25 -0.0625,0.53125 -0.140625,0.828125 L 3.890625,-1.5 3.6875,-0.75 c -0.03125,0.203125 -0.125,0.546875 -0.125,0.59375 0,0.171875 0.140625,0.265625 0.28125,0.265625 0.3125,0 0.375,-0.25 0.453125,-0.5625 0.140625,-0.5625 0.515625,-2.015625 0.59375,-2.40625 0.03125,-0.125 0.5625,-1.328125 1.65625,-1.328125 0.421875,0 0.53125,0.34375 0.53125,0.703125 0,0.5625 -0.421875,1.703125 -0.625,2.234375 -0.078125,0.234375 -0.125,0.34375 -0.125,0.546875 0,0.46875 0.34375,0.8125 0.8125,0.8125 0.9375,0 1.3125,-1.453125 1.3125,-1.53125 0,-0.109375 -0.09375,-0.109375 -0.125,-0.109375 -0.09375,0 -0.09375,0.03125 -0.140625,0.1875 -0.15625,0.53125 -0.46875,1.234375 -1.015625,1.234375 -0.171875,0 -0.25,-0.09375 -0.25,-0.328125 0,-0.25 0.09375,-0.484375 0.1875,-0.703125 0.1875,-0.53125 0.609375,-1.625 0.609375,-2.203125 0,-0.640625 -0.40625,-1.0625 -1.15625,-1.0625 -0.734375,0 -1.25,0.4375 -1.625,0.96875 0,-0.125 -0.03125,-0.46875 -0.3125,-0.703125 -0.25,-0.21875 -0.5625,-0.265625 -0.8125,-0.265625 -0.90625,0 -1.390625,0.640625 -1.5625,0.875 -0.046875,-0.578125 -0.46875,-0.875 -0.921875,-0.875 -0.453125,0 -0.640625,0.390625 -0.734375,0.5625 -0.171875,0.359375 -0.296875,0.9375 -0.296875,0.96875 0,0.109375 0.09375,0.109375 0.109375,0.109375 0.109375,0 0.109375,-0.015625 0.171875,-0.234375 0.171875,-0.703125 0.375,-1.1875 0.734375,-1.1875 0.15625,0 0.296875,0.078125 0.296875,0.453125 0,0.21875 -0.03125,0.328125 -0.15625,0.84375 z m 0,0"
               style="stroke:none;stroke-width:0" />
          </g>
        </g>
      </g>
    </g>
    <g
       transform="matrix(0.352778,0,0,0.352778,79.594918,86.35441)"
       ns1:version="1.3.1"
       ns1:texconverter="pdflatex"
       ns1:pdfconverter="inkscape"
       ns1:text="$M$"
       ns1:preamble="/Users/mbh/Library/Application Support/org.inkscape.Inkscape/config/inkscape/extensions/textext/default_packages.tex"
       ns1:scale="1.0000000283464388"
       ns1:alignment="middle center"
       ns1:jacobian_sqrt="0.352778"
       id="g1653">
      <defs
         id="id-5ad6b3f6-6dde-487a-8192-fe30018540e2">
        <g
           id="id-7231ee52-5022-43c9-946b-b00954d5fd07">
          <symbol
             id="id-01807786-3c7d-4e41-bbaa-b1c164494a4a"
             overflow="visible">
            <path
               id="id-86985603-9fbc-490b-a600-b5886d3623a6"
               d=""
               style="stroke:none;stroke-width:0" />
          </symbol>
          <symbol
             id="id-ed198424-d232-4de4-a028-153219b54a78"
             overflow="visible">
            <path
               id="id-9befe2f0-98d7-454c-ad33-ec160158fc74"
               d="M 9.234375,-6.046875 C 9.328125,-6.40625 9.34375,-6.5 10.09375,-6.5 c 0.21875,0 0.3125,0 0.3125,-0.203125 0,-0.109375 -0.09375,-0.109375 -0.265625,-0.109375 h -1.3125 c -0.265625,0 -0.28125,0 -0.390625,0.1875 L 4.796875,-0.9375 4.015625,-6.578125 C 3.984375,-6.8125 3.96875,-6.8125 3.703125,-6.8125 H 2.34375 c -0.1875,0 -0.296875,0 -0.296875,0.1875 0,0.125 0.09375,0.125 0.28125,0.125 0.140625,0 0.3125,0.015625 0.4375,0.015625 0.15625,0.03125 0.21875,0.046875 0.21875,0.171875 0,0.03125 -0.015625,0.0625 -0.046875,0.1875 l -1.265625,5.0625 c -0.09375,0.40625 -0.265625,0.71875 -1.078125,0.75 -0.046875,0 -0.171875,0.015625 -0.171875,0.1875 0,0.09375 0.0625,0.125 0.140625,0.125 0.3125,0 0.65625,-0.03125 1,-0.03125 C 1.890625,-0.03125 2.25,0 2.578125,0 c 0.046875,0 0.1875,0 0.1875,-0.203125 0,-0.109375 -0.109375,-0.109375 -0.1875,-0.109375 -0.5625,0 -0.671875,-0.203125 -0.671875,-0.4375 0,-0.0625 0,-0.125 0.03125,-0.234375 L 3.296875,-6.40625 H 3.3125 l 0.859375,6.171875 C 4.1875,-0.109375 4.203125,0 4.3125,0 4.421875,0 4.484375,-0.109375 4.53125,-0.171875 l 4.03125,-6.3125 h 0.015625 l -1.4375,5.703125 c -0.09375,0.390625 -0.109375,0.46875 -0.90625,0.46875 -0.15625,0 -0.265625,0 -0.265625,0.1875 C 5.96875,0 6.078125,0 6.109375,0 6.390625,0 7.0625,-0.03125 7.34375,-0.03125 7.75,-0.03125 8.1875,0 8.59375,0 8.65625,0 8.78125,0 8.78125,-0.203125 8.78125,-0.3125 8.6875,-0.3125 8.5,-0.3125 c -0.359375,0 -0.640625,0 -0.640625,-0.171875 0,-0.046875 0,-0.0625 0.046875,-0.25 z m 0,0"
               style="stroke:none;stroke-width:0" />
          </symbol>
        </g>
      </defs>
      <g
         transform="translate(-149.134,-127.953)"
         id="id-70c82d8d-ee6d-4047-af60-2852a7a8a22f">
        <g
           id="id-873d1a84-e254-498e-8075-51400a5ea0a3"
           style="fill:#000000;fill-opacity:1">
          <g
             transform="translate(148.712,134.765)"
             id="g1649">
            <path
               id="id-12764797-2f37-4716-b800-44b604e1364d"
               d="M 9.234375,-6.046875 C 9.328125,-6.40625 9.34375,-6.5 10.09375,-6.5 c 0.21875,0 0.3125,0 0.3125,-0.203125 0,-0.109375 -0.09375,-0.109375 -0.265625,-0.109375 h -1.3125 c -0.265625,0 -0.28125,0 -0.390625,0.1875 L 4.796875,-0.9375 4.015625,-6.578125 C 3.984375,-6.8125 3.96875,-6.8125 3.703125,-6.8125 H 2.34375 c -0.1875,0 -0.296875,0 -0.296875,0.1875 0,0.125 0.09375,0.125 0.28125,0.125 0.140625,0 0.3125,0.015625 0.4375,0.015625 0.15625,0.03125 0.21875,0.046875 0.21875,0.171875 0,0.03125 -0.015625,0.0625 -0.046875,0.1875 l -1.265625,5.0625 c -0.09375,0.40625 -0.265625,0.71875 -1.078125,0.75 -0.046875,0 -0.171875,0.015625 -0.171875,0.1875 0,0.09375 0.0625,0.125 0.140625,0.125 0.3125,0 0.65625,-0.03125 1,-0.03125 C 1.890625,-0.03125 2.25,0 2.578125,0 c 0.046875,0 0.1875,0 0.1875,-0.203125 0,-0.109375 -0.109375,-0.109375 -0.1875,-0.109375 -0.5625,0 -0.671875,-0.203125 -0.671875,-0.4375 0,-0.0625 0,-0.125 0.03125,-0.234375 L 3.296875,-6.40625 H 3.3125 l 0.859375,6.171875 C 4.1875,-0.109375 4.203125,0 4.3125,0 4.421875,0 4.484375,-0.109375 4.53125,-0.171875 l 4.03125,-6.3125 h 0.015625 l -1.4375,5.703125 c -0.09375,0.390625 -0.109375,0.46875 -0.90625,0.46875 -0.15625,0 -0.265625,0 -0.265625,0.1875 C 5.96875,0 6.078125,0 6.109375,0 6.390625,0 7.0625,-0.03125 7.34375,-0.03125 7.75,-0.03125 8.1875,0 8.59375,0 8.65625,0 8.78125,0 8.78125,-0.203125 8.78125,-0.3125 8.6875,-0.3125 8.5,-0.3125 c -0.359375,0 -0.640625,0 -0.640625,-0.171875 0,-0.046875 0,-0.0625 0.046875,-0.25 z m 0,0"
               style="stroke:none;stroke-width:0" />
          </g>
        </g>
      </g>
    </g>
  </g>
</svg>
