<?xml version="1.0" encoding="UTF-8" standalone="no"?>
<svg
   xmlns:dc="http://purl.org/dc/elements/1.1/"
   xmlns:cc="http://creativecommons.org/ns#"
   xmlns:rdf="http://www.w3.org/1999/02/22-rdf-syntax-ns#"
   xmlns:svg="http://www.w3.org/2000/svg"
   xmlns="http://www.w3.org/2000/svg"
   xmlns:sodipodi="http://sodipodi.sourceforge.net/DTD/sodipodi-0.dtd"
   xmlns:inkscape="http://www.inkscape.org/namespaces/inkscape"
   sodipodi:docname="brekkan.svg"
   inkscape:version="1.0 (4035a4f, 2020-05-01)"
   id="svg8"
   version="1.1"
   viewBox="0 0 210 297"
   height="297mm"
   width="210mm">
  <defs
     id="defs2">
    <g
       id="g1142">
      <symbol
         overflow="visible"
         id="symbol1136">
        <path
           style="stroke:none;stroke-width:0"
           d=""
           id="path1134" />
      </symbol>
      <symbol
         overflow="visible"
         id="symbol1140">
        <path
           style="stroke:none;stroke-width:0"
           d="m 0.875,-0.59375 c -0.03125,0.15625 -0.09375,0.390625 -0.09375,0.4375 0,0.171875 0.140625,0.265625 0.296875,0.265625 0.125,0 0.296875,-0.078125 0.375,-0.28125 0,-0.015625 0.125,-0.484375 0.1875,-0.734375 l 0.21875,-0.890625 C 1.90625,-2.03125 1.96875,-2.25 2.03125,-2.46875 c 0.03125,-0.171875 0.109375,-0.46875 0.125,-0.5 0.140625,-0.3125 0.671875,-1.21875 1.625,-1.21875 0.453125,0 0.53125,0.375 0.53125,0.703125 0,0.25 -0.0625,0.53125 -0.140625,0.828125 L 3.890625,-1.5 3.6875,-0.75 c -0.03125,0.203125 -0.125,0.546875 -0.125,0.59375 0,0.171875 0.140625,0.265625 0.28125,0.265625 0.3125,0 0.375,-0.25 0.453125,-0.5625 0.140625,-0.5625 0.515625,-2.015625 0.59375,-2.40625 0.03125,-0.125 0.5625,-1.328125 1.65625,-1.328125 0.421875,0 0.53125,0.34375 0.53125,0.703125 0,0.5625 -0.421875,1.703125 -0.625,2.234375 -0.078125,0.234375 -0.125,0.34375 -0.125,0.546875 0,0.46875 0.34375,0.8125 0.8125,0.8125 0.9375,0 1.3125,-1.453125 1.3125,-1.53125 0,-0.109375 -0.09375,-0.109375 -0.125,-0.109375 -0.09375,0 -0.09375,0.03125 -0.140625,0.1875 -0.15625,0.53125 -0.46875,1.234375 -1.015625,1.234375 -0.171875,0 -0.25,-0.09375 -0.25,-0.328125 0,-0.25 0.09375,-0.484375 0.1875,-0.703125 0.1875,-0.53125 0.609375,-1.625 0.609375,-2.203125 0,-0.640625 -0.40625,-1.0625 -1.15625,-1.0625 -0.734375,0 -1.25,0.4375 -1.625,0.96875 0,-0.125 -0.03125,-0.46875 -0.3125,-0.703125 -0.25,-0.21875 -0.5625,-0.265625 -0.8125,-0.265625 -0.90625,0 -1.390625,0.640625 -1.5625,0.875 -0.046875,-0.578125 -0.46875,-0.875 -0.921875,-0.875 -0.453125,0 -0.640625,0.390625 -0.734375,0.5625 -0.171875,0.359375 -0.296875,0.9375 -0.296875,0.96875 0,0.109375 0.09375,0.109375 0.109375,0.109375 0.109375,0 0.109375,-0.015625 0.171875,-0.234375 0.171875,-0.703125 0.375,-1.1875 0.734375,-1.1875 0.15625,0 0.296875,0.078125 0.296875,0.453125 0,0.21875 -0.03125,0.328125 -0.15625,0.84375 z m 0,0"
           id="path1138" />
      </symbol>
    </g>
  </defs>
  <sodipodi:namedview
     inkscape:window-maximized="0"
     inkscape:window-y="25"
     inkscape:window-x="0"
     inkscape:window-height="847"
     inkscape:window-width="1252"
     showgrid="false"
     inkscape:document-rotation="0"
     inkscape:current-layer="layer1"
     inkscape:document-units="mm"
     inkscape:cy="392.62502"
     inkscape:cx="303.88231"
     inkscape:zoom="3.0955733"
     inkscape:pageshadow="2"
     inkscape:pageopacity="0.0"
     borderopacity="1.0"
     bordercolor="#666666"
     pagecolor="#ffffff"
     id="base" />
  <metadata
     id="metadata5">
    <rdf:RDF>
      <cc:Work
         rdf:about="">
        <dc:format>image/svg+xml</dc:format>
        <dc:type
           rdf:resource="http://purl.org/dc/dcmitype/StillImage" />
        <dc:title></dc:title>
      </cc:Work>
    </rdf:RDF>
  </metadata>
  <g
     id="layer1"
     inkscape:groupmode="layer"
     inkscape:label="Layer 1">
    <path
       id="path833"
       d="M 67.471437,100.48937 105.82146,90.235356"
       style="fill:none;stroke:#000000;stroke-width:0.264583px;stroke-linecap:butt;stroke-linejoin:miter;stroke-opacity:1" />
    <circle
       r="0.82957214"
       cy="94.823296"
       cx="85.507607"
       id="path835"
       style="fill:none;stroke:#000000;stroke-width:0.264999" />
    <circle
       style="fill:none;stroke:#000000;stroke-width:0.264999"
       id="path835-4"
       cx="90.616028"
       cy="93.469788"
       r="0.82957214" />
    <path
       id="path852"
       d="M 67.471437,100.48937 H 54.892209"
       style="fill:none;stroke:#000000;stroke-width:0.264583px;stroke-linecap:butt;stroke-linejoin:miter;stroke-opacity:1" />
    <path
       id="path854"
       d="m 82.935951,94.474829 9.634053,-2.627468"
       style="fill:none;stroke:#000000;stroke-width:0.264583px;stroke-linecap:butt;stroke-linejoin:miter;stroke-opacity:1" />
    <path
       id="path875"
       d="m 85.359957,92.130628 c -0.474136,-3.079787 2.886292,-3.51032 3.570142,-0.774915"
       style="fill:none;stroke:#000000;stroke-width:0.264583px;stroke-linecap:butt;stroke-linejoin:miter;stroke-opacity:1" />
    <path
       sodipodi:nodetypes="cc"
       id="path877"
       d="m 85.359957,92.130628 -2.616925,0.727455"
       style="fill:none;stroke:#000000;stroke-width:0.264583px;stroke-linecap:butt;stroke-linejoin:miter;stroke-opacity:1" />
    <path
       id="path879"
       d="m 88.930099,91.355712 3.23048,-0.862208"
       style="fill:none;stroke:#000000;stroke-width:0.264583px;stroke-linecap:butt;stroke-linejoin:miter;stroke-opacity:1" />
    <path
       id="path881"
       d="m 92.160577,90.493502 0.409426,1.353857"
       style="fill:none;stroke:#000000;stroke-width:0.264583px;stroke-linecap:butt;stroke-linejoin:miter;stroke-opacity:1" />
    <path
       id="path883"
       d="m 82.743032,92.858083 0.192918,1.616744"
       style="fill:none;stroke:#000000;stroke-width:0.264583px;stroke-linecap:butt;stroke-linejoin:miter;stroke-opacity:1" />
    <path
       style="fill:none;stroke:#000000;stroke-width:0.136206px;stroke-linecap:butt;stroke-linejoin:miter;stroke-opacity:1"
       d="M 93.541103,93.542311 94.154716,90.98242"
       id="path858-4" />
    <path
       id="path858-7-5"
       d="M 96.06484,92.793768 94.154716,90.98242"
       style="fill:none;stroke:#000000;stroke-width:0.136206px;stroke-linecap:butt;stroke-linejoin:miter;stroke-opacity:1" />
    <path
       style="fill:none;stroke:#000000;stroke-width:0.136206px;stroke-linecap:butt;stroke-linejoin:miter;stroke-opacity:1"
       d="M 94.154716,90.98242 93.316792,88.157332"
       id="path875-8" />
    <path
       style="fill:none;stroke:#000000;stroke-width:0.136206px;stroke-linecap:butt;stroke-linejoin:miter;stroke-opacity:1"
       d="m 93.7011,89.403306 1.744605,-1.839733"
       id="path877-62" />
    <path
       id="path877-6-5"
       d="M 93.7011,89.403306 91.23554,88.812311"
       style="fill:none;stroke:#000000;stroke-width:0.136206px;stroke-linecap:butt;stroke-linejoin:miter;stroke-opacity:1" />
    <circle
       transform="rotate(-16.520402)"
       style="fill:none;stroke:#000000;stroke-width:0.13642;stroke-miterlimit:4;stroke-dasharray:none;stroke-opacity:1"
       id="path894-1"
       cx="64.39373"
       cy="110.39362"
       r="0.71895796" />
    <circle
       transform="rotate(-16.520402)"
       style="fill:#000000;stroke:#000000;stroke-width:0.13642;stroke-miterlimit:4;stroke-dasharray:none;stroke-opacity:1"
       id="path896-3"
       cx="64.126221"
       cy="110.19257"
       r="0.11264025" />
    <circle
       transform="rotate(-16.520402)"
       r="0.11264025"
       cy="110.18047"
       cx="64.669388"
       id="path896-5-9"
       style="fill:#000000;stroke:#000000;stroke-width:0.13642;stroke-miterlimit:4;stroke-dasharray:none;stroke-opacity:1" />
    <path
       style="fill:none;stroke:#000000;stroke-width:0.136206px;stroke-linecap:butt;stroke-linejoin:miter;stroke-opacity:1"
       d="m 92.933626,87.908742 c 0.166708,0.02547 0.39431,-0.0095 0.480083,-0.167621"
       id="path917-7" />
    <circle
       transform="rotate(15.200157)"
       style="fill:none;stroke:#000000;stroke-width:0.264999"
       id="path835-7"
       cx="84.308876"
       cy="80.231384"
       r="0.82957214" />
    <circle
       transform="rotate(15.200157)"
       r="0.82957214"
       cy="78.877876"
       cx="89.417297"
       id="path835-4-8"
       style="fill:none;stroke:#000000;stroke-width:0.264999" />
    <path
       style="fill:none;stroke:#000000;stroke-width:0.264583px;stroke-linecap:butt;stroke-linejoin:miter;stroke-opacity:1"
       d="m 57.933054,98.519116 9.985914,-0.0096"
       id="path854-8" />
    <path
       style="fill:none;stroke:#000000;stroke-width:0.264583px;stroke-linecap:butt;stroke-linejoin:miter;stroke-opacity:1"
       d="m 60.886889,96.892479 c 0.349946,-3.096357 3.705694,-2.630752 3.648419,0.188257"
       id="path875-3" />
    <path
       style="fill:none;stroke:#000000;stroke-width:0.264583px;stroke-linecap:butt;stroke-linejoin:miter;stroke-opacity:1"
       d="m 60.886889,96.892479 -2.716107,0.01587"
       id="path877-8"
       sodipodi:nodetypes="cc" />
    <path
       style="fill:none;stroke:#000000;stroke-width:0.264583px;stroke-linecap:butt;stroke-linejoin:miter;stroke-opacity:1"
       d="m 64.535309,97.080735 3.343528,0.01496"
       id="path879-1" />
    <path
       style="fill:none;stroke:#000000;stroke-width:0.264583px;stroke-linecap:butt;stroke-linejoin:miter;stroke-opacity:1"
       d="m 67.878835,97.095694 0.04013,1.413841"
       id="path881-5" />
    <path
       style="fill:none;stroke:#000000;stroke-width:0.264583px;stroke-linecap:butt;stroke-linejoin:miter;stroke-opacity:1"
       d="m 58.170782,96.908348 -0.237728,1.610765"
       id="path883-3" />
    <path
       id="path2058"
       d="M 67.471437,100.48937 H 84.287878"
       style="fill:none;stroke:#000000;stroke-width:0.26499999;stroke-linecap:butt;stroke-linejoin:miter;stroke-opacity:1;stroke-miterlimit:4;stroke-dasharray:1.05999995,1.05999995;stroke-dashoffset:0" />
  </g>
</svg>
