<?xml version="1.0" encoding="UTF-8" standalone="no"?>
<svg
   xmlns:ns14="http://www.iki.fi/pav/software/textext/"
   xmlns:dc="http://purl.org/dc/elements/1.1/"
   xmlns:cc="http://creativecommons.org/ns#"
   xmlns:rdf="http://www.w3.org/1999/02/22-rdf-syntax-ns#"
   xmlns:svg="http://www.w3.org/2000/svg"
   xmlns="http://www.w3.org/2000/svg"
   xmlns:sodipodi="http://sodipodi.sourceforge.net/DTD/sodipodi-0.dtd"
   xmlns:inkscape="http://www.inkscape.org/namespaces/inkscape"
   sodipodi:docname="segulvogin.svg"
   inkscape:version="1.0 (4035a4f, 2020-05-01)"
   id="svg923"
   version="1.1"
   viewBox="0 0 210 297"
   height="297mm"
   width="210mm">
  <defs
     id="defs917">
    <marker
       inkscape:isstock="true"
       style="overflow:visible;"
       id="Arrow1Send"
       refX="0.0"
       refY="0.0"
       orient="auto"
       inkscape:stockid="Arrow1Send">
      <path
         transform="scale(0.2) rotate(180) translate(6,0)"
         style="fill-rule:evenodd;stroke:#000000;stroke-width:1pt;stroke-opacity:1;fill:#000000;fill-opacity:1"
         d="M 0.0,0.0 L 5.0,-5.0 L -12.5,0.0 L 5.0,5.0 L 0.0,0.0 z "
         id="path1509" />
    </marker>
    <marker
       inkscape:stockid="Arrow1Mend"
       orient="auto"
       refY="0.0"
       refX="0.0"
       id="marker4658"
       style="overflow:visible;"
       inkscape:isstock="true">
      <path
         id="path4656"
         d="M 0.0,0.0 L 5.0,-5.0 L -12.5,0.0 L 5.0,5.0 L 0.0,0.0 z "
         style="fill-rule:evenodd;stroke:#000000;stroke-width:1pt;stroke-opacity:1;fill:#000000;fill-opacity:1"
         transform="scale(0.4) rotate(180) translate(10,0)" />
    </marker>
    <marker
       inkscape:isstock="true"
       style="overflow:visible"
       id="Arrow1Mstart"
       refX="0.0"
       refY="0.0"
       orient="auto"
       inkscape:stockid="Arrow1Mstart">
      <path
         transform="scale(0.4) translate(10,0)"
         style="fill-rule:evenodd;stroke:#000000;stroke-width:1pt;stroke-opacity:1;fill:#000000;fill-opacity:1"
         d="M 0.0,0.0 L 5.0,-5.0 L -12.5,0.0 L 5.0,5.0 L 0.0,0.0 z "
         id="path1500" />
    </marker>
    <marker
       inkscape:collect="always"
       inkscape:isstock="true"
       style="overflow:visible;"
       id="Arrow1Mend"
       refX="0.0"
       refY="0.0"
       orient="auto"
       inkscape:stockid="Arrow1Mend">
      <path
         transform="scale(0.4) rotate(180) translate(10,0)"
         style="fill-rule:evenodd;stroke:#000000;stroke-width:1pt;stroke-opacity:1;fill:#000000;fill-opacity:1"
         d="M 0.0,0.0 L 5.0,-5.0 L -12.5,0.0 L 5.0,5.0 L 0.0,0.0 z "
         id="path1503" />
    </marker>
  </defs>
  <sodipodi:namedview
     inkscape:window-maximized="0"
     inkscape:window-y="95"
     inkscape:window-x="135"
     inkscape:window-height="847"
     inkscape:window-width="1252"
     showgrid="false"
     inkscape:document-rotation="0"
     inkscape:current-layer="layer1"
     inkscape:document-units="mm"
     inkscape:cy="549.32092"
     inkscape:cx="274.61609"
     inkscape:zoom="2.3478032"
     inkscape:pageshadow="2"
     inkscape:pageopacity="0.0"
     borderopacity="1.0"
     bordercolor="#666666"
     pagecolor="#ffffff"
     id="base" />
  <metadata
     id="metadata920">
    <rdf:RDF>
      <cc:Work
         rdf:about="">
        <dc:format>image/svg+xml</dc:format>
        <dc:type
           rdf:resource="http://purl.org/dc/dcmitype/StillImage" />
        <dc:title></dc:title>
      </cc:Work>
    </rdf:RDF>
  </metadata>
  <g
     id="layer1"
     inkscape:groupmode="layer"
     inkscape:label="Layer 1">
    <path
       id="path1492"
       d="M 66.264748,126.99006 H 87.257117"
       style="fill:none;stroke:#000000;stroke-width:0.25;stroke-linecap:butt;stroke-linejoin:miter;stroke-miterlimit:4;stroke-dasharray:none;stroke-opacity:1;marker-start:url(#Arrow1Mstart);marker-end:url(#Arrow1Mend)" />
    <rect
       y="133.12614"
       x="48.906673"
       height="3.1250269"
       width="31.250269"
       id="rect4586"
       style="fill:#ffffff;stroke:#000000;stroke-width:0.25;stroke-miterlimit:4;stroke-dasharray:none" />
    <path
       id="path7229-3-9"
       d="m 63.850386,134.76827 c 0.09631,2.40075 0.670124,4.32731 1.362468,4.32731 0.692333,0 1.266193,-1.92656 1.362458,-4.32731 0.09631,-2.40373 -0.286923,-4.33029 -0.786743,-4.33029 -0.499815,0 -0.883017,1.92656 -0.786754,4.33029 0.09631,2.40075 0.670125,4.32731 1.362471,4.32731 0.692332,0 1.266191,-1.92656 1.362456,-4.32731 0.09631,-2.40373 -0.286925,-4.33029 -0.78674,-4.33029 -0.501669,0 -0.883017,1.92656 -0.788607,4.33029 0.09631,2.40075 0.670124,4.32731 1.362467,4.32731 0.692329,0 1.268045,-1.92656 1.362454,-4.32731 0.09631,-2.40373 -0.285069,-4.33029 -0.786738,-4.33029 -0.499818,0 -0.883017,1.92656 -0.786755,4.33029 0.09631,2.40075 0.670125,4.32731 1.362468,4.32731 0.692331,0 1.266205,-1.92656 1.362455,-4.32731 0.09631,-2.40373 -0.286925,-4.33029 -0.78674,-4.33029 -0.499816,0 -0.883017,1.92656 -0.786753,4.33029 0.09631,2.40075 0.670124,4.32731 1.362467,4.32731 0.692332,0 1.266204,-1.92656 1.362456,-4.32731 0.09631,-2.40373 -0.286925,-4.33029 -0.78674,-4.33029 -0.501669,0 -0.883017,1.92656 -0.786754,4.33029 0.09445,2.40075 0.670124,4.32731 1.360613,4.32731 0.692345,0 1.268059,-1.92656 1.36247,-4.32731 0.09631,-2.40373 -0.285084,-4.33029 -0.786755,-4.33029 -0.499815,0 -0.883015,1.92656 -0.786753,4.33029 0.09631,2.40075 0.670124,4.32731 1.362469,4.32731 0.692343,0 1.266205,-1.92656 1.362467,-4.32731 0.09631,-2.40373 -0.286938,-4.33029 -0.786753,-4.33029 -0.499815,0 -0.883017,1.92656 -0.786753,4.33029 0.09631,2.40075 0.670124,4.32731 1.362467,4.32731 0.692345,0 1.266204,-1.92656 1.362456,-4.32731 0.09631,-2.40373 -0.286925,-4.33029 -0.78674,-4.33029 -0.501671,0 -0.883017,1.92656 -0.786755,4.33029 0.09444,2.40075 0.670125,4.32731 1.362468,4.32731 0.692331,0 1.266203,-1.92656 1.360614,-4.32731 0.09631,-2.40373 -0.285081,-4.33029 -0.786752,-4.33029 -0.499815,0 -0.883002,1.92656 -0.786752,4.33029 0.09631,2.40075 0.670125,4.32731 1.362467,4.32731 0.69234,0 1.266204,-1.92656 1.362468,-4.32731 0.09631,-2.40373 -0.286939,-4.33029 -0.786752,-4.33029 -0.499817,0 -0.883018,1.92656 -0.786755,4.33029 0.09631,2.40075 0.670123,4.32731 1.362469,4.32731 0.692342,0 1.266204,-1.92656 1.362467,-4.32731 0.09631,-2.40373 -0.286936,-4.33029 -0.786753,-4.33029 -0.501671,0 -0.883019,1.92656 -0.786755,4.33029 0.09444,2.40075 0.670124,4.32731 1.362469,4.32731 0.692344,0 1.266202,-1.92656 1.360614,-4.32731 0.09631,-2.40373 -0.285085,-4.33029 -0.786754,-4.33029 -0.499814,0 -0.883003,1.92656 -0.786752,4.33029 0.09631,2.40075 0.670126,4.32731 1.362468,4.32731 0.692341,0 1.266204,-1.92656 1.362468,-4.32731 0.09631,-2.40373 -0.286937,-4.33029 -0.786752,-4.33029 -0.499817,0 -0.883005,1.92656 -0.786754,4.33029 0.09631,2.40075 0.670121,4.32731 1.362468,4.32731 0.692342,0 1.266204,-1.92656 1.362466,-4.32731 0.09631,-2.40373 -0.286935,-4.33029 -0.786754,-4.33029 -0.501669,0 -0.883001,1.92656 -0.786753,4.33029 0.09445,2.40075 0.670124,4.32731 1.362467,4.32731 0.692346,0 1.266204,-1.92656 1.362469,-4.32731 0.09445,-2.40373 -0.286938,-4.33029 -0.788605,-4.33029 -0.499816,0 -0.883005,1.92656 -0.786743,4.33029 0.09631,2.40075 0.670127,4.32731 1.362457,4.32731 0.692342,0 1.266204,-1.92656 1.362469,-4.32731 0.09631,-2.40373 -0.286938,-4.33029 -0.786753,-4.33029 -0.499818,0 -0.883005,1.92656 -0.78674,4.33029 0.09631,2.40075 0.670123,4.32731 1.362454,4.32731 0.692342,0 1.266202,-1.92656 1.362466,-4.32731 0.09631,-2.40373 -0.286937,-4.33029 -0.786754,-4.33029 -0.501667,0 -0.883,1.92656 -0.786738,4.33029 0.09444,2.40075 0.670112,4.32731 1.362453,4.32731 0.692345,0 1.266205,-1.92656 1.362469,-4.32731 0.09445,-2.40373 -0.286937,-4.33029 -0.788606,-4.33029 -0.499815,0 -0.881152,1.92656 -0.786741,4.33029 0.09631,2.40075 0.670125,4.32731 1.362454,4.32731 0.692346,0 1.266205,-1.92656 1.36247,-4.32731 0.09631,-2.40373 -0.286938,-4.33029 -0.786755,-4.33029 -0.499816,0 -0.883002,1.92656 -0.786738,4.33029 0.09631,2.40075 0.670124,4.32731 1.362453,4.32731 0.692343,0 1.266205,-1.92656 1.362467,-4.32731 h 0.621994"
       style="fill:none;stroke:#000000;stroke-width:0.2;stroke-linecap:butt;stroke-linejoin:miter;stroke-miterlimit:10;stroke-dasharray:none;stroke-opacity:1" />
    <path
       id="path4603"
       d="M 44.351209,134.83825 H 48.77972"
       style="fill:none;stroke:#000000;stroke-width:0.264583px;stroke-linecap:butt;stroke-linejoin:miter;stroke-opacity:1" />
    <path
       id="path4605"
       d="m 47.193387,134.77215 v 3.30486"
       style="fill:none;stroke:#000000;stroke-width:0.264583px;stroke-linecap:butt;stroke-linejoin:miter;stroke-opacity:1" />
    <rect
       y="138.01093"
       x="44.946083"
       height="4.1641226"
       width="4.1641226"
       id="rect4607"
       style="fill:#ffffff;stroke:#000000;stroke-width:0.25;stroke-miterlimit:4;stroke-dasharray:none" />
    <g
       transform="matrix(0.352778,0,0,0.352778,45.742841,139.29599)"
       ns14:version="1.3.1"
       ns14:texconverter="pdflatex"
       ns14:pdfconverter="inkscape"
       ns14:text="$m$"
       ns14:preamble="/Users/mbh/Library/Application Support/org.inkscape.Inkscape/config/inkscape/extensions/textext/default_packages.tex"
       ns14:scale="1.0"
       ns14:alignment="middle center"
       ns14:jacobian_sqrt="0.352778"
       id="g4633">
      <defs
         id="id-cc842c05-2f06-4685-85a4-eeac9eb17f8f">
        <g
           id="id-194c8481-c3fb-4b31-bcc1-c898abde9bbd">
          <symbol
             id="id-8c4fbf43-0690-471a-bf9b-6d3599f45a92"
             overflow="visible">
            <path
               id="id-a49e428f-1df8-4a78-834f-25bc1314dab4"
               d=""
               style="stroke:none;stroke-width:0" />
          </symbol>
          <symbol
             id="id-3d924ee4-dc64-4f6d-8301-5c9cd62b563e"
             overflow="visible">
            <path
               id="id-0d5a1990-a6b2-40c8-8094-f9d5929638e9"
               d="m 8.453125,-1.421875 c 0,-0.109375 -0.09375,-0.109375 -0.125,-0.109375 -0.09375,0 -0.09375,0.03125 -0.140625,0.1875 -0.15625,0.53125 -0.46875,1.234375 -1.015625,1.234375 -0.171875,0 -0.25,-0.09375 -0.25,-0.328125 0,-0.25 0.09375,-0.484375 0.1875,-0.703125 0.1875,-0.53125 0.609375,-1.625 0.609375,-2.203125 0,-0.640625 -0.40625,-1.0625 -1.15625,-1.0625 -0.734375,0 -1.25,0.4375 -1.625,0.96875 0,-0.125 -0.03125,-0.46875 -0.3125,-0.703125 -0.25,-0.21875 -0.5625,-0.265625 -0.8125,-0.265625 -0.90625,0 -1.390625,0.640625 -1.5625,0.875 -0.046875,-0.578125 -0.46875,-0.875 -0.921875,-0.875 -0.453125,0 -0.640625,0.390625 -0.734375,0.5625 -0.171875,0.359375 -0.296875,0.9375 -0.296875,0.96875 0,0.109375 0.109375,0.109375 0.109375,0.109375 0.109375,0 0.109375,-0.015625 0.171875,-0.234375 0.171875,-0.703125 0.375,-1.1875 0.734375,-1.1875 0.15625,0 0.296875,0.078125 0.296875,0.453125 0,0.21875 -0.03125,0.328125 -0.15625,0.84375 L 0.875,-0.59375 c -0.03125,0.15625 -0.09375,0.390625 -0.09375,0.4375 0,0.171875 0.140625,0.265625 0.296875,0.265625 0.125,0 0.296875,-0.078125 0.375,-0.28125 0,-0.015625 0.125,-0.484375 0.1875,-0.734375 l 0.21875,-0.890625 C 1.90625,-2.03125 1.96875,-2.25 2.03125,-2.46875 l 0.125,-0.5 c 0.140625,-0.3125 0.671875,-1.21875 1.625,-1.21875 0.453125,0 0.53125,0.375 0.53125,0.703125 0,0.25 -0.0625,0.53125 -0.140625,0.828125 L 3.890625,-1.5 C 3.78125,-1.140625 3.78125,-1.078125 3.6875,-0.75 c -0.03125,0.203125 -0.125,0.546875 -0.125,0.59375 0,0.171875 0.140625,0.265625 0.28125,0.265625 0.3125,0 0.375,-0.25 0.453125,-0.5625 l 0.59375,-2.40625 c 0.03125,-0.125 0.5625,-1.328125 1.65625,-1.328125 0.421875,0 0.53125,0.34375 0.53125,0.703125 0,0.5625 -0.421875,1.703125 -0.625,2.234375 -0.078125,0.234375 -0.125,0.34375 -0.125,0.546875 0,0.46875 0.34375,0.8125 0.8125,0.8125 0.9375,0 1.3125,-1.453125 1.3125,-1.53125 z m 0,0"
               style="stroke:none;stroke-width:0" />
          </symbol>
        </g>
      </defs>
      <g
         transform="translate(-149.009,-130.359)"
         id="id-c7f32079-8239-4b76-a5ed-1ff57aca6e02">
        <g
           id="id-09d4ff00-9daa-4f6c-9a09-e5ffd4b13318"
           style="fill:#000000;fill-opacity:1">
          <g
             transform="translate(148.712,134.765)"
             id="g4629">
            <path
               id="id-af3c6212-5066-4cfe-8cff-5d917375b998"
               d="m 8.453125,-1.421875 c 0,-0.109375 -0.09375,-0.109375 -0.125,-0.109375 -0.09375,0 -0.09375,0.03125 -0.140625,0.1875 -0.15625,0.53125 -0.46875,1.234375 -1.015625,1.234375 -0.171875,0 -0.25,-0.09375 -0.25,-0.328125 0,-0.25 0.09375,-0.484375 0.1875,-0.703125 0.1875,-0.53125 0.609375,-1.625 0.609375,-2.203125 0,-0.640625 -0.40625,-1.0625 -1.15625,-1.0625 -0.734375,0 -1.25,0.4375 -1.625,0.96875 0,-0.125 -0.03125,-0.46875 -0.3125,-0.703125 -0.25,-0.21875 -0.5625,-0.265625 -0.8125,-0.265625 -0.90625,0 -1.390625,0.640625 -1.5625,0.875 -0.046875,-0.578125 -0.46875,-0.875 -0.921875,-0.875 -0.453125,0 -0.640625,0.390625 -0.734375,0.5625 -0.171875,0.359375 -0.296875,0.9375 -0.296875,0.96875 0,0.109375 0.109375,0.109375 0.109375,0.109375 0.109375,0 0.109375,-0.015625 0.171875,-0.234375 0.171875,-0.703125 0.375,-1.1875 0.734375,-1.1875 0.15625,0 0.296875,0.078125 0.296875,0.453125 0,0.21875 -0.03125,0.328125 -0.15625,0.84375 L 0.875,-0.59375 c -0.03125,0.15625 -0.09375,0.390625 -0.09375,0.4375 0,0.171875 0.140625,0.265625 0.296875,0.265625 0.125,0 0.296875,-0.078125 0.375,-0.28125 0,-0.015625 0.125,-0.484375 0.1875,-0.734375 l 0.21875,-0.890625 C 1.90625,-2.03125 1.96875,-2.25 2.03125,-2.46875 l 0.125,-0.5 c 0.140625,-0.3125 0.671875,-1.21875 1.625,-1.21875 0.453125,0 0.53125,0.375 0.53125,0.703125 0,0.25 -0.0625,0.53125 -0.140625,0.828125 L 3.890625,-1.5 C 3.78125,-1.140625 3.78125,-1.078125 3.6875,-0.75 c -0.03125,0.203125 -0.125,0.546875 -0.125,0.59375 0,0.171875 0.140625,0.265625 0.28125,0.265625 0.3125,0 0.375,-0.25 0.453125,-0.5625 l 0.59375,-2.40625 c 0.03125,-0.125 0.5625,-1.328125 1.65625,-1.328125 0.421875,0 0.53125,0.34375 0.53125,0.703125 0,0.5625 -0.421875,1.703125 -0.625,2.234375 -0.078125,0.234375 -0.125,0.34375 -0.125,0.546875 0,0.46875 0.34375,0.8125 0.8125,0.8125 0.9375,0 1.3125,-1.453125 1.3125,-1.53125 z m 0,0"
               style="stroke:none;stroke-width:0" />
          </g>
        </g>
      </g>
    </g>
    <g
       transform="matrix(0.352778,0,0,0.352778,75.982529,123.22825)"
       ns14:version="1.3.1"
       ns14:texconverter="pdflatex"
       ns14:pdfconverter="inkscape"
       ns14:text="$\\ell$"
       ns14:preamble="/Users/mbh/Library/Application Support/org.inkscape.Inkscape/config/inkscape/extensions/textext/default_packages.tex"
       ns14:scale="1.0"
       ns14:alignment="middle center"
       ns14:jacobian_sqrt="0.352778"
       id="g4767">
      <defs
         id="id-e853d2e5-23f4-4236-8baa-87596113171a">
        <g
           id="id-3fe20873-3ede-4d62-aa18-f96e5ced5ce1">
          <symbol
             id="id-605d8204-f3ba-4743-82dd-007b2b54c7bd"
             overflow="visible">
            <path
               id="id-d6d1c6cf-c7aa-4f43-9fc2-9b58ad7e9c55"
               d=""
               style="stroke:none;stroke-width:0" />
          </symbol>
          <symbol
             id="id-b1d3eb6b-e633-4faf-bf56-69059306dd96"
             overflow="visible">
            <path
               id="id-dd00c750-9013-4838-a249-6939b71e7b8c"
               d="m 3.625,-0.84375 c 0,-0.03125 -0.03125,-0.125 -0.109375,-0.125 -0.03125,0 -0.046875,0.015625 -0.140625,0.09375 -0.640625,0.625 -1,0.78125 -1.296875,0.78125 -0.4375,0 -0.609375,-0.53125 -0.609375,-1.296875 0,-0.0625 0.03125,-0.515625 0.0625,-0.578125 C 1.546875,-2 1.546875,-2.015625 1.75,-2.21875 2.546875,-3.015625 3.96875,-4.703125 3.96875,-6.25 c 0,-0.171875 0,-0.78125 -0.59375,-0.78125 -0.828125,0 -1.5625,1.640625 -1.65625,1.875 -0.484375,1.09375 -0.796875,2.25 -0.796875,3.4375 L 0.15625,-0.984375 c -0.015625,0.03125 -0.046875,0.0625 -0.046875,0.09375 0,0.046875 0.0625,0.140625 0.125,0.140625 C 0.28125,-0.75 0.3125,-0.78125 0.59375,-1.0625 0.671875,-1.140625 0.875,-1.328125 0.953125,-1.40625 1.046875,-0.625 1.328125,0.125 2.0625,0.125 c 0.40625,0 0.75,-0.234375 0.953125,-0.390625 C 3.15625,-0.359375 3.625,-0.75 3.625,-0.84375 Z m 0.109375,-5.453125 c 0,1.671875 -1.6875,3.421875 -2.15625,3.921875 0.015625,-0.125 0.453125,-2.328125 1.015625,-3.5 0.265625,-0.53125 0.484375,-0.9375 0.796875,-0.9375 0.34375,0 0.34375,0.359375 0.34375,0.515625 z m 0,0"
               style="stroke:none;stroke-width:0" />
          </symbol>
        </g>
      </defs>
      <g
         transform="translate(-148.821,-127.734)"
         id="id-6f91b5b1-ba93-444b-9d4b-6e694f7ba230">
        <g
           id="id-be605082-4934-4e4b-b380-3c911767b0e2"
           style="fill:#000000;fill-opacity:1">
          <g
             transform="translate(148.712,134.765)"
             id="g4763">
            <path
               id="id-55aa6f52-a60a-4604-9c0e-40ffd9fab162"
               d="m 3.625,-0.84375 c 0,-0.03125 -0.03125,-0.125 -0.109375,-0.125 -0.03125,0 -0.046875,0.015625 -0.140625,0.09375 -0.640625,0.625 -1,0.78125 -1.296875,0.78125 -0.4375,0 -0.609375,-0.53125 -0.609375,-1.296875 0,-0.0625 0.03125,-0.515625 0.0625,-0.578125 C 1.546875,-2 1.546875,-2.015625 1.75,-2.21875 2.546875,-3.015625 3.96875,-4.703125 3.96875,-6.25 c 0,-0.171875 0,-0.78125 -0.59375,-0.78125 -0.828125,0 -1.5625,1.640625 -1.65625,1.875 -0.484375,1.09375 -0.796875,2.25 -0.796875,3.4375 L 0.15625,-0.984375 c -0.015625,0.03125 -0.046875,0.0625 -0.046875,0.09375 0,0.046875 0.0625,0.140625 0.125,0.140625 C 0.28125,-0.75 0.3125,-0.78125 0.59375,-1.0625 0.671875,-1.140625 0.875,-1.328125 0.953125,-1.40625 1.046875,-0.625 1.328125,0.125 2.0625,0.125 c 0.40625,0 0.75,-0.234375 0.953125,-0.390625 C 3.15625,-0.359375 3.625,-0.75 3.625,-0.84375 Z m 0.109375,-5.453125 c 0,1.671875 -1.6875,3.421875 -2.15625,3.921875 0.015625,-0.125 0.453125,-2.328125 1.015625,-3.5 0.265625,-0.53125 0.484375,-0.9375 0.796875,-0.9375 0.34375,0 0.34375,0.359375 0.34375,0.515625 z m 0,0"
               style="stroke:none;stroke-width:0" />
          </g>
        </g>
      </g>
    </g>
    <path
       id="path4782"
       d="m 45.333046,130.48262 c 0.0702,1.30508 1.359617,2.49411 2.514333,2.92713"
       style="fill:none;stroke:#000000;stroke-width:0.26458300000000001px;stroke-linecap:butt;stroke-linejoin:miter;stroke-opacity:1;marker-end:url(#Arrow1Send)" />
    <g
       transform="matrix(0.352778,0,0,0.352778,44.287429,127.33319)"
       ns14:version="1.3.1"
       ns14:texconverter="pdflatex"
       ns14:pdfconverter="inkscape"
       ns14:text="$d$"
       ns14:preamble="/Users/mbh/Library/Application Support/org.inkscape.Inkscape/config/inkscape/extensions/textext/default_packages.tex"
       ns14:scale="1.0"
       ns14:alignment="middle center"
       ns14:jacobian_sqrt="0.352778"
       id="g4907">
      <defs
         id="id-becd1693-76fa-466a-8e36-f0db758adebc">
        <g
           id="id-092cc7af-d26f-456e-9ba3-10a5300d010e">
          <symbol
             id="id-0e754d87-257c-477f-8cab-c7f65d14208c"
             overflow="visible">
            <path
               id="id-bfae8dc6-4735-4dad-a3f3-e1891e7bd936"
               d=""
               style="stroke:none;stroke-width:0" />
          </symbol>
          <symbol
             id="id-95042a64-0887-43b6-89a0-d36baf176757"
             overflow="visible">
            <path
               id="id-7ad01795-99e1-471e-af2e-afb4f8b507e8"
               d="m 4.96875,-1.421875 c 0,-0.109375 -0.09375,-0.109375 -0.125,-0.109375 -0.09375,0 -0.109375,0.046875 -0.140625,0.1875 -0.171875,0.640625 -0.34375,1.234375 -0.75,1.234375 -0.28125,0 -0.296875,-0.265625 -0.296875,-0.453125 0,-0.25 0.015625,-0.3125 0.046875,-0.484375 l 1.4375,-5.765625 c 0,0 0,-0.109375 -0.125,-0.109375 -0.15625,0 -1.09375,0.09375 -1.265625,0.109375 -0.078125,0.015625 -0.140625,0.0625 -0.140625,0.1875 0,0.125 0.09375,0.125 0.234375,0.125 0.484375,0 0.5,0.0625 0.5,0.171875 L 4.3125,-6.125 3.71875,-3.765625 C 3.53125,-4.140625 3.25,-4.40625 2.796875,-4.40625 c -1.15625,0 -2.390625,1.46875 -2.390625,2.921875 0,0.9375 0.546875,1.59375 1.3125,1.59375 0.203125,0 0.703125,-0.046875 1.296875,-0.75 0.078125,0.421875 0.4375,0.75 0.90625,0.75 0.359375,0 0.578125,-0.234375 0.75,-0.546875 0.15625,-0.359375 0.296875,-0.984375 0.296875,-0.984375 z M 3.5625,-3.140625 3.078125,-1.1875 C 3.015625,-1 3.015625,-0.984375 2.875,-0.8125 2.4375,-0.265625 2.03125,-0.109375 1.75,-0.109375 c -0.5,0 -0.640625,-0.546875 -0.640625,-0.9375 0,-0.5 0.3125,-1.71875 0.546875,-2.1875 0.3125,-0.578125 0.75,-0.953125 1.15625,-0.953125 0.640625,0 0.78125,0.8125 0.78125,0.875 0,0.0625 -0.015625,0.125 -0.03125,0.171875 z m 0,0"
               style="stroke:none;stroke-width:0" />
          </symbol>
        </g>
      </defs>
      <g
         transform="translate(-149.118,-127.843)"
         id="id-d5a7b4c4-240d-441e-a710-c4e04e5c568f">
        <g
           id="id-e830346e-c390-43e4-b5de-b4e3dbfc77f7"
           style="fill:#000000;fill-opacity:1">
          <g
             transform="translate(148.712,134.765)"
             id="g4903">
            <path
               id="id-ea901085-5a4c-406e-8804-7e31b33f024c"
               d="m 4.96875,-1.421875 c 0,-0.109375 -0.09375,-0.109375 -0.125,-0.109375 -0.09375,0 -0.109375,0.046875 -0.140625,0.1875 -0.171875,0.640625 -0.34375,1.234375 -0.75,1.234375 -0.28125,0 -0.296875,-0.265625 -0.296875,-0.453125 0,-0.25 0.015625,-0.3125 0.046875,-0.484375 l 1.4375,-5.765625 c 0,0 0,-0.109375 -0.125,-0.109375 -0.15625,0 -1.09375,0.09375 -1.265625,0.109375 -0.078125,0.015625 -0.140625,0.0625 -0.140625,0.1875 0,0.125 0.09375,0.125 0.234375,0.125 0.484375,0 0.5,0.0625 0.5,0.171875 L 4.3125,-6.125 3.71875,-3.765625 C 3.53125,-4.140625 3.25,-4.40625 2.796875,-4.40625 c -1.15625,0 -2.390625,1.46875 -2.390625,2.921875 0,0.9375 0.546875,1.59375 1.3125,1.59375 0.203125,0 0.703125,-0.046875 1.296875,-0.75 0.078125,0.421875 0.4375,0.75 0.90625,0.75 0.359375,0 0.578125,-0.234375 0.75,-0.546875 0.15625,-0.359375 0.296875,-0.984375 0.296875,-0.984375 z M 3.5625,-3.140625 3.078125,-1.1875 C 3.015625,-1 3.015625,-0.984375 2.875,-0.8125 2.4375,-0.265625 2.03125,-0.109375 1.75,-0.109375 c -0.5,0 -0.640625,-0.546875 -0.640625,-0.9375 0,-0.5 0.3125,-1.71875 0.546875,-2.1875 0.3125,-0.578125 0.75,-0.953125 1.15625,-0.953125 0.640625,0 0.78125,0.8125 0.78125,0.875 0,0.0625 -0.015625,0.125 -0.03125,0.171875 z m 0,0"
               style="stroke:none;stroke-width:0" />
          </g>
        </g>
      </g>
    </g>
  </g>
</svg>
