<?xml version="1.0" encoding="UTF-8" standalone="no"?>
<svg
   xmlns:ns1="http://www.iki.fi/pav/software/textext/"
   xmlns:dc="http://purl.org/dc/elements/1.1/"
   xmlns:cc="http://creativecommons.org/ns#"
   xmlns:rdf="http://www.w3.org/1999/02/22-rdf-syntax-ns#"
   xmlns:svg="http://www.w3.org/2000/svg"
   xmlns="http://www.w3.org/2000/svg"
   xmlns:sodipodi="http://sodipodi.sourceforge.net/DTD/sodipodi-0.dtd"
   xmlns:inkscape="http://www.inkscape.org/namespaces/inkscape"
   sodipodi:docname="biot2.svg"
   inkscape:version="1.0 (4035a4f, 2020-05-01)"
   width="210mm"
   height="297mm"
   viewBox="0 0 210 297"
   version="1.1"
   id="svg1195">
  <defs
     id="defs1189">
    <marker
       inkscape:isstock="true"
       style="overflow:visible"
       id="marker1673"
       refX="0"
       refY="0"
       orient="auto"
       inkscape:stockid="Arrow1Mend">
      <path
         transform="matrix(-0.4,0,0,-0.4,-4,0)"
         style="fill:#000000;fill-opacity:1;fill-rule:evenodd;stroke:#000000;stroke-width:1pt;stroke-opacity:1"
         d="M 0,0 5,-5 -12.5,0 5,5 Z"
         id="path1671" />
    </marker>
    <g
       id="id-85030f28-2af0-4c35-a259-b49d132a17e8">
      <symbol
         id="id-88e55137-3a82-4da0-88dd-8088b57dd8f8"
         overflow="visible">
        <path
           id="id-0f54b480-46d4-465e-94c0-81e5d40dc2dc"
           d=""
           style="stroke:none" />
      </symbol>
      <symbol
         id="id-5587d749-e878-4a6f-81c9-3ceb62743cd6"
         overflow="visible">
        <path
           id="id-42cd118f-9b10-4f03-9861-e219a0db8e1f"
           d="M 7.1875,-0.203125 C 7.1875,-0.3125 7.09375,-0.3125 6.953125,-0.3125 6.34375,-0.3125 6.34375,-0.375 6.3125,-0.671875 l -0.609375,-6.21875 c -0.015625,-0.203125 -0.015625,-0.25 -0.1875,-0.25 -0.15625,0 -0.203125,0.078125 -0.265625,0.171875 L 1.78125,-1.140625 C 1.390625,-0.484375 1,-0.34375 0.5625,-0.3125 0.4375,-0.296875 0.34375,-0.296875 0.34375,-0.109375 0.34375,-0.046875 0.40625,0 0.484375,0 0.75,0 1.0625,-0.03125 1.328125,-0.03125 c 0.34375,0 0.6875,0.03125 1,0.03125 0.0625,0 0.1875,0 0.1875,-0.1875 0,-0.109375 -0.078125,-0.125 -0.15625,-0.125 -0.21875,-0.015625 -0.46875,-0.09375 -0.46875,-0.34375 0,-0.125 0.0625,-0.234375 0.140625,-0.375 0.078125,-0.109375 0.078125,-0.109375 0.765625,-1.265625 h 2.5 c 0.015625,0.203125 0.15625,1.5625 0.15625,1.65625 0,0.296875 -0.515625,0.328125 -0.71875,0.328125 C 4.59375,-0.3125 4.5,-0.3125 4.5,-0.109375 4.5,0 4.640625,0 4.640625,0 5.046875,0 5.46875,-0.03125 5.875,-0.03125 6.125,-0.03125 6.765625,0 7.015625,0 7.0625,0 7.1875,0 7.1875,-0.203125 Z M 5.265625,-2.609375 H 2.984375 L 4.9375,-5.90625 Z m 0,0"
           style="stroke:none" />
      </symbol>
    </g>
    <g
       id="id-bc8d9766-a51f-470e-9dd4-6896070b7962">
      <symbol
         id="id-125d6c21-c492-40fb-9b28-71735c1fc5bc"
         overflow="visible">
        <path
           id="id-05cc3653-189f-466c-9a59-c20ca2f5ce9a"
           d=""
           style="stroke:none;stroke-width:0" />
      </symbol>
      <symbol
         id="id-545c2cee-7714-4659-8939-79c47bbdee32"
         overflow="visible">
        <path
           id="id-2d3173fa-0075-401d-9345-04015d7968c1"
           d="m 6.234375,-6.125 c 0,-0.109375 -0.078125,-0.15625 -0.140625,-0.203125 C 5.875,-6.484375 5.765625,-6.65625 5.6875,-6.890625 5.65625,-6.984375 5.625,-7.125 5.484375,-7.125 c -0.140625,0 -0.203125,0.140625 -0.203125,0.21875 0,0.046875 0.078125,0.359375 0.234375,0.578125 H 2.15625 c -0.15625,0 -0.34375,0 -0.34375,0.203125 0,0.1875 0.1875,0.1875 0.34375,0.1875 h 3.203125 c -0.140625,0.140625 -0.46875,0.421875 -0.46875,0.59375 0,0.09375 0.09375,0.203125 0.1875,0.203125 0.09375,0 0.140625,-0.078125 0.203125,-0.140625 C 5.390625,-5.421875 5.625,-5.703125 6.0625,-5.921875 6.125,-5.96875 6.234375,-6.015625 6.234375,-6.125 Z m 0,0"
           style="stroke:none;stroke-width:0" />
      </symbol>
      <symbol
         id="id-9191cd4c-e43a-4eda-abbb-2cd12177e633"
         overflow="visible">
        <path
           id="id-6314c808-5c90-4e30-88c1-78205d149d48"
           d="m 7.109375,-2.46875 c 0,0 0,-0.109375 -0.125,-0.109375 -0.09375,0 -0.109375,0.0625 -0.125,0.125 C 6.203125,-0.984375 5.84375,-0.3125 4.140625,-0.3125 H 2.6875 c -0.140625,0 -0.171875,0 -0.21875,0 -0.109375,-0.015625 -0.140625,-0.03125 -0.140625,-0.109375 0,-0.03125 0,-0.046875 0.046875,-0.21875 L 3.0625,-3.375 h 0.984375 c 0.84375,0 0.84375,0.21875 0.84375,0.46875 0,0.0625 0,0.1875 -0.0625,0.484375 C 4.8125,-2.375 4.796875,-2.34375 4.796875,-2.3125 c 0,0.046875 0.03125,0.109375 0.125,0.109375 C 5,-2.203125 5.03125,-2.25 5.078125,-2.40625 l 0.5625,-2.328125 c 0,-0.0625 -0.046875,-0.109375 -0.125,-0.109375 -0.078125,0 -0.109375,0.0625 -0.125,0.171875 -0.21875,0.765625 -0.390625,1 -1.3125,1 h -0.9375 l 0.59375,-2.40625 C 3.828125,-6.4375 3.84375,-6.46875 4.28125,-6.46875 H 5.6875 c 1.203125,0 1.515625,0.28125 1.515625,1.109375 0,0.234375 0,0.25 -0.046875,0.53125 0,0.046875 -0.015625,0.125 -0.015625,0.171875 0,0.046875 0.03125,0.125 0.125,0.125 0.109375,0 0.125,-0.0625 0.140625,-0.25 L 7.609375,-6.515625 C 7.640625,-6.78125 7.59375,-6.78125 7.34375,-6.78125 H 2.296875 c -0.1875,0 -0.296875,0 -0.296875,0.203125 0,0.109375 0.09375,0.109375 0.28125,0.109375 0.375,0 0.65625,0 0.65625,0.171875 0,0.046875 0,0.0625 -0.0625,0.25 L 1.5625,-0.78125 c -0.09375,0.390625 -0.109375,0.46875 -0.90625,0.46875 -0.171875,0 -0.28125,0 -0.28125,0.1875 C 0.375,0 0.46875,0 0.65625,0 h 5.171875 c 0.234375,0 0.25,-0.015625 0.3125,-0.171875 L 7.0625,-2.328125 C 7.078125,-2.375 7.109375,-2.46875 7.109375,-2.46875 Z m 0,0"
           style="stroke:none;stroke-width:0" />
      </symbol>
    </g>
    <g
       id="id-9ec3abd7-a085-4286-93ab-972b4ec72f89">
      <symbol
         id="id-206ccb91-dab7-4377-bb27-ac05bfe7e581"
         overflow="visible">
        <path
           id="id-661f867c-8c44-4f28-8284-153af387687e"
           d=""
           style="stroke:none;stroke-width:0" />
      </symbol>
      <symbol
         id="id-bdb9db30-bcf8-43d6-ae70-63470b4b2046"
         overflow="visible">
        <path
           id="id-20665fbf-4cf2-434d-9b33-244cf4b1d5f5"
           d="m 4.875,-3.78125 c 0,-0.515625 -0.640625,-0.625 -0.984375,-0.625 -0.6875,0 -1.046875,0.5 -1.203125,0.71875 -0.109375,-0.53125 -0.5,-0.71875 -0.828125,-0.71875 -0.359375,0 -0.546875,0.234375 -0.71875,0.53125 -0.1875,0.390625 -0.3125,1 -0.3125,1 0,0.109375 0.09375,0.109375 0.15625,0.109375 0.125,0 0.125,-0.015625 0.1875,-0.234375 0.171875,-0.703125 0.359375,-1.1875 0.671875,-1.1875 0.265625,0 0.265625,0.296875 0.265625,0.40625 0,0.15625 -0.03125,0.34375 -0.078125,0.5 l -0.75,2.984375 c -0.015625,0.0625 -0.03125,0.125 -0.03125,0.140625 0,0.109375 0.078125,0.265625 0.28125,0.265625 0.296875,0 0.375,-0.28125 0.390625,-0.375 L 2.578125,-2.875 c 0,-0.03125 0.453125,-1.3125 1.3125,-1.3125 0.046875,0 0.328125,0 0.53125,0.140625 C 4.0625,-3.9375 4.03125,-3.625 4.03125,-3.5625 4.03125,-3.4375 4.125,-3.25 4.390625,-3.25 4.5625,-3.25 4.875,-3.390625 4.875,-3.78125 Z m 0,0"
           style="stroke:none;stroke-width:0" />
      </symbol>
      <symbol
         id="id-2b846496-e38a-40de-b58f-960bc88fe4af"
         overflow="visible">
        <path
           id="id-1a5e58d5-f77d-4580-9739-7bdc2e89634b"
           d="m 5.234375,-1.421875 c 0,-0.109375 -0.078125,-0.109375 -0.15625,-0.109375 -0.109375,0 -0.125,0.015625 -0.1875,0.234375 -0.140625,0.5625 -0.328125,1.1875 -0.65625,1.1875 -0.265625,0 -0.265625,-0.265625 -0.265625,-0.40625 0,-0.078125 0,-0.234375 0.0625,-0.515625 l 0.6875,-2.703125 C 4.75,-3.875 4.75,-3.890625 4.75,-3.953125 c 0,-0.203125 -0.171875,-0.25 -0.265625,-0.25 -0.3125,0 -0.390625,0.328125 -0.390625,0.390625 C 3.890625,-4.25 3.578125,-4.40625 3.265625,-4.40625 c -1.109375,0 -2.28125,1.515625 -2.28125,2.96875 0,0.84375 0.453125,1.546875 1.203125,1.546875 0.359375,0 0.796875,-0.203125 1.1875,-0.703125 0.109375,0.5 0.484375,0.703125 0.828125,0.703125 0.375,0 0.578125,-0.25 0.734375,-0.5625 0.171875,-0.375 0.296875,-0.96875 0.296875,-0.96875 z m -1.78125,0.1875 c -0.078125,0.3125 -0.703125,1.125 -1.25,1.125 -0.46875,0 -0.546875,-0.59375 -0.546875,-0.890625 0,-0.5 0.3125,-1.65625 0.484375,-2.078125 0.25,-0.609375 0.703125,-1.109375 1.125,-1.109375 0.4375,0 0.6875,0.515625 0.6875,0.9375 0,0 -0.015625,0.0625 -0.03125,0.125 z m 0,0"
           style="stroke:none;stroke-width:0" />
      </symbol>
      <symbol
         id="id-4455ad29-aac9-493f-b42b-5c55f2db97db"
         overflow="visible">
        <path
           id="id-dcf30d05-8959-4791-9245-df5eddeab3d4"
           d="m 4.5,-6.375 c 0,-0.421875 -0.40625,-0.65625 -0.8125,-0.65625 -0.96875,0 -1.21875,1.296875 -1.296875,1.640625 L 2.1875,-4.296875 H 1.53125 c -0.171875,0 -0.28125,0 -0.28125,0.203125 0,0.109375 0.109375,0.109375 0.25,0.109375 h 0.625 l -0.734375,3.71875 C 1.28125,0.34375 1.171875,0.75 1.109375,0.96875 1.03125,1.3125 0.90625,1.828125 0.546875,1.828125 c -0.09375,0 -0.28125,-0.03125 -0.390625,-0.1875 0.296875,-0.046875 0.4375,-0.28125 0.4375,-0.484375 0,-0.21875 -0.1875,-0.3125 -0.34375,-0.3125 -0.25,0 -0.5,0.1875 -0.5,0.546875 0,0.4375 0.421875,0.65625 0.796875,0.65625 1.03125,0 1.453125,-2.09375 1.515625,-2.453125 l 0.703125,-3.578125 h 0.8125 c 0.171875,0 0.265625,0 0.265625,-0.1875 0,-0.125 -0.078125,-0.125 -0.25,-0.125 H 2.828125 l 0.3125,-1.609375 c 0.078125,-0.375 0.1875,-0.90625 0.546875,-0.90625 0.078125,0 0.296875,0.03125 0.421875,0.1875 -0.296875,0.046875 -0.4375,0.28125 -0.4375,0.484375 0,0.21875 0.171875,0.3125 0.328125,0.3125 0.25,0 0.5,-0.1875 0.5,-0.546875 z m 0,0"
           style="stroke:none;stroke-width:0" />
      </symbol>
      <symbol
         id="id-23a7ef2c-85d2-4d8e-9a3d-d23bb9408b77"
         overflow="visible">
        <path
           id="id-ff102301-caa8-4fd1-ab1f-11b232175945"
           d="m 4.671875,-1.03125 c 0,-0.0625 -0.09375,-0.171875 -0.171875,-0.171875 -0.03125,0 -0.046875,0.015625 -0.125,0.109375 -0.734375,0.9375 -1.625,0.984375 -1.796875,0.984375 -0.640625,0 -0.75,-0.703125 -0.75,-1.09375 0,-0.375 0.09375,-0.828125 0.171875,-1.09375 h 0.375 c 0.3125,0 0.96875,-0.03125 1.453125,-0.21875 0.78125,-0.328125 0.78125,-0.96875 0.78125,-1.046875 0,-0.453125 -0.359375,-0.84375 -1,-0.84375 -1.046875,0 -2.46875,1 -2.46875,2.765625 0,0.90625 0.46875,1.75 1.421875,1.75 1.28125,0 2.109375,-1 2.109375,-1.140625 z m -0.4375,-2.546875 c 0,1.0625 -1.640625,1.0625 -1.96875,1.0625 h -0.21875 c 0.4375,-1.640625 1.46875,-1.671875 1.5625,-1.671875 0.390625,0 0.625,0.265625 0.625,0.609375 z m 0,0"
           style="stroke:none;stroke-width:0" />
      </symbol>
      <symbol
         id="id-da0c0109-813d-45fb-8f36-57a03c47644d"
         overflow="visible">
        <path
           id="id-447d4ccc-ae05-4d1a-9b99-24e14249e877"
           d="m 3.296875,-1.421875 c 0,-0.109375 -0.078125,-0.109375 -0.140625,-0.109375 -0.140625,0 -0.140625,0.03125 -0.171875,0.171875 -0.078125,0.296875 -0.359375,1.25 -0.9375,1.25 -0.078125,0 -0.21875,-0.015625 -0.21875,-0.28125 0,-0.25 0.140625,-0.59375 0.265625,-0.953125 l 0.640625,-1.703125 c 0.09375,-0.296875 0.109375,-0.375 0.109375,-0.5625 0,-0.546875 -0.375,-0.796875 -0.734375,-0.796875 -0.9375,0 -1.28125,1.484375 -1.28125,1.53125 0,0.109375 0.09375,0.109375 0.15625,0.109375 0.125,0 0.125,-0.03125 0.171875,-0.171875 0.09375,-0.328125 0.34375,-1.25 0.921875,-1.25 0.109375,0 0.21875,0.046875 0.21875,0.28125 0,0.234375 -0.109375,0.53125 -0.171875,0.71875 L 1.828125,-2.359375 1.453125,-1.375 C 1.3125,-1 1.28125,-0.890625 1.28125,-0.6875 c 0,0.390625 0.234375,0.796875 0.75,0.796875 0.9375,0 1.265625,-1.5 1.265625,-1.53125 z M 3.5625,-6.09375 c 0,-0.203125 -0.140625,-0.421875 -0.4375,-0.421875 -0.328125,0 -0.640625,0.3125 -0.640625,0.625 0,0.21875 0.15625,0.421875 0.453125,0.421875 0.3125,0 0.625,-0.296875 0.625,-0.625 z m 0,0"
           style="stroke:none;stroke-width:0" />
      </symbol>
      <symbol
         id="id-91ea769d-de51-4ec9-8882-37f7c91b122e"
         overflow="visible">
        <path
           id="id-582884fd-ec1e-46a2-96b2-3d758f4cb3de"
           d="m 5.84375,-1.421875 c 0,-0.109375 -0.078125,-0.109375 -0.15625,-0.109375 -0.125,0 -0.125,0.03125 -0.171875,0.171875 -0.078125,0.265625 -0.34375,1.25 -0.921875,1.25 -0.203125,0 -0.21875,-0.15625 -0.21875,-0.296875 0,-0.234375 0.09375,-0.5 0.1875,-0.734375 0.1875,-0.53125 0.59375,-1.65625 0.59375,-2.234375 0,-0.8125 -0.546875,-1.03125 -1.03125,-1.03125 -0.8125,0 -1.296875,0.59375 -1.421875,0.78125 C 2.625,-4.109375 2.296875,-4.40625 1.859375,-4.40625 1.5,-4.40625 1.3125,-4.171875 1.140625,-3.875 c -0.1875,0.390625 -0.3125,1 -0.3125,1 0,0.109375 0.09375,0.109375 0.15625,0.109375 0.125,0 0.125,-0.015625 0.1875,-0.234375 0.171875,-0.703125 0.359375,-1.1875 0.671875,-1.1875 0.265625,0 0.265625,0.296875 0.265625,0.40625 0,0.15625 -0.03125,0.34375 -0.078125,0.5 l -0.75,2.984375 c -0.015625,0.0625 -0.03125,0.125 -0.03125,0.140625 0,0.109375 0.078125,0.265625 0.28125,0.265625 0.125,0 0.296875,-0.0625 0.359375,-0.265625 L 2.296875,-1.75 C 2.34375,-1.96875 2.40625,-2.171875 2.453125,-2.390625 2.578125,-2.90625 2.578125,-2.90625 2.75,-3.203125 2.890625,-3.4375 3.34375,-4.1875 4.09375,-4.1875 c 0.4375,0 0.46875,0.453125 0.46875,0.65625 0,0.625 -0.453125,1.8125 -0.578125,2.203125 -0.140625,0.34375 -0.171875,0.4375 -0.171875,0.640625 0,0.4375 0.28125,0.796875 0.765625,0.796875 0.921875,0 1.265625,-1.484375 1.265625,-1.53125 z m 0,0"
           style="stroke:none;stroke-width:0" />
      </symbol>
      <symbol
         id="id-1c594beb-968e-430a-b01c-69ea2852be53"
         overflow="visible">
        <path
           id="id-67f09b50-a950-45d4-9c31-97de2eba2d3f"
           d="M 5.328125,-1.421875 C 5.328125,-1.53125 5.25,-1.53125 5.1875,-1.53125 c -0.125,0 -0.140625,0.015625 -0.1875,0.234375 -0.140625,0.5625 -0.328125,1.1875 -0.671875,1.1875 -0.265625,0 -0.265625,-0.265625 -0.265625,-0.40625 0,-0.078125 0,-0.21875 0.0625,-0.46875 l 1.421875,-5.6875 c 0.015625,-0.03125 0.03125,-0.125 0.03125,-0.125 0,-0.09375 -0.0625,-0.125 -0.140625,-0.125 -0.03125,0 -0.125,0.015625 -0.15625,0.03125 L 4.296875,-6.8125 c -0.125,0 -0.234375,0.015625 -0.234375,0.203125 C 4.0625,-6.5 4.171875,-6.5 4.3125,-6.5 c 0.46875,0 0.5,0.0625 0.5,0.171875 0,0.03125 -0.03125,0.171875 -0.03125,0.171875 l -0.578125,2.328125 c -0.15625,-0.3125 -0.421875,-0.578125 -0.84375,-0.578125 -1.109375,0 -2.28125,1.515625 -2.28125,2.96875 0,0.84375 0.453125,1.546875 1.203125,1.546875 0.359375,0 0.796875,-0.203125 1.203125,-0.703125 0.109375,0.5 0.46875,0.703125 0.828125,0.703125 0.359375,0 0.578125,-0.25 0.71875,-0.5625 0.1875,-0.375 0.296875,-0.96875 0.296875,-0.96875 z M 3.53125,-1.21875 C 3.453125,-0.90625 2.84375,-0.109375 2.296875,-0.109375 1.828125,-0.109375 1.75,-0.703125 1.75,-1 1.75,-1.5 2.0625,-2.65625 2.25,-3.078125 2.5,-3.6875 2.953125,-4.1875 3.359375,-4.1875 c 0.078125,0 0.3125,0.015625 0.484375,0.296875 0.109375,0.15625 0.203125,0.4375 0.203125,0.625 0,0.03125 -0.015625,0.078125 -0.03125,0.140625 z m 0,0"
           style="stroke:none;stroke-width:0" />
      </symbol>
    </g>
    <g
       id="id-950b4a9e-0b30-44c6-924f-e00517ff0fce">
      <symbol
         id="id-f2781af2-3a4d-4619-9f6f-862a5712cf75"
         overflow="visible">
        <path
           id="id-dba7957a-ed30-49a5-9a7f-329c5a79503e"
           d=""
           style="stroke:none;stroke-width:0" />
      </symbol>
      <symbol
         id="id-674b54c8-7e23-4568-a107-81eb73e451c2"
         overflow="visible">
        <path
           id="id-98e344d2-b3a2-4b5c-9ad1-9eb2298e40e0"
           d="m 3.921875,-1.5625 c 0,-0.875 -0.78125,-1.046875 -1.1875,-1.140625 -0.28125,-0.0625 -0.640625,-0.140625 -0.640625,-0.5625 0,-0.25 0.203125,-0.921875 1,-0.921875 0.28125,0 0.640625,0.09375 0.75,0.484375 -0.3125,0.046875 -0.390625,0.3125 -0.390625,0.40625 0,0.109375 0.0625,0.28125 0.296875,0.28125 0.171875,0 0.421875,-0.109375 0.421875,-0.546875 0,-0.453125 -0.40625,-0.84375 -1.0625,-0.84375 -1.171875,0 -1.578125,0.953125 -1.578125,1.46875 0,0.78125 0.65625,0.90625 0.9375,0.96875 0.4375,0.109375 0.875,0.203125 0.875,0.75 0,0.3125 -0.265625,1.109375 -1.296875,1.109375 -0.21875,0 -0.796875,-0.046875 -0.953125,-0.5625 0.515625,-0.046875 0.515625,-0.484375 0.515625,-0.484375 0,-0.1875 -0.140625,-0.3125 -0.34375,-0.3125 -0.234375,0 -0.515625,0.15625 -0.515625,0.609375 0,0.609375 0.578125,0.96875 1.296875,0.96875 1.484375,0 1.875,-1.21875 1.875,-1.671875 z m 0,0"
           style="stroke:none;stroke-width:0" />
      </symbol>
      <symbol
         id="id-d7fa5d83-8928-430c-8d16-563955f7172e"
         overflow="visible">
        <path
           id="id-ec9917f7-cb27-42bf-bb9c-d506300ec6c5"
           d="m 5.234375,-1.421875 c 0,-0.109375 -0.078125,-0.109375 -0.15625,-0.109375 -0.109375,0 -0.125,0.015625 -0.1875,0.234375 -0.140625,0.5625 -0.328125,1.1875 -0.65625,1.1875 -0.265625,0 -0.265625,-0.265625 -0.265625,-0.40625 0,-0.078125 0,-0.234375 0.0625,-0.515625 l 0.6875,-2.703125 C 4.75,-3.875 4.75,-3.890625 4.75,-3.953125 c 0,-0.203125 -0.171875,-0.25 -0.265625,-0.25 -0.3125,0 -0.390625,0.328125 -0.390625,0.390625 C 3.890625,-4.25 3.578125,-4.40625 3.265625,-4.40625 c -1.109375,0 -2.28125,1.515625 -2.28125,2.96875 0,0.84375 0.453125,1.546875 1.203125,1.546875 0.359375,0 0.796875,-0.203125 1.1875,-0.703125 0.109375,0.5 0.484375,0.703125 0.828125,0.703125 0.375,0 0.578125,-0.25 0.734375,-0.5625 0.171875,-0.375 0.296875,-0.96875 0.296875,-0.96875 z m -1.78125,0.1875 c -0.078125,0.3125 -0.703125,1.125 -1.25,1.125 -0.46875,0 -0.546875,-0.59375 -0.546875,-0.890625 0,-0.5 0.3125,-1.65625 0.484375,-2.078125 0.25,-0.609375 0.703125,-1.109375 1.125,-1.109375 0.4375,0 0.6875,0.515625 0.6875,0.9375 0,0 -0.015625,0.0625 -0.03125,0.125 z m 0,0"
           style="stroke:none;stroke-width:0" />
      </symbol>
      <symbol
         id="id-efdc9276-6d4d-4793-9c2f-b5fc9458ed55"
         overflow="visible">
        <path
           id="id-2d4e7ae4-023b-47bf-80e4-e4096b979b1e"
           d="M 8.390625,-1.421875 C 8.390625,-1.53125 8.3125,-1.53125 8.25,-1.53125 c -0.140625,0 -0.140625,0.03125 -0.171875,0.171875 -0.078125,0.265625 -0.359375,1.25 -0.9375,1.25 -0.203125,0 -0.21875,-0.15625 -0.21875,-0.296875 0,-0.234375 0.109375,-0.5 0.1875,-0.734375 C 7.3125,-1.671875 7.71875,-2.796875 7.71875,-3.375 c 0,-0.828125 -0.578125,-1.03125 -1.046875,-1.03125 -0.703125,0 -1.203125,0.4375 -1.5,0.875 -0.078125,-0.6875 -0.59375,-0.875 -1.046875,-0.875 -0.59375,0 -1.078125,0.328125 -1.421875,0.78125 C 2.625,-4.109375 2.296875,-4.40625 1.859375,-4.40625 1.5,-4.40625 1.3125,-4.171875 1.140625,-3.875 c -0.1875,0.390625 -0.3125,1 -0.3125,1 0,0.109375 0.09375,0.109375 0.15625,0.109375 0.125,0 0.125,-0.015625 0.1875,-0.234375 0.171875,-0.703125 0.359375,-1.1875 0.671875,-1.1875 0.265625,0 0.265625,0.296875 0.265625,0.40625 0,0.15625 -0.03125,0.34375 -0.078125,0.5 l -0.75,2.984375 c -0.015625,0.0625 -0.03125,0.125 -0.03125,0.140625 0,0.109375 0.078125,0.265625 0.28125,0.265625 0.125,0 0.296875,-0.0625 0.359375,-0.265625 L 2.296875,-1.75 c 0.046875,-0.21875 0.109375,-0.421875 0.15625,-0.640625 0.125,-0.484375 0.125,-0.515625 0.25,-0.71875 0.28125,-0.5 0.71875,-1.078125 1.40625,-1.078125 0.453125,0 0.453125,0.515625 0.453125,0.65625 0,0.265625 -0.0625,0.5625 -0.09375,0.65625 l -0.640625,2.578125 c -0.015625,0.0625 -0.03125,0.125 -0.03125,0.140625 0,0.109375 0.078125,0.265625 0.28125,0.265625 0.125,0 0.28125,-0.0625 0.359375,-0.265625 L 4.828125,-1.75 C 4.890625,-1.96875 4.9375,-2.171875 5,-2.390625 5.125,-2.875 5.125,-2.90625 5.25,-3.109375 c 0.28125,-0.5 0.71875,-1.078125 1.40625,-1.078125 0.453125,0 0.453125,0.515625 0.453125,0.65625 0,0.625 -0.4375,1.8125 -0.578125,2.203125 -0.125,0.34375 -0.15625,0.4375 -0.15625,0.640625 0,0.4375 0.28125,0.796875 0.75,0.796875 0.9375,0 1.265625,-1.484375 1.265625,-1.53125 z m 0,0"
           style="stroke:none;stroke-width:0" />
      </symbol>
      <symbol
         id="id-677c69c6-89a4-464d-b790-672b500a7a7f"
         overflow="visible">
        <path
           id="id-21b85117-e09a-472f-9e7b-d2bff39f3739"
           d="m 4.671875,-1.03125 c 0,-0.0625 -0.09375,-0.171875 -0.171875,-0.171875 -0.03125,0 -0.046875,0.015625 -0.125,0.109375 -0.734375,0.9375 -1.625,0.984375 -1.796875,0.984375 -0.640625,0 -0.75,-0.703125 -0.75,-1.09375 0,-0.375 0.09375,-0.828125 0.171875,-1.09375 h 0.375 c 0.3125,0 0.96875,-0.03125 1.453125,-0.21875 0.78125,-0.328125 0.78125,-0.96875 0.78125,-1.046875 0,-0.453125 -0.359375,-0.84375 -1,-0.84375 -1.046875,0 -2.46875,1 -2.46875,2.765625 0,0.90625 0.46875,1.75 1.421875,1.75 1.28125,0 2.109375,-1 2.109375,-1.140625 z m -0.4375,-2.546875 c 0,1.0625 -1.640625,1.0625 -1.96875,1.0625 h -0.21875 c 0.4375,-1.640625 1.46875,-1.671875 1.5625,-1.671875 0.390625,0 0.625,0.265625 0.625,0.609375 z m 0,0"
           style="stroke:none;stroke-width:0" />
      </symbol>
      <symbol
         id="id-29bf87a1-dacc-461b-badb-9ccf0d7e2d40"
         overflow="visible">
        <path
           id="id-7ed37de5-698e-4a7e-a155-40b4e64c0268"
           d="m 3.296875,-1.421875 c 0,-0.109375 -0.078125,-0.109375 -0.140625,-0.109375 -0.140625,0 -0.140625,0.03125 -0.171875,0.171875 -0.078125,0.296875 -0.359375,1.25 -0.9375,1.25 -0.078125,0 -0.21875,-0.015625 -0.21875,-0.28125 0,-0.25 0.140625,-0.59375 0.265625,-0.953125 l 0.640625,-1.703125 c 0.09375,-0.296875 0.109375,-0.375 0.109375,-0.5625 0,-0.546875 -0.375,-0.796875 -0.734375,-0.796875 -0.9375,0 -1.28125,1.484375 -1.28125,1.53125 0,0.109375 0.09375,0.109375 0.15625,0.109375 0.125,0 0.125,-0.03125 0.171875,-0.171875 0.09375,-0.328125 0.34375,-1.25 0.921875,-1.25 0.109375,0 0.21875,0.046875 0.21875,0.28125 0,0.234375 -0.109375,0.53125 -0.171875,0.71875 L 1.828125,-2.359375 1.453125,-1.375 C 1.3125,-1 1.28125,-0.890625 1.28125,-0.6875 c 0,0.390625 0.234375,0.796875 0.75,0.796875 0.9375,0 1.265625,-1.5 1.265625,-1.53125 z M 3.5625,-6.09375 c 0,-0.203125 -0.140625,-0.421875 -0.4375,-0.421875 -0.328125,0 -0.640625,0.3125 -0.640625,0.625 0,0.21875 0.15625,0.421875 0.453125,0.421875 0.3125,0 0.625,-0.296875 0.625,-0.625 z m 0,0"
           style="stroke:none;stroke-width:0" />
      </symbol>
      <symbol
         id="id-d68d29c9-af9a-4767-8fe9-823e889f7bc5"
         overflow="visible">
        <path
           id="id-9296d5c9-eb24-426d-b8c1-409b9bef60b5"
           d="m 5.84375,-1.421875 c 0,-0.109375 -0.078125,-0.109375 -0.15625,-0.109375 -0.125,0 -0.125,0.03125 -0.171875,0.171875 -0.078125,0.265625 -0.34375,1.25 -0.921875,1.25 -0.203125,0 -0.21875,-0.15625 -0.21875,-0.296875 0,-0.234375 0.09375,-0.5 0.1875,-0.734375 0.1875,-0.53125 0.59375,-1.65625 0.59375,-2.234375 0,-0.8125 -0.546875,-1.03125 -1.03125,-1.03125 -0.8125,0 -1.296875,0.59375 -1.421875,0.78125 C 2.625,-4.109375 2.296875,-4.40625 1.859375,-4.40625 1.5,-4.40625 1.3125,-4.171875 1.140625,-3.875 c -0.1875,0.390625 -0.3125,1 -0.3125,1 0,0.109375 0.09375,0.109375 0.15625,0.109375 0.125,0 0.125,-0.015625 0.1875,-0.234375 0.171875,-0.703125 0.359375,-1.1875 0.671875,-1.1875 0.265625,0 0.265625,0.296875 0.265625,0.40625 0,0.15625 -0.03125,0.34375 -0.078125,0.5 l -0.75,2.984375 c -0.015625,0.0625 -0.03125,0.125 -0.03125,0.140625 0,0.109375 0.078125,0.265625 0.28125,0.265625 0.125,0 0.296875,-0.0625 0.359375,-0.265625 L 2.296875,-1.75 C 2.34375,-1.96875 2.40625,-2.171875 2.453125,-2.390625 2.578125,-2.90625 2.578125,-2.90625 2.75,-3.203125 2.890625,-3.4375 3.34375,-4.1875 4.09375,-4.1875 c 0.4375,0 0.46875,0.453125 0.46875,0.65625 0,0.625 -0.453125,1.8125 -0.578125,2.203125 -0.140625,0.34375 -0.171875,0.4375 -0.171875,0.640625 0,0.4375 0.28125,0.796875 0.765625,0.796875 0.921875,0 1.265625,-1.484375 1.265625,-1.53125 z m 0,0"
           style="stroke:none;stroke-width:0" />
      </symbol>
      <symbol
         id="id-25508676-3d81-4926-afc9-86d53edcf272"
         overflow="visible">
        <path
           id="id-01b3e25f-1d94-4218-b115-df3021034fb3"
           d="M 5.328125,-1.421875 C 5.328125,-1.53125 5.25,-1.53125 5.1875,-1.53125 c -0.125,0 -0.140625,0.015625 -0.1875,0.234375 -0.140625,0.5625 -0.328125,1.1875 -0.671875,1.1875 -0.265625,0 -0.265625,-0.265625 -0.265625,-0.40625 0,-0.078125 0,-0.21875 0.0625,-0.46875 l 1.421875,-5.6875 c 0.015625,-0.03125 0.03125,-0.125 0.03125,-0.125 0,-0.09375 -0.0625,-0.125 -0.140625,-0.125 -0.03125,0 -0.125,0.015625 -0.15625,0.03125 L 4.296875,-6.8125 c -0.125,0 -0.234375,0.015625 -0.234375,0.203125 C 4.0625,-6.5 4.171875,-6.5 4.3125,-6.5 c 0.46875,0 0.5,0.0625 0.5,0.171875 0,0.03125 -0.03125,0.171875 -0.03125,0.171875 l -0.578125,2.328125 c -0.15625,-0.3125 -0.421875,-0.578125 -0.84375,-0.578125 -1.109375,0 -2.28125,1.515625 -2.28125,2.96875 0,0.84375 0.453125,1.546875 1.203125,1.546875 0.359375,0 0.796875,-0.203125 1.203125,-0.703125 0.109375,0.5 0.46875,0.703125 0.828125,0.703125 0.359375,0 0.578125,-0.25 0.71875,-0.5625 0.1875,-0.375 0.296875,-0.96875 0.296875,-0.96875 z M 3.53125,-1.21875 C 3.453125,-0.90625 2.84375,-0.109375 2.296875,-0.109375 1.828125,-0.109375 1.75,-0.703125 1.75,-1 1.75,-1.5 2.0625,-2.65625 2.25,-3.078125 2.5,-3.6875 2.953125,-4.1875 3.359375,-4.1875 c 0.078125,0 0.3125,0.015625 0.484375,0.296875 0.109375,0.15625 0.203125,0.4375 0.203125,0.625 0,0.03125 -0.015625,0.078125 -0.03125,0.140625 z m 0,0"
           style="stroke:none;stroke-width:0" />
      </symbol>
      <symbol
         id="id-f77e4b77-3ca6-413e-94a4-805d6970f157"
         overflow="visible">
        <path
           id="id-3168e0c4-83be-48a7-acc0-d1689a6511ea"
           d="m 4.875,-3.78125 c 0,-0.515625 -0.640625,-0.625 -0.984375,-0.625 -0.6875,0 -1.046875,0.5 -1.203125,0.71875 -0.109375,-0.53125 -0.5,-0.71875 -0.828125,-0.71875 -0.359375,0 -0.546875,0.234375 -0.71875,0.53125 -0.1875,0.390625 -0.3125,1 -0.3125,1 0,0.109375 0.09375,0.109375 0.15625,0.109375 0.125,0 0.125,-0.015625 0.1875,-0.234375 0.171875,-0.703125 0.359375,-1.1875 0.671875,-1.1875 0.265625,0 0.265625,0.296875 0.265625,0.40625 0,0.15625 -0.03125,0.34375 -0.078125,0.5 l -0.75,2.984375 c -0.015625,0.0625 -0.03125,0.125 -0.03125,0.140625 0,0.109375 0.078125,0.265625 0.28125,0.265625 0.296875,0 0.375,-0.28125 0.390625,-0.375 L 2.578125,-2.875 c 0,-0.03125 0.453125,-1.3125 1.3125,-1.3125 0.046875,0 0.328125,0 0.53125,0.140625 C 4.0625,-3.9375 4.03125,-3.625 4.03125,-3.5625 4.03125,-3.4375 4.125,-3.25 4.390625,-3.25 4.5625,-3.25 4.875,-3.390625 4.875,-3.78125 Z m 0,0"
           style="stroke:none;stroke-width:0" />
      </symbol>
    </g>
    <marker
       inkscape:isstock="true"
       style="overflow:visible"
       id="Arrow1Mstart"
       refX="0"
       refY="0"
       orient="auto"
       inkscape:stockid="Arrow1Mstart">
      <path
         transform="matrix(0.4,0,0,0.4,4,0)"
         style="fill:#000000;fill-opacity:1;fill-rule:evenodd;stroke:#000000;stroke-width:1pt;stroke-opacity:1"
         d="M 0,0 5,-5 -12.5,0 5,5 Z"
         id="path984" />
    </marker>
    <marker
       inkscape:collect="always"
       inkscape:isstock="true"
       style="overflow:visible"
       id="Arrow1Mend"
       refX="0"
       refY="0"
       orient="auto"
       inkscape:stockid="Arrow1Mend">
      <path
         transform="matrix(-0.4,0,0,-0.4,-4,0)"
         style="fill:#000000;fill-opacity:1;fill-rule:evenodd;stroke:#000000;stroke-width:1pt;stroke-opacity:1"
         d="M 0,0 5,-5 -12.5,0 5,5 Z"
         id="path987" />
    </marker>
  </defs>
  <sodipodi:namedview
     inkscape:window-maximized="0"
     inkscape:window-y="54"
     inkscape:window-x="95"
     inkscape:window-height="847"
     inkscape:window-width="1252"
     showgrid="false"
     inkscape:document-rotation="0"
     inkscape:current-layer="layer1"
     inkscape:document-units="mm"
     inkscape:cy="430.92413"
     inkscape:cx="376.46079"
     inkscape:zoom="3.5493931"
     inkscape:pageshadow="2"
     inkscape:pageopacity="0.0"
     borderopacity="1.0"
     bordercolor="#666666"
     pagecolor="#ffffff"
     id="base" />
  <metadata
     id="metadata1192">
    <rdf:RDF>
      <cc:Work
         rdf:about="">
        <dc:format>image/svg+xml</dc:format>
        <dc:type
           rdf:resource="http://purl.org/dc/dcmitype/StillImage" />
        <dc:title></dc:title>
      </cc:Work>
    </rdf:RDF>
  </metadata>
  <g
     id="layer1"
     inkscape:groupmode="layer"
     inkscape:label="Layer 1">
    <ellipse
       ry="8.8277702"
       rx="2.9425898"
       cy="115.18852"
       cx="82.054398"
       id="path833"
       style="fill:none;stroke:#000000;stroke-width:0.264999" />
    <ellipse
       style="fill:none;stroke:#000000;stroke-width:0.264999"
       id="path833-7"
       cx="111.68777"
       cy="115.18852"
       rx="2.9425898"
       ry="8.8277702" />
    <path
       id="path850"
       d="M 82.135818,106.39179 H 111.76432"
       style="fill:none;stroke:#000000;stroke-width:0.264583px;stroke-linecap:butt;stroke-linejoin:miter;stroke-opacity:1" />
    <path
       style="fill:none;stroke:#000000;stroke-width:0.264583px;stroke-linecap:butt;stroke-linejoin:miter;stroke-opacity:1"
       d="M 82.055548,123.9828 H 111.68405"
       id="path850-2" />
    <path
       id="path976"
       d="M 82.830381,126.94717 H 110.68392"
       style="fill:none;stroke:#000000;stroke-width:0.165;stroke-linecap:butt;stroke-linejoin:miter;stroke-miterlimit:4;stroke-dasharray:none;stroke-opacity:1;marker-start:;marker-end:url(#Arrow1Mend)" />
    <g
       transform="matrix(0.352778,0,0,0.352778,120.18612,109.83227)"
       ns1:version="1.3.1"
       ns1:texconverter="pdflatex"
       ns1:pdfconverter="inkscape"
       ns1:text="$I$"
       ns1:preamble="/Users/mbh/Library/Application Support/org.inkscape.Inkscape/config/inkscape/extensions/textext/default_packages.tex"
       ns1:scale="1.0"
       ns1:alignment="middle center"
       ns1:jacobian_sqrt="0.352778"
       id="g2342">
      <defs
         id="id-6fcb2bed-eef9-40e8-a925-179b4f70362a">
        <g
           id="id-9c5752eb-d423-4b4d-8cfc-90d42847a20c">
          <symbol
             id="id-8f7a162b-7847-4c83-a533-0c6f3737746d"
             overflow="visible">
            <path
               id="id-75b9004b-1b59-46ff-8b69-fa5eb797abff"
               d=""
               style="stroke:none;stroke-width:0" />
          </symbol>
          <symbol
             id="id-436a88d8-b53b-4745-97a6-d56a4a6b3180"
             overflow="visible">
            <path
               id="id-49d710e2-3619-4610-a0c6-70b102e8d22d"
               d="m 3.328125,-0.1875 c 0,-0.125 -0.078125,-0.125 -0.296875,-0.125 -0.1875,0 -0.234375,0 -0.421875,-0.015625 -0.21875,-0.015625 -0.25,-0.0625 -0.25,-0.171875 0,-0.078125 0.015625,-0.15625 0.03125,-0.234375 l 1.34375,-5.3125 C 3.8125,-6.40625 3.84375,-6.5 4.640625,-6.5 c 0.234375,0 0.3125,0 0.3125,-0.1875 0,-0.125 -0.109375,-0.125 -0.140625,-0.125 L 3.484375,-6.78125 2.15625,-6.8125 c -0.0625,0 -0.1875,0 -0.1875,0.203125 C 1.96875,-6.5 2.046875,-6.5 2.25,-6.5 c 0.40625,0 0.6875,0 0.6875,0.1875 0,0.046875 0,0.078125 -0.03125,0.15625 l -1.34375,5.375 c -0.09375,0.375 -0.109375,0.46875 -0.90625,0.46875 -0.234375,0 -0.3125,0 -0.3125,0.203125 C 0.34375,0 0.453125,0 0.484375,0 L 1.796875,-0.03125 3.125,0 c 0.078125,0 0.203125,0 0.203125,-0.1875 z m 0,0"
               style="stroke:none;stroke-width:0" />
          </symbol>
        </g>
      </defs>
      <g
         transform="translate(-149.056,-127.953)"
         id="id-a17782ed-ccc4-4f40-a44e-54a8a4e6a23b">
        <g
           id="id-1f8c94f5-1228-40bd-8c58-e63993926bb2"
           style="fill:#000000;fill-opacity:1">
          <g
             transform="translate(148.712,134.765)"
             id="g2338">
            <path
               id="id-9499e526-7a33-463c-9940-12d3e00b31b6"
               d="m 3.328125,-0.1875 c 0,-0.125 -0.078125,-0.125 -0.296875,-0.125 -0.1875,0 -0.234375,0 -0.421875,-0.015625 -0.21875,-0.015625 -0.25,-0.0625 -0.25,-0.171875 0,-0.078125 0.015625,-0.15625 0.03125,-0.234375 l 1.34375,-5.3125 C 3.8125,-6.40625 3.84375,-6.5 4.640625,-6.5 c 0.234375,0 0.3125,0 0.3125,-0.1875 0,-0.125 -0.109375,-0.125 -0.140625,-0.125 L 3.484375,-6.78125 2.15625,-6.8125 c -0.0625,0 -0.1875,0 -0.1875,0.203125 C 1.96875,-6.5 2.046875,-6.5 2.25,-6.5 c 0.40625,0 0.6875,0 0.6875,0.1875 0,0.046875 0,0.078125 -0.03125,0.15625 l -1.34375,5.375 c -0.09375,0.375 -0.109375,0.46875 -0.90625,0.46875 -0.234375,0 -0.3125,0 -0.3125,0.203125 C 0.34375,0 0.453125,0 0.484375,0 L 1.796875,-0.03125 3.125,0 c 0.078125,0 0.203125,0 0.203125,-0.1875 z m 0,0"
               style="stroke:none;stroke-width:0" />
          </g>
        </g>
      </g>
    </g>
    <path
       id="path2357"
       d="m 111.96397,115.69114 h 7.82705"
       style="fill:none;stroke:#000000;stroke-width:0.265;stroke-linecap:butt;stroke-linejoin:miter;stroke-opacity:1;stroke-miterlimit:4;stroke-dasharray:none;marker-end:url(#marker1673)" />
    <g
       transform="matrix(0.352778,0,0,0.352778,93.70791,127.70345)"
       ns1:version="1.3.1"
       ns1:texconverter="pdflatex"
       ns1:pdfconverter="inkscape"
       ns1:text="$\\Delta \\vec{\\ell}$"
       ns1:preamble="/Users/mbh/Library/Application Support/org.inkscape.Inkscape/config/inkscape/extensions/textext/default_packages.tex"
       ns1:scale="1.0"
       ns1:alignment="middle center"
       ns1:jacobian_sqrt="0.352778"
       id="g2524">
      <defs
         id="id-f9ec0eb0-a454-49d7-9eb9-7b20f031f39b">
        <g
           id="id-2b328df2-8a60-4375-979c-3fe4513ed4c6">
          <symbol
             id="id-d6c141db-3598-40ee-812a-f91e86bca940"
             overflow="visible">
            <path
               id="id-5819faee-a9d6-477c-86a6-484a04dc89d4"
               d=""
               style="stroke:none;stroke-width:0" />
          </symbol>
          <symbol
             id="id-fcabdcbe-86f4-47a6-942a-67d6f9505532"
             overflow="visible">
            <path
               id="id-9898296a-be56-4552-b9f0-45b1f9d07ddc"
               d="m 7.828125,-0.078125 c 0,0 0,-0.03125 -0.046875,-0.125 l -3.375,-6.75 c -0.0625,-0.140625 -0.09375,-0.1875 -0.265625,-0.1875 -0.15625,0 -0.1875,0.046875 -0.25,0.1875 l -3.375,6.75 c -0.046875,0.09375 -0.046875,0.125 -0.046875,0.125 C 0.46875,0 0.53125,0 0.6875,0 h 6.921875 c 0.15625,0 0.21875,0 0.21875,-0.078125 z M 6.515625,-0.75 h -5.375 l 2.6875,-5.390625 z m 0,0"
               style="stroke:none;stroke-width:0" />
          </symbol>
          <symbol
             id="id-b2ad5d1f-eea4-41ff-9a29-df61e64a9558"
             overflow="visible">
            <path
               id="id-c326f891-27e6-486f-a91c-7df0d6f36c71"
               d=""
               style="stroke:none;stroke-width:0" />
          </symbol>
          <symbol
             id="id-be0780f1-a96b-4954-883a-c5b7608edb96"
             overflow="visible">
            <path
               id="id-04a3aae9-e6de-4b31-b034-5324b6d450a2"
               d="m 6.234375,-6.125 c 0,-0.109375 -0.078125,-0.15625 -0.140625,-0.203125 C 5.875,-6.484375 5.765625,-6.65625 5.6875,-6.890625 5.65625,-6.984375 5.625,-7.125 5.484375,-7.125 c -0.140625,0 -0.203125,0.140625 -0.203125,0.21875 0,0.046875 0.078125,0.359375 0.234375,0.578125 H 2.15625 c -0.15625,0 -0.34375,0 -0.34375,0.203125 0,0.1875 0.1875,0.1875 0.34375,0.1875 h 3.203125 c -0.140625,0.140625 -0.46875,0.421875 -0.46875,0.59375 0,0.09375 0.09375,0.203125 0.1875,0.203125 0.09375,0 0.140625,-0.078125 0.203125,-0.140625 C 5.390625,-5.421875 5.625,-5.703125 6.0625,-5.921875 6.125,-5.96875 6.234375,-6.015625 6.234375,-6.125 Z m 0,0"
               style="stroke:none;stroke-width:0" />
          </symbol>
          <symbol
             id="id-506400a4-558f-402c-b8cf-abfc86b0f6a9"
             overflow="visible">
            <path
               id="id-53c3df0a-65e2-4a25-a1de-958b5b798a0e"
               d="m 3.625,-0.84375 c 0,-0.03125 -0.03125,-0.125 -0.109375,-0.125 -0.03125,0 -0.046875,0.015625 -0.140625,0.09375 -0.640625,0.625 -1,0.78125 -1.296875,0.78125 -0.4375,0 -0.609375,-0.53125 -0.609375,-1.296875 0,-0.0625 0.03125,-0.515625 0.0625,-0.578125 C 1.546875,-2 1.546875,-2.015625 1.75,-2.21875 2.546875,-3.015625 3.96875,-4.703125 3.96875,-6.25 c 0,-0.171875 0,-0.78125 -0.59375,-0.78125 -0.828125,0 -1.5625,1.640625 -1.65625,1.875 -0.484375,1.09375 -0.796875,2.25 -0.796875,3.4375 L 0.15625,-0.984375 c -0.015625,0.03125 -0.046875,0.0625 -0.046875,0.09375 0,0.046875 0.0625,0.140625 0.125,0.140625 C 0.28125,-0.75 0.3125,-0.78125 0.59375,-1.0625 0.671875,-1.140625 0.875,-1.328125 0.953125,-1.40625 1.046875,-0.625 1.328125,0.125 2.0625,0.125 c 0.40625,0 0.75,-0.234375 0.953125,-0.390625 C 3.15625,-0.359375 3.625,-0.75 3.625,-0.84375 Z m 0.109375,-5.453125 c 0,1.671875 -1.6875,3.421875 -2.15625,3.921875 0.015625,-0.125 0.453125,-2.328125 1.015625,-3.5 0.265625,-0.53125 0.484375,-0.9375 0.796875,-0.9375 0.34375,0 0.34375,0.359375 0.34375,0.515625 z m 0,0"
               style="stroke:none;stroke-width:0" />
          </symbol>
        </g>
      </defs>
      <g
         transform="translate(-149.181,-125.011)"
         id="id-52842411-9f56-486e-aaa5-428e6e718961">
        <g
           id="id-d23a8294-a858-4043-8181-e8eec6fbcbce"
           style="fill:#000000;fill-opacity:1">
          <g
             transform="translate(148.712,134.765)"
             id="g2512">
            <path
               id="id-9fa843f7-8d0b-4c94-a051-c823d82d8e84"
               d="m 7.828125,-0.078125 c 0,0 0,-0.03125 -0.046875,-0.125 l -3.375,-6.75 c -0.0625,-0.140625 -0.09375,-0.1875 -0.265625,-0.1875 -0.15625,0 -0.1875,0.046875 -0.25,0.1875 l -3.375,6.75 c -0.046875,0.09375 -0.046875,0.125 -0.046875,0.125 C 0.46875,0 0.53125,0 0.6875,0 h 6.921875 c 0.15625,0 0.21875,0 0.21875,-0.078125 z M 6.515625,-0.75 h -5.375 l 2.6875,-5.390625 z m 0,0"
               style="stroke:none;stroke-width:0" />
          </g>
        </g>
        <g
           id="id-4624e7e1-9277-4ffb-a213-13e44cb58787"
           style="fill:#000000;fill-opacity:1">
          <g
             transform="translate(156.94,132.136)"
             id="g2516">
            <path
               id="id-12afd6ec-0145-4afa-83c3-2908c1a6fe48"
               d="m 6.234375,-6.125 c 0,-0.109375 -0.078125,-0.15625 -0.140625,-0.203125 C 5.875,-6.484375 5.765625,-6.65625 5.6875,-6.890625 5.65625,-6.984375 5.625,-7.125 5.484375,-7.125 c -0.140625,0 -0.203125,0.140625 -0.203125,0.21875 0,0.046875 0.078125,0.359375 0.234375,0.578125 H 2.15625 c -0.15625,0 -0.34375,0 -0.34375,0.203125 0,0.1875 0.1875,0.1875 0.34375,0.1875 h 3.203125 c -0.140625,0.140625 -0.46875,0.421875 -0.46875,0.59375 0,0.09375 0.09375,0.203125 0.1875,0.203125 0.09375,0 0.140625,-0.078125 0.203125,-0.140625 C 5.390625,-5.421875 5.625,-5.703125 6.0625,-5.921875 6.125,-5.96875 6.234375,-6.015625 6.234375,-6.125 Z m 0,0"
               style="stroke:none;stroke-width:0" />
          </g>
        </g>
        <g
           id="id-53856748-4857-49c9-bff3-2501914aadb9"
           style="fill:#000000;fill-opacity:1">
          <g
             transform="translate(157.014,134.765)"
             id="g2520">
            <path
               id="id-79b3940c-8f69-433f-88fc-09c2361a48a9"
               d="m 3.625,-0.84375 c 0,-0.03125 -0.03125,-0.125 -0.109375,-0.125 -0.03125,0 -0.046875,0.015625 -0.140625,0.09375 -0.640625,0.625 -1,0.78125 -1.296875,0.78125 -0.4375,0 -0.609375,-0.53125 -0.609375,-1.296875 0,-0.0625 0.03125,-0.515625 0.0625,-0.578125 C 1.546875,-2 1.546875,-2.015625 1.75,-2.21875 2.546875,-3.015625 3.96875,-4.703125 3.96875,-6.25 c 0,-0.171875 0,-0.78125 -0.59375,-0.78125 -0.828125,0 -1.5625,1.640625 -1.65625,1.875 -0.484375,1.09375 -0.796875,2.25 -0.796875,3.4375 L 0.15625,-0.984375 c -0.015625,0.03125 -0.046875,0.0625 -0.046875,0.09375 0,0.046875 0.0625,0.140625 0.125,0.140625 C 0.28125,-0.75 0.3125,-0.78125 0.59375,-1.0625 0.671875,-1.140625 0.875,-1.328125 0.953125,-1.40625 1.046875,-0.625 1.328125,0.125 2.0625,0.125 c 0.40625,0 0.75,-0.234375 0.953125,-0.390625 C 3.15625,-0.359375 3.625,-0.75 3.625,-0.84375 Z m 0.109375,-5.453125 c 0,1.671875 -1.6875,3.421875 -2.15625,3.921875 0.015625,-0.125 0.453125,-2.328125 1.015625,-3.5 0.265625,-0.53125 0.484375,-0.9375 0.796875,-0.9375 0.34375,0 0.34375,0.359375 0.34375,0.515625 z m 0,0"
               style="stroke:none;stroke-width:0" />
          </g>
        </g>
      </g>
    </g>
    <g
       transform="matrix(0.352778,0,0,0.352778,92.971907,114.35212)"
       ns1:version="1.3.1"
       ns1:texconverter="pdflatex"
       ns1:pdfconverter="inkscape"
       ns1:text="$\\Delta Q$"
       ns1:preamble="/Users/mbh/Library/Application Support/org.inkscape.Inkscape/config/inkscape/extensions/textext/default_packages.tex"
       ns1:scale="1.0"
       ns1:alignment="middle center"
       ns1:jacobian_sqrt="0.352778"
       id="g2667">
      <defs
         id="id-ab2ff28b-cf3d-4faf-931e-7d6e9f50d6b9">
        <g
           id="id-e43d422d-1ab0-4150-8312-ac293f1aab58">
          <symbol
             id="id-21ff1ea6-6068-43ee-8d77-a863724dc8bd"
             overflow="visible">
            <path
               id="id-150f0b7a-c1b3-44a2-b737-fb07651b0ee1"
               d=""
               style="stroke:none;stroke-width:0" />
          </symbol>
          <symbol
             id="id-8060404f-d4fd-4f0d-906f-a92be0040812"
             overflow="visible">
            <path
               id="id-6e46b4ec-4b62-4f90-b7fb-2c27175c1c5c"
               d="m 7.828125,-0.078125 c 0,0 0,-0.03125 -0.046875,-0.125 l -3.375,-6.75 c -0.0625,-0.140625 -0.09375,-0.1875 -0.265625,-0.1875 -0.15625,0 -0.1875,0.046875 -0.25,0.1875 l -3.375,6.75 c -0.046875,0.09375 -0.046875,0.125 -0.046875,0.125 C 0.46875,0 0.53125,0 0.6875,0 h 6.921875 c 0.15625,0 0.21875,0 0.21875,-0.078125 z M 6.515625,-0.75 h -5.375 l 2.6875,-5.390625 z m 0,0"
               style="stroke:none;stroke-width:0" />
          </symbol>
          <symbol
             id="id-570e0e8a-3782-49a8-ac82-ab1735ac94b8"
             overflow="visible">
            <path
               id="id-ec70b6f9-5a2c-4db0-904c-42756032ef0f"
               d=""
               style="stroke:none;stroke-width:0" />
          </symbol>
          <symbol
             id="id-3facd8a4-c5e5-48b7-ab26-bd198ac787fb"
             overflow="visible">
            <path
               id="id-d8a9b8e2-5af9-423f-9096-9c1fa4f0d144"
               d="m 6.46875,0 c 0,-0.0625 -0.0625,-0.09375 -0.109375,-0.09375 -0.078125,0 -0.09375,0.046875 -0.125,0.109375 C 6,0.71875 5.421875,0.96875 5.078125,0.96875 4.609375,0.96875 4.46875,0.703125 4.359375,-0.0625 5.90625,-0.640625 7.375,-2.421875 7.375,-4.34375 c 0,-1.609375 -1.0625,-2.6875 -2.546875,-2.6875 -2.140625,0 -4.34375,2.265625 -4.34375,4.59375 0,1.65625 1.125,2.65625 2.5625,2.65625 0.25,0 0.578125,-0.046875 0.96875,-0.15625 -0.03125,0.625 -0.03125,0.640625 -0.03125,0.78125 0,0.3125 0,1.09375 0.828125,1.09375 C 5.984375,1.9375 6.46875,0.109375 6.46875,0 Z M 6.5,-4.671875 c 0,1 -0.515625,3.34375 -2.1875,4.265625 -0.046875,-0.34375 -0.140625,-1.0625 -0.875,-1.0625 -0.53125,0 -1.015625,0.484375 -1.015625,1.015625 0,0.1875 0.0625,0.3125 0.0625,0.3125 -0.78125,-0.3125 -1.125,-1.078125 -1.125,-1.984375 0,-0.6875 0.265625,-2.109375 1.015625,-3.171875 C 3.109375,-6.3125 4.046875,-6.78125 4.78125,-6.78125 5.765625,-6.78125 6.5,-6 6.5,-4.671875 Z M 4.046875,-0.40625 c 0,0.140625 -0.015625,0.15625 -0.109375,0.203125 -0.265625,0.109375 -0.5625,0.171875 -0.84375,0.171875 -0.140625,0 -0.453125,0 -0.453125,-0.421875 0,-0.40625 0.375,-0.796875 0.796875,-0.796875 0.421875,0 0.609375,0.234375 0.609375,0.84375 z m 0,0"
               style="stroke:none;stroke-width:0" />
          </symbol>
        </g>
      </defs>
      <g
         transform="translate(-149.181,-127.624)"
         id="id-fb91de44-df29-40f3-b9da-d5fcaebf59da">
        <g
           id="id-6c7c2dc0-d0cd-4eca-8b6b-a58cc81ebf29"
           style="fill:#000000;fill-opacity:1">
          <g
             transform="translate(148.712,134.765)"
             id="g2659">
            <path
               id="id-2b39ee88-b631-409a-a6ec-5ea42a974a1c"
               d="m 7.828125,-0.078125 c 0,0 0,-0.03125 -0.046875,-0.125 l -3.375,-6.75 c -0.0625,-0.140625 -0.09375,-0.1875 -0.265625,-0.1875 -0.15625,0 -0.1875,0.046875 -0.25,0.1875 l -3.375,6.75 c -0.046875,0.09375 -0.046875,0.125 -0.046875,0.125 C 0.46875,0 0.53125,0 0.6875,0 h 6.921875 c 0.15625,0 0.21875,0 0.21875,-0.078125 z M 6.515625,-0.75 h -5.375 l 2.6875,-5.390625 z m 0,0"
               style="stroke:none;stroke-width:0" />
          </g>
        </g>
        <g
           id="id-dc5b061d-2d9f-412e-bec9-836de5f6179d"
           style="fill:#000000;fill-opacity:1">
          <g
             transform="translate(157.014,134.765)"
             id="g2663">
            <path
               id="id-88e502a4-e8e7-48a1-a2a6-c1e8db5f08c8"
               d="m 6.46875,0 c 0,-0.0625 -0.0625,-0.09375 -0.109375,-0.09375 -0.078125,0 -0.09375,0.046875 -0.125,0.109375 C 6,0.71875 5.421875,0.96875 5.078125,0.96875 4.609375,0.96875 4.46875,0.703125 4.359375,-0.0625 5.90625,-0.640625 7.375,-2.421875 7.375,-4.34375 c 0,-1.609375 -1.0625,-2.6875 -2.546875,-2.6875 -2.140625,0 -4.34375,2.265625 -4.34375,4.59375 0,1.65625 1.125,2.65625 2.5625,2.65625 0.25,0 0.578125,-0.046875 0.96875,-0.15625 -0.03125,0.625 -0.03125,0.640625 -0.03125,0.78125 0,0.3125 0,1.09375 0.828125,1.09375 C 5.984375,1.9375 6.46875,0.109375 6.46875,0 Z M 6.5,-4.671875 c 0,1 -0.515625,3.34375 -2.1875,4.265625 -0.046875,-0.34375 -0.140625,-1.0625 -0.875,-1.0625 -0.53125,0 -1.015625,0.484375 -1.015625,1.015625 0,0.1875 0.0625,0.3125 0.0625,0.3125 -0.78125,-0.3125 -1.125,-1.078125 -1.125,-1.984375 0,-0.6875 0.265625,-2.109375 1.015625,-3.171875 C 3.109375,-6.3125 4.046875,-6.78125 4.78125,-6.78125 5.765625,-6.78125 6.5,-6 6.5,-4.671875 Z M 4.046875,-0.40625 c 0,0.140625 -0.015625,0.15625 -0.109375,0.203125 -0.265625,0.109375 -0.5625,0.171875 -0.84375,0.171875 -0.140625,0 -0.453125,0 -0.453125,-0.421875 0,-0.40625 0.375,-0.796875 0.796875,-0.796875 0.421875,0 0.609375,0.234375 0.609375,0.84375 z m 0,0"
               style="stroke:none;stroke-width:0" />
          </g>
        </g>
      </g>
    </g>
  </g>
</svg>
