<?xml version="1.0" encoding="UTF-8" standalone="no"?>
<svg
   xmlns:ns2="http://www.iki.fi/pav/software/textext/"
   xmlns:dc="http://purl.org/dc/elements/1.1/"
   xmlns:cc="http://creativecommons.org/ns#"
   xmlns:rdf="http://www.w3.org/1999/02/22-rdf-syntax-ns#"
   xmlns:svg="http://www.w3.org/2000/svg"
   xmlns="http://www.w3.org/2000/svg"
   xmlns:xlink="http://www.w3.org/1999/xlink"
   xmlns:sodipodi="http://sodipodi.sourceforge.net/DTD/sodipodi-0.dtd"
   xmlns:inkscape="http://www.inkscape.org/namespaces/inkscape"
   inkscape:version="1.0 (4035a4f, 2020-05-01)"
   sodipodi:docname="dipole.svg"
   id="svg6699"
   height="600"
   width="600"
   version="1.1">
  <metadata
     id="metadata6703">
    <rdf:RDF>
      <cc:Work
         rdf:about="">
        <dc:format>image/svg+xml</dc:format>
        <dc:type
           rdf:resource="http://purl.org/dc/dcmitype/StillImage" />
        <dc:title>VFPt_dipole_electric</dc:title>
      </cc:Work>
    </rdf:RDF>
  </metadata>
  <sodipodi:namedview
     inkscape:current-layer="svg6699"
     inkscape:window-maximized="0"
     inkscape:window-y="25"
     inkscape:window-x="0"
     inkscape:cy="311.27238"
     inkscape:cx="315.97488"
     inkscape:zoom="1.0400479"
     showgrid="false"
     id="namedview6701"
     inkscape:window-height="725"
     inkscape:window-width="1132"
     inkscape:pageshadow="2"
     inkscape:pageopacity="0"
     guidetolerance="10"
     gridtolerance="10"
     objecttolerance="10"
     borderopacity="1"
     bordercolor="#666666"
     pagecolor="#ffffff" />
  <title
     id="title6519">VFPt_dipole_electric</title>
  <desc
     id="desc6521">VFPt_dipole_electric
created with VectorFieldPlot 1.1
http://commons.wikimedia.org/wiki/User:Geek3/VectorFieldPlot

about: http://commons.wikimedia.org/wiki/File:VFPt_dipole_electric.svg
rights: GNU Free Documentation license,
        Creative Commons Attribution ShareAlike license
  </desc>
  <defs
     id="defs6539">
    <radialGradient
       r="0.75"
       cy="0.7"
       cx="0.65"
       id="white_spot">
      <stop
         id="stop6523"
         stop-opacity="0.7"
         offset="0"
         stop-color="#ffffff" />
      <stop
         id="stop6525"
         stop-opacity="0.5"
         offset="0.1"
         stop-color="#ffffff" />
      <stop
         id="stop6527"
         stop-opacity="0"
         offset="0.6"
         stop-color="#ffffff" />
      <stop
         id="stop6529"
         stop-opacity="0"
         offset="0.6"
         stop-color="#000000" />
      <stop
         id="stop6531"
         stop-opacity="0.05"
         offset="0.75"
         stop-color="#000000" />
      <stop
         id="stop6533"
         stop-opacity="0.15"
         offset="0.85"
         stop-color="#000000" />
      <stop
         id="stop6535"
         stop-opacity="0.5"
         offset="1"
         stop-color="#000000" />
    </radialGradient>
    <path
       d="M 0.3,0 L -2.2,2.25 L 3.8,0 L -2.2,-2.25 L 0.3,0 Z"
       transform="scale(0.01)"
       fill="#000000"
       stroke="none"
       id="arrow1" />
    <g
       id="id-4accd041-b9c2-4e57-ae54-de78c49bab71">
      <symbol
         overflow="visible"
         id="id-93c802db-254d-4f50-87ab-dfc96d88b381">
        <path
           style="stroke:none;stroke-width:0"
           d=""
           id="id-f325a421-cdab-47cb-86c0-db7b009bd294" />
      </symbol>
      <symbol
         overflow="visible"
         id="id-bbf93866-3817-4670-b56a-cf1853046a48">
        <path
           style="stroke:none;stroke-width:0"
           d="M 7.1875,-2.5 C 7.1875,-2.6875 7,-2.6875 6.859375,-2.6875 h -2.78125 v -2.796875 c 0,-0.140625 0,-0.328125 -0.203125,-0.328125 -0.203125,0 -0.203125,0.1875 -0.203125,0.328125 V -2.6875 h -2.78125 c -0.140625,0 -0.328125,0 -0.328125,0.1875 0,0.203125 0.1875,0.203125 0.328125,0.203125 h 2.78125 V 0.5 c 0,0.140625 0,0.328125 0.203125,0.328125 0.203125,0 0.203125,-0.1875 0.203125,-0.328125 v -2.796875 h 2.78125 c 0.140625,0 0.328125,0 0.328125,-0.203125 z m 0,0"
           id="id-e0d7ab58-aa96-44cb-bb9e-af0cd758a098" />
      </symbol>
      <symbol
         overflow="visible"
         id="id-b525b41f-aae2-40da-aa9d-8d18c66213a9">
        <path
           style="stroke:none;stroke-width:0"
           d=""
           id="id-301cda9a-7c51-40b6-9e6c-aed40fae7d9f" />
      </symbol>
      <symbol
         overflow="visible"
         id="id-74aa2c39-58fe-4491-bda9-c867fc9b3848">
        <path
           style="stroke:none;stroke-width:0"
           d="m 6.46875,0 c 0,-0.0625 -0.0625,-0.09375 -0.109375,-0.09375 -0.078125,0 -0.09375,0.046875 -0.125,0.109375 C 6,0.71875 5.421875,0.96875 5.078125,0.96875 4.609375,0.96875 4.46875,0.703125 4.359375,-0.0625 5.90625,-0.640625 7.375,-2.421875 7.375,-4.34375 c 0,-1.609375 -1.0625,-2.6875 -2.546875,-2.6875 -2.140625,0 -4.34375,2.265625 -4.34375,4.59375 0,1.65625 1.125,2.65625 2.5625,2.65625 0.25,0 0.578125,-0.046875 0.96875,-0.15625 -0.03125,0.625 -0.03125,0.640625 -0.03125,0.78125 0,0.3125 0,1.09375 0.828125,1.09375 C 5.984375,1.9375 6.46875,0.109375 6.46875,0 Z M 6.5,-4.671875 c 0,1 -0.515625,3.34375 -2.1875,4.265625 -0.046875,-0.34375 -0.140625,-1.0625 -0.875,-1.0625 -0.53125,0 -1.015625,0.484375 -1.015625,1.015625 0,0.1875 0.0625,0.3125 0.0625,0.3125 -0.78125,-0.3125 -1.125,-1.078125 -1.125,-1.984375 0,-0.6875 0.265625,-2.109375 1.015625,-3.171875 C 3.109375,-6.3125 4.046875,-6.78125 4.78125,-6.78125 5.765625,-6.78125 6.5,-6 6.5,-4.671875 Z M 4.046875,-0.40625 c 0,0.140625 -0.015625,0.15625 -0.109375,0.203125 -0.265625,0.109375 -0.5625,0.171875 -0.84375,0.171875 -0.140625,0 -0.453125,0 -0.453125,-0.421875 0,-0.40625 0.375,-0.796875 0.796875,-0.796875 0.421875,0 0.609375,0.234375 0.609375,0.84375 z m 0,0"
           id="id-9b60f770-3a68-4b1b-8140-d1b6532ae292" />
      </symbol>
    </g>
    <g
       id="id-4916ea80-1d28-4b14-bf46-912e04ee9c5f">
      <symbol
         overflow="visible"
         id="id-c45e5a83-f24a-4a4d-a426-119ee3294379">
        <path
           style="stroke:none;stroke-width:0"
           d=""
           id="id-3770ff59-66c0-45f1-baa1-a179fa0a5baf" />
      </symbol>
      <symbol
         overflow="visible"
         id="id-8a465191-2b48-4d03-bd79-b2ff75bc502d">
        <path
           style="stroke:none;stroke-width:0"
           d="m 6.921875,-2.5 c 0,-0.1875 -0.1875,-0.1875 -0.328125,-0.1875 h -5.4375 c -0.140625,0 -0.328125,0 -0.328125,0.1875 0,0.203125 0.1875,0.203125 0.328125,0.203125 h 5.4375 c 0.140625,0 0.328125,0 0.328125,-0.203125 z m 0,0"
           id="id-19c067d9-3363-4d1b-91ee-ab8ddbad3336" />
      </symbol>
      <symbol
         overflow="visible"
         id="id-9c70b175-2924-4ed7-87f1-5fee69d2f9c4">
        <path
           style="stroke:none;stroke-width:0"
           d=""
           id="id-f602a426-12df-4080-a1b0-66abbef7e924" />
      </symbol>
      <symbol
         overflow="visible"
         id="id-82136dd5-7a1e-4b03-9259-8947d3b273fa">
        <path
           style="stroke:none;stroke-width:0"
           d="m 6.46875,0 c 0,-0.0625 -0.0625,-0.09375 -0.109375,-0.09375 -0.078125,0 -0.09375,0.046875 -0.125,0.109375 C 6,0.71875 5.421875,0.96875 5.078125,0.96875 4.609375,0.96875 4.46875,0.703125 4.359375,-0.0625 5.90625,-0.640625 7.375,-2.421875 7.375,-4.34375 c 0,-1.609375 -1.0625,-2.6875 -2.546875,-2.6875 -2.140625,0 -4.34375,2.265625 -4.34375,4.59375 0,1.65625 1.125,2.65625 2.5625,2.65625 0.25,0 0.578125,-0.046875 0.96875,-0.15625 -0.03125,0.625 -0.03125,0.640625 -0.03125,0.78125 0,0.3125 0,1.09375 0.828125,1.09375 C 5.984375,1.9375 6.46875,0.109375 6.46875,0 Z M 6.5,-4.671875 c 0,1 -0.515625,3.34375 -2.1875,4.265625 -0.046875,-0.34375 -0.140625,-1.0625 -0.875,-1.0625 -0.53125,0 -1.015625,0.484375 -1.015625,1.015625 0,0.1875 0.0625,0.3125 0.0625,0.3125 -0.78125,-0.3125 -1.125,-1.078125 -1.125,-1.984375 0,-0.6875 0.265625,-2.109375 1.015625,-3.171875 C 3.109375,-6.3125 4.046875,-6.78125 4.78125,-6.78125 5.765625,-6.78125 6.5,-6 6.5,-4.671875 Z M 4.046875,-0.40625 c 0,0.140625 -0.015625,0.15625 -0.109375,0.203125 -0.265625,0.109375 -0.5625,0.171875 -0.84375,0.171875 -0.140625,0 -0.453125,0 -0.453125,-0.421875 0,-0.40625 0.375,-0.796875 0.796875,-0.796875 0.421875,0 0.609375,0.234375 0.609375,0.84375 z m 0,0"
           id="id-8be0226d-0199-4b7b-86e4-9d21caea3077" />
      </symbol>
    </g>
    <g
       id="id-4916ea80-1d28-4b14-bf46-912e04ee9c5f-0">
      <symbol
         overflow="visible"
         id="id-c45e5a83-f24a-4a4d-a426-119ee3294379-1">
        <path
           style="stroke:none;stroke-width:0"
           d=""
           id="id-3770ff59-66c0-45f1-baa1-a179fa0a5baf-9" />
      </symbol>
      <symbol
         overflow="visible"
         id="id-8a465191-2b48-4d03-bd79-b2ff75bc502d-4">
        <path
           style="stroke:none;stroke-width:0"
           d="m 6.921875,-2.5 c 0,-0.1875 -0.1875,-0.1875 -0.328125,-0.1875 h -5.4375 c -0.140625,0 -0.328125,0 -0.328125,0.1875 0,0.203125 0.1875,0.203125 0.328125,0.203125 h 5.4375 c 0.140625,0 0.328125,0 0.328125,-0.203125 z m 0,0"
           id="id-19c067d9-3363-4d1b-91ee-ab8ddbad3336-5" />
      </symbol>
      <symbol
         overflow="visible"
         id="id-9c70b175-2924-4ed7-87f1-5fee69d2f9c4-9">
        <path
           style="stroke:none;stroke-width:0"
           d=""
           id="id-f602a426-12df-4080-a1b0-66abbef7e924-3" />
      </symbol>
      <symbol
         overflow="visible"
         id="id-82136dd5-7a1e-4b03-9259-8947d3b273fa-9">
        <path
           style="stroke:none;stroke-width:0"
           d="m 6.46875,0 c 0,-0.0625 -0.0625,-0.09375 -0.109375,-0.09375 -0.078125,0 -0.09375,0.046875 -0.125,0.109375 C 6,0.71875 5.421875,0.96875 5.078125,0.96875 4.609375,0.96875 4.46875,0.703125 4.359375,-0.0625 5.90625,-0.640625 7.375,-2.421875 7.375,-4.34375 c 0,-1.609375 -1.0625,-2.6875 -2.546875,-2.6875 -2.140625,0 -4.34375,2.265625 -4.34375,4.59375 0,1.65625 1.125,2.65625 2.5625,2.65625 0.25,0 0.578125,-0.046875 0.96875,-0.15625 -0.03125,0.625 -0.03125,0.640625 -0.03125,0.78125 0,0.3125 0,1.09375 0.828125,1.09375 C 5.984375,1.9375 6.46875,0.109375 6.46875,0 Z M 6.5,-4.671875 c 0,1 -0.515625,3.34375 -2.1875,4.265625 -0.046875,-0.34375 -0.140625,-1.0625 -0.875,-1.0625 -0.53125,0 -1.015625,0.484375 -1.015625,1.015625 0,0.1875 0.0625,0.3125 0.0625,0.3125 -0.78125,-0.3125 -1.125,-1.078125 -1.125,-1.984375 0,-0.6875 0.265625,-2.109375 1.015625,-3.171875 C 3.109375,-6.3125 4.046875,-6.78125 4.78125,-6.78125 5.765625,-6.78125 6.5,-6 6.5,-4.671875 Z M 4.046875,-0.40625 c 0,0.140625 -0.015625,0.15625 -0.109375,0.203125 -0.265625,0.109375 -0.5625,0.171875 -0.84375,0.171875 -0.140625,0 -0.453125,0 -0.453125,-0.421875 0,-0.40625 0.375,-0.796875 0.796875,-0.796875 0.421875,0 0.609375,0.234375 0.609375,0.84375 z m 0,0"
           id="id-8be0226d-0199-4b7b-86e4-9d21caea3077-6" />
      </symbol>
    </g>
    <g
       id="id-4accd041-b9c2-4e57-ae54-de78c49bab71-0">
      <symbol
         overflow="visible"
         id="id-93c802db-254d-4f50-87ab-dfc96d88b381-8">
        <path
           style="stroke:none;stroke-width:0"
           d=""
           id="id-f325a421-cdab-47cb-86c0-db7b009bd294-2" />
      </symbol>
      <symbol
         overflow="visible"
         id="id-bbf93866-3817-4670-b56a-cf1853046a48-0">
        <path
           style="stroke:none;stroke-width:0"
           d="M 7.1875,-2.5 C 7.1875,-2.6875 7,-2.6875 6.859375,-2.6875 h -2.78125 v -2.796875 c 0,-0.140625 0,-0.328125 -0.203125,-0.328125 -0.203125,0 -0.203125,0.1875 -0.203125,0.328125 V -2.6875 h -2.78125 c -0.140625,0 -0.328125,0 -0.328125,0.1875 0,0.203125 0.1875,0.203125 0.328125,0.203125 h 2.78125 V 0.5 c 0,0.140625 0,0.328125 0.203125,0.328125 0.203125,0 0.203125,-0.1875 0.203125,-0.328125 v -2.796875 h 2.78125 c 0.140625,0 0.328125,0 0.328125,-0.203125 z m 0,0"
           id="id-e0d7ab58-aa96-44cb-bb9e-af0cd758a098-6" />
      </symbol>
      <symbol
         overflow="visible"
         id="id-b525b41f-aae2-40da-aa9d-8d18c66213a9-0">
        <path
           style="stroke:none;stroke-width:0"
           d=""
           id="id-301cda9a-7c51-40b6-9e6c-aed40fae7d9f-7" />
      </symbol>
      <symbol
         overflow="visible"
         id="id-74aa2c39-58fe-4491-bda9-c867fc9b3848-2">
        <path
           style="stroke:none;stroke-width:0"
           d="m 6.46875,0 c 0,-0.0625 -0.0625,-0.09375 -0.109375,-0.09375 -0.078125,0 -0.09375,0.046875 -0.125,0.109375 C 6,0.71875 5.421875,0.96875 5.078125,0.96875 4.609375,0.96875 4.46875,0.703125 4.359375,-0.0625 5.90625,-0.640625 7.375,-2.421875 7.375,-4.34375 c 0,-1.609375 -1.0625,-2.6875 -2.546875,-2.6875 -2.140625,0 -4.34375,2.265625 -4.34375,4.59375 0,1.65625 1.125,2.65625 2.5625,2.65625 0.25,0 0.578125,-0.046875 0.96875,-0.15625 -0.03125,0.625 -0.03125,0.640625 -0.03125,0.78125 0,0.3125 0,1.09375 0.828125,1.09375 C 5.984375,1.9375 6.46875,0.109375 6.46875,0 Z M 6.5,-4.671875 c 0,1 -0.515625,3.34375 -2.1875,4.265625 -0.046875,-0.34375 -0.140625,-1.0625 -0.875,-1.0625 -0.53125,0 -1.015625,0.484375 -1.015625,1.015625 0,0.1875 0.0625,0.3125 0.0625,0.3125 -0.78125,-0.3125 -1.125,-1.078125 -1.125,-1.984375 0,-0.6875 0.265625,-2.109375 1.015625,-3.171875 C 3.109375,-6.3125 4.046875,-6.78125 4.78125,-6.78125 5.765625,-6.78125 6.5,-6 6.5,-4.671875 Z M 4.046875,-0.40625 c 0,0.140625 -0.015625,0.15625 -0.109375,0.203125 -0.265625,0.109375 -0.5625,0.171875 -0.84375,0.171875 -0.140625,0 -0.453125,0 -0.453125,-0.421875 0,-0.40625 0.375,-0.796875 0.796875,-0.796875 0.421875,0 0.609375,0.234375 0.609375,0.84375 z m 0,0"
           id="id-9b60f770-3a68-4b1b-8140-d1b6532ae292-9" />
      </symbol>
    </g>
  </defs>
  <g
     transform="matrix(100,0,0,-100,287.43618,288.13417)"
     id="fieldlines"
     fill="none"
     stroke="#000000"
     stroke-width="0.024"
     stroke-linejoin="round"
     stroke-linecap="round">
    <g
       id="fieldline1">
      <path
         d="m 0.5,0 0.2401,0.0432 0.1886,0.0362 0.1814,0.0373 0.1806,0.0396 0.1817,0.0423 0.1838,0.0453 0.1862,0.0483 0.1888,0.0516 0.1913,0.0547 0.1938,0.058 0.1963,0.0613 0.1986,0.0645 0.2008,0.0678 m -6.024,0 0.2008,-0.0678 0.1986,-0.0645 0.1963,-0.0613 0.1938,-0.058 L -2.0312,0.3438 -1.8424,0.2922 -1.6562,0.2439 -1.4724,0.1986 -1.2907,0.1563 -1.1101,0.1167 -0.9287,0.0794 -0.7401,0.0432 -0.5,0"
         id="path6542" />
      <g
         id="arrows1">
        <use
           xlink:href="#arrow1"
           transform="matrix(2.5552162,0.66367939,-0.66367939,2.5552162,1.7694,0.2733)"
           id="use6544"
           x="0"
           y="0"
           width="100%"
           height="100%" />
        <use
           xlink:href="#arrow1"
           transform="matrix(2.5552162,-0.66367939,0.66367939,2.5552162,-1.7694,0.2733)"
           id="use6546"
           x="0"
           y="0"
           width="100%"
           height="100%" />
      </g>
    </g>
    <g
       id="fieldline2">
      <path
         d="M 0.5,0 0.6401,0.0819 0.7413,0.1435 0.8333,0.2024 0.9208,0.2613 1.0055,0.3212 1.0881,0.3826 1.169,0.4458 1.2483,0.5109 1.3263,0.578 1.4028,0.6471 1.478,0.7183 1.5517,0.7915 1.624,0.8667 1.6947,0.9439 1.764,1.023 1.8316,1.1039 1.8975,1.1867 1.9617,1.2713 2.0241,1.3575 2.0846,1.4454 2.1433,1.5348 2.2,1.6257 2.2547,1.718 2.3073,1.8117 2.3579,1.9066 2.4063,2.0027 2.4525,2.1 2.4966,2.1982 2.5383,2.2975 2.5778,2.3975 2.615,2.4984 2.6498,2.6 2.6823,2.7023 2.7124,2.8051 2.74,2.9083 2.7653,3.012 m -5.5306,0 L -2.74,2.9083 -2.7124,2.8051 -2.6823,2.7023 -2.6498,2.6 -2.615,2.4984 -2.5778,2.3975 -2.5383,2.2975 -2.4966,2.1982 -2.4525,2.1 -2.4063,2.0027 -2.3579,1.9066 -2.3073,1.8117 -2.2547,1.718 -2.2,1.6257 -2.1433,1.5348 -2.0846,1.4454 -2.0241,1.3575 -1.9617,1.2713 -1.8975,1.1867 -1.8316,1.1039 -1.764,1.023 -1.6947,0.9439 -1.624,0.8667 -1.5517,0.7915 -1.478,0.7183 -1.4028,0.6471 -1.3263,0.578 -1.2483,0.5109 -1.169,0.4458 -1.0881,0.3826 -1.0055,0.3212 -0.9208,0.2613 -0.8333,0.2024 -0.7413,0.1435 -0.6401,0.0819 -0.5,0"
         id="path6550" />
      <g
         id="arrows2">
        <use
           xlink:href="#arrow1"
           transform="matrix(1.9881953,1.7368591,-1.7368591,1.9881953,1.2962,0.5524)"
           id="use6552"
           x="0"
           y="0"
           width="100%"
           height="100%" />
        <use
           xlink:href="#arrow1"
           transform="matrix(1.0968861,2.4013415,-2.4013415,1.0968861,2.4501,2.0957)"
           id="use6554"
           x="0"
           y="0"
           width="100%"
           height="100%" />
        <use
           xlink:href="#arrow1"
           transform="matrix(1.1219723,-2.3897234,2.3897234,1.1219723,-2.4501,2.0957)"
           id="use6556"
           x="0"
           y="0"
           width="100%"
           height="100%" />
        <use
           xlink:href="#arrow1"
           transform="matrix(2.0029762,-1.7197925,1.7197925,2.0029762,-1.2963,0.5522)"
           id="use6558"
           x="0"
           y="0"
           width="100%"
           height="100%" />
      </g>
    </g>
    <g
       id="fieldline3">
      <path
         d="m 0.5,0 0.0878,0.1059 0.0591,0.0749 0.0514,0.069 0.0464,0.0665 0.0428,0.0656 0.0396,0.0653 0.0368,0.0653 0.034,0.0657 0.0313,0.0661 0.0288,0.0664 0.0262,0.0668 0.0236,0.0672 0.021,0.0675 0.0185,0.0676 0.0159,0.0678 0.0132,0.0678 0.0107,0.0677 0.0082,0.0675 0.0055,0.0672 0.003,0.0668 4e-4,0.0663 L 1.1022,1.5165 1.0976,1.5814 1.0905,1.6455 1.0811,1.7086 1.0692,1.7706 1.055,1.8315 1.0385,1.891 1.0198,1.9492 0.9989,2.006 0.9759,2.0612 0.9509,2.1147 0.9239,2.1665 0.895,2.2165 0.8643,2.2646 0.8319,2.3107 0.7978,2.3549 0.7621,2.3969 0.7249,2.4368 0.6864,2.4746 0.6465,2.51 0.6054,2.5432 0.5632,2.5741 0.5199,2.6027 0.4757,2.6288 0.4305,2.6525 0.3847,2.6738 0.3381,2.6926 0.2909,2.709 0.2432,2.7229 0.1951,2.7342 0.1466,2.7431 0.0979,2.7494 0.049,2.7532 0,2.7545 -0.049,2.7532 -0.0979,2.7494 -0.1466,2.7431 -0.1951,2.7342 -0.2432,2.7229 -0.2909,2.709 -0.3381,2.6926 -0.3847,2.6738 -0.4306,2.6525 -0.4756,2.6288 -0.5199,2.6026 -0.5632,2.5741 -0.6054,2.5432 -0.6465,2.51 -0.6864,2.4745 -0.7249,2.4368 -0.7621,2.3969 -0.7978,2.3549 -0.8319,2.3107 -0.8643,2.2646 -0.895,2.2165 -0.9239,2.1665 -0.9509,2.1147 -0.9759,2.0611 -0.9989,2.006 -1.0198,1.9492 -1.0385,1.891 -1.055,1.8315 -1.0692,1.7706 -1.0811,1.7086 -1.0905,1.6455 -1.0976,1.5814 -1.1022,1.5165 -1.1042,1.4509 -1.1038,1.3846 -1.1008,1.3178 -1.0953,1.2506 -1.0871,1.1831 -1.0764,1.1154 -1.0631,1.0476 -1.0473,0.9798 -1.0288,0.9122 -1.0078,0.8447 -0.9842,0.7775 -0.958,0.7107 -0.9292,0.6443 -0.8979,0.5782 -0.8639,0.5125 -0.8271,0.4471 -0.7875,0.3818 -0.7447,0.3163 -0.6983,0.2497 -0.6469,0.1808 -0.5878,0.1059 -0.5,0"
         id="path6562" />
      <g
         id="arrows3">
        <use
           xlink:href="#arrow1"
           transform="matrix(0.94135785,2.4664641,-2.4664641,0.94135785,0.9675,0.7357)"
           id="use6564"
           x="0"
           y="0"
           width="100%"
           height="100%" />
        <use
           xlink:href="#arrow1"
           transform="matrix(-1.771635,1.9572709,-1.9572709,-1.771635,0.7669,2.3899)"
           id="use6566"
           x="0"
           y="0"
           width="100%"
           height="100%" />
        <use
           xlink:href="#arrow1"
           transform="matrix(-1.7036563,-2.0167189,2.0167189,-1.7036563,-0.7669,2.3899)"
           id="use6568"
           x="0"
           y="0"
           width="100%"
           height="100%" />
        <use
           xlink:href="#arrow1"
           transform="matrix(1.0013379,-2.4427285,2.4427285,1.0013379,-0.9674,0.7357)"
           id="use6570"
           x="0"
           y="0"
           width="100%"
           height="100%" />
      </g>
    </g>
    <g
       id="fieldline4">
      <path
         d="M 0.5,0 0.5419,0.1175 0.5675,0.1962 0.5877,0.2658 0.604,0.3307 0.6169,0.3927 0.6269,0.4525 0.634,0.5106 0.6384,0.5674 0.6402,0.6228 0.6394,0.6769 0.6362,0.7298 0.6304,0.7813 0.6223,0.8315 0.6119,0.8802 0.5992,0.9274 0.5843,0.9729 0.5673,1.0168 0.5483,1.0588 0.5274,1.099 0.5047,1.1372 0.4802,1.1734 0.4541,1.2074 0.4265,1.2392 0.3975,1.2689 0.3673,1.2962 0.3358,1.3211 0.3033,1.3437 0.2698,1.3638 0.2355,1.3815 0.2005,1.3967 0.1648,1.4094 0.1287,1.4196 0.0922,1.4272 0.0554,1.4323 0.0185,1.4349 h -0.037 L -0.0554,1.4323 -0.0922,1.4272 -0.1287,1.4196 -0.1649,1.4094 -0.2005,1.3967 -0.2355,1.3815 -0.2698,1.3638 -0.3033,1.3437 -0.3358,1.3211 -0.3673,1.2962 -0.3975,1.2688 -0.4265,1.2392 -0.4541,1.2074 -0.4802,1.1733 -0.5047,1.1372 -0.5274,1.099 -0.5483,1.0588 -0.5673,1.0168 -0.5843,0.9729 -0.5992,0.9274 -0.6119,0.8802 -0.6223,0.8315 -0.6304,0.7813 -0.6362,0.7298 -0.6394,0.6769 -0.6402,0.6228 -0.6384,0.5673 -0.634,0.5106 -0.6269,0.4525 -0.6169,0.3927 -0.604,0.3307 -0.5877,0.2658 -0.5675,0.1962 -0.5419,0.1175 -0.5,0"
         id="path6574" />
      <g
         id="arrows4">
        <use
           xlink:href="#arrow1"
           transform="matrix(-0.66412535,2.5551003,-2.5551003,-0.66412535,0.6118,0.8751)"
           id="use6576"
           x="0"
           y="0"
           width="100%"
           height="100%" />
        <use
           xlink:href="#arrow1"
           transform="matrix(-0.54978823,-2.5821179,2.5821179,-0.54978823,-0.6118,0.8751)"
           id="use6578"
           x="0"
           y="0"
           width="100%"
           height="100%" />
      </g>
    </g>
    <g
       id="fieldline5">
      <path
         d="M 0.5,0 0.4992,0.1182 0.4965,0.1931 0.4918,0.2567 0.4852,0.3137 0.4766,0.3663 0.4661,0.4153 0.4537,0.4613 0.4395,0.5046 0.4235,0.5454 0.4057,0.5837 0.3863,0.6197 0.3654,0.6532 0.3429,0.6844 0.3192,0.7132 0.2941,0.7395 0.2679,0.7634 0.2407,0.7849 0.2126,0.8039 0.1837,0.8203 0.1541,0.8343 0.124,0.8457 0.0934,0.8546 0.0624,0.8609 0.0313,0.8648 0,0.866 -0.0313,0.8648 -0.0624,0.8609 -0.0934,0.8546 -0.124,0.8457 -0.1541,0.8343 -0.1837,0.8203 -0.2126,0.8039 -0.2407,0.7849 -0.2679,0.7635 -0.2941,0.7395 -0.3192,0.7132 -0.3429,0.6844 -0.3654,0.6532 -0.3863,0.6197 -0.4057,0.5837 -0.4235,0.5454 -0.4395,0.5046 -0.4537,0.4613 -0.4661,0.4153 -0.4766,0.3663 -0.4852,0.3137 -0.4918,0.2567 -0.4965,0.1931 -0.4992,0.1182 -0.5,0"
         id="path6582" />
      <g
         id="arrows5">
        <use
           xlink:href="#arrow1"
           transform="matrix(-2.6359349,-0.14644867,0.14644867,-2.6359349,1e-4,0.8636)"
           id="use6584"
           x="0"
           y="0"
           width="100%"
           height="100%" />
      </g>
    </g>
    <g
       id="fieldline6">
      <path
         d="M 0.5,0 0.4595,0.109 0.433,0.1742 0.409,0.2273 0.3857,0.2729 0.3624,0.3133 0.3388,0.3494 0.3146,0.382 0.2899,0.4112 0.2645,0.4374 0.2385,0.4608 0.2119,0.4813 0.1848,0.4992 0.1572,0.5144 0.1291,0.5271 0.1008,0.5371 0.0722,0.5447 0.0434,0.5497 0.0145,0.5522 h -0.029 L -0.0434,0.5497 -0.0722,0.5447 -0.1008,0.5371 -0.1292,0.527 -0.1572,0.5144 -0.1848,0.4992 -0.2119,0.4813 -0.2385,0.4607 -0.2645,0.4374 -0.2899,0.4112 -0.3146,0.382 -0.3388,0.3494 -0.3624,0.3133 -0.3857,0.2729 -0.409,0.2273 -0.433,0.1742 -0.4595,0.109 -0.5,0"
         id="path6588" />
      <g
         id="arrows6">
        <use
           xlink:href="#arrow1"
           transform="matrix(-2.634877,-0.16438738,0.16438738,-2.634877,2e-4,0.5497)"
           id="use6590"
           x="0"
           y="0"
           width="100%"
           height="100%" />
      </g>
    </g>
    <g
       id="fieldline7">
      <path
         d="M 0.5,0 0.4228,0.0909 0.3765,0.1422 0.338,0.1817 0.3029,0.2145 0.2699,0.2421 0.2382,0.2657 0.2074,0.2857 0.1771,0.3025 0.1472,0.3164 0.1176,0.3276 0.088,0.3363 0.0587,0.3423 0.0293,0.346 0,0.3472 -0.0293,0.346 -0.0586,0.3424 -0.0881,0.3363 -0.1175,0.3276 -0.1472,0.3164 -0.1771,0.3025 -0.2074,0.2857 -0.2382,0.2657 -0.2699,0.2421 -0.3029,0.2145 -0.338,0.1817 -0.3765,0.1422 -0.4228,0.0909 -0.5,0"
         id="path6594" />
      <g
         id="arrows7">
        <use
           xlink:href="#arrow1"
           transform="matrix(-2.6350759,-0.16116814,0.16116814,-2.6350759,2e-4,0.3446)"
           id="use6596"
           x="0"
           y="0"
           width="100%"
           height="100%" />
      </g>
    </g>
    <g
       id="fieldline8">
      <path
         d="M 0.5,0 0.3844,0.0659 0.3194,0.1006 0.2676,0.1259 0.2223,0.1456 0.181,0.1609 0.1423,0.1729 0.1054,0.1818 0.0697,0.188 0.0346,0.1916 0,0.1928 -0.0347,0.1916 -0.0697,0.188 -0.1054,0.1818 -0.1423,0.1728 -0.181,0.1609 -0.2223,0.1456 -0.2676,0.1259 -0.3195,0.1006 -0.3844,0.0659 -0.5,0"
         id="path6600" />
      <g
         id="arrows8">
        <use
           xlink:href="#arrow1"
           transform="matrix(-2.6377986,-0.10778949,0.10778949,-2.6377986,1e-4,0.1909)"
           id="use6602"
           x="0"
           y="0"
           width="100%"
           height="100%" />
      </g>
    </g>
    <g
       id="fieldline9">
      <path
         d="M 0.5,0 0.3211,0.0308 0.2268,0.045 0.1534,0.0538 0.0891,0.0591 0.0293,0.0617 H -0.0291 L -0.089,0.0591 -0.1534,0.0538 -0.2268,0.045 -0.321,0.0308 -0.5,0"
         id="path6606" />
      <g
         id="arrows9">
        <use
           xlink:href="#arrow1"
           transform="matrix(-2.6395898,-0.04653505,0.04653505,-2.6395898,0,0.0612)"
           id="use6608"
           x="0"
           y="0"
           width="100%"
           height="100%" />
      </g>
    </g>
    <g
       id="fieldline10">
      <path
         d="M 0.5,0 0.3211,-0.0308 0.2268,-0.045 0.1534,-0.0538 0.0891,-0.0591 0.0293,-0.0617 H -0.0291 L -0.089,-0.0591 -0.1534,-0.0538 -0.2268,-0.045 -0.321,-0.0308 -0.5,0"
         id="path6612" />
      <g
         id="arrows10">
        <use
           xlink:href="#arrow1"
           transform="matrix(-2.6395898,0.04653505,-0.04653505,-2.6395898,0,-0.0612)"
           id="use6614"
           x="0"
           y="0"
           width="100%"
           height="100%" />
      </g>
    </g>
    <g
       id="fieldline11">
      <path
         d="M 0.5,0 0.3844,-0.0659 0.3194,-0.1006 0.2676,-0.1259 0.2223,-0.1456 0.181,-0.1609 0.1423,-0.1729 0.1054,-0.1818 0.0697,-0.188 0.0346,-0.1916 0,-0.1928 l -0.0347,0.0012 -0.035,0.0036 -0.0357,0.0062 -0.0369,0.009 -0.0387,0.0119 -0.0413,0.0153 -0.0453,0.0197 -0.0519,0.0253 -0.0649,0.0347 L -0.5,0"
         id="path6618" />
      <g
         id="arrows11">
        <use
           xlink:href="#arrow1"
           transform="matrix(-2.6377986,0.10778949,-0.10778949,-2.6377986,1e-4,-0.1909)"
           id="use6620"
           x="0"
           y="0"
           width="100%"
           height="100%" />
      </g>
    </g>
    <g
       id="fieldline12">
      <path
         d="M 0.5,0 0.4228,-0.0909 0.3765,-0.1422 0.338,-0.1817 0.3029,-0.2145 0.2699,-0.2421 0.2382,-0.2657 0.2074,-0.2857 0.1771,-0.3025 0.1472,-0.3164 0.1176,-0.3276 0.088,-0.3363 0.0587,-0.3423 0.0293,-0.346 0,-0.3472 l -0.0293,0.0012 -0.0293,0.0036 -0.0295,0.0061 -0.0294,0.0087 -0.0297,0.0112 -0.0299,0.0139 -0.0303,0.0168 -0.0308,0.02 -0.0317,0.0236 -0.033,0.0276 -0.0351,0.0328 -0.0385,0.0395 -0.0463,0.0513 L -0.5,0"
         id="path6624" />
      <g
         id="arrows12">
        <use
           xlink:href="#arrow1"
           transform="matrix(-2.6350759,0.16116814,-0.16116814,-2.6350759,2e-4,-0.3446)"
           id="use6626"
           x="0"
           y="0"
           width="100%"
           height="100%" />
      </g>
    </g>
    <g
       id="fieldline13">
      <path
         d="M 0.5,0 0.4595,-0.109 0.433,-0.1742 0.409,-0.2273 0.3857,-0.2729 0.3624,-0.3133 0.3388,-0.3494 0.3146,-0.382 0.2899,-0.4112 0.2645,-0.4374 0.2385,-0.4608 0.2119,-0.4813 0.1848,-0.4992 0.1572,-0.5144 0.1291,-0.5271 0.1008,-0.5371 0.0722,-0.5447 0.0434,-0.5497 0.0145,-0.5522 h -0.029 l -0.0289,0.0025 -0.0288,0.005 -0.0286,0.0076 -0.0284,0.0101 -0.028,0.0126 -0.0276,0.0152 -0.0271,0.0179 -0.0266,0.0206 -0.026,0.0233 -0.0254,0.0262 -0.0247,0.0292 -0.0242,0.0326 -0.0236,0.0361 -0.0233,0.0404 -0.0233,0.0456 -0.024,0.0531 L -0.4595,-0.109 -0.5,0"
         id="path6630" />
      <g
         id="arrows13">
        <use
           xlink:href="#arrow1"
           transform="matrix(-2.634877,0.16438738,-0.16438738,-2.634877,2e-4,-0.5497)"
           id="use6632"
           x="0"
           y="0"
           width="100%"
           height="100%" />
      </g>
    </g>
    <g
       id="fieldline14">
      <path
         d="M 0.5,0 0.4992,-0.1182 0.4965,-0.1931 0.4918,-0.2567 0.4852,-0.3137 0.4766,-0.3663 0.4661,-0.4153 0.4537,-0.4613 0.4395,-0.5046 0.4235,-0.5454 0.4057,-0.5837 0.3863,-0.6197 0.3654,-0.6532 0.3429,-0.6844 0.3192,-0.7132 0.2941,-0.7395 0.2679,-0.7634 0.2407,-0.7849 0.2126,-0.8039 0.1837,-0.8203 0.1541,-0.8343 0.124,-0.8457 0.0934,-0.8546 0.0624,-0.8609 0.0313,-0.8648 0,-0.866 l -0.0313,0.0012 -0.0311,0.0039 -0.031,0.0063 -0.0306,0.0089 -0.0301,0.0114 -0.0296,0.014 -0.0289,0.0164 -0.0281,0.019 -0.0272,0.0214 -0.0262,0.024 -0.0251,0.0263 -0.0237,0.0288 -0.0225,0.0312 -0.0209,0.0335 -0.0194,0.036 -0.0178,0.0383 -0.016,0.0408 -0.0142,0.0433 -0.0124,0.046 -0.0105,0.049 -0.0086,0.0526 -0.0066,0.057 -0.0047,0.0636 -0.0027,0.0749 L -0.5,0"
         id="path6636" />
      <g
         id="arrows14">
        <use
           xlink:href="#arrow1"
           transform="matrix(-2.6359349,0.14644867,-0.14644867,-2.6359349,1e-4,-0.8636)"
           id="use6638"
           x="0"
           y="0"
           width="100%"
           height="100%" />
      </g>
    </g>
    <g
       id="fieldline15">
      <path
         d="M 0.5,0 0.5419,-0.1175 0.5675,-0.1962 0.5877,-0.2658 0.604,-0.3307 0.6169,-0.3927 0.6269,-0.4525 0.634,-0.5106 0.6384,-0.5674 0.6402,-0.6228 0.6394,-0.6769 0.6362,-0.7298 0.6304,-0.7813 0.6223,-0.8315 0.6119,-0.8802 0.5992,-0.9274 0.5843,-0.9729 0.5673,-1.0168 0.5483,-1.0588 0.5274,-1.099 0.5047,-1.1372 0.4802,-1.1734 0.4541,-1.2074 0.4265,-1.2392 0.3975,-1.2689 0.3673,-1.2962 0.3358,-1.3211 0.3033,-1.3437 0.2698,-1.3638 0.2355,-1.3815 0.2005,-1.3967 0.1648,-1.4094 0.1287,-1.4196 0.0922,-1.4272 0.0554,-1.4323 0.0185,-1.4349 h -0.037 l -0.0369,0.0026 -0.0368,0.0051 -0.0365,0.0076 -0.0362,0.0102 -0.0356,0.0127 -0.035,0.0152 -0.0343,0.0177 -0.0335,0.0201 -0.0325,0.0226 -0.0315,0.0249 -0.0302,0.0274 -0.029,0.0296 -0.0276,0.0318 -0.0261,0.0341 -0.0245,0.0361 -0.0227,0.0382 -0.0209,0.0402 -0.019,0.042 -0.017,0.0439 -0.0149,0.0455 -0.0127,0.0472 -0.0104,0.0487 -0.0081,0.0502 -0.0058,0.0515 -0.0032,0.0529 -8e-4,0.0541 0.0018,0.0555 0.0044,0.0567 0.0071,0.0581 0.01,0.0598 0.0129,0.062 0.0163,0.0649 0.0202,0.0696 0.0256,0.0787 L -0.5,0"
         id="path6642" />
      <g
         id="arrows15">
        <use
           xlink:href="#arrow1"
           transform="matrix(-0.66412535,-2.5551003,2.5551003,-0.66412535,0.6118,-0.8751)"
           id="use6644"
           x="0"
           y="0"
           width="100%"
           height="100%" />
        <use
           xlink:href="#arrow1"
           transform="matrix(-0.54978823,2.5821179,-2.5821179,-0.54978823,-0.6118,-0.8751)"
           id="use6646"
           x="0"
           y="0"
           width="100%"
           height="100%" />
      </g>
    </g>
    <g
       id="fieldline16">
      <path
         d="m 0.5,0 0.0878,-0.1059 0.0591,-0.0749 0.0514,-0.069 0.0464,-0.0665 0.0428,-0.0656 0.0396,-0.0653 0.0368,-0.0653 0.034,-0.0657 0.0313,-0.0661 0.0288,-0.0664 0.0262,-0.0668 0.0236,-0.0672 0.021,-0.0675 0.0185,-0.0676 0.0159,-0.0678 0.0132,-0.0678 0.0107,-0.0677 0.0082,-0.0675 0.0055,-0.0672 0.003,-0.0668 4e-4,-0.0663 L 1.1022,-1.5165 1.0976,-1.5814 1.0905,-1.6455 1.0811,-1.7086 1.0692,-1.7706 1.055,-1.8315 1.0385,-1.891 1.0198,-1.9492 0.9989,-2.006 0.9759,-2.0612 0.9509,-2.1147 0.9239,-2.1665 0.895,-2.2165 0.8643,-2.2646 0.8319,-2.3107 0.7978,-2.3549 0.7621,-2.3969 0.7249,-2.4368 0.6864,-2.4746 0.6465,-2.51 0.6054,-2.5432 0.5632,-2.5741 0.5199,-2.6027 0.4757,-2.6288 0.4305,-2.6525 0.3847,-2.6738 0.3381,-2.6926 0.2909,-2.709 0.2432,-2.7229 0.1951,-2.7342 0.1466,-2.7431 0.0979,-2.7494 0.049,-2.7532 0,-2.7545 l -0.049,0.0013 -0.0489,0.0038 -0.0487,0.0063 -0.0485,0.0089 -0.0481,0.0113 -0.0477,0.0139 -0.0472,0.0164 -0.0466,0.0188 -0.0459,0.0213 -0.045,0.0237 -0.0443,0.0262 -0.0433,0.0285 -0.0422,0.0309 -0.0411,0.0332 -0.0399,0.0355 -0.0385,0.0377 -0.0372,0.0399 -0.0357,0.042 -0.0341,0.0442 -0.0324,0.0461 -0.0307,0.0481 -0.0289,0.05 -0.027,0.0518 -0.025,0.0536 -0.023,0.0551 -0.0209,0.0568 -0.0187,0.0582 -0.0165,0.0595 -0.0142,0.0609 -0.0119,0.062 -0.0094,0.0631 -0.0071,0.0641 -0.0046,0.0649 -0.002,0.0656 4e-4,0.0663 0.003,0.0668 0.0055,0.0672 0.0082,0.0675 0.0107,0.0677 0.0133,0.0678 0.0158,0.0678 0.0185,0.0676 0.021,0.0675 0.0236,0.0672 0.0262,0.0668 0.0288,0.0664 0.0313,0.0661 0.034,0.0657 0.0368,0.0654 0.0396,0.0653 0.0428,0.0655 0.0464,0.0666 0.0514,0.0689 0.0591,0.0749 L -0.5,0"
         id="path6650" />
      <g
         id="arrows16">
        <use
           xlink:href="#arrow1"
           transform="matrix(0.94135785,-2.4664641,2.4664641,0.94135785,0.9675,-0.7357)"
           id="use6652"
           x="0"
           y="0"
           width="100%"
           height="100%" />
        <use
           xlink:href="#arrow1"
           transform="matrix(-1.771635,-1.9572709,1.9572709,-1.771635,0.7669,-2.3899)"
           id="use6654"
           x="0"
           y="0"
           width="100%"
           height="100%" />
        <use
           xlink:href="#arrow1"
           transform="matrix(-1.7036563,2.0167189,-2.0167189,-1.7036563,-0.7669,-2.3899)"
           id="use6656"
           x="0"
           y="0"
           width="100%"
           height="100%" />
        <use
           xlink:href="#arrow1"
           transform="matrix(1.0013379,2.4427285,-2.4427285,1.0013379,-0.9674,-0.7357)"
           id="use6658"
           x="0"
           y="0"
           width="100%"
           height="100%" />
      </g>
    </g>
    <g
       id="fieldline17">
      <path
         d="M 0.5,0 0.6401,-0.0819 0.7413,-0.1435 0.8333,-0.2024 0.9208,-0.2613 1.0055,-0.3212 1.0881,-0.3826 1.169,-0.4458 1.2483,-0.5109 1.3263,-0.578 1.4028,-0.6471 1.478,-0.7183 1.5517,-0.7915 1.624,-0.8667 1.6947,-0.9439 1.764,-1.023 1.8316,-1.1039 1.8975,-1.1867 1.9617,-1.2713 2.0241,-1.3575 2.0846,-1.4454 2.1433,-1.5348 2.2,-1.6257 2.2547,-1.718 2.3073,-1.8117 2.3579,-1.9066 2.4063,-2.0027 2.4525,-2.1 2.4966,-2.1982 2.5383,-2.2975 2.5778,-2.3975 2.615,-2.4984 2.6498,-2.6 2.6823,-2.7023 2.7124,-2.8051 2.74,-2.9083 2.7653,-3.012 m -5.5306,0 0.0253,0.1037 0.0276,0.1032 0.0301,0.1028 0.0325,0.1023 0.0348,0.1016 0.0372,0.1009 0.0395,0.1 0.0417,0.0993 0.0441,0.0982 0.0462,0.0973 0.0484,0.0961 0.0506,0.0949 0.0526,0.0937 0.0547,0.0923 0.0567,0.0909 0.0587,0.0894 0.0605,0.0879 0.0624,0.0862 0.0642,0.0846 0.0659,0.0828 0.0676,0.0809 0.0693,0.0791 0.0707,0.0772 0.0723,0.0752 0.0737,0.0732 0.0752,0.0712 0.0765,0.0691 0.078,0.0671 0.0793,0.0651 0.0809,0.0632 0.0826,0.0614 0.0847,0.0599 0.0875,0.0589 0.092,0.0589 0.1012,0.0616 L -0.5,0"
         id="path6662" />
      <g
         id="arrows17">
        <use
           xlink:href="#arrow1"
           transform="matrix(1.9881953,-1.7368591,1.7368591,1.9881953,1.2962,-0.5524)"
           id="use6664"
           x="0"
           y="0"
           width="100%"
           height="100%" />
        <use
           xlink:href="#arrow1"
           transform="matrix(1.0968861,-2.4013415,2.4013415,1.0968861,2.4501,-2.0957)"
           id="use6666"
           x="0"
           y="0"
           width="100%"
           height="100%" />
        <use
           xlink:href="#arrow1"
           transform="matrix(1.1219723,2.3897234,-2.3897234,1.1219723,-2.4501,-2.0957)"
           id="use6668"
           x="0"
           y="0"
           width="100%"
           height="100%" />
        <use
           xlink:href="#arrow1"
           transform="matrix(2.0029762,1.7197925,-1.7197925,2.0029762,-1.2963,-0.5522)"
           id="use6670"
           x="0"
           y="0"
           width="100%"
           height="100%" />
      </g>
    </g>
    <g
       id="fieldline18">
      <path
         d="m 0.5,0 0.2401,-0.0432 0.1886,-0.0362 0.1814,-0.0373 0.1806,-0.0396 0.1817,-0.0423 0.1838,-0.0453 0.1862,-0.0483 0.1888,-0.0516 0.1913,-0.0547 0.1938,-0.058 0.1963,-0.0613 0.1986,-0.0645 0.2008,-0.0678 m -6.024,0 0.2008,0.0678 0.1986,0.0645 0.1963,0.0613 0.1938,0.058 0.1913,0.0547 0.1888,0.0516 0.1862,0.0483 0.1838,0.0453 0.1817,0.0423 0.1806,0.0396 0.1814,0.0373 0.1886,0.0362 L -0.5,0"
         id="path6674" />
      <g
         id="arrows18">
        <use
           xlink:href="#arrow1"
           transform="matrix(2.5552162,-0.66367939,0.66367939,2.5552162,1.7694,-0.2733)"
           id="use6676"
           x="0"
           y="0"
           width="100%"
           height="100%" />
        <use
           xlink:href="#arrow1"
           transform="matrix(2.5552162,0.66367939,-0.66367939,2.5552162,-1.7694,-0.2733)"
           id="use6678"
           x="0"
           y="0"
           width="100%"
           height="100%" />
      </g>
    </g>
  </g>
  <circle
     r="25.007879"
     cy="288.35516"
     cx="338.44501"
     id="path833-7"
     style="fill:#ffffff;stroke:#000000;stroke-width:2;stroke-miterlimit:4;stroke-dasharray:none" />
  <circle
     style="fill:#ffffff;stroke:#000000;stroke-width:2;stroke-miterlimit:4;stroke-dasharray:none"
     id="path833-7-3"
     cx="236.91151"
     cy="287.67828"
     r="25.007879" />
  <g
     id="g938"
     ns2:jacobian_sqrt="0.352778"
     ns2:alignment="middle center"
     ns2:scale="1.00000011338576"
     ns2:preamble="/Users/mbh/Library/Application Support/org.inkscape.Inkscape/config/inkscape/extensions/textext/default_packages.tex"
     ns2:text="$-Q$"
     ns2:pdfconverter="inkscape"
     ns2:texconverter="pdflatex"
     ns2:version="1.3.1"
     transform="matrix(1.3333342,0,0,1.3333342,225.92772,282.2938)">
    <defs
       id="id-d8b7f1f9-dd27-472e-be15-0e0125eac5de">
      <g
         id="g7645">
        <symbol
           overflow="visible"
           id="symbol7631">
          <path
             style="stroke:none;stroke-width:0"
             d=""
             id="path7629" />
        </symbol>
        <symbol
           overflow="visible"
           id="symbol7635">
          <path
             style="stroke:none;stroke-width:0"
             d="m 6.921875,-2.5 c 0,-0.1875 -0.1875,-0.1875 -0.328125,-0.1875 h -5.4375 c -0.140625,0 -0.328125,0 -0.328125,0.1875 0,0.203125 0.1875,0.203125 0.328125,0.203125 h 5.4375 c 0.140625,0 0.328125,0 0.328125,-0.203125 z m 0,0"
             id="path7633" />
        </symbol>
        <symbol
           overflow="visible"
           id="symbol7639">
          <path
             style="stroke:none;stroke-width:0"
             d=""
             id="path7637" />
        </symbol>
        <symbol
           overflow="visible"
           id="symbol7643">
          <path
             style="stroke:none;stroke-width:0"
             d="m 6.46875,0 c 0,-0.0625 -0.0625,-0.09375 -0.109375,-0.09375 -0.078125,0 -0.09375,0.046875 -0.125,0.109375 C 6,0.71875 5.421875,0.96875 5.078125,0.96875 4.609375,0.96875 4.46875,0.703125 4.359375,-0.0625 5.90625,-0.640625 7.375,-2.421875 7.375,-4.34375 c 0,-1.609375 -1.0625,-2.6875 -2.546875,-2.6875 -2.140625,0 -4.34375,2.265625 -4.34375,4.59375 0,1.65625 1.125,2.65625 2.5625,2.65625 0.25,0 0.578125,-0.046875 0.96875,-0.15625 -0.03125,0.625 -0.03125,0.640625 -0.03125,0.78125 0,0.3125 0,1.09375 0.828125,1.09375 C 5.984375,1.9375 6.46875,0.109375 6.46875,0 Z M 6.5,-4.671875 c 0,1 -0.515625,3.34375 -2.1875,4.265625 -0.046875,-0.34375 -0.140625,-1.0625 -0.875,-1.0625 -0.53125,0 -1.015625,0.484375 -1.015625,1.015625 0,0.1875 0.0625,0.3125 0.0625,0.3125 -0.78125,-0.3125 -1.125,-1.078125 -1.125,-1.984375 0,-0.6875 0.265625,-2.109375 1.015625,-3.171875 C 3.109375,-6.3125 4.046875,-6.78125 4.78125,-6.78125 5.765625,-6.78125 6.5,-6 6.5,-4.671875 Z M 4.046875,-0.40625 c 0,0.140625 -0.015625,0.15625 -0.109375,0.203125 -0.265625,0.109375 -0.5625,0.171875 -0.84375,0.171875 -0.140625,0 -0.453125,0 -0.453125,-0.421875 0,-0.40625 0.375,-0.796875 0.796875,-0.796875 0.421875,0 0.609375,0.234375 0.609375,0.84375 z m 0,0"
             id="path7641" />
        </symbol>
      </g>
    </defs>
    <g
       id="id-5d432a9a-1ff4-4774-b500-8591d810eb3a"
       transform="translate(-149.54,-127.734)">
      <g
         style="fill:#000000;fill-opacity:1"
         id="id-b56fa559-c931-45c1-9353-0a6a9b9611bf">
        <g
           id="g930"
           transform="translate(148.712,134.765)">
          <path
             style="stroke:none;stroke-width:0"
             d="m 6.921875,-2.5 c 0,-0.1875 -0.1875,-0.1875 -0.328125,-0.1875 h -5.4375 c -0.140625,0 -0.328125,0 -0.328125,0.1875 0,0.203125 0.1875,0.203125 0.328125,0.203125 h 5.4375 c 0.140625,0 0.328125,0 0.328125,-0.203125 z m 0,0"
             id="id-7badb922-466d-4009-8a6c-c19249a559fd" />
        </g>
      </g>
      <g
         style="fill:#000000;fill-opacity:1"
         id="id-f2b34b58-420e-45ac-a621-5e52cc898ad7">
        <g
           id="g934"
           transform="translate(156.461,134.765)">
          <path
             style="stroke:none;stroke-width:0"
             d="m 6.46875,0 c 0,-0.0625 -0.0625,-0.09375 -0.109375,-0.09375 -0.078125,0 -0.09375,0.046875 -0.125,0.109375 C 6,0.71875 5.421875,0.96875 5.078125,0.96875 4.609375,0.96875 4.46875,0.703125 4.359375,-0.0625 5.90625,-0.640625 7.375,-2.421875 7.375,-4.34375 c 0,-1.609375 -1.0625,-2.6875 -2.546875,-2.6875 -2.140625,0 -4.34375,2.265625 -4.34375,4.59375 0,1.65625 1.125,2.65625 2.5625,2.65625 0.25,0 0.578125,-0.046875 0.96875,-0.15625 -0.03125,0.625 -0.03125,0.640625 -0.03125,0.78125 0,0.3125 0,1.09375 0.828125,1.09375 C 5.984375,1.9375 6.46875,0.109375 6.46875,0 Z M 6.5,-4.671875 c 0,1 -0.515625,3.34375 -2.1875,4.265625 -0.046875,-0.34375 -0.140625,-1.0625 -0.875,-1.0625 -0.53125,0 -1.015625,0.484375 -1.015625,1.015625 0,0.1875 0.0625,0.3125 0.0625,0.3125 -0.78125,-0.3125 -1.125,-1.078125 -1.125,-1.984375 0,-0.6875 0.265625,-2.109375 1.015625,-3.171875 C 3.109375,-6.3125 4.046875,-6.78125 4.78125,-6.78125 5.765625,-6.78125 6.5,-6 6.5,-4.671875 Z M 4.046875,-0.40625 c 0,0.140625 -0.015625,0.15625 -0.109375,0.203125 -0.265625,0.109375 -0.5625,0.171875 -0.84375,0.171875 -0.140625,0 -0.453125,0 -0.453125,-0.421875 0,-0.40625 0.375,-0.796875 0.796875,-0.796875 0.421875,0 0.609375,0.234375 0.609375,0.84375 z m 0,0"
             id="id-9f755b20-0be8-4153-8c67-9347394575ff" />
        </g>
      </g>
    </g>
  </g>
  <g
     id="g874"
     ns2:jacobian_sqrt="0.352778"
     ns2:alignment="middle center"
     ns2:scale="1.00000011338576"
     ns2:preamble="/Users/mbh/Library/Application Support/org.inkscape.Inkscape/config/inkscape/extensions/textext/default_packages.tex"
     ns2:text="$+Q$"
     ns2:pdfconverter="inkscape"
     ns2:texconverter="pdflatex"
     ns2:version="1.3.1"
     transform="matrix(1.3333342,0,0,1.3333342,327.4254,282.2938)">
    <defs
       id="id-a87f0a8a-f7ca-4a91-9025-ca200fe90c56">
      <g
         id="g7729">
        <symbol
           overflow="visible"
           id="symbol7715">
          <path
             style="stroke:none;stroke-width:0"
             d=""
             id="path7713" />
        </symbol>
        <symbol
           overflow="visible"
           id="symbol7719">
          <path
             style="stroke:none;stroke-width:0"
             d="M 7.1875,-2.5 C 7.1875,-2.6875 7,-2.6875 6.859375,-2.6875 h -2.78125 v -2.796875 c 0,-0.140625 0,-0.328125 -0.203125,-0.328125 -0.203125,0 -0.203125,0.1875 -0.203125,0.328125 V -2.6875 h -2.78125 c -0.140625,0 -0.328125,0 -0.328125,0.1875 0,0.203125 0.1875,0.203125 0.328125,0.203125 h 2.78125 V 0.5 c 0,0.140625 0,0.328125 0.203125,0.328125 0.203125,0 0.203125,-0.1875 0.203125,-0.328125 v -2.796875 h 2.78125 c 0.140625,0 0.328125,0 0.328125,-0.203125 z m 0,0"
             id="path7717" />
        </symbol>
        <symbol
           overflow="visible"
           id="symbol7723">
          <path
             style="stroke:none;stroke-width:0"
             d=""
             id="path7721" />
        </symbol>
        <symbol
           overflow="visible"
           id="symbol7727">
          <path
             style="stroke:none;stroke-width:0"
             d="m 6.46875,0 c 0,-0.0625 -0.0625,-0.09375 -0.109375,-0.09375 -0.078125,0 -0.09375,0.046875 -0.125,0.109375 C 6,0.71875 5.421875,0.96875 5.078125,0.96875 4.609375,0.96875 4.46875,0.703125 4.359375,-0.0625 5.90625,-0.640625 7.375,-2.421875 7.375,-4.34375 c 0,-1.609375 -1.0625,-2.6875 -2.546875,-2.6875 -2.140625,0 -4.34375,2.265625 -4.34375,4.59375 0,1.65625 1.125,2.65625 2.5625,2.65625 0.25,0 0.578125,-0.046875 0.96875,-0.15625 -0.03125,0.625 -0.03125,0.640625 -0.03125,0.78125 0,0.3125 0,1.09375 0.828125,1.09375 C 5.984375,1.9375 6.46875,0.109375 6.46875,0 Z M 6.5,-4.671875 c 0,1 -0.515625,3.34375 -2.1875,4.265625 -0.046875,-0.34375 -0.140625,-1.0625 -0.875,-1.0625 -0.53125,0 -1.015625,0.484375 -1.015625,1.015625 0,0.1875 0.0625,0.3125 0.0625,0.3125 -0.78125,-0.3125 -1.125,-1.078125 -1.125,-1.984375 0,-0.6875 0.265625,-2.109375 1.015625,-3.171875 C 3.109375,-6.3125 4.046875,-6.78125 4.78125,-6.78125 5.765625,-6.78125 6.5,-6 6.5,-4.671875 Z M 4.046875,-0.40625 c 0,0.140625 -0.015625,0.15625 -0.109375,0.203125 -0.265625,0.109375 -0.5625,0.171875 -0.84375,0.171875 -0.140625,0 -0.453125,0 -0.453125,-0.421875 0,-0.40625 0.375,-0.796875 0.796875,-0.796875 0.421875,0 0.609375,0.234375 0.609375,0.84375 z m 0,0"
             id="path7725" />
        </symbol>
      </g>
    </defs>
    <g
       id="id-fa84eb59-f8c3-495a-a080-abe59b9de61b"
       transform="translate(-149.275,-127.734)">
      <g
         style="fill:#000000;fill-opacity:1"
         id="id-d7b7ed66-59a5-4585-afcb-d0ef0c9ab0e7">
        <g
           id="g866"
           transform="translate(148.712,134.765)">
          <path
             style="stroke:none;stroke-width:0"
             d="M 7.1875,-2.5 C 7.1875,-2.6875 7,-2.6875 6.859375,-2.6875 h -2.78125 v -2.796875 c 0,-0.140625 0,-0.328125 -0.203125,-0.328125 -0.203125,0 -0.203125,0.1875 -0.203125,0.328125 V -2.6875 h -2.78125 c -0.140625,0 -0.328125,0 -0.328125,0.1875 0,0.203125 0.1875,0.203125 0.328125,0.203125 h 2.78125 V 0.5 c 0,0.140625 0,0.328125 0.203125,0.328125 0.203125,0 0.203125,-0.1875 0.203125,-0.328125 v -2.796875 h 2.78125 c 0.140625,0 0.328125,0 0.328125,-0.203125 z m 0,0"
             id="id-7326f210-cf7d-4d06-81ac-758fdf98bdc5" />
        </g>
      </g>
      <g
         style="fill:#000000;fill-opacity:1"
         id="id-8b51f224-7333-4d78-afbe-13f637ca3df6">
        <g
           id="g870"
           transform="translate(156.461,134.765)">
          <path
             style="stroke:none;stroke-width:0"
             d="m 6.46875,0 c 0,-0.0625 -0.0625,-0.09375 -0.109375,-0.09375 -0.078125,0 -0.09375,0.046875 -0.125,0.109375 C 6,0.71875 5.421875,0.96875 5.078125,0.96875 4.609375,0.96875 4.46875,0.703125 4.359375,-0.0625 5.90625,-0.640625 7.375,-2.421875 7.375,-4.34375 c 0,-1.609375 -1.0625,-2.6875 -2.546875,-2.6875 -2.140625,0 -4.34375,2.265625 -4.34375,4.59375 0,1.65625 1.125,2.65625 2.5625,2.65625 0.25,0 0.578125,-0.046875 0.96875,-0.15625 -0.03125,0.625 -0.03125,0.640625 -0.03125,0.78125 0,0.3125 0,1.09375 0.828125,1.09375 C 5.984375,1.9375 6.46875,0.109375 6.46875,0 Z M 6.5,-4.671875 c 0,1 -0.515625,3.34375 -2.1875,4.265625 -0.046875,-0.34375 -0.140625,-1.0625 -0.875,-1.0625 -0.53125,0 -1.015625,0.484375 -1.015625,1.015625 0,0.1875 0.0625,0.3125 0.0625,0.3125 -0.78125,-0.3125 -1.125,-1.078125 -1.125,-1.984375 0,-0.6875 0.265625,-2.109375 1.015625,-3.171875 C 3.109375,-6.3125 4.046875,-6.78125 4.78125,-6.78125 5.765625,-6.78125 6.5,-6 6.5,-4.671875 Z M 4.046875,-0.40625 c 0,0.140625 -0.015625,0.15625 -0.109375,0.203125 -0.265625,0.109375 -0.5625,0.171875 -0.84375,0.171875 -0.140625,0 -0.453125,0 -0.453125,-0.421875 0,-0.40625 0.375,-0.796875 0.796875,-0.796875 0.421875,0 0.609375,0.234375 0.609375,0.84375 z m 0,0"
             id="id-9d7c5b0e-6dfa-4c21-8abb-474484c59886" />
        </g>
      </g>
    </g>
  </g>
</svg>
