<?xml version="1.0" encoding="UTF-8" standalone="no"?>
<svg
   xmlns:ns14="http://www.iki.fi/pav/software/textext/"
   xmlns:dc="http://purl.org/dc/elements/1.1/"
   xmlns:cc="http://creativecommons.org/ns#"
   xmlns:rdf="http://www.w3.org/1999/02/22-rdf-syntax-ns#"
   xmlns:svg="http://www.w3.org/2000/svg"
   xmlns="http://www.w3.org/2000/svg"
   xmlns:sodipodi="http://sodipodi.sourceforge.net/DTD/sodipodi-0.dtd"
   xmlns:inkscape="http://www.inkscape.org/namespaces/inkscape"
   sodipodi:docname="edlkeppnin-hitta.svg"
   inkscape:version="1.0 (4035a4f, 2020-05-01)"
   id="svg8"
   version="1.1"
   viewBox="0 0 133.62881 57.120007"
   height="57.120007mm"
   width="133.62881mm">
  <defs
     id="defs2">
    <marker
       inkscape:isstock="true"
       style="overflow:visible"
       id="Arrow1Mend"
       refX="0"
       refY="0"
       orient="auto"
       inkscape:stockid="Arrow1Mend">
      <path
         transform="matrix(-0.4,0,0,-0.4,-4,0)"
         style="fill:#000000;fill-opacity:1;fill-rule:evenodd;stroke:#000000;stroke-width:1pt;stroke-opacity:1"
         d="M 0,0 5,-5 -12.5,0 5,5 Z"
         id="path3030" />
    </marker>
    <marker
       inkscape:isstock="true"
       style="overflow:visible"
       id="Arrow2Lend"
       refX="0"
       refY="0"
       orient="auto"
       inkscape:stockid="Arrow2Lend">
      <path
         transform="matrix(-1.1,0,0,-1.1,-1.1,0)"
         d="M 8.7185878,4.0337352 -2.2072895,0.01601326 8.7185884,-4.0017078 c -1.7454984,2.3720609 -1.7354408,5.6174519 -6e-7,8.035443 z"
         style="fill:#000000;fill-opacity:1;fill-rule:evenodd;stroke:#000000;stroke-width:0.625;stroke-linejoin:round;stroke-opacity:1"
         id="path3042" />
    </marker>
    <marker
       inkscape:isstock="true"
       style="overflow:visible"
       id="Arrow1Lend"
       refX="0"
       refY="0"
       orient="auto"
       inkscape:stockid="Arrow1Lend">
      <path
         transform="matrix(-0.8,0,0,-0.8,-10,0)"
         style="fill:#000000;fill-opacity:1;fill-rule:evenodd;stroke:#000000;stroke-width:1pt;stroke-opacity:1"
         d="M 0,0 5,-5 -12.5,0 5,5 Z"
         id="path3024" />
    </marker>
    <marker
       inkscape:isstock="true"
       style="overflow:visible"
       id="StopL"
       refX="0"
       refY="0"
       orient="auto"
       inkscape:stockid="StopL">
      <path
         transform="scale(0.8)"
         style="fill:none;fill-opacity:0.75;fill-rule:evenodd;stroke:#000000;stroke-width:1pt;stroke-opacity:1"
         d="M 0,5.65 V -5.65"
         id="path3190" />
    </marker>
    <marker
       inkscape:stockid="StopL"
       orient="auto"
       refY="0"
       refX="0"
       id="StopL-0"
       style="overflow:visible"
       inkscape:isstock="true">
      <path
         id="path3190-6"
         d="M 0,5.65 V -5.65"
         style="fill:none;fill-opacity:0.75;fill-rule:evenodd;stroke:#000000;stroke-width:1pt;stroke-opacity:1"
         transform="scale(0.8)" />
    </marker>
    <marker
       inkscape:stockid="StopL"
       orient="auto"
       refY="0"
       refX="0"
       id="marker3451"
       style="overflow:visible"
       inkscape:isstock="true">
      <path
         id="path3449"
         d="M 0,5.65 V -5.65"
         style="fill:none;fill-opacity:0.75;fill-rule:evenodd;stroke:#000000;stroke-width:1pt;stroke-opacity:1"
         transform="scale(0.8)" />
    </marker>
    <marker
       inkscape:isstock="true"
       style="overflow:visible"
       id="StopL-0-1"
       refX="0"
       refY="0"
       orient="auto"
       inkscape:stockid="StopL">
      <path
         transform="scale(0.8)"
         style="fill:none;fill-opacity:0.75;fill-rule:evenodd;stroke:#000000;stroke-width:1pt;stroke-opacity:1"
         d="M 0,5.65 V -5.65"
         id="path3190-6-1" />
    </marker>
    <marker
       inkscape:isstock="true"
       style="overflow:visible"
       id="marker3570"
       refX="0"
       refY="0"
       orient="auto"
       inkscape:stockid="StopL">
      <path
         transform="scale(0.8)"
         style="fill:none;fill-opacity:0.75;fill-rule:evenodd;stroke:#000000;stroke-width:1pt;stroke-opacity:1"
         d="M 0,5.65 V -5.65"
         id="path3568" />
    </marker>
    <marker
       inkscape:isstock="true"
       style="overflow:visible"
       id="StopL-0-3"
       refX="0"
       refY="0"
       orient="auto"
       inkscape:stockid="StopL">
      <path
         transform="scale(0.8)"
         style="fill:none;fill-opacity:0.75;fill-rule:evenodd;stroke:#000000;stroke-width:1pt;stroke-opacity:1"
         d="M 0,5.65 V -5.65"
         id="path3190-6-4" />
    </marker>
    <marker
       inkscape:isstock="true"
       style="overflow:visible"
       id="marker3994"
       refX="0"
       refY="0"
       orient="auto"
       inkscape:stockid="StopL">
      <path
         transform="scale(0.8)"
         style="fill:none;fill-opacity:0.75;fill-rule:evenodd;stroke:#000000;stroke-width:1pt;stroke-opacity:1"
         d="M 0,5.65 V -5.65"
         id="path3992" />
    </marker>
    <g
       id="id-59b5d0e7-4288-46e9-9ce1-a1c043a0a32e-0">
      <symbol
         overflow="visible"
         id="id-86531171-5d44-40a3-9b91-41a888922f13-3">
        <path
           style="stroke:none;stroke-width:0"
           d=""
           id="id-90fda567-184d-43b8-83f7-53f52cad626a-9" />
      </symbol>
      <symbol
         overflow="visible"
         id="id-0355b4a1-1c89-4508-bcbb-134b98501208-8">
        <path
           style="stroke:none;stroke-width:0"
           d="M 8.78125,-0.203125 C 8.78125,-0.3125 8.6875,-0.3125 8.5,-0.3125 c -0.359375,0 -0.640625,0 -0.640625,-0.171875 0,-0.046875 0,-0.0625 0.046875,-0.25 l 1.328125,-5.3125 C 9.328125,-6.40625 9.34375,-6.5 10.09375,-6.5 c 0.21875,0 0.3125,0 0.3125,-0.203125 0,-0.109375 -0.09375,-0.109375 -0.265625,-0.109375 h -1.3125 c -0.265625,0 -0.28125,0 -0.390625,0.1875 L 4.796875,-0.9375 4.015625,-6.578125 C 3.984375,-6.8125 3.96875,-6.8125 3.703125,-6.8125 H 2.34375 c -0.1875,0 -0.296875,0 -0.296875,0.1875 0,0.125 0.09375,0.125 0.28125,0.125 0.140625,0 0.3125,0.015625 0.4375,0.015625 0.15625,0.03125 0.21875,0.046875 0.21875,0.171875 0,0.03125 -0.015625,0.0625 -0.046875,0.1875 l -1.265625,5.0625 c -0.09375,0.40625 -0.265625,0.71875 -1.078125,0.75 -0.046875,0 -0.171875,0.015625 -0.171875,0.1875 0,0.09375 0.0625,0.125 0.140625,0.125 0.3125,0 0.65625,-0.03125 1,-0.03125 C 1.890625,-0.03125 2.25,0 2.578125,0 c 0.046875,0 0.1875,0 0.1875,-0.203125 0,-0.109375 -0.109375,-0.109375 -0.1875,-0.109375 -0.5625,0 -0.671875,-0.203125 -0.671875,-0.4375 0,-0.0625 0,-0.125 0.03125,-0.234375 L 3.296875,-6.40625 H 3.3125 l 0.859375,6.171875 C 4.1875,-0.109375 4.203125,0 4.3125,0 4.421875,0 4.484375,-0.109375 4.53125,-0.171875 l 4.03125,-6.3125 h 0.015625 l -1.4375,5.703125 c -0.09375,0.390625 -0.109375,0.46875 -0.90625,0.46875 -0.15625,0 -0.265625,0 -0.265625,0.1875 C 5.96875,0 6.078125,0 6.109375,0 L 7.34375,-0.03125 C 7.75,-0.03125 8.1875,0 8.59375,0 c 0.0625,0 0.1875,0 0.1875,-0.203125 z m 0,0"
           id="id-2d55fc20-8ba9-409a-8e73-224c6775176d-6" />
      </symbol>
    </g>
    <marker
       inkscape:stockid="StopL"
       orient="auto"
       refY="0"
       refX="0"
       id="StopL-0-3-7"
       style="overflow:visible"
       inkscape:isstock="true">
      <path
         id="path3190-6-4-6"
         d="M 0,5.65 V -5.65"
         style="fill:none;fill-opacity:0.75;fill-rule:evenodd;stroke:#000000;stroke-width:1pt;stroke-opacity:1"
         transform="scale(0.8)" />
    </marker>
    <marker
       inkscape:stockid="StopL"
       orient="auto"
       refY="0"
       refX="0"
       id="marker2179"
       style="overflow:visible"
       inkscape:isstock="true">
      <path
         id="path2177"
         d="M 0,5.65 V -5.65"
         style="fill:none;fill-opacity:0.75;fill-rule:evenodd;stroke:#000000;stroke-width:1pt;stroke-opacity:1"
         transform="scale(0.8)" />
    </marker>
  </defs>
  <sodipodi:namedview
     inkscape:window-maximized="0"
     inkscape:window-y="25"
     inkscape:window-x="95"
     inkscape:window-height="847"
     inkscape:window-width="1252"
     showgrid="false"
     inkscape:document-rotation="0"
     inkscape:current-layer="layer1"
     inkscape:document-units="mm"
     inkscape:cy="112.39038"
     inkscape:cx="225.07779"
     inkscape:zoom="1.188313"
     inkscape:pageshadow="2"
     inkscape:pageopacity="0.0"
     borderopacity="1.0"
     bordercolor="#666666"
     pagecolor="#ffffff"
     id="base" />
  <metadata
     id="metadata5">
    <rdf:RDF>
      <cc:Work
         rdf:about="">
        <dc:format>image/svg+xml</dc:format>
        <dc:type
           rdf:resource="http://purl.org/dc/dcmitype/StillImage" />
        <dc:title></dc:title>
      </cc:Work>
    </rdf:RDF>
  </metadata>
  <g
     transform="translate(-15.370849,-58.970766)"
     id="layer1"
     inkscape:groupmode="layer"
     inkscape:label="Layer 1">
    <path
       sodipodi:nodetypes="cc"
       id="path837"
       d="M 20.289046,80.591294 H 91.837039"
       style="fill:none;stroke:#000000;stroke-width:0.205688px;stroke-linecap:butt;stroke-linejoin:miter;stroke-opacity:1" />
    <path
       sodipodi:nodetypes="cc"
       id="path841"
       d="M 91.777218,80.591294 V 105.29444"
       style="fill:none;stroke:#000000;stroke-width:0.205688px;stroke-linecap:butt;stroke-linejoin:miter;stroke-opacity:1" />
    <path
       style="fill:none;stroke:#000000;stroke-width:0.277394;stroke-linecap:butt;stroke-linejoin:miter;stroke-miterlimit:10;stroke-opacity:1"
       d="m 59.890411,69.87972 c -0.150494,2.057754 -1.047055,3.709062 -2.128827,3.709062 -1.081756,0 -1.978402,-1.651308 -2.128812,-3.709062 -0.150493,-2.060312 0.448312,-3.711621 1.229272,-3.711621 0.780951,0 1.379693,1.651309 1.229283,3.711621 -0.150494,2.057754 -1.047054,3.709062 -2.128833,3.709062 -1.08175,0 -1.978394,-1.651308 -2.128804,-3.709062 -0.150495,-2.060312 0.448311,-3.711621 1.229262,-3.711621 0.78385,0 1.379696,1.651309 1.232183,3.711621 -0.150496,2.057754 -1.047056,3.709062 -2.128827,3.709062 -1.08175,0 -1.981291,-1.651308 -2.128806,-3.709062 -0.150494,-2.060312 0.445416,-3.711621 1.229264,-3.711621 0.780952,0 1.379695,1.651309 1.229286,3.711621 -0.150494,2.057754 -1.047057,3.709062 -2.128828,3.709062 -1.08175,0 -1.978416,-1.651308 -2.128806,-3.709062 -0.150494,-2.060312 0.448313,-3.711621 1.229264,-3.711621 0.780953,0 1.379695,1.651309 1.229286,3.711621 -0.150494,2.057754 -1.047056,3.709062 -2.128827,3.709062 -1.081751,0 -1.978417,-1.651308 -2.128806,-3.709062 -0.150494,-2.060312 0.448312,-3.711621 1.229263,-3.711621 0.783849,0 1.379696,1.651309 1.229285,3.711621 -0.147555,2.057754 -1.047053,3.709062 -2.125929,3.709062 -1.081771,0 -1.981313,-1.651308 -2.128826,-3.709062 -0.150495,-2.060312 0.445436,-3.711621 1.229285,-3.711621 0.780951,0 1.379695,1.651309 1.229284,3.711621 -0.150493,2.057754 -1.047055,3.709062 -2.128826,3.709062 -1.081772,0 -1.978418,-1.651308 -2.128827,-3.709062 -0.150494,-2.060312 0.448333,-3.711621 1.229285,-3.711621 0.780951,0 1.379695,1.651309 1.229284,3.711621 -0.150493,2.057754 -1.047054,3.709062 -2.128826,3.709062 -1.081771,0 -1.978418,-1.651308 -2.128806,-3.709062 -0.150494,-2.060312 0.448312,-3.711621 1.229264,-3.711621 0.783849,0 1.379695,1.651309 1.229285,3.711621 -0.147556,2.057754 -1.047055,3.709062 -2.128827,3.709062 -1.08175,0 -1.978415,-1.651308 -2.125927,-3.709062 -0.150493,-2.060312 0.445433,-3.711621 1.229281,-3.711621 0.780951,0 1.379673,1.651309 1.229285,3.711621 -0.150495,2.057754 -1.047056,3.709062 -2.128827,3.709062 -1.081769,0 -1.978417,-1.651308 -2.128828,-3.709062 -0.150493,-2.060312 0.448336,-3.711621 1.229286,-3.711621 0.780952,0 1.379695,1.651309 1.229285,3.711621 -0.150495,2.057754 -1.047054,3.709062 -2.128827,3.709062 -1.081769,0 -1.978417,-1.651308 -2.128828,-3.709062 -0.150492,-2.060312 0.448334,-3.711621 1.229289,-3.711621 0.783847,0 1.379694,1.651309 1.229285,3.711621 -0.147556,2.057754 -1.047057,3.709062 -2.128827,3.709062 -1.081774,0 -1.978417,-1.651308 -2.12593,-3.709062 -0.150494,-2.060312 0.445436,-3.711621 1.229284,-3.711621 0.78095,0 1.379674,1.651309 1.229285,3.711621 -0.150493,2.057754 -1.047057,3.709062 -2.128828,3.709062 -1.08177,0 -1.978417,-1.651308 -2.128827,-3.709062 -0.150494,-2.060312 0.448331,-3.711621 1.229284,-3.711621 0.780953,0 1.379675,1.651309 1.229286,3.711621 -0.150494,2.057754 -1.047054,3.709062 -2.128827,3.709062 -1.081774,0 -1.978417,-1.651308 -2.128827,-3.709062 -0.150494,-2.060312 0.448334,-3.711621 1.229287,-3.711621 0.783848,0 1.379672,1.651309 1.229286,3.711621 -0.147556,2.057754 -1.047056,3.709062 -2.128828,3.709062 -1.081773,0 -1.978416,-1.651308 -2.128826,-3.709062 -0.147554,-2.060312 0.448333,-3.711621 1.232178,-3.711621 0.780953,0 1.379676,1.651309 1.229268,3.711621 -0.150495,2.057754 -1.047057,3.709062 -2.128808,3.709062 -1.081771,0 -1.978417,-1.651308 -2.128827,-3.709062 -0.150493,-2.060312 0.448331,-3.711621 1.229285,-3.711621 0.780951,0 1.379674,1.651309 1.229264,3.711621 -0.150493,2.057754 -1.047053,3.709062 -2.128806,3.709062 -1.081771,0 -1.978414,-1.651308 -2.128826,-3.709062 -0.150494,-2.060312 0.448333,-3.711621 1.229287,-3.711621 0.783844,0 1.379671,1.651309 1.229262,3.711621 -0.147556,2.057754 -1.047037,3.709062 -2.128804,3.709062 -1.081774,0 -1.978419,-1.651308 -2.128829,-3.709062 -0.147555,-2.060312 0.448333,-3.711621 1.23218,-3.711621 0.780954,0 1.376779,1.651309 1.229267,3.711621 -0.150494,2.057754 -1.047057,3.709062 -2.128806,3.709062 -1.081772,0 -1.978418,-1.651308 -2.128828,-3.709062 -0.150493,-2.060312 0.448333,-3.711621 1.229285,-3.711621 0.780952,0 1.379674,1.651309 1.229264,3.711621 -0.150493,2.057754 -1.047056,3.709062 -2.128805,3.709062 -1.081772,0 -1.978418,-1.651308 -2.128828,-3.709062 h -0.97185"
       id="path7229-3" />
    <path
       id="path1498"
       d="M 20.289046,80.591294 V 60.181504"
       style="fill:none;stroke:#000000;stroke-width:0.205688px;stroke-linecap:butt;stroke-linejoin:miter;stroke-opacity:1" />
    <rect
       y="103.68508"
       x="126.78836"
       height="1.5828769"
       width="22.055111"
       id="rect1500"
       style="fill:none;stroke:#000000;stroke-width:0.312397;stroke-miterlimit:4;stroke-dasharray:none" />
    <rect
       y="100.05186"
       x="130.87561"
       height="3.6758516"
       width="13.478124"
       id="rect1504"
       style="fill:none;stroke:#000000;stroke-width:0.388701;stroke-miterlimit:4;stroke-dasharray:none" />
    <path
       sodipodi:nodetypes="cc"
       id="path1523"
       d="M 91.777218,105.29444 H 140.9191"
       style="fill:none;stroke:#000000;stroke-width:0.205688px;stroke-linecap:butt;stroke-linejoin:miter;stroke-opacity:1" />
    <path
       sodipodi:nodetypes="cc"
       id="path1975"
       d="M 77.435781,69.581481 H 92.150598"
       style="fill:none;stroke:#000000;stroke-width:0.25;stroke-linecap:butt;stroke-linejoin:miter;stroke-miterlimit:4;stroke-dasharray:1.5, 1.5;stroke-dashoffset:0;stroke-opacity:1" />
    <path
       style="fill:none;fill-opacity:1;stroke:#000000;stroke-width:0.25;stroke-miterlimit:4;stroke-dasharray:1.5, 1.5;stroke-dashoffset:0"
       d="m 92.029478,69.665269 c 0.393997,0 0.788504,0.0064 1.182491,0.01896 0.394,0.01271 0.787997,0.03162 1.181984,0.05689 0.393977,0.02534 0.788497,0.05694 1.182484,0.09489 0.393997,0.03793 0.787974,0.08216 1.181974,0.132749 0.393997,0.05059 0.788504,0.10748 1.182491,0.170733 0.39399,0.0632 0.787987,0.132749 1.181974,0.208661 0.393997,0.07586 0.788497,0.158068 1.182504,0.246524 0.394,0.08852 0.78797,0.183397 1.18197,0.284515 0.394,0.101175 0.78851,0.208661 1.1825,0.322502 0.394,0.113786 0.78799,0.233925 1.18198,0.360368 0.394,0.126445 0.78851,0.259251 1.18249,0.398295 0.39401,0.139104 0.788,0.284514 1.18199,0.436283 0.394,0.151713 0.78851,0.309778 1.1825,0.474149 0.39399,0.16444 0.788,0.335104 1.182,0.512137 0.39398,0.177034 0.78849,0.360431 1.18248,0.550064 0.394,0.189697 0.78798,0.385694 1.18198,0.587992 0.39399,0.20236 0.78852,0.411021 1.18249,0.625981 0.394,0.214959 0.788,0.436222 1.18199,0.663845 0.394,0.227624 0.78851,0.461547 1.18251,0.701772 0.394,0.240286 0.78798,0.486874 1.18198,0.739761 0.39399,0.252886 0.78851,0.512137 1.18249,0.777687 0.39401,0.26555 0.78799,0.537402 1.18199,0.815616 0.39398,0.27815 0.7885,0.562664 1.1825,0.85354 0.39399,0.290815 0.78799,0.587994 1.18198,0.89147 0.39452,0.303604 0.78851,0.613008 1.18249,0.929273 0.39399,0.316266 0.788,0.63877 1.182,0.967511 0.3945,0.328734 0.7885,0.663716 1.18249,1.005556 0.39399,0.341218 0.78798,0.688676 1.18198,1.042993 0.3945,0.353687 0.78851,0.714243 1.1825,1.081038 0.39399,0.366795 0.78799,0.739825 1.18198,1.11909 0.39451,0.37927 0.7885,0.76478 1.18251,1.157149 0.394,0.391741 0.78798,0.790348 1.18197,1.194566 0.39452,0.404847 0.78852,0.815931 1.1825,1.233248 0.394,0.417321 0.78799,0.840882 1.18199,1.270675 0.39449,0.429801 0.78849,0.866454 1.18248,1.30873 0.394,0.442892 0.788,0.891405 1.18199,1.346775 0.39452,0.455377 0.78851,0.916981 1.1825,1.384836 0.39399,0.46784 0.78799,0.94193 1.18199,1.422253 0.39451,0.480944 0.7885,0.967508 1.18249,1.460927"
       title="-0.13*x**2"
       id="path2758" />
    <path
       sodipodi:nodetypes="cc"
       id="path3019"
       d="M 96.606111,81.062252 V 104.59981"
       style="fill:none;stroke:#000000;stroke-width:0.264583px;stroke-linecap:butt;stroke-linejoin:miter;stroke-opacity:1;marker-start:url(#StopL);marker-end:url(#StopL)" />
    <path
       sodipodi:nodetypes="cc"
       id="path3019-0-8"
       d="M 91.171513,84.67289 H 59.164632"
       style="fill:none;stroke:#000000;stroke-width:0.264583px;stroke-linecap:butt;stroke-linejoin:miter;stroke-opacity:1;marker-start:url(#StopL-0-3);marker-end:url(#StopL-0-3)" />
    <path
       id="path4271"
       d="m 15.431565,62.690734 4.857481,-2.509232"
       style="fill:none;stroke:#000000;stroke-width:0.264583px;stroke-linecap:butt;stroke-linejoin:miter;stroke-opacity:1" />
    <path
       style="fill:none;stroke:#000000;stroke-width:0.264583px;stroke-linecap:butt;stroke-linejoin:miter;stroke-opacity:1"
       d="m 15.431565,65.865736 4.857481,-2.509232"
       id="path4271-3" />
    <path
       style="fill:none;stroke:#000000;stroke-width:0.264583px;stroke-linecap:butt;stroke-linejoin:miter;stroke-opacity:1"
       d="m 15.431565,68.511571 4.857481,-2.509232"
       id="path4271-6" />
    <path
       id="path4271-3-6"
       d="M 15.431565,71.686573 20.289046,69.17734"
       style="fill:none;stroke:#000000;stroke-width:0.264583px;stroke-linecap:butt;stroke-linejoin:miter;stroke-opacity:1" />
    <path
       style="fill:none;stroke:#000000;stroke-width:0.264583px;stroke-linecap:butt;stroke-linejoin:miter;stroke-opacity:1"
       d="m 15.431565,74.332407 4.857481,-2.509232"
       id="path4271-8" />
    <path
       id="path4271-3-8"
       d="m 15.431565,77.507409 4.857481,-2.509232"
       style="fill:none;stroke:#000000;stroke-width:0.264583px;stroke-linecap:butt;stroke-linejoin:miter;stroke-opacity:1" />
    <path
       id="path4271-6-4"
       d="m 15.431565,80.153244 4.857481,-2.509232"
       style="fill:none;stroke:#000000;stroke-width:0.264583px;stroke-linecap:butt;stroke-linejoin:miter;stroke-opacity:1" />
    <rect
       style="fill:none;stroke:#000000;stroke-width:0.35;stroke-miterlimit:4;stroke-dasharray:none"
       id="rect835-9"
       width="16.332872"
       height="16.332872"
       x="60.46571"
       y="63.549183"
       transform="rotate(0.36282579)" />
    <path
       style="fill:none;stroke:#000000;stroke-width:0.264583px;stroke-linecap:butt;stroke-linejoin:miter;stroke-opacity:1;marker-start:url(#StopL-0-3-7);marker-end:url(#StopL-0-3-7)"
       d="M 140.10201,110.89129 H 91.648329"
       id="path3019-0-8-0"
       sodipodi:nodetypes="cc" />
    <g
       transform="matrix(0.529167,0,0,0.529167,73.1064,86.1979)"
       ns14:version="1.3.1"
       ns14:texconverter="pdflatex"
       ns14:pdfconverter="inkscape"
       ns14:text="$x$"
       ns14:preamble="/Users/mbh/Library/Application Support/org.inkscape.Inkscape/config/inkscape/extensions/textext/default_packages.tex"
       ns14:scale="1.5"
       ns14:alignment="middle center"
       ns14:inkscapeversion="1.0"
       ns14:jacobian_sqrt="0.529167"
       id="g4256">
      <defs
         id="id-d9bcceac-a3f5-43b9-b43d-01603b14b5d6">
        <g
           id="id-96e3a93a-f843-4d05-b552-e0bc8b278f82">
          <symbol
             id="id-b8b6caf2-66fe-458e-a3c3-906402350e26"
             overflow="visible">
            <path
               id="id-1e956022-058d-4792-8fe2-95dbefa6e798"
               d=""
               style="stroke:none" />
          </symbol>
          <symbol
             id="id-b565105e-cc69-4787-a6ef-b9779d5a7c7f"
             overflow="visible">
            <path
               id="id-25b4b898-9de6-4542-af4c-358d44b77344"
               d="m 4.9375,-1.421875 c 0,-0.109375 -0.078125,-0.109375 -0.109375,-0.109375 -0.09375,0 -0.109375,0.046875 -0.140625,0.109375 -0.328125,1.078125 -1,1.3125 -1.3125,1.3125 -0.390625,0 -0.546875,-0.3125 -0.546875,-0.65625 0,-0.21875 0.046875,-0.4375 0.15625,-0.875 l 0.34375,-1.375 C 3.390625,-3.265625 3.625,-4.1875 4.3125,-4.1875 c 0.046875,0 0.296875,0 0.5,0.125 C 4.53125,-4 4.34375,-3.765625 4.34375,-3.515625 c 0,0.15625 0.109375,0.34375 0.375,0.34375 0.21875,0 0.53125,-0.171875 0.53125,-0.578125 0,-0.515625 -0.578125,-0.65625 -0.921875,-0.65625 -0.578125,0 -0.921875,0.53125 -1.046875,0.75 -0.25,-0.65625 -0.78125,-0.75 -1.078125,-0.75 -1.03125,0 -1.609375,1.28125 -1.609375,1.53125 0,0.109375 0.125,0.109375 0.125,0.109375 0.078125,0 0.109375,-0.03125 0.125,-0.109375 0.34375,-1.0625 1,-1.3125 1.34375,-1.3125 0.1875,0 0.53125,0.09375 0.53125,0.671875 0,0.3125 -0.171875,0.96875 -0.53125,2.375 -0.15625,0.609375 -0.515625,1.03125 -0.953125,1.03125 -0.0625,0 -0.28125,0 -0.5,-0.125 0.25,-0.0625 0.46875,-0.265625 0.46875,-0.546875 0,-0.265625 -0.21875,-0.34375 -0.359375,-0.34375 -0.3125,0 -0.546875,0.25 -0.546875,0.578125 0,0.453125 0.484375,0.65625 0.921875,0.65625 0.671875,0 1.03125,-0.703125 1.046875,-0.75 0.125,0.359375 0.484375,0.75 1.078125,0.75 1.03125,0 1.59375,-1.28125 1.59375,-1.53125 z m 0,0"
               style="stroke:none" />
          </symbol>
        </g>
      </defs>
      <g
         transform="translate(-149.009,-130.359)"
         id="id-57ab746e-ca0c-428d-88c8-412505c95e92">
        <g
           id="id-a8a8e803-d928-46fd-85ac-cf0ade9fd2bd"
           style="fill:#000000;fill-opacity:1">
          <g
             transform="translate(148.712,134.765)"
             id="g2724">
            <path
               id="id-c50e5980-4b34-402d-b8c1-cd9b64831394"
               d="m 4.9375,-1.421875 c 0,-0.109375 -0.078125,-0.109375 -0.109375,-0.109375 -0.09375,0 -0.109375,0.046875 -0.140625,0.109375 -0.328125,1.078125 -1,1.3125 -1.3125,1.3125 -0.390625,0 -0.546875,-0.3125 -0.546875,-0.65625 0,-0.21875 0.046875,-0.4375 0.15625,-0.875 l 0.34375,-1.375 C 3.390625,-3.265625 3.625,-4.1875 4.3125,-4.1875 c 0.046875,0 0.296875,0 0.5,0.125 C 4.53125,-4 4.34375,-3.765625 4.34375,-3.515625 c 0,0.15625 0.109375,0.34375 0.375,0.34375 0.21875,0 0.53125,-0.171875 0.53125,-0.578125 0,-0.515625 -0.578125,-0.65625 -0.921875,-0.65625 -0.578125,0 -0.921875,0.53125 -1.046875,0.75 -0.25,-0.65625 -0.78125,-0.75 -1.078125,-0.75 -1.03125,0 -1.609375,1.28125 -1.609375,1.53125 0,0.109375 0.125,0.109375 0.125,0.109375 0.078125,0 0.109375,-0.03125 0.125,-0.109375 0.34375,-1.0625 1,-1.3125 1.34375,-1.3125 0.1875,0 0.53125,0.09375 0.53125,0.671875 0,0.3125 -0.171875,0.96875 -0.53125,2.375 -0.15625,0.609375 -0.515625,1.03125 -0.953125,1.03125 -0.0625,0 -0.28125,0 -0.5,-0.125 0.25,-0.0625 0.46875,-0.265625 0.46875,-0.546875 0,-0.265625 -0.21875,-0.34375 -0.359375,-0.34375 -0.3125,0 -0.546875,0.25 -0.546875,0.578125 0,0.453125 0.484375,0.65625 0.921875,0.65625 0.671875,0 1.03125,-0.703125 1.046875,-0.75 0.125,0.359375 0.484375,0.75 1.078125,0.75 1.03125,0 1.59375,-1.28125 1.59375,-1.53125 z m 0,0"
               style="stroke:none" />
          </g>
        </g>
      </g>
    </g>
    <g
       transform="matrix(0.529167,0,0,0.529167,98.0821,89.8389)"
       ns14:version="1.3.1"
       ns14:texconverter="pdflatex"
       ns14:pdfconverter="inkscape"
       ns14:text="$h$"
       ns14:preamble="/Users/mbh/Library/Application Support/org.inkscape.Inkscape/config/inkscape/extensions/textext/default_packages.tex"
       ns14:scale="1.5"
       ns14:alignment="middle center"
       ns14:inkscapeversion="1.0"
       ns14:jacobian_sqrt="0.529167"
       id="g3412">
      <defs
         id="id-4baa46d2-14ac-4ef8-8180-b62a526fc453">
        <g
           id="id-702a36ae-4ff8-4762-98ba-4dbe5dae299a">
          <symbol
             id="id-859925a5-7ba0-41db-8f12-2d0936d94b7e"
             overflow="visible">
            <path
               id="id-e407b2b2-55d7-4b8f-8700-ef3fd93481fe"
               d=""
               style="stroke:none" />
          </symbol>
          <symbol
             id="id-1e98d182-36bb-46cd-b887-3658f6a8da6d"
             overflow="visible">
            <path
               id="id-e3b1e43e-8302-4c3f-88ff-d6f88d7af689"
               d="m 5.4375,-1.421875 c 0,-0.109375 -0.078125,-0.109375 -0.109375,-0.109375 -0.109375,0 -0.109375,0.03125 -0.15625,0.1875 -0.140625,0.53125 -0.46875,1.234375 -1.015625,1.234375 -0.171875,0 -0.234375,-0.09375 -0.234375,-0.328125 0,-0.25 0.078125,-0.484375 0.171875,-0.703125 0.15625,-0.4375 0.609375,-1.625 0.609375,-2.203125 0,-0.640625 -0.390625,-1.0625 -1.140625,-1.0625 -0.625,0 -1.109375,0.3125 -1.484375,0.765625 L 2.859375,-6.8125 c 0,0 0,-0.109375 -0.125,-0.109375 -0.234375,0 -0.953125,0.078125 -1.21875,0.109375 -0.078125,0 -0.1875,0.015625 -0.1875,0.1875 0,0.125 0.09375,0.125 0.234375,0.125 0.484375,0 0.5,0.0625 0.5,0.171875 L 2.03125,-6.125 0.59375,-0.390625 c -0.046875,0.140625 -0.046875,0.15625 -0.046875,0.21875 0,0.234375 0.203125,0.28125 0.296875,0.28125 0.15625,0 0.3125,-0.125 0.359375,-0.265625 l 0.1875,-0.75 0.21875,-0.890625 C 1.671875,-2.03125 1.734375,-2.25 1.78125,-2.46875 1.796875,-2.53125 1.890625,-2.859375 1.890625,-2.921875 1.921875,-3.015625 2.234375,-3.5625 2.578125,-3.84375 2.796875,-4 3.09375,-4.1875 3.53125,-4.1875 c 0.421875,0 0.53125,0.34375 0.53125,0.703125 0,0.53125 -0.375,1.625 -0.609375,2.234375 C 3.375,-1.03125 3.3125,-0.90625 3.3125,-0.703125 c 0,0.46875 0.359375,0.8125 0.828125,0.8125 0.9375,0 1.296875,-1.453125 1.296875,-1.53125 z m 0,0"
               style="stroke:none" />
          </symbol>
        </g>
      </defs>
      <g
         transform="translate(-149.259,-127.843)"
         id="id-bd6178f1-5f3f-4d24-be90-c26170a5f756">
        <g
           id="id-441b079b-ad5e-41ab-bfcc-87ae2ffe0067"
           style="fill:#000000;fill-opacity:1">
          <g
             transform="translate(148.712,134.765)"
             id="g2845">
            <path
               id="id-46219c68-0ad9-42f2-b88e-a2409b86af2f"
               d="m 5.4375,-1.421875 c 0,-0.109375 -0.078125,-0.109375 -0.109375,-0.109375 -0.109375,0 -0.109375,0.03125 -0.15625,0.1875 -0.140625,0.53125 -0.46875,1.234375 -1.015625,1.234375 -0.171875,0 -0.234375,-0.09375 -0.234375,-0.328125 0,-0.25 0.078125,-0.484375 0.171875,-0.703125 0.15625,-0.4375 0.609375,-1.625 0.609375,-2.203125 0,-0.640625 -0.390625,-1.0625 -1.140625,-1.0625 -0.625,0 -1.109375,0.3125 -1.484375,0.765625 L 2.859375,-6.8125 c 0,0 0,-0.109375 -0.125,-0.109375 -0.234375,0 -0.953125,0.078125 -1.21875,0.109375 -0.078125,0 -0.1875,0.015625 -0.1875,0.1875 0,0.125 0.09375,0.125 0.234375,0.125 0.484375,0 0.5,0.0625 0.5,0.171875 L 2.03125,-6.125 0.59375,-0.390625 c -0.046875,0.140625 -0.046875,0.15625 -0.046875,0.21875 0,0.234375 0.203125,0.28125 0.296875,0.28125 0.15625,0 0.3125,-0.125 0.359375,-0.265625 l 0.1875,-0.75 0.21875,-0.890625 C 1.671875,-2.03125 1.734375,-2.25 1.78125,-2.46875 1.796875,-2.53125 1.890625,-2.859375 1.890625,-2.921875 1.921875,-3.015625 2.234375,-3.5625 2.578125,-3.84375 2.796875,-4 3.09375,-4.1875 3.53125,-4.1875 c 0.421875,0 0.53125,0.34375 0.53125,0.703125 0,0.53125 -0.375,1.625 -0.609375,2.234375 C 3.375,-1.03125 3.3125,-0.90625 3.3125,-0.703125 c 0,0.46875 0.359375,0.8125 0.828125,0.8125 0.9375,0 1.296875,-1.453125 1.296875,-1.53125 z m 0,0"
               style="stroke:none" />
          </g>
        </g>
      </g>
    </g>
    <g
       transform="matrix(0.529167,0,0,0.529167,113.806,112.37)"
       ns14:version="1.3.1"
       ns14:texconverter="pdflatex"
       ns14:pdfconverter="inkscape"
       ns14:text="$d$"
       ns14:preamble="/Users/mbh/Library/Application Support/org.inkscape.Inkscape/config/inkscape/extensions/textext/default_packages.tex"
       ns14:scale="1.5"
       ns14:alignment="middle center"
       ns14:inkscapeversion="1.0"
       ns14:jacobian_sqrt="0.529167"
       id="g2448">
      <defs
         id="id-d9fb89d2-0cec-4c9a-a770-6c3d71165e1a">
        <g
           id="id-3d0db126-6a6a-4e91-b3d8-dfdf0c33f6b4">
          <symbol
             id="id-499ecfbe-ce4a-4a83-a2c2-6e4952fb9722"
             overflow="visible">
            <path
               id="id-42797fc8-3f31-46d6-89e0-4304f1eafa1f"
               d=""
               style="stroke:none" />
          </symbol>
          <symbol
             id="id-869d2ef1-1e51-4f01-9b8c-9ea2b7acf64c"
             overflow="visible">
            <path
               id="id-e8782f0d-db66-4b79-adbd-bdd1ec989596"
               d="m 4.96875,-1.421875 c 0,-0.109375 -0.09375,-0.109375 -0.125,-0.109375 -0.09375,0 -0.109375,0.046875 -0.140625,0.1875 -0.171875,0.640625 -0.34375,1.234375 -0.75,1.234375 -0.28125,0 -0.296875,-0.265625 -0.296875,-0.453125 0,-0.25 0.015625,-0.3125 0.046875,-0.484375 l 1.4375,-5.765625 c 0,0 0,-0.109375 -0.125,-0.109375 -0.15625,0 -1.09375,0.09375 -1.265625,0.109375 -0.078125,0.015625 -0.140625,0.0625 -0.140625,0.1875 0,0.125 0.09375,0.125 0.234375,0.125 0.484375,0 0.5,0.0625 0.5,0.171875 L 4.3125,-6.125 3.71875,-3.765625 C 3.53125,-4.140625 3.25,-4.40625 2.796875,-4.40625 c -1.15625,0 -2.390625,1.46875 -2.390625,2.921875 0,0.9375 0.546875,1.59375 1.3125,1.59375 0.203125,0 0.703125,-0.046875 1.296875,-0.75 0.078125,0.421875 0.4375,0.75 0.90625,0.75 0.359375,0 0.578125,-0.234375 0.75,-0.546875 0.15625,-0.359375 0.296875,-0.984375 0.296875,-0.984375 z M 3.5625,-3.140625 3.078125,-1.1875 C 3.015625,-1 3.015625,-0.984375 2.875,-0.8125 2.4375,-0.265625 2.03125,-0.109375 1.75,-0.109375 c -0.5,0 -0.640625,-0.546875 -0.640625,-0.9375 0,-0.5 0.3125,-1.71875 0.546875,-2.1875 0.3125,-0.578125 0.75,-0.953125 1.15625,-0.953125 0.640625,0 0.78125,0.8125 0.78125,0.875 0,0.0625 -0.015625,0.125 -0.03125,0.171875 z m 0,0"
               style="stroke:none" />
          </symbol>
        </g>
      </defs>
      <g
         transform="translate(-149.118,-127.843)"
         id="id-1c0b8aad-fdab-405a-bf8c-5b54280a447c">
        <g
           id="id-5e234344-0bed-4dbb-9ebb-d443e8cd197a"
           style="fill:#000000;fill-opacity:1">
          <g
             transform="translate(148.712,134.765)"
             id="g2966">
            <path
               id="id-6c2b59db-284b-4e92-9f4e-4072dc624f83"
               d="m 4.96875,-1.421875 c 0,-0.109375 -0.09375,-0.109375 -0.125,-0.109375 -0.09375,0 -0.109375,0.046875 -0.140625,0.1875 -0.171875,0.640625 -0.34375,1.234375 -0.75,1.234375 -0.28125,0 -0.296875,-0.265625 -0.296875,-0.453125 0,-0.25 0.015625,-0.3125 0.046875,-0.484375 l 1.4375,-5.765625 c 0,0 0,-0.109375 -0.125,-0.109375 -0.15625,0 -1.09375,0.09375 -1.265625,0.109375 -0.078125,0.015625 -0.140625,0.0625 -0.140625,0.1875 0,0.125 0.09375,0.125 0.234375,0.125 0.484375,0 0.5,0.0625 0.5,0.171875 L 4.3125,-6.125 3.71875,-3.765625 C 3.53125,-4.140625 3.25,-4.40625 2.796875,-4.40625 c -1.15625,0 -2.390625,1.46875 -2.390625,2.921875 0,0.9375 0.546875,1.59375 1.3125,1.59375 0.203125,0 0.703125,-0.046875 1.296875,-0.75 0.078125,0.421875 0.4375,0.75 0.90625,0.75 0.359375,0 0.578125,-0.234375 0.75,-0.546875 0.15625,-0.359375 0.296875,-0.984375 0.296875,-0.984375 z M 3.5625,-3.140625 3.078125,-1.1875 C 3.015625,-1 3.015625,-0.984375 2.875,-0.8125 2.4375,-0.265625 2.03125,-0.109375 1.75,-0.109375 c -0.5,0 -0.640625,-0.546875 -0.640625,-0.9375 0,-0.5 0.3125,-1.71875 0.546875,-2.1875 0.3125,-0.578125 0.75,-0.953125 1.15625,-0.953125 0.640625,0 0.78125,0.8125 0.78125,0.875 0,0.0625 -0.015625,0.125 -0.03125,0.171875 z m 0,0"
               style="stroke:none" />
          </g>
        </g>
      </g>
    </g>
    <g
       transform="matrix(0.529167,0,0,0.529167,65.802,71.4209)"
       ns14:version="1.3.1"
       ns14:texconverter="pdflatex"
       ns14:pdfconverter="inkscape"
       ns14:text="$m$"
       ns14:preamble="/Users/mbh/Library/Application Support/org.inkscape.Inkscape/config/inkscape/extensions/textext/default_packages.tex"
       ns14:scale="1.5"
       ns14:alignment="middle center"
       ns14:inkscapeversion="1.0"
       ns14:jacobian_sqrt="0.529167"
       id="g2570">
      <defs
         id="id-66524b5d-1c65-4220-a6be-2e92db82f006">
        <g
           id="id-962b6444-06b7-4d8b-af9b-bd75190181e6">
          <symbol
             id="id-e63b4560-2b9d-4d64-9467-ca4cc59c88d3"
             overflow="visible">
            <path
               id="id-bcf9b6fd-2b60-4598-abaf-3efdef957931"
               d=""
               style="stroke:none" />
          </symbol>
          <symbol
             id="id-5ebf79f2-8f8e-4c67-8892-2526e3d06add"
             overflow="visible">
            <path
               id="id-d2ffb7e7-d08c-4802-9313-5110505314b4"
               d="m 8.453125,-1.421875 c 0,-0.109375 -0.09375,-0.109375 -0.125,-0.109375 -0.09375,0 -0.09375,0.03125 -0.140625,0.1875 -0.15625,0.53125 -0.46875,1.234375 -1.015625,1.234375 -0.171875,0 -0.25,-0.09375 -0.25,-0.328125 0,-0.25 0.09375,-0.484375 0.1875,-0.703125 0.1875,-0.53125 0.609375,-1.625 0.609375,-2.203125 0,-0.640625 -0.40625,-1.0625 -1.15625,-1.0625 -0.734375,0 -1.25,0.4375 -1.625,0.96875 0,-0.125 -0.03125,-0.46875 -0.3125,-0.703125 -0.25,-0.21875 -0.5625,-0.265625 -0.8125,-0.265625 -0.90625,0 -1.390625,0.640625 -1.5625,0.875 -0.046875,-0.578125 -0.46875,-0.875 -0.921875,-0.875 -0.453125,0 -0.640625,0.390625 -0.734375,0.5625 -0.171875,0.359375 -0.296875,0.9375 -0.296875,0.96875 0,0.109375 0.109375,0.109375 0.109375,0.109375 0.109375,0 0.109375,-0.015625 0.171875,-0.234375 0.171875,-0.703125 0.375,-1.1875 0.734375,-1.1875 0.15625,0 0.296875,0.078125 0.296875,0.453125 0,0.21875 -0.03125,0.328125 -0.15625,0.84375 L 0.875,-0.59375 c -0.03125,0.15625 -0.09375,0.390625 -0.09375,0.4375 0,0.171875 0.140625,0.265625 0.296875,0.265625 0.125,0 0.296875,-0.078125 0.375,-0.28125 0,-0.015625 0.125,-0.484375 0.1875,-0.734375 l 0.21875,-0.890625 C 1.90625,-2.03125 1.96875,-2.25 2.03125,-2.46875 l 0.125,-0.5 c 0.140625,-0.3125 0.671875,-1.21875 1.625,-1.21875 0.453125,0 0.53125,0.375 0.53125,0.703125 0,0.25 -0.0625,0.53125 -0.140625,0.828125 L 3.890625,-1.5 C 3.78125,-1.140625 3.78125,-1.078125 3.6875,-0.75 c -0.03125,0.203125 -0.125,0.546875 -0.125,0.59375 0,0.171875 0.140625,0.265625 0.28125,0.265625 0.3125,0 0.375,-0.25 0.453125,-0.5625 l 0.59375,-2.40625 c 0.03125,-0.125 0.5625,-1.328125 1.65625,-1.328125 0.421875,0 0.53125,0.34375 0.53125,0.703125 0,0.5625 -0.421875,1.703125 -0.625,2.234375 -0.078125,0.234375 -0.125,0.34375 -0.125,0.546875 0,0.46875 0.34375,0.8125 0.8125,0.8125 0.9375,0 1.3125,-1.453125 1.3125,-1.53125 z m 0,0"
               style="stroke:none" />
          </symbol>
        </g>
      </defs>
      <g
         transform="translate(-149.009,-130.359)"
         id="id-2e87f88e-8135-42f2-865f-61019c1d655d">
        <g
           id="id-4596c109-a825-40fb-acca-7acbe43791cf"
           style="fill:#000000;fill-opacity:1">
          <g
             transform="translate(148.712,134.765)"
             id="g3087">
            <path
               id="id-d8255155-c7c4-4dae-a3d2-ad00d86f9198"
               d="m 8.453125,-1.421875 c 0,-0.109375 -0.09375,-0.109375 -0.125,-0.109375 -0.09375,0 -0.09375,0.03125 -0.140625,0.1875 -0.15625,0.53125 -0.46875,1.234375 -1.015625,1.234375 -0.171875,0 -0.25,-0.09375 -0.25,-0.328125 0,-0.25 0.09375,-0.484375 0.1875,-0.703125 0.1875,-0.53125 0.609375,-1.625 0.609375,-2.203125 0,-0.640625 -0.40625,-1.0625 -1.15625,-1.0625 -0.734375,0 -1.25,0.4375 -1.625,0.96875 0,-0.125 -0.03125,-0.46875 -0.3125,-0.703125 -0.25,-0.21875 -0.5625,-0.265625 -0.8125,-0.265625 -0.90625,0 -1.390625,0.640625 -1.5625,0.875 -0.046875,-0.578125 -0.46875,-0.875 -0.921875,-0.875 -0.453125,0 -0.640625,0.390625 -0.734375,0.5625 -0.171875,0.359375 -0.296875,0.9375 -0.296875,0.96875 0,0.109375 0.109375,0.109375 0.109375,0.109375 0.109375,0 0.109375,-0.015625 0.171875,-0.234375 0.171875,-0.703125 0.375,-1.1875 0.734375,-1.1875 0.15625,0 0.296875,0.078125 0.296875,0.453125 0,0.21875 -0.03125,0.328125 -0.15625,0.84375 L 0.875,-0.59375 c -0.03125,0.15625 -0.09375,0.390625 -0.09375,0.4375 0,0.171875 0.140625,0.265625 0.296875,0.265625 0.125,0 0.296875,-0.078125 0.375,-0.28125 0,-0.015625 0.125,-0.484375 0.1875,-0.734375 l 0.21875,-0.890625 C 1.90625,-2.03125 1.96875,-2.25 2.03125,-2.46875 l 0.125,-0.5 c 0.140625,-0.3125 0.671875,-1.21875 1.625,-1.21875 0.453125,0 0.53125,0.375 0.53125,0.703125 0,0.25 -0.0625,0.53125 -0.140625,0.828125 L 3.890625,-1.5 C 3.78125,-1.140625 3.78125,-1.078125 3.6875,-0.75 c -0.03125,0.203125 -0.125,0.546875 -0.125,0.59375 0,0.171875 0.140625,0.265625 0.28125,0.265625 0.3125,0 0.375,-0.25 0.453125,-0.5625 l 0.59375,-2.40625 c 0.03125,-0.125 0.5625,-1.328125 1.65625,-1.328125 0.421875,0 0.53125,0.34375 0.53125,0.703125 0,0.5625 -0.421875,1.703125 -0.625,2.234375 -0.078125,0.234375 -0.125,0.34375 -0.125,0.546875 0,0.46875 0.34375,0.8125 0.8125,0.8125 0.9375,0 1.3125,-1.453125 1.3125,-1.53125 z m 0,0"
               style="stroke:none" />
          </g>
        </g>
      </g>
    </g>
    <g
       transform="matrix(0.529167,0,0,0.529167,38.0931,58.9707)"
       ns14:version="1.3.1"
       ns14:texconverter="pdflatex"
       ns14:pdfconverter="inkscape"
       ns14:text="$k$"
       ns14:preamble="/Users/mbh/Library/Application Support/org.inkscape.Inkscape/config/inkscape/extensions/textext/default_packages.tex"
       ns14:scale="1.5"
       ns14:alignment="middle center"
       ns14:inkscapeversion="1.0"
       ns14:jacobian_sqrt="0.529167"
       id="g3004">
      <defs
         id="id-1fee1468-aac2-4c26-92bb-0e45b7c3b88a">
        <g
           id="id-fbdbff17-66c0-4502-8531-45ce64e656a6">
          <symbol
             id="id-99ef7ded-0f05-4b5e-a8b9-61dd01400fc5"
             overflow="visible">
            <path
               id="id-1851a692-0c6c-439c-b994-5f73f19f03b7"
               d=""
               style="stroke:none" />
          </symbol>
          <symbol
             id="id-c92859cb-41fa-4e26-91dd-612bd0b24386"
             overflow="visible">
            <path
               id="id-9a64ff84-dd28-4e2c-a73b-0c853929e5ef"
               d="m 4.890625,-1.421875 c 0,-0.109375 -0.09375,-0.109375 -0.125,-0.109375 -0.09375,0 -0.109375,0.046875 -0.140625,0.1875 -0.203125,0.71875 -0.421875,1.234375 -0.859375,1.234375 -0.203125,0 -0.328125,-0.109375 -0.328125,-0.46875 0,-0.171875 0.046875,-0.40625 0.078125,-0.5625 C 3.5625,-1.3125 3.5625,-1.34375 3.5625,-1.453125 3.5625,-2.09375 2.9375,-2.375 2.078125,-2.5 2.390625,-2.671875 2.71875,-2.984375 2.9375,-3.234375 3.421875,-3.765625 3.875,-4.1875 4.359375,-4.1875 c 0.0625,0 0.078125,0 0.09375,0.015625 0.125,0.015625 0.125,0.015625 0.21875,0.078125 0.015625,0 0.015625,0.015625 0.03125,0.03125 -0.46875,0.03125 -0.5625,0.421875 -0.5625,0.546875 0,0.15625 0.109375,0.34375 0.375,0.34375 0.265625,0 0.546875,-0.21875 0.546875,-0.609375 0,-0.296875 -0.234375,-0.625 -0.671875,-0.625 -0.28125,0 -0.734375,0.078125 -1.453125,0.875 -0.34375,0.375 -0.734375,0.78125 -1.109375,0.921875 L 2.859375,-6.8125 c 0,0 0,-0.109375 -0.125,-0.109375 -0.234375,0 -0.953125,0.078125 -1.21875,0.109375 -0.078125,0 -0.1875,0.015625 -0.1875,0.1875 0,0.125 0.09375,0.125 0.234375,0.125 0.484375,0 0.5,0.0625 0.5,0.171875 L 2.03125,-6.125 0.59375,-0.390625 c -0.046875,0.140625 -0.046875,0.15625 -0.046875,0.21875 0,0.234375 0.203125,0.28125 0.296875,0.28125 0.125,0 0.265625,-0.09375 0.328125,-0.203125 0.046875,-0.09375 0.5,-1.9375 0.5625,-2.1875 0.34375,0.03125 1.15625,0.1875 1.15625,0.84375 0,0.078125 0,0.109375 -0.03125,0.21875 -0.015625,0.109375 -0.03125,0.234375 -0.03125,0.34375 0,0.578125 0.390625,0.984375 0.90625,0.984375 0.296875,0 0.578125,-0.15625 0.796875,-0.53125 0.25,-0.4375 0.359375,-1 0.359375,-1 z m 0,0"
               style="stroke:none" />
          </symbol>
        </g>
      </defs>
      <g
         transform="translate(-149.259,-127.843)"
         id="id-819449da-1523-4039-98ac-da3122b4d5d8">
        <g
           id="id-5c209c4c-b313-4081-af59-9ea9383f6318"
           style="fill:#000000;fill-opacity:1">
          <g
             transform="translate(148.712,134.765)"
             id="g3208">
            <path
               id="id-00e5db30-9c0c-4b76-bf43-2e6c8111cd6e"
               d="m 4.890625,-1.421875 c 0,-0.109375 -0.09375,-0.109375 -0.125,-0.109375 -0.09375,0 -0.109375,0.046875 -0.140625,0.1875 -0.203125,0.71875 -0.421875,1.234375 -0.859375,1.234375 -0.203125,0 -0.328125,-0.109375 -0.328125,-0.46875 0,-0.171875 0.046875,-0.40625 0.078125,-0.5625 C 3.5625,-1.3125 3.5625,-1.34375 3.5625,-1.453125 3.5625,-2.09375 2.9375,-2.375 2.078125,-2.5 2.390625,-2.671875 2.71875,-2.984375 2.9375,-3.234375 3.421875,-3.765625 3.875,-4.1875 4.359375,-4.1875 c 0.0625,0 0.078125,0 0.09375,0.015625 0.125,0.015625 0.125,0.015625 0.21875,0.078125 0.015625,0 0.015625,0.015625 0.03125,0.03125 -0.46875,0.03125 -0.5625,0.421875 -0.5625,0.546875 0,0.15625 0.109375,0.34375 0.375,0.34375 0.265625,0 0.546875,-0.21875 0.546875,-0.609375 0,-0.296875 -0.234375,-0.625 -0.671875,-0.625 -0.28125,0 -0.734375,0.078125 -1.453125,0.875 -0.34375,0.375 -0.734375,0.78125 -1.109375,0.921875 L 2.859375,-6.8125 c 0,0 0,-0.109375 -0.125,-0.109375 -0.234375,0 -0.953125,0.078125 -1.21875,0.109375 -0.078125,0 -0.1875,0.015625 -0.1875,0.1875 0,0.125 0.09375,0.125 0.234375,0.125 0.484375,0 0.5,0.0625 0.5,0.171875 L 2.03125,-6.125 0.59375,-0.390625 c -0.046875,0.140625 -0.046875,0.15625 -0.046875,0.21875 0,0.234375 0.203125,0.28125 0.296875,0.28125 0.125,0 0.265625,-0.09375 0.328125,-0.203125 0.046875,-0.09375 0.5,-1.9375 0.5625,-2.1875 0.34375,0.03125 1.15625,0.1875 1.15625,0.84375 0,0.078125 0,0.109375 -0.03125,0.21875 -0.015625,0.109375 -0.03125,0.234375 -0.03125,0.34375 0,0.578125 0.390625,0.984375 0.90625,0.984375 0.296875,0 0.578125,-0.15625 0.796875,-0.53125 0.25,-0.4375 0.359375,-1 0.359375,-1 z m 0,0"
               style="stroke:none" />
          </g>
        </g>
      </g>
    </g>
  </g>
</svg>
