<?xml version="1.0" encoding="UTF-8" standalone="no"?>
<svg
   xmlns:ns4="http://www.iki.fi/pav/software/textext/"
   xmlns:dc="http://purl.org/dc/elements/1.1/"
   xmlns:cc="http://creativecommons.org/ns#"
   xmlns:rdf="http://www.w3.org/1999/02/22-rdf-syntax-ns#"
   xmlns:svg="http://www.w3.org/2000/svg"
   xmlns="http://www.w3.org/2000/svg"
   xmlns:sodipodi="http://sodipodi.sourceforge.net/DTD/sodipodi-0.dtd"
   xmlns:inkscape="http://www.inkscape.org/namespaces/inkscape"
   sodipodi:docname="hondivatni.svg"
   inkscape:version="1.0 (4035a4f, 2020-05-01)"
   width="210mm"
   height="297mm"
   viewBox="0 0 210 297"
   version="1.1"
   id="svg8">
  <defs
     id="defs2">
    <g
       id="id-fcb335c9-a84c-4d9f-8a54-be8e9b57b9e4-5">
      <symbol
         overflow="visible"
         id="id-ec9bab7f-7fe4-45ba-af70-b573511628fb-5">
        <path
           style="stroke:none;stroke-width:0"
           d=""
           id="id-24474e32-8ee9-4a84-b3ac-fda37542b476-8" />
      </symbol>
      <symbol
         overflow="visible"
         id="id-6701f010-5cb3-4860-8f3a-b11daac1d121-2">
        <path
           style="stroke:none;stroke-width:0"
           d="m 4.5625,-1.703125 c 0,-0.8125 -0.640625,-1.59375 -1.671875,-1.8125 0.8125,-0.265625 1.390625,-0.953125 1.390625,-1.75 0,-0.8125 -0.875,-1.375 -1.828125,-1.375 -1,0 -1.765625,0.59375 -1.765625,1.359375 0,0.328125 0.21875,0.515625 0.515625,0.515625 0.296875,0 0.5,-0.21875 0.5,-0.515625 0,-0.484375 -0.46875,-0.484375 -0.609375,-0.484375 0.296875,-0.5 0.953125,-0.625 1.3125,-0.625 0.421875,0 0.96875,0.21875 0.96875,1.109375 0,0.125 -0.03125,0.703125 -0.28125,1.140625 C 2.796875,-3.65625 2.453125,-3.625 2.203125,-3.625 2.125,-3.609375 1.890625,-3.59375 1.8125,-3.59375 c -0.078125,0.015625 -0.140625,0.03125 -0.140625,0.125 0,0.109375 0.0625,0.109375 0.234375,0.109375 h 0.4375 c 0.8125,0 1.1875,0.671875 1.1875,1.65625 0,1.359375 -0.6875,1.640625 -1.125,1.640625 -0.4375,0 -1.1875,-0.171875 -1.53125,-0.75 0.34375,0.046875 0.65625,-0.171875 0.65625,-0.546875 0,-0.359375 -0.265625,-0.5625 -0.546875,-0.5625 -0.25,0 -0.5625,0.140625 -0.5625,0.578125 0,0.90625 0.921875,1.5625 2.015625,1.5625 1.21875,0 2.125,-0.90625 2.125,-1.921875 z m 0,0"
           id="id-559535b0-9bf9-4c2f-8bee-7b91a35fe38e-9" />
      </symbol>
      <symbol
         overflow="visible"
         id="id-9c200bd4-1d89-41e4-8dd6-f42c3dd58fe2-8">
        <path
           style="stroke:none;stroke-width:0"
           d="M 4.828125,-6.421875 H 2.40625 c -1.203125,0 -1.234375,-0.125 -1.265625,-0.3125 h -0.25 L 0.5625,-4.6875 h 0.25 c 0.03125,-0.15625 0.109375,-0.78125 0.25,-0.90625 0.0625,-0.0625 0.84375,-0.0625 0.96875,-0.0625 h 2.0625 L 2.984375,-4.078125 C 2.078125,-2.734375 1.75,-1.34375 1.75,-0.328125 c 0,0.09375 0,0.546875 0.46875,0.546875 0.453125,0 0.453125,-0.453125 0.453125,-0.546875 V -0.84375 c 0,-0.546875 0.03125,-1.09375 0.109375,-1.625 0.046875,-0.234375 0.171875,-1.09375 0.625,-1.703125 L 4.75,-6.078125 c 0.078125,-0.109375 0.078125,-0.125 0.078125,-0.34375 z m 0,0"
           id="id-1b1b63d2-de2f-42f9-8e98-fc9e64e5320f-2" />
      </symbol>
      <symbol
         overflow="visible"
         id="id-0489b50e-44d8-40e6-8f40-9953282432c7-0">
        <path
           style="stroke:none;stroke-width:0"
           d="m 4.828125,-4.03125 c 0,-0.171875 -0.109375,-0.484375 -0.5,-0.484375 -0.203125,0 -0.640625,0.0625 -1.0625,0.46875 C 2.84375,-4.375 2.4375,-4.40625 2.21875,-4.40625 c -0.9375,0 -1.625,0.6875 -1.625,1.453125 0,0.4375 0.21875,0.8125 0.46875,1.03125 -0.125,0.140625 -0.3125,0.46875 -0.3125,0.828125 0,0.3125 0.140625,0.6875 0.453125,0.890625 -0.609375,0.15625 -0.921875,0.59375 -0.921875,0.984375 0,0.71875 0.984375,1.265625 2.203125,1.265625 1.171875,0 2.203125,-0.5 2.203125,-1.28125 0,-0.34375 -0.125,-0.859375 -0.640625,-1.140625 -0.53125,-0.265625 -1.109375,-0.265625 -1.71875,-0.265625 -0.25,0 -0.671875,0 -0.75,-0.015625 C 1.265625,-0.703125 1.0625,-1 1.0625,-1.328125 c 0,-0.03125 0,-0.265625 0.15625,-0.46875 0.390625,0.28125 0.8125,0.3125 1,0.3125 0.921875,0 1.609375,-0.6875 1.609375,-1.453125 0,-0.375 -0.15625,-0.734375 -0.40625,-0.96875 C 3.78125,-4.25 4.140625,-4.296875 4.3125,-4.296875 c 0,0 0.078125,0 0.109375,0.015625 C 4.3125,-4.25 4.25,-4.140625 4.25,-4.015625 c 0,0.171875 0.140625,0.28125 0.296875,0.28125 0.09375,0 0.28125,-0.0625 0.28125,-0.296875 z m -1.75,1.078125 c 0,0.265625 0,0.59375 -0.15625,0.84375 C 2.84375,-2 2.609375,-1.71875 2.21875,-1.71875 c -0.875,0 -0.875,-1 -0.875,-1.21875 0,-0.265625 0.015625,-0.59375 0.15625,-0.84375 0.078125,-0.109375 0.3125,-0.390625 0.71875,-0.390625 0.859375,0 0.859375,0.984375 0.859375,1.21875 z m 1.09375,3.734375 c 0,0.546875 -0.703125,1.046875 -1.671875,1.046875 -1.015625,0 -1.703125,-0.515625 -1.703125,-1.046875 0,-0.453125 0.375,-0.828125 0.8125,-0.84375 h 0.59375 c 0.859375,0 1.96875,0 1.96875,0.84375 z m 0,0"
           id="id-dea50c04-04f9-4f4b-a72e-296019b213ba-7" />
      </symbol>
    </g>
  </defs>
  <sodipodi:namedview
     inkscape:window-maximized="0"
     inkscape:window-y="175"
     inkscape:window-x="18"
     inkscape:window-height="847"
     inkscape:window-width="1252"
     showgrid="false"
     inkscape:document-rotation="0"
     inkscape:current-layer="layer1"
     inkscape:document-units="mm"
     inkscape:cy="271.88151"
     inkscape:cx="228.52702"
     inkscape:zoom="1.8489879"
     inkscape:pageshadow="2"
     inkscape:pageopacity="0.0"
     borderopacity="1.0"
     bordercolor="#666666"
     pagecolor="#ffffff"
     id="base" />
  <metadata
     id="metadata5">
    <rdf:RDF>
      <cc:Work
         rdf:about="">
        <dc:format>image/svg+xml</dc:format>
        <dc:type
           rdf:resource="http://purl.org/dc/dcmitype/StillImage" />
        <dc:title></dc:title>
      </cc:Work>
    </rdf:RDF>
  </metadata>
  <g
     id="layer1"
     inkscape:groupmode="layer"
     inkscape:label="Layer 1">
    <rect
       y="81.465347"
       x="40.529625"
       height="5.7543201"
       width="29.713316"
       id="rect850"
       style="fill:none;stroke:#000000;stroke-width:0.3;stroke-miterlimit:4;stroke-dasharray:none" />
    <path
       id="path852"
       d="M 46.573088,50.800258 V 81.437573"
       style="fill:none;stroke:#000000;stroke-width:0.3;stroke-linecap:butt;stroke-linejoin:miter;stroke-opacity:1;stroke-miterlimit:4;stroke-dasharray:none" />
    <path
       id="path892"
       d="m 46.54238,56.927165 c 1.223437,0.255362 2.90386,-0.923441 4.090692,-0.527832 0.873551,0.291184 2.16213,1.258657 3.166987,0.923706 1.324309,-0.441437 2.480037,-1.134948 3.958734,-0.923706 1.173951,0.167708 2.03269,1.266705 3.298944,1.055663 1.41583,-0.235971 2.124226,-1.319578 3.562861,-1.319578"
       style="fill:none;stroke:#000000;stroke-width:0.3;stroke-linecap:butt;stroke-linejoin:miter;stroke-opacity:1;stroke-miterlimit:4;stroke-dasharray:none" />
    <path
       style="fill:none;stroke:#000000;stroke-width:0.3;stroke-linecap:butt;stroke-linejoin:miter;stroke-opacity:1;stroke-miterlimit:4;stroke-dasharray:none"
       d="M 64.568572,50.823005 V 81.46032"
       id="path852-6" />
    <rect
       y="82.32576"
       x="49.748817"
       height="3.6060526"
       width="11.876"
       id="rect918"
       style="fill:none;stroke:#000000;stroke-width:0.226593" />
    <path
       style="fill:none;stroke:#000000;stroke-width:0.199999px;stroke-linecap:butt;stroke-linejoin:miter;stroke-opacity:1"
       d="m 49.576461,47.258429 c 0,0 1.664814,5.085946 2.068231,6.548333 0.403417,1.462387 0.891987,4.903773 0.891987,4.903773 0,0 -0.0764,-0.315279 -1.00281,3.239193 -0.926403,3.554468 -0.998365,4.099822 -0.998365,4.099822 0,0 0.324774,2.740329 0.589596,2.971816 0.264823,0.231488 1.587069,1.598411 1.587069,1.598411 0,0 0.791452,0.495379 1.347252,0.787516 0.555799,0.292137 2.615096,1.059283 2.615096,1.059283 l 0.928957,0.264589 c 0,0 0.119448,-1.365067 -0.320615,-1.610445 -0.440056,-0.245377 -1.233262,-0.556957 -1.866935,-0.929883 -0.633671,-0.372929 -1.332201,-0.520614 -1.493313,-0.965761 -0.161114,-0.445149 -0.31042,-0.721311 -0.683344,-1.225719"
       id="path1994"
       sodipodi:nodetypes="cscscscsccsssc" />
    <path
       style="fill:none;stroke:#000000;stroke-width:0.199999px;stroke-linecap:butt;stroke-linejoin:miter;stroke-opacity:1"
       d="m 52.764357,64.937824 c 0,0 0.366801,0.499442 0.47259,1.221911 0.105789,0.722469 0.02305,1.906942 0.02305,1.906942"
       id="path1996"
       sodipodi:nodetypes="csc" />
    <path
       style="fill:none;stroke:#000000;stroke-width:0.199999px;stroke-linecap:butt;stroke-linejoin:miter;stroke-opacity:1"
       d="m 51.228402,69.103152 c 0,0 0.164076,3.467081 0.958529,4.16043 0.794453,0.693347 2.423429,1.701258 2.900055,1.807591 0.476634,0.106334 1.243081,0.417378 3.386872,0.855812 0.640695,0.13103 0.689594,-0.07169 0.689594,-0.07169 0,0 0.165248,-0.936307 -0.636621,-1.404433 -0.168521,-0.09838 -2.176899,-0.468069 -2.176899,-0.468069 0,0 -0.606755,-0.760934 -1.610116,-1.230338 -1.191483,-0.55742 -1.150665,-1.612413 -1.150665,-1.612413"
       id="path1998"
       sodipodi:nodetypes="cssscscsc" />
    <path
       style="fill:none;stroke:#000000;stroke-width:0.199999px;stroke-linecap:butt;stroke-linejoin:miter;stroke-opacity:1"
       d="m 52.99759,74.000401 c 0,0 0.522699,1.505356 0.756727,1.697027 0.234034,0.19167 1.892408,0.841847 2.553293,1.180777 0.660892,0.338929 2.585244,0.878824 2.585244,0.878824 0,0 0.387528,-1.345604 -1.022282,-1.980765"
       id="path2000"
       sodipodi:nodetypes="csscc" />
    <path
       style="fill:none;stroke:#000000;stroke-width:0.199999px;stroke-linecap:butt;stroke-linejoin:miter;stroke-opacity:1"
       d="m 54.854842,76.181532 1.268508,2.638411 c 0,0 0.979619,-0.211296 0.894648,-1.594265"
       id="path2002"
       sodipodi:nodetypes="ccc" />
    <path
       style="fill:none;stroke:#000000;stroke-width:0.199999px;stroke-linecap:butt;stroke-linejoin:miter;stroke-opacity:1"
       d="m 57.112463,47.712368 c 0,0 0.251443,4.87209 0.32181,5.888777 0.07038,1.016687 0.6243,4.943148 0.6243,4.943148 0,0 -0.632652,-0.731494 0,0 0.632652,0.731497 0.864842,0.762987 1.196562,1.621569 0.33172,0.858581 1.214024,3.806562 1.204417,5.204505 -0.0096,1.397945 -0.139389,6.19781 -0.13638,5.239225 0.003,-0.958583 0.01716,1.900272 0.01716,1.900272 0,0 -0.410644,0.895209 -0.741442,0.528165 -0.33079,-0.367044 -0.891911,-0.932566 -1.010437,-1.72286 -0.118525,-0.790292 -0.260196,-0.880801 -0.158346,-1.945638 0.10185,-1.064839 0.165966,-1.030583 -0.01368,-1.600734 -0.179625,-0.570151 -0.313397,-0.998862 -0.641209,-1.93083 0,0 -0.493808,0.979346 -0.515941,1.342064 -0.04815,0.78964 -0.237534,1.60137 -0.237534,1.60137 0,0 -0.331939,0.865667 -0.415051,1.979577"
       id="path2004"
       sodipodi:nodetypes="cscsssscsssscscc" />
    <path
       style="fill:none;stroke:#000000;stroke-width:0.199999px;stroke-linecap:butt;stroke-linejoin:miter;stroke-opacity:1"
       d="m 56.396216,72.412648 c 0.04618,0.254305 0.04671,0.665453 0.06576,0.934166 0.01905,0.268715 0.02018,0.446983 0.188802,0.659779"
       id="path2006"
       sodipodi:nodetypes="csc"
       inkscape:transform-center-x="1.5360253"
       inkscape:transform-center-y="-0.47301068" />
    <path
       style="fill:none;stroke:#000000;stroke-width:0.199999px;stroke-linecap:butt;stroke-linejoin:miter;stroke-opacity:1"
       d="m 54.576148,71.718869 0.163668,1.033587"
       id="path2008" />
    <path
       style="fill:none;stroke:#000000;stroke-width:0.199999px;stroke-linecap:butt;stroke-linejoin:miter;stroke-opacity:1"
       d="m 54.860904,69.093508 -0.07865,0.7244"
       id="path2010"
       sodipodi:nodetypes="cc" />
    <path
       style="fill:none;stroke:#000000;stroke-width:0.124724;stroke-linecap:butt;stroke-linejoin:miter;stroke-miterlimit:4;stroke-dasharray:none;stroke-opacity:1"
       d="m 56.202055,62.563134 c -0.0038,-0.02267 -0.462809,0.96156 -0.297704,2.06934 0.06962,0.46709 0.39167,1.949729 0.484502,1.950649 0.262292,0.245371 0.822248,0.603253 0.822248,0.603253"
       id="path2014"
       sodipodi:nodetypes="cscc" />
    <path
       style="fill:none;stroke:#000000;stroke-width:0.124724;stroke-linecap:butt;stroke-linejoin:miter;stroke-miterlimit:4;stroke-dasharray:none;stroke-opacity:1"
       d="m 54.852483,64.276364 c 0,0 1.073169,1.817628 1.44239,2.190784"
       id="path2016" />
    <path
       style="fill:none;stroke:#000000;stroke-width:0.124724;stroke-linecap:butt;stroke-linejoin:miter;stroke-miterlimit:4;stroke-dasharray:none;stroke-opacity:1"
       d="m 54.637202,66.030338 1.422548,1.889178"
       id="path2022"
       sodipodi:nodetypes="cc" />
    <path
       style="fill:none;stroke:#000000;stroke-width:0.199999px;stroke-linecap:butt;stroke-linejoin:miter;stroke-opacity:1"
       d="m 52.464604,58.127123 c 0,0 0.07211,0.583412 -0.01497,0.757273"
       id="path2028"
       sodipodi:nodetypes="cc" />
    <g
       transform="matrix(0.282222,0,0,0.282222,54.900233,83.4613)"
       ns4:version="1.3.1"
       ns4:texconverter="pdflatex"
       ns4:pdfconverter="inkscape"
       ns4:text="$x$"
       ns4:preamble="/Users/mbh/Library/Application Support/org.inkscape.Inkscape/config/inkscape/extensions/textext/default_packages.tex"
       ns4:scale="0.799999971653521"
       ns4:alignment="middle center"
       ns4:jacobian_sqrt="0.282222"
       id="g2122">
      <defs
         id="id-c0331ecd-cf84-492b-8c50-02f96928b270">
        <g
           id="id-7396df7e-e4a4-4ecc-8d36-311f2d073386">
          <symbol
             id="id-34647ba8-5458-48d1-afc5-6b473006754e"
             overflow="visible">
            <path
               id="id-890aec51-a38a-4656-9f95-37fa78c226de"
               d=""
               style="stroke:none;stroke-width:0" />
          </symbol>
          <symbol
             id="id-e90dd744-adfc-48cc-af99-3fd38f57ee4d"
             overflow="visible">
            <path
               id="id-f05feda3-934e-44e8-8997-e5680eec624d"
               d="m 4.9375,-1.421875 c 0,-0.109375 -0.078125,-0.109375 -0.109375,-0.109375 -0.09375,0 -0.109375,0.046875 -0.140625,0.109375 -0.328125,1.078125 -1,1.3125 -1.3125,1.3125 -0.390625,0 -0.546875,-0.3125 -0.546875,-0.65625 0,-0.21875 0.046875,-0.4375 0.15625,-0.875 l 0.34375,-1.375 C 3.390625,-3.265625 3.625,-4.1875 4.3125,-4.1875 c 0.046875,0 0.296875,0 0.5,0.125 C 4.53125,-4 4.34375,-3.765625 4.34375,-3.515625 c 0,0.15625 0.109375,0.34375 0.375,0.34375 0.21875,0 0.53125,-0.171875 0.53125,-0.578125 0,-0.515625 -0.578125,-0.65625 -0.921875,-0.65625 -0.578125,0 -0.921875,0.53125 -1.046875,0.75 -0.25,-0.65625 -0.78125,-0.75 -1.078125,-0.75 -1.03125,0 -1.609375,1.28125 -1.609375,1.53125 0,0.109375 0.125,0.109375 0.125,0.109375 0.078125,0 0.109375,-0.03125 0.125,-0.109375 0.34375,-1.0625 1,-1.3125 1.34375,-1.3125 0.1875,0 0.53125,0.09375 0.53125,0.671875 0,0.3125 -0.171875,0.96875 -0.53125,2.375 -0.15625,0.609375 -0.515625,1.03125 -0.953125,1.03125 -0.0625,0 -0.28125,0 -0.5,-0.125 0.25,-0.0625 0.46875,-0.265625 0.46875,-0.546875 0,-0.265625 -0.21875,-0.34375 -0.359375,-0.34375 -0.3125,0 -0.546875,0.25 -0.546875,0.578125 0,0.453125 0.484375,0.65625 0.921875,0.65625 0.671875,0 1.03125,-0.703125 1.046875,-0.75 0.125,0.359375 0.484375,0.75 1.078125,0.75 1.03125,0 1.59375,-1.28125 1.59375,-1.53125 z m 0,0"
               style="stroke:none;stroke-width:0" />
          </symbol>
        </g>
      </defs>
      <g
         transform="translate(-149.009,-130.359)"
         id="id-81a30ec8-b662-41c8-8fa5-0c01428cbbff">
        <g
           id="id-b318aeb0-8e52-4932-9c91-95c40f7bd59c"
           style="fill:#000000;fill-opacity:1">
          <g
             transform="translate(148.712,134.765)"
             id="g2118">
            <path
               id="id-b822b526-5520-40a1-b9eb-5085aa25055b"
               d="m 4.9375,-1.421875 c 0,-0.109375 -0.078125,-0.109375 -0.109375,-0.109375 -0.09375,0 -0.109375,0.046875 -0.140625,0.109375 -0.328125,1.078125 -1,1.3125 -1.3125,1.3125 -0.390625,0 -0.546875,-0.3125 -0.546875,-0.65625 0,-0.21875 0.046875,-0.4375 0.15625,-0.875 l 0.34375,-1.375 C 3.390625,-3.265625 3.625,-4.1875 4.3125,-4.1875 c 0.046875,0 0.296875,0 0.5,0.125 C 4.53125,-4 4.34375,-3.765625 4.34375,-3.515625 c 0,0.15625 0.109375,0.34375 0.375,0.34375 0.21875,0 0.53125,-0.171875 0.53125,-0.578125 0,-0.515625 -0.578125,-0.65625 -0.921875,-0.65625 -0.578125,0 -0.921875,0.53125 -1.046875,0.75 -0.25,-0.65625 -0.78125,-0.75 -1.078125,-0.75 -1.03125,0 -1.609375,1.28125 -1.609375,1.53125 0,0.109375 0.125,0.109375 0.125,0.109375 0.078125,0 0.109375,-0.03125 0.125,-0.109375 0.34375,-1.0625 1,-1.3125 1.34375,-1.3125 0.1875,0 0.53125,0.09375 0.53125,0.671875 0,0.3125 -0.171875,0.96875 -0.53125,2.375 -0.15625,0.609375 -0.515625,1.03125 -0.953125,1.03125 -0.0625,0 -0.28125,0 -0.5,-0.125 0.25,-0.0625 0.46875,-0.265625 0.46875,-0.546875 0,-0.265625 -0.21875,-0.34375 -0.359375,-0.34375 -0.3125,0 -0.546875,0.25 -0.546875,0.578125 0,0.453125 0.484375,0.65625 0.921875,0.65625 0.671875,0 1.03125,-0.703125 1.046875,-0.75 0.125,0.359375 0.484375,0.75 1.078125,0.75 1.03125,0 1.59375,-1.28125 1.59375,-1.53125 z m 0,0"
               style="stroke:none;stroke-width:0" />
          </g>
        </g>
      </g>
    </g>
  </g>
</svg>
