<?xml version="1.0" encoding="UTF-8" standalone="no"?>
<svg
   xmlns:ns1="http://www.iki.fi/pav/software/textext/"
   xmlns:dc="http://purl.org/dc/elements/1.1/"
   xmlns:cc="http://creativecommons.org/ns#"
   xmlns:rdf="http://www.w3.org/1999/02/22-rdf-syntax-ns#"
   xmlns:svg="http://www.w3.org/2000/svg"
   xmlns="http://www.w3.org/2000/svg"
   xmlns:sodipodi="http://sodipodi.sourceforge.net/DTD/sodipodi-0.dtd"
   xmlns:inkscape="http://www.inkscape.org/namespaces/inkscape"
   sodipodi:docname="honga-tonga.svg"
   inkscape:version="1.0 (4035a4f, 2020-05-01)"
   width="59.369122mm"
   height="40.017029mm"
   viewBox="0 0 59.369122 40.017029"
   version="1.1"
   id="svg8">
  <defs
     id="defs2">
    <marker
       inkscape:isstock="true"
       style="overflow:visible"
       id="Arrow1Mend"
       refX="0"
       refY="0"
       orient="auto"
       inkscape:stockid="Arrow1Mend">
      <path
         transform="matrix(-0.4,0,0,-0.4,-4,0)"
         style="fill:#000000;fill-opacity:1;fill-rule:evenodd;stroke:#000000;stroke-width:1pt;stroke-opacity:1"
         d="M 0,0 5,-5 -12.5,0 5,5 Z"
         id="path3030" />
    </marker>
    <marker
       inkscape:stockid="Arrow1Mend"
       orient="auto"
       refY="0"
       refX="0"
       id="Arrow1Mend-0"
       style="overflow:visible"
       inkscape:isstock="true">
      <path
         id="path3030-5"
         d="M 0,0 5,-5 -12.5,0 5,5 Z"
         style="fill:#000000;fill-opacity:1;fill-rule:evenodd;stroke:#000000;stroke-width:1pt;stroke-opacity:1"
         transform="matrix(-0.4,0,0,-0.4,-4,0)" />
    </marker>
  </defs>
  <sodipodi:namedview
     inkscape:window-maximized="0"
     inkscape:window-y="25"
     inkscape:window-x="111"
     inkscape:window-height="847"
     inkscape:window-width="1252"
     showgrid="false"
     inkscape:document-rotation="0"
     inkscape:current-layer="layer1"
     inkscape:document-units="mm"
     inkscape:cy="67.950026"
     inkscape:cx="64.984522"
     inkscape:zoom="2.1641079"
     inkscape:pageshadow="2"
     inkscape:pageopacity="0.0"
     borderopacity="1.0"
     bordercolor="#666666"
     pagecolor="#ffffff"
     id="base" />
  <metadata
     id="metadata5">
    <rdf:RDF>
      <cc:Work
         rdf:about="">
        <dc:format>image/svg+xml</dc:format>
        <dc:type
           rdf:resource="http://purl.org/dc/dcmitype/StillImage" />
        <dc:title></dc:title>
      </cc:Work>
    </rdf:RDF>
  </metadata>
  <g
     transform="translate(-82.36193,-103.50307)"
     id="layer1"
     inkscape:groupmode="layer"
     inkscape:label="Layer 1">
    <circle
       r="16.282795"
       cy="124.64761"
       cx="98.819725"
       id="path833"
       style="fill:#ffffff;stroke:#000000;stroke-width:0.35;stroke-miterlimit:4;stroke-dasharray:none;stroke-opacity:1" />
    <path
       style="fill:none;stroke:#211e1e;stroke-width:0.329494;stroke-linecap:butt;stroke-linejoin:miter;stroke-miterlimit:4;stroke-opacity:1"
       d="m 97.666763,108.29084 0.803601,-1.43576 0.841631,1.41379 m -0.841631,-1.41379 -0.02273,-1.70311 m 0.0064,-0.008 c 0.387178,-0.005 0.698512,-0.32493 0.693352,-0.71211 -0.0052,-0.38859 -0.324948,-0.6999 -0.712118,-0.69473 -0.388591,0.005 -0.699914,0.32493 -0.69474,0.71351 0.0051,0.38718 0.324923,0.69852 0.713506,0.69333 z m -1.06253,0.62195 2.115097,-0.0282"
       id="path93669" />
    <path
       id="path93669-9"
       d="m 114.98574,127.57754 1.24136,1.07991 -1.55589,0.53512 m 1.55589,-0.53512 1.67184,0.32565 m 0.007,0.007 c -0.0742,0.38004 0.17539,0.75016 0.55549,0.82418 0.38143,0.0745 0.75152,-0.17513 0.82554,-0.55519 0.0745,-0.38143 -0.17515,-0.75152 -0.55658,-0.82583 -0.38004,-0.0742 -0.75015,0.17539 -0.82445,0.55684 z m -0.39181,-1.16716 -0.40441,2.07628"
       style="fill:none;stroke:#211e1e;stroke-width:0.329494;stroke-linecap:butt;stroke-linejoin:miter;stroke-miterlimit:4;stroke-opacity:1" />
    <path
       sodipodi:nodetypes="cc"
       id="path2737"
       d="m 98.504599,108.34502 v 15.18731"
       style="fill:none;stroke:#000000;stroke-width:0.264583px;stroke-linecap:butt;stroke-linejoin:miter;stroke-opacity:1" />
    <path
       sodipodi:nodetypes="cc"
       id="path2739"
       d="m 98.504599,123.53233 16.108811,4.27936"
       style="fill:none;stroke:#000000;stroke-width:0.264583px;stroke-linecap:butt;stroke-linejoin:miter;stroke-opacity:1" />
    <path
       id="path2741"
       d="m 98.581071,121.63524 c 1.425549,0.1155 1.913759,1.25381 1.913759,2.31432"
       style="fill:none;stroke:#000000;stroke-width:0.264583px;stroke-linecap:butt;stroke-linejoin:miter;stroke-opacity:1" />
    <g
       transform="matrix(0.352778,0,0,0.352778,101.2089,119.45732)"
       ns1:version="1.3.1"
       ns1:texconverter="pdflatex"
       ns1:pdfconverter="inkscape"
       ns1:text="$\\theta$"
       ns1:preamble="/Users/mbh/Library/Application Support/org.inkscape.Inkscape/config/inkscape/extensions/textext/default_packages.tex"
       ns1:scale="1.0"
       ns1:alignment="middle center"
       ns1:jacobian_sqrt="0.352778"
       id="g2763">
      <defs
         id="id-126aa860-d2a0-49ad-b4d0-f761c855c21a">
        <g
           id="id-a3520de0-60a0-4889-8de7-bb700477433b">
          <symbol
             id="id-01d9c6f1-15ad-454b-b904-ee2a11f5bb30"
             overflow="visible">
            <path
               id="id-b23bb1f3-4006-48a5-b193-91122e141c7a"
               d=""
               style="stroke:none;stroke-width:0" />
          </symbol>
          <symbol
             id="id-a36e18d6-4b05-4716-baf7-6d0cd06af5d2"
             overflow="visible">
            <path
               id="id-723e8f6b-53e2-4026-bf07-243915d9f2bb"
               d="m 4.53125,-4.984375 c 0,-0.65625 -0.171875,-2.046875 -1.1875,-2.046875 -1.390625,0 -2.921875,2.8125 -2.921875,5.09375 0,0.9375 0.28125,2.046875 1.1875,2.046875 1.40625,0 2.921875,-2.859375 2.921875,-5.09375 z M 3.5625,-3.625 H 1.46875 C 1.640625,-4.25 1.84375,-5.046875 2.25,-5.765625 2.515625,-6.25 2.875,-6.8125 3.328125,-6.8125 c 0.484375,0 0.546875,0.640625 0.546875,1.203125 0,0.5 -0.078125,1 -0.3125,1.984375 z M 3.46875,-3.296875 C 3.359375,-2.84375 3.15625,-2 2.765625,-1.28125 c -0.34375,0.6875 -0.71875,1.171875 -1.15625,1.171875 -0.328125,0 -0.53125,-0.296875 -0.53125,-1.21875 0,-0.421875 0.0625,-1 0.3125,-1.96875 z m 0,0"
               style="stroke:none;stroke-width:0" />
          </symbol>
        </g>
      </defs>
      <g
         transform="translate(-149.134,-127.734)"
         id="id-2285c6d1-fa66-411d-bc81-36373ccb5247">
        <g
           id="id-2f05f849-269e-42c4-83de-91b6d5ba153c"
           style="fill:#000000;fill-opacity:1">
          <g
             transform="translate(148.712,134.765)"
             id="g2759">
            <path
               id="id-9c5683ac-f47b-4453-b3b4-22059217aa27"
               d="m 4.53125,-4.984375 c 0,-0.65625 -0.171875,-2.046875 -1.1875,-2.046875 -1.390625,0 -2.921875,2.8125 -2.921875,5.09375 0,0.9375 0.28125,2.046875 1.1875,2.046875 1.40625,0 2.921875,-2.859375 2.921875,-5.09375 z M 3.5625,-3.625 H 1.46875 C 1.640625,-4.25 1.84375,-5.046875 2.25,-5.765625 2.515625,-6.25 2.875,-6.8125 3.328125,-6.8125 c 0.484375,0 0.546875,0.640625 0.546875,1.203125 0,0.5 -0.078125,1 -0.3125,1.984375 z M 3.46875,-3.296875 C 3.359375,-2.84375 3.15625,-2 2.765625,-1.28125 c -0.34375,0.6875 -0.71875,1.171875 -1.15625,1.171875 -0.328125,0 -0.53125,-0.296875 -0.53125,-1.21875 0,-0.421875 0.0625,-1 0.3125,-1.96875 z m 0,0"
               style="stroke:none;stroke-width:0" />
          </g>
        </g>
      </g>
    </g>
    <g
       transform="matrix(0.352778,0,0,0.352778,102.32375,103.50325)"
       ns1:version="1.3.1"
       ns1:texconverter="pdflatex"
       ns1:pdfconverter="inkscape"
       ns1:text="\xcdsland"
       ns1:preamble="/Users/mbh/Library/Application Support/org.inkscape.Inkscape/config/inkscape/extensions/textext/default_packages.tex"
       ns1:scale="1.0"
       ns1:alignment="middle center"
       ns1:jacobian_sqrt="0.352778"
       id="g2834">
      <defs
         id="id-7a3e0d05-7866-4ac1-af6f-31c7fdc20035">
        <g
           id="id-ac54b058-afa5-403e-87d9-541e63203574">
          <symbol
             id="id-545ee7ec-d878-42c3-abf8-747b31368036"
             overflow="visible">
            <path
               id="id-69e38a9e-dbc5-41af-9c8e-09ceb4e269ba"
               d=""
               style="stroke:none;stroke-width:0" />
          </symbol>
          <symbol
             id="id-b183236f-b8ba-4477-b22f-6d7607a2d650"
             overflow="visible">
            <path
               id="id-224f938f-fc2b-4459-a818-688e31e711a3"
               d="m 3.3125,0 v -0.3125 h -0.25 C 2.265625,-0.3125 2.25,-0.421875 2.25,-0.78125 v -5.25 C 2.25,-6.390625 2.265625,-6.5 3.0625,-6.5 h 0.25 v -0.3125 c -0.34375,0.03125 -1.125,0.03125 -1.515625,0.03125 -0.375,0 -1.171875,0 -1.515625,-0.03125 V -6.5 h 0.25 c 0.796875,0 0.828125,0.109375 0.828125,0.46875 v 5.25 c 0,0.359375 -0.03125,0.46875 -0.828125,0.46875 h -0.25 V 0 c 0.34375,-0.03125 1.140625,-0.03125 1.515625,-0.03125 0.390625,0 1.171875,0 1.515625,0.03125 z M 3.171875,-8.640625 c 0.03125,-0.21875 -0.125,-0.421875 -0.34375,-0.421875 -0.125,0 -0.21875,0.078125 -0.265625,0.125 L 1.109375,-7.640625 1.25,-7.4375 2.953125,-8.375 C 3.0625,-8.421875 3.15625,-8.515625 3.171875,-8.640625 Z m 0,0"
               style="stroke:none;stroke-width:0" />
          </symbol>
          <symbol
             id="id-16d9b77b-6706-470a-ba77-7cc1d1e2343f"
             overflow="visible">
            <path
               id="id-b2da035d-b24e-4a96-bf5a-5050e23de4b8"
               d="m 3.59375,-1.28125 c 0,-0.515625 -0.296875,-0.828125 -0.421875,-0.9375 C 2.84375,-2.546875 2.453125,-2.625 2.03125,-2.703125 1.46875,-2.8125 0.8125,-2.9375 0.8125,-3.515625 c 0,-0.359375 0.25,-0.765625 1.109375,-0.765625 1.09375,0 1.15625,0.90625 1.171875,1.203125 0,0.09375 0.109375,0.09375 0.109375,0.09375 0.140625,0 0.140625,-0.046875 0.140625,-0.234375 v -1.015625 c 0,-0.15625 0,-0.234375 -0.109375,-0.234375 -0.046875,0 -0.078125,0 -0.203125,0.125 -0.03125,0.03125 -0.125,0.125 -0.171875,0.15625 -0.375,-0.28125 -0.78125,-0.28125 -0.9375,-0.28125 -1.21875,0 -1.59375,0.671875 -1.59375,1.234375 0,0.34375 0.15625,0.625 0.421875,0.84375 0.328125,0.25 0.609375,0.3125 1.328125,0.453125 0.21875,0.046875 1.03125,0.203125 1.03125,0.921875 0,0.5 -0.34375,0.90625 -1.125,0.90625 -0.84375,0 -1.203125,-0.5625 -1.390625,-1.421875 C 0.5625,-1.65625 0.5625,-1.6875 0.453125,-1.6875 c -0.125,0 -0.125,0.0625 -0.125,0.234375 V -0.125 c 0,0.171875 0,0.234375 0.109375,0.234375 0.046875,0 0.0625,-0.015625 0.25,-0.203125 0.015625,-0.015625 0.015625,-0.03125 0.203125,-0.21875 0.4375,0.40625 0.890625,0.421875 1.09375,0.421875 1.140625,0 1.609375,-0.671875 1.609375,-1.390625 z m 0,0"
               style="stroke:none;stroke-width:0" />
          </symbol>
          <symbol
             id="id-75b4a4dd-b2e5-4936-a63d-d3671628b5e4"
             overflow="visible">
            <path
               id="id-3f6fe015-42f8-46e8-8159-23b1301b015c"
               d="m 2.546875,0 v -0.3125 c -0.671875,0 -0.78125,0 -0.78125,-0.4375 V -6.921875 L 0.328125,-6.8125 V -6.5 c 0.703125,0 0.78125,0.0625 0.78125,0.5625 V -0.75 c 0,0.4375 -0.109375,0.4375 -0.78125,0.4375 V 0 L 1.4375,-0.03125 Z m 0,0"
               style="stroke:none;stroke-width:0" />
          </symbol>
          <symbol
             id="id-abbdd693-f238-4615-8995-71e4776ace7f"
             overflow="visible">
            <path
               id="id-94063c7a-8c9b-47b8-8c4a-ca93f6919aff"
               d="m 4.8125,-0.890625 v -0.5625 h -0.25 v 0.5625 C 4.5625,-0.3125 4.3125,-0.25 4.203125,-0.25 3.875,-0.25 3.84375,-0.703125 3.84375,-0.75 v -1.984375 c 0,-0.421875 0,-0.8125 -0.359375,-1.1875 C 3.09375,-4.3125 2.59375,-4.46875 2.109375,-4.46875 c -0.8125,0 -1.5,0.46875 -1.5,1.125 0,0.296875 0.203125,0.46875 0.453125,0.46875 0.28125,0 0.46875,-0.203125 0.46875,-0.453125 0,-0.125 -0.0625,-0.453125 -0.515625,-0.453125 C 1.28125,-4.140625 1.78125,-4.25 2.09375,-4.25 c 0.484375,0 1.0625,0.390625 1.0625,1.28125 v 0.359375 C 2.640625,-2.578125 1.9375,-2.546875 1.3125,-2.25 c -0.75,0.34375 -1,0.859375 -1,1.296875 0,0.8125 0.96875,1.0625 1.59375,1.0625 0.671875,0 1.125,-0.40625 1.3125,-0.859375 0.046875,0.390625 0.3125,0.8125 0.78125,0.8125 0.203125,0 0.8125,-0.140625 0.8125,-0.953125 z m -1.65625,-0.5 c 0,0.9375 -0.71875,1.28125 -1.171875,1.28125 -0.484375,0 -0.890625,-0.34375 -0.890625,-0.84375 0,-0.546875 0.40625,-1.375 2.0625,-1.4375 z m 0,0"
               style="stroke:none;stroke-width:0" />
          </symbol>
          <symbol
             id="id-7273f954-9b80-41e9-b4f1-d05edbccd77d"
             overflow="visible">
            <path
               id="id-c7eb083a-0dc2-4847-adf5-904e56c5511a"
               d="m 5.328125,0 v -0.3125 c -0.515625,0 -0.765625,0 -0.765625,-0.296875 v -1.90625 c 0,-0.859375 0,-1.15625 -0.3125,-1.515625 -0.140625,-0.171875 -0.46875,-0.375 -1.046875,-0.375 C 2.46875,-4.40625 2,-3.984375 1.71875,-3.359375 V -4.40625 L 0.3125,-4.296875 v 0.3125 c 0.703125,0 0.78125,0.0625 0.78125,0.5625 V -0.75 c 0,0.4375 -0.109375,0.4375 -0.78125,0.4375 V 0 L 1.453125,-0.03125 2.5625,0 v -0.3125 c -0.671875,0 -0.78125,0 -0.78125,-0.4375 V -2.59375 C 1.78125,-3.625 2.5,-4.1875 3.125,-4.1875 c 0.640625,0 0.75,0.53125 0.75,1.109375 V -0.75 c 0,0.4375 -0.109375,0.4375 -0.78125,0.4375 V 0 l 1.125,-0.03125 z m 0,0"
               style="stroke:none;stroke-width:0" />
          </symbol>
          <symbol
             id="id-66e71239-c2cb-4813-8d55-f0b0f4c19192"
             overflow="visible">
            <path
               id="id-fee72ea0-ce91-45a5-9cca-a5db389b9e55"
               d="m 5.25,0 v -0.3125 c -0.6875,0 -0.78125,-0.0625 -0.78125,-0.5625 V -6.921875 L 3.046875,-6.8125 V -6.5 c 0.6875,0 0.765625,0.0625 0.765625,0.5625 v 2.15625 c -0.28125,-0.359375 -0.71875,-0.625 -1.25,-0.625 -1.171875,0 -2.21875,0.984375 -2.21875,2.265625 0,1.265625 0.96875,2.25 2.109375,2.25 0.640625,0 1.078125,-0.34375 1.328125,-0.65625 v 0.65625 z M 3.78125,-1.171875 c 0,0.171875 0,0.1875 -0.109375,0.359375 C 3.375,-0.328125 2.9375,-0.109375 2.5,-0.109375 2.046875,-0.109375 1.6875,-0.375 1.453125,-0.75 1.203125,-1.15625 1.171875,-1.71875 1.171875,-2.140625 1.171875,-2.5 1.1875,-3.09375 1.46875,-3.546875 1.6875,-3.859375 2.0625,-4.1875 2.609375,-4.1875 c 0.34375,0 0.765625,0.15625 1.0625,0.59375 0.109375,0.171875 0.109375,0.1875 0.109375,0.375 z m 0,0"
               style="stroke:none;stroke-width:0" />
          </symbol>
        </g>
      </defs>
      <g
         transform="translate(-148.993,-125.703)"
         id="id-130dd2cf-521b-4a66-8fc8-1f971bf0de4c">
        <g
           id="id-f7c43840-611a-46c4-9bb8-6229c2694339"
           style="fill:#000000;fill-opacity:1">
          <g
             transform="translate(148.712,134.765)"
             id="g2815">
            <path
               id="id-bc38a378-33ad-409d-b870-df89e7c67566"
               d="m 3.3125,0 v -0.3125 h -0.25 C 2.265625,-0.3125 2.25,-0.421875 2.25,-0.78125 v -5.25 C 2.25,-6.390625 2.265625,-6.5 3.0625,-6.5 h 0.25 v -0.3125 c -0.34375,0.03125 -1.125,0.03125 -1.515625,0.03125 -0.375,0 -1.171875,0 -1.515625,-0.03125 V -6.5 h 0.25 c 0.796875,0 0.828125,0.109375 0.828125,0.46875 v 5.25 c 0,0.359375 -0.03125,0.46875 -0.828125,0.46875 h -0.25 V 0 c 0.34375,-0.03125 1.140625,-0.03125 1.515625,-0.03125 0.390625,0 1.171875,0 1.515625,0.03125 z M 3.171875,-8.640625 c 0.03125,-0.21875 -0.125,-0.421875 -0.34375,-0.421875 -0.125,0 -0.21875,0.078125 -0.265625,0.125 L 1.109375,-7.640625 1.25,-7.4375 2.953125,-8.375 C 3.0625,-8.421875 3.15625,-8.515625 3.171875,-8.640625 Z m 0,0"
               style="stroke:none;stroke-width:0" />
          </g>
          <g
             transform="translate(152.309,134.765)"
             id="g2818">
            <path
               id="id-5914a25f-4e9f-4a99-a460-16efac97b365"
               d="m 3.59375,-1.28125 c 0,-0.515625 -0.296875,-0.828125 -0.421875,-0.9375 C 2.84375,-2.546875 2.453125,-2.625 2.03125,-2.703125 1.46875,-2.8125 0.8125,-2.9375 0.8125,-3.515625 c 0,-0.359375 0.25,-0.765625 1.109375,-0.765625 1.09375,0 1.15625,0.90625 1.171875,1.203125 0,0.09375 0.109375,0.09375 0.109375,0.09375 0.140625,0 0.140625,-0.046875 0.140625,-0.234375 v -1.015625 c 0,-0.15625 0,-0.234375 -0.109375,-0.234375 -0.046875,0 -0.078125,0 -0.203125,0.125 -0.03125,0.03125 -0.125,0.125 -0.171875,0.15625 -0.375,-0.28125 -0.78125,-0.28125 -0.9375,-0.28125 -1.21875,0 -1.59375,0.671875 -1.59375,1.234375 0,0.34375 0.15625,0.625 0.421875,0.84375 0.328125,0.25 0.609375,0.3125 1.328125,0.453125 0.21875,0.046875 1.03125,0.203125 1.03125,0.921875 0,0.5 -0.34375,0.90625 -1.125,0.90625 -0.84375,0 -1.203125,-0.5625 -1.390625,-1.421875 C 0.5625,-1.65625 0.5625,-1.6875 0.453125,-1.6875 c -0.125,0 -0.125,0.0625 -0.125,0.234375 V -0.125 c 0,0.171875 0,0.234375 0.109375,0.234375 0.046875,0 0.0625,-0.015625 0.25,-0.203125 0.015625,-0.015625 0.015625,-0.03125 0.203125,-0.21875 0.4375,0.40625 0.890625,0.421875 1.09375,0.421875 1.140625,0 1.609375,-0.671875 1.609375,-1.390625 z m 0,0"
               style="stroke:none;stroke-width:0" />
          </g>
          <g
             transform="translate(156.24,134.765)"
             id="g2821">
            <path
               id="id-7b2759b2-2fa5-4d33-8ec0-c2f22141e8f4"
               d="m 2.546875,0 v -0.3125 c -0.671875,0 -0.78125,0 -0.78125,-0.4375 V -6.921875 L 0.328125,-6.8125 V -6.5 c 0.703125,0 0.78125,0.0625 0.78125,0.5625 V -0.75 c 0,0.4375 -0.109375,0.4375 -0.78125,0.4375 V 0 L 1.4375,-0.03125 Z m 0,0"
               style="stroke:none;stroke-width:0" />
          </g>
          <g
             transform="translate(159.007,134.765)"
             id="g2824">
            <path
               id="id-969b0895-7a60-46bc-9f6d-c57588ead5eb"
               d="m 4.8125,-0.890625 v -0.5625 h -0.25 v 0.5625 C 4.5625,-0.3125 4.3125,-0.25 4.203125,-0.25 3.875,-0.25 3.84375,-0.703125 3.84375,-0.75 v -1.984375 c 0,-0.421875 0,-0.8125 -0.359375,-1.1875 C 3.09375,-4.3125 2.59375,-4.46875 2.109375,-4.46875 c -0.8125,0 -1.5,0.46875 -1.5,1.125 0,0.296875 0.203125,0.46875 0.453125,0.46875 0.28125,0 0.46875,-0.203125 0.46875,-0.453125 0,-0.125 -0.0625,-0.453125 -0.515625,-0.453125 C 1.28125,-4.140625 1.78125,-4.25 2.09375,-4.25 c 0.484375,0 1.0625,0.390625 1.0625,1.28125 v 0.359375 C 2.640625,-2.578125 1.9375,-2.546875 1.3125,-2.25 c -0.75,0.34375 -1,0.859375 -1,1.296875 0,0.8125 0.96875,1.0625 1.59375,1.0625 0.671875,0 1.125,-0.40625 1.3125,-0.859375 0.046875,0.390625 0.3125,0.8125 0.78125,0.8125 0.203125,0 0.8125,-0.140625 0.8125,-0.953125 z m -1.65625,-0.5 c 0,0.9375 -0.71875,1.28125 -1.171875,1.28125 -0.484375,0 -0.890625,-0.34375 -0.890625,-0.84375 0,-0.546875 0.40625,-1.375 2.0625,-1.4375 z m 0,0"
               style="stroke:none;stroke-width:0" />
          </g>
          <g
             transform="translate(163.989,134.765)"
             id="g2827">
            <path
               id="id-da499b14-992e-4f8e-9ae2-3c4974a38690"
               d="m 5.328125,0 v -0.3125 c -0.515625,0 -0.765625,0 -0.765625,-0.296875 v -1.90625 c 0,-0.859375 0,-1.15625 -0.3125,-1.515625 -0.140625,-0.171875 -0.46875,-0.375 -1.046875,-0.375 C 2.46875,-4.40625 2,-3.984375 1.71875,-3.359375 V -4.40625 L 0.3125,-4.296875 v 0.3125 c 0.703125,0 0.78125,0.0625 0.78125,0.5625 V -0.75 c 0,0.4375 -0.109375,0.4375 -0.78125,0.4375 V 0 L 1.453125,-0.03125 2.5625,0 v -0.3125 c -0.671875,0 -0.78125,0 -0.78125,-0.4375 V -2.59375 C 1.78125,-3.625 2.5,-4.1875 3.125,-4.1875 c 0.640625,0 0.75,0.53125 0.75,1.109375 V -0.75 c 0,0.4375 -0.109375,0.4375 -0.78125,0.4375 V 0 l 1.125,-0.03125 z m 0,0"
               style="stroke:none;stroke-width:0" />
          </g>
          <g
             transform="translate(169.524,134.765)"
             id="g2830">
            <path
               id="id-2eefea01-c436-41b8-99c1-ec1a5f50257e"
               d="m 5.25,0 v -0.3125 c -0.6875,0 -0.78125,-0.0625 -0.78125,-0.5625 V -6.921875 L 3.046875,-6.8125 V -6.5 c 0.6875,0 0.765625,0.0625 0.765625,0.5625 v 2.15625 c -0.28125,-0.359375 -0.71875,-0.625 -1.25,-0.625 -1.171875,0 -2.21875,0.984375 -2.21875,2.265625 0,1.265625 0.96875,2.25 2.109375,2.25 0.640625,0 1.078125,-0.34375 1.328125,-0.65625 v 0.65625 z M 3.78125,-1.171875 c 0,0.171875 0,0.1875 -0.109375,0.359375 C 3.375,-0.328125 2.9375,-0.109375 2.5,-0.109375 2.046875,-0.109375 1.6875,-0.375 1.453125,-0.75 1.203125,-1.15625 1.171875,-1.71875 1.171875,-2.140625 1.171875,-2.5 1.1875,-3.09375 1.46875,-3.546875 1.6875,-3.859375 2.0625,-4.1875 2.609375,-4.1875 c 0.34375,0 0.765625,0.15625 1.0625,0.59375 0.109375,0.171875 0.109375,0.1875 0.109375,0.375 z m 0,0"
               style="stroke:none;stroke-width:0" />
          </g>
        </g>
      </g>
    </g>
    <g
       transform="matrix(0.352778,0,0,0.352778,121.40416,127.28042)"
       ns1:version="1.3.1"
       ns1:texconverter="pdflatex"
       ns1:pdfconverter="inkscape"
       ns1:text="Honga Tonga"
       ns1:preamble="/Users/mbh/Library/Application Support/org.inkscape.Inkscape/config/inkscape/extensions/textext/default_packages.tex"
       ns1:scale="1.0"
       ns1:alignment="middle center"
       ns1:jacobian_sqrt="0.352778"
       id="g2970">
      <defs
         id="id-9188abde-69ad-4632-bce2-5639962bb7b5">
        <g
           id="id-433149da-6e1f-46de-aa7b-9d4a296e22d0">
          <symbol
             id="id-cb686d68-128d-48e0-89d8-f84df9ffd432"
             overflow="visible">
            <path
               id="id-62814a7f-ef11-4720-ac0d-9064fd0496cd"
               d=""
               style="stroke:none;stroke-width:0" />
          </symbol>
          <symbol
             id="id-456791fc-9808-43e6-bfd2-90f1bca7ee44"
             overflow="visible">
            <path
               id="id-1b559257-612b-4116-8ebc-f7db8ef1261c"
               d="m 7.140625,0 v -0.3125 h -0.25 c -0.765625,0 -0.78125,-0.109375 -0.78125,-0.46875 v -5.25 C 6.109375,-6.390625 6.125,-6.5 6.890625,-6.5 h 0.25 v -0.3125 c -0.359375,0.03125 -1.09375,0.03125 -1.46875,0.03125 -0.375,0 -1.125,0 -1.46875,-0.03125 V -6.5 H 4.4375 c 0.765625,0 0.78125,0.109375 0.78125,0.46875 v 2.328125 H 2.25 V -6.03125 C 2.25,-6.390625 2.265625,-6.5 3.03125,-6.5 h 0.234375 v -0.3125 c -0.34375,0.03125 -1.078125,0.03125 -1.46875,0.03125 -0.375,0 -1.125,0 -1.46875,-0.03125 V -6.5 H 0.5625 c 0.765625,0 0.796875,0.109375 0.796875,0.46875 v 5.25 c 0,0.359375 -0.03125,0.46875 -0.796875,0.46875 H 0.328125 V 0 c 0.34375,-0.03125 1.09375,-0.03125 1.46875,-0.03125 0.375,0 1.125,0 1.46875,0.03125 V -0.3125 H 3.03125 C 2.265625,-0.3125 2.25,-0.421875 2.25,-0.78125 v -2.609375 h 2.96875 v 2.609375 c 0,0.359375 -0.015625,0.46875 -0.78125,0.46875 H 4.203125 V 0 c 0.34375,-0.03125 1.078125,-0.03125 1.453125,-0.03125 0.390625,0 1.125,0 1.484375,0.03125 z m 0,0"
               style="stroke:none;stroke-width:0" />
          </symbol>
          <symbol
             id="id-66ed5216-b513-4956-9e6b-ecf6f1e8d50f"
             overflow="visible">
            <path
               id="id-6fb8cc7a-acfb-4be8-8ad1-463c3d7bc9eb"
               d="M 4.6875,-2.140625 C 4.6875,-3.40625 3.703125,-4.46875 2.5,-4.46875 c -1.25,0 -2.21875,1.09375 -2.21875,2.328125 0,1.296875 1.03125,2.25 2.203125,2.25 1.203125,0 2.203125,-0.984375 2.203125,-2.25 z M 3.875,-2.21875 c 0,0.359375 0,0.90625 -0.21875,1.34375 -0.234375,0.453125 -0.671875,0.734375 -1.15625,0.734375 -0.4375,0 -0.875,-0.203125 -1.140625,-0.671875 -0.25,-0.4375 -0.25,-1.046875 -0.25,-1.40625 0,-0.390625 0,-0.921875 0.234375,-1.359375 C 1.609375,-4.03125 2.078125,-4.25 2.484375,-4.25 c 0.4375,0 0.859375,0.21875 1.125,0.65625 0.265625,0.421875 0.265625,1 0.265625,1.375 z m 0,0"
               style="stroke:none;stroke-width:0" />
          </symbol>
          <symbol
             id="id-1d54e7e0-6bd3-4522-8af5-a158315cec82"
             overflow="visible">
            <path
               id="id-ed7bf35f-dd6b-461e-8484-b9d723c14cda"
               d="m 5.328125,0 v -0.3125 c -0.515625,0 -0.765625,0 -0.765625,-0.296875 v -1.90625 c 0,-0.859375 0,-1.15625 -0.3125,-1.515625 -0.140625,-0.171875 -0.46875,-0.375 -1.046875,-0.375 C 2.46875,-4.40625 2,-3.984375 1.71875,-3.359375 V -4.40625 L 0.3125,-4.296875 v 0.3125 c 0.703125,0 0.78125,0.0625 0.78125,0.5625 V -0.75 c 0,0.4375 -0.109375,0.4375 -0.78125,0.4375 V 0 L 1.453125,-0.03125 2.5625,0 v -0.3125 c -0.671875,0 -0.78125,0 -0.78125,-0.4375 V -2.59375 C 1.78125,-3.625 2.5,-4.1875 3.125,-4.1875 c 0.640625,0 0.75,0.53125 0.75,1.109375 V -0.75 c 0,0.4375 -0.109375,0.4375 -0.78125,0.4375 V 0 l 1.125,-0.03125 z m 0,0"
               style="stroke:none;stroke-width:0" />
          </symbol>
          <symbol
             id="id-9504d7c0-1dfd-4a1c-857c-03ae25ae7872"
             overflow="visible">
            <path
               id="id-7fcc25cb-eb33-40c6-8088-ad7eaa0b2ec7"
               d="m 4.828125,-4.03125 c 0,-0.171875 -0.109375,-0.484375 -0.5,-0.484375 -0.203125,0 -0.640625,0.0625 -1.0625,0.46875 C 2.84375,-4.375 2.4375,-4.40625 2.21875,-4.40625 c -0.9375,0 -1.625,0.6875 -1.625,1.453125 0,0.4375 0.21875,0.8125 0.46875,1.03125 -0.125,0.140625 -0.3125,0.46875 -0.3125,0.828125 0,0.3125 0.140625,0.6875 0.453125,0.890625 -0.609375,0.15625 -0.921875,0.59375 -0.921875,0.984375 0,0.71875 0.984375,1.265625 2.203125,1.265625 1.171875,0 2.203125,-0.5 2.203125,-1.28125 0,-0.34375 -0.125,-0.859375 -0.640625,-1.140625 -0.53125,-0.265625 -1.109375,-0.265625 -1.71875,-0.265625 -0.25,0 -0.671875,0 -0.75,-0.015625 C 1.265625,-0.703125 1.0625,-1 1.0625,-1.328125 c 0,-0.03125 0,-0.265625 0.15625,-0.46875 0.390625,0.28125 0.8125,0.3125 1,0.3125 0.921875,0 1.609375,-0.6875 1.609375,-1.453125 0,-0.375 -0.15625,-0.734375 -0.40625,-0.96875 C 3.78125,-4.25 4.140625,-4.296875 4.3125,-4.296875 c 0,0 0.078125,0 0.109375,0.015625 C 4.3125,-4.25 4.25,-4.140625 4.25,-4.015625 c 0,0.171875 0.140625,0.28125 0.296875,0.28125 0.09375,0 0.28125,-0.0625 0.28125,-0.296875 z m -1.75,1.078125 c 0,0.265625 0,0.59375 -0.15625,0.84375 C 2.84375,-2 2.609375,-1.71875 2.21875,-1.71875 c -0.875,0 -0.875,-1 -0.875,-1.21875 0,-0.265625 0.015625,-0.59375 0.15625,-0.84375 0.078125,-0.109375 0.3125,-0.390625 0.71875,-0.390625 0.859375,0 0.859375,0.984375 0.859375,1.21875 z m 1.09375,3.734375 c 0,0.546875 -0.703125,1.046875 -1.671875,1.046875 -1.015625,0 -1.703125,-0.515625 -1.703125,-1.046875 0,-0.453125 0.375,-0.828125 0.8125,-0.84375 h 0.59375 c 0.859375,0 1.96875,0 1.96875,0.84375 z m 0,0"
               style="stroke:none;stroke-width:0" />
          </symbol>
          <symbol
             id="id-90fd3edb-c619-4f6e-bb1a-a8da29b28da2"
             overflow="visible">
            <path
               id="id-ccfbb0d4-16a8-498c-89e2-c1f23a56fea9"
               d="m 4.8125,-0.890625 v -0.5625 h -0.25 v 0.5625 C 4.5625,-0.3125 4.3125,-0.25 4.203125,-0.25 3.875,-0.25 3.84375,-0.703125 3.84375,-0.75 v -1.984375 c 0,-0.421875 0,-0.8125 -0.359375,-1.1875 C 3.09375,-4.3125 2.59375,-4.46875 2.109375,-4.46875 c -0.8125,0 -1.5,0.46875 -1.5,1.125 0,0.296875 0.203125,0.46875 0.453125,0.46875 0.28125,0 0.46875,-0.203125 0.46875,-0.453125 0,-0.125 -0.0625,-0.453125 -0.515625,-0.453125 C 1.28125,-4.140625 1.78125,-4.25 2.09375,-4.25 c 0.484375,0 1.0625,0.390625 1.0625,1.28125 v 0.359375 C 2.640625,-2.578125 1.9375,-2.546875 1.3125,-2.25 c -0.75,0.34375 -1,0.859375 -1,1.296875 0,0.8125 0.96875,1.0625 1.59375,1.0625 0.671875,0 1.125,-0.40625 1.3125,-0.859375 0.046875,0.390625 0.3125,0.8125 0.78125,0.8125 0.203125,0 0.8125,-0.140625 0.8125,-0.953125 z m -1.65625,-0.5 c 0,0.9375 -0.71875,1.28125 -1.171875,1.28125 -0.484375,0 -0.890625,-0.34375 -0.890625,-0.84375 0,-0.546875 0.40625,-1.375 2.0625,-1.4375 z m 0,0"
               style="stroke:none;stroke-width:0" />
          </symbol>
          <symbol
             id="id-90da637c-c36a-472e-afe7-aabe3f332d6c"
             overflow="visible">
            <path
               id="id-86e830ba-8b5f-4adb-b3e4-ef3feacd3838"
               d="m 6.828125,-4.5 -0.1875,-2.25 h -6.09375 l -0.1875,2.25 h 0.25 C 0.75,-6.109375 0.890625,-6.4375 2.40625,-6.4375 c 0.171875,0 0.4375,0 0.53125,0.015625 0.21875,0.046875 0.21875,0.15625 0.21875,0.375 v 5.265625 c 0,0.328125 0,0.46875 -1.046875,0.46875 H 1.703125 V 0 C 2.109375,-0.03125 3.125,-0.03125 3.59375,-0.03125 c 0.453125,0 1.484375,0 1.890625,0.03125 v -0.3125 h -0.40625 c -1.046875,0 -1.046875,-0.140625 -1.046875,-0.46875 v -5.265625 c 0,-0.1875 0,-0.328125 0.1875,-0.375 0.109375,-0.015625 0.375,-0.015625 0.5625,-0.015625 1.515625,0 1.65625,0.328125 1.796875,1.9375 z m 0,0"
               style="stroke:none;stroke-width:0" />
          </symbol>
        </g>
      </defs>
      <g
         transform="translate(-149.04,-127.953)"
         id="id-f73677df-f3f0-4ab8-9b93-b291eb2e8786">
        <g
           id="id-e1894767-a1bd-4379-b99c-5b3dff2219e4"
           style="fill:#000000;fill-opacity:1">
          <g
             transform="translate(148.712,134.765)"
             id="g2937">
            <path
               id="id-cc3ef14e-7b4e-47e4-a2fc-837d0cd03ee8"
               d="m 7.140625,0 v -0.3125 h -0.25 c -0.765625,0 -0.78125,-0.109375 -0.78125,-0.46875 v -5.25 C 6.109375,-6.390625 6.125,-6.5 6.890625,-6.5 h 0.25 v -0.3125 c -0.359375,0.03125 -1.09375,0.03125 -1.46875,0.03125 -0.375,0 -1.125,0 -1.46875,-0.03125 V -6.5 H 4.4375 c 0.765625,0 0.78125,0.109375 0.78125,0.46875 v 2.328125 H 2.25 V -6.03125 C 2.25,-6.390625 2.265625,-6.5 3.03125,-6.5 h 0.234375 v -0.3125 c -0.34375,0.03125 -1.078125,0.03125 -1.46875,0.03125 -0.375,0 -1.125,0 -1.46875,-0.03125 V -6.5 H 0.5625 c 0.765625,0 0.796875,0.109375 0.796875,0.46875 v 5.25 c 0,0.359375 -0.03125,0.46875 -0.796875,0.46875 H 0.328125 V 0 c 0.34375,-0.03125 1.09375,-0.03125 1.46875,-0.03125 0.375,0 1.125,0 1.46875,0.03125 V -0.3125 H 3.03125 C 2.265625,-0.3125 2.25,-0.421875 2.25,-0.78125 v -2.609375 h 2.96875 v 2.609375 c 0,0.359375 -0.015625,0.46875 -0.78125,0.46875 H 4.203125 V 0 c 0.34375,-0.03125 1.078125,-0.03125 1.453125,-0.03125 0.390625,0 1.125,0 1.484375,0.03125 z m 0,0"
               style="stroke:none;stroke-width:0" />
          </g>
          <g
             transform="translate(156.184,134.765)"
             id="g2940">
            <path
               id="id-0c94bef6-be74-4ded-8d32-c878ea6e289e"
               d="M 4.6875,-2.140625 C 4.6875,-3.40625 3.703125,-4.46875 2.5,-4.46875 c -1.25,0 -2.21875,1.09375 -2.21875,2.328125 0,1.296875 1.03125,2.25 2.203125,2.25 1.203125,0 2.203125,-0.984375 2.203125,-2.25 z M 3.875,-2.21875 c 0,0.359375 0,0.90625 -0.21875,1.34375 -0.234375,0.453125 -0.671875,0.734375 -1.15625,0.734375 -0.4375,0 -0.875,-0.203125 -1.140625,-0.671875 -0.25,-0.4375 -0.25,-1.046875 -0.25,-1.40625 0,-0.390625 0,-0.921875 0.234375,-1.359375 C 1.609375,-4.03125 2.078125,-4.25 2.484375,-4.25 c 0.4375,0 0.859375,0.21875 1.125,0.65625 0.265625,0.421875 0.265625,1 0.265625,1.375 z m 0,0"
               style="stroke:none;stroke-width:0" />
          </g>
          <g
             transform="translate(161.165,134.765)"
             id="g2943">
            <path
               id="id-527ef0bc-e073-4392-9c17-51afb5db88cf"
               d="m 5.328125,0 v -0.3125 c -0.515625,0 -0.765625,0 -0.765625,-0.296875 v -1.90625 c 0,-0.859375 0,-1.15625 -0.3125,-1.515625 -0.140625,-0.171875 -0.46875,-0.375 -1.046875,-0.375 C 2.46875,-4.40625 2,-3.984375 1.71875,-3.359375 V -4.40625 L 0.3125,-4.296875 v 0.3125 c 0.703125,0 0.78125,0.0625 0.78125,0.5625 V -0.75 c 0,0.4375 -0.109375,0.4375 -0.78125,0.4375 V 0 L 1.453125,-0.03125 2.5625,0 v -0.3125 c -0.671875,0 -0.78125,0 -0.78125,-0.4375 V -2.59375 C 1.78125,-3.625 2.5,-4.1875 3.125,-4.1875 c 0.640625,0 0.75,0.53125 0.75,1.109375 V -0.75 c 0,0.4375 -0.109375,0.4375 -0.78125,0.4375 V 0 l 1.125,-0.03125 z m 0,0"
               style="stroke:none;stroke-width:0" />
          </g>
          <g
             transform="translate(166.7,134.765)"
             id="g2946">
            <path
               id="id-26a23a09-44ca-4aca-8ccf-52c01a243a5f"
               d="m 4.828125,-4.03125 c 0,-0.171875 -0.109375,-0.484375 -0.5,-0.484375 -0.203125,0 -0.640625,0.0625 -1.0625,0.46875 C 2.84375,-4.375 2.4375,-4.40625 2.21875,-4.40625 c -0.9375,0 -1.625,0.6875 -1.625,1.453125 0,0.4375 0.21875,0.8125 0.46875,1.03125 -0.125,0.140625 -0.3125,0.46875 -0.3125,0.828125 0,0.3125 0.140625,0.6875 0.453125,0.890625 -0.609375,0.15625 -0.921875,0.59375 -0.921875,0.984375 0,0.71875 0.984375,1.265625 2.203125,1.265625 1.171875,0 2.203125,-0.5 2.203125,-1.28125 0,-0.34375 -0.125,-0.859375 -0.640625,-1.140625 -0.53125,-0.265625 -1.109375,-0.265625 -1.71875,-0.265625 -0.25,0 -0.671875,0 -0.75,-0.015625 C 1.265625,-0.703125 1.0625,-1 1.0625,-1.328125 c 0,-0.03125 0,-0.265625 0.15625,-0.46875 0.390625,0.28125 0.8125,0.3125 1,0.3125 0.921875,0 1.609375,-0.6875 1.609375,-1.453125 0,-0.375 -0.15625,-0.734375 -0.40625,-0.96875 C 3.78125,-4.25 4.140625,-4.296875 4.3125,-4.296875 c 0,0 0.078125,0 0.109375,0.015625 C 4.3125,-4.25 4.25,-4.140625 4.25,-4.015625 c 0,0.171875 0.140625,0.28125 0.296875,0.28125 0.09375,0 0.28125,-0.0625 0.28125,-0.296875 z m -1.75,1.078125 c 0,0.265625 0,0.59375 -0.15625,0.84375 C 2.84375,-2 2.609375,-1.71875 2.21875,-1.71875 c -0.875,0 -0.875,-1 -0.875,-1.21875 0,-0.265625 0.015625,-0.59375 0.15625,-0.84375 0.078125,-0.109375 0.3125,-0.390625 0.71875,-0.390625 0.859375,0 0.859375,0.984375 0.859375,1.21875 z m 1.09375,3.734375 c 0,0.546875 -0.703125,1.046875 -1.671875,1.046875 -1.015625,0 -1.703125,-0.515625 -1.703125,-1.046875 0,-0.453125 0.375,-0.828125 0.8125,-0.84375 h 0.59375 c 0.859375,0 1.96875,0 1.96875,0.84375 z m 0,0"
               style="stroke:none;stroke-width:0" />
          </g>
          <g
             transform="translate(171.682,134.765)"
             id="g2949">
            <path
               id="id-5908dd8b-9eaa-425f-a7c5-c9fb6f277b95"
               d="m 4.8125,-0.890625 v -0.5625 h -0.25 v 0.5625 C 4.5625,-0.3125 4.3125,-0.25 4.203125,-0.25 3.875,-0.25 3.84375,-0.703125 3.84375,-0.75 v -1.984375 c 0,-0.421875 0,-0.8125 -0.359375,-1.1875 C 3.09375,-4.3125 2.59375,-4.46875 2.109375,-4.46875 c -0.8125,0 -1.5,0.46875 -1.5,1.125 0,0.296875 0.203125,0.46875 0.453125,0.46875 0.28125,0 0.46875,-0.203125 0.46875,-0.453125 0,-0.125 -0.0625,-0.453125 -0.515625,-0.453125 C 1.28125,-4.140625 1.78125,-4.25 2.09375,-4.25 c 0.484375,0 1.0625,0.390625 1.0625,1.28125 v 0.359375 C 2.640625,-2.578125 1.9375,-2.546875 1.3125,-2.25 c -0.75,0.34375 -1,0.859375 -1,1.296875 0,0.8125 0.96875,1.0625 1.59375,1.0625 0.671875,0 1.125,-0.40625 1.3125,-0.859375 0.046875,0.390625 0.3125,0.8125 0.78125,0.8125 0.203125,0 0.8125,-0.140625 0.8125,-0.953125 z m -1.65625,-0.5 c 0,0.9375 -0.71875,1.28125 -1.171875,1.28125 -0.484375,0 -0.890625,-0.34375 -0.890625,-0.84375 0,-0.546875 0.40625,-1.375 2.0625,-1.4375 z m 0,0"
               style="stroke:none;stroke-width:0" />
          </g>
        </g>
        <g
           id="id-f86e7943-6fb0-4685-9845-d377034d17b6"
           style="fill:#000000;fill-opacity:1">
          <g
             transform="translate(179.981,134.765)"
             id="g2953">
            <path
               id="id-2f3254e4-b603-4791-96c5-c887dafbe0e4"
               d="m 6.828125,-4.5 -0.1875,-2.25 h -6.09375 l -0.1875,2.25 h 0.25 C 0.75,-6.109375 0.890625,-6.4375 2.40625,-6.4375 c 0.171875,0 0.4375,0 0.53125,0.015625 0.21875,0.046875 0.21875,0.15625 0.21875,0.375 v 5.265625 c 0,0.328125 0,0.46875 -1.046875,0.46875 H 1.703125 V 0 C 2.109375,-0.03125 3.125,-0.03125 3.59375,-0.03125 c 0.453125,0 1.484375,0 1.890625,0.03125 v -0.3125 h -0.40625 c -1.046875,0 -1.046875,-0.140625 -1.046875,-0.46875 v -5.265625 c 0,-0.1875 0,-0.328125 0.1875,-0.375 0.109375,-0.015625 0.375,-0.015625 0.5625,-0.015625 1.515625,0 1.65625,0.328125 1.796875,1.9375 z m 0,0"
               style="stroke:none;stroke-width:0" />
          </g>
        </g>
        <g
           id="id-5e8d9bd0-7d0f-482b-b6eb-4d2db21da765"
           style="fill:#000000;fill-opacity:1">
          <g
             transform="translate(186.349,134.765)"
             id="g2957">
            <path
               id="id-4592747e-73ee-49df-a248-6153ffc9d9da"
               d="M 4.6875,-2.140625 C 4.6875,-3.40625 3.703125,-4.46875 2.5,-4.46875 c -1.25,0 -2.21875,1.09375 -2.21875,2.328125 0,1.296875 1.03125,2.25 2.203125,2.25 1.203125,0 2.203125,-0.984375 2.203125,-2.25 z M 3.875,-2.21875 c 0,0.359375 0,0.90625 -0.21875,1.34375 -0.234375,0.453125 -0.671875,0.734375 -1.15625,0.734375 -0.4375,0 -0.875,-0.203125 -1.140625,-0.671875 -0.25,-0.4375 -0.25,-1.046875 -0.25,-1.40625 0,-0.390625 0,-0.921875 0.234375,-1.359375 C 1.609375,-4.03125 2.078125,-4.25 2.484375,-4.25 c 0.4375,0 0.859375,0.21875 1.125,0.65625 0.265625,0.421875 0.265625,1 0.265625,1.375 z m 0,0"
               style="stroke:none;stroke-width:0" />
          </g>
          <g
             transform="translate(191.33,134.765)"
             id="g2960">
            <path
               id="id-34a3f7c9-d819-4406-906c-f555b360a41b"
               d="m 5.328125,0 v -0.3125 c -0.515625,0 -0.765625,0 -0.765625,-0.296875 v -1.90625 c 0,-0.859375 0,-1.15625 -0.3125,-1.515625 -0.140625,-0.171875 -0.46875,-0.375 -1.046875,-0.375 C 2.46875,-4.40625 2,-3.984375 1.71875,-3.359375 V -4.40625 L 0.3125,-4.296875 v 0.3125 c 0.703125,0 0.78125,0.0625 0.78125,0.5625 V -0.75 c 0,0.4375 -0.109375,0.4375 -0.78125,0.4375 V 0 L 1.453125,-0.03125 2.5625,0 v -0.3125 c -0.671875,0 -0.78125,0 -0.78125,-0.4375 V -2.59375 C 1.78125,-3.625 2.5,-4.1875 3.125,-4.1875 c 0.640625,0 0.75,0.53125 0.75,1.109375 V -0.75 c 0,0.4375 -0.109375,0.4375 -0.78125,0.4375 V 0 l 1.125,-0.03125 z m 0,0"
               style="stroke:none;stroke-width:0" />
          </g>
          <g
             transform="translate(196.865,134.765)"
             id="g2963">
            <path
               id="id-2dcfe431-6669-4277-8a9b-64b1ee649976"
               d="m 4.828125,-4.03125 c 0,-0.171875 -0.109375,-0.484375 -0.5,-0.484375 -0.203125,0 -0.640625,0.0625 -1.0625,0.46875 C 2.84375,-4.375 2.4375,-4.40625 2.21875,-4.40625 c -0.9375,0 -1.625,0.6875 -1.625,1.453125 0,0.4375 0.21875,0.8125 0.46875,1.03125 -0.125,0.140625 -0.3125,0.46875 -0.3125,0.828125 0,0.3125 0.140625,0.6875 0.453125,0.890625 -0.609375,0.15625 -0.921875,0.59375 -0.921875,0.984375 0,0.71875 0.984375,1.265625 2.203125,1.265625 1.171875,0 2.203125,-0.5 2.203125,-1.28125 0,-0.34375 -0.125,-0.859375 -0.640625,-1.140625 -0.53125,-0.265625 -1.109375,-0.265625 -1.71875,-0.265625 -0.25,0 -0.671875,0 -0.75,-0.015625 C 1.265625,-0.703125 1.0625,-1 1.0625,-1.328125 c 0,-0.03125 0,-0.265625 0.15625,-0.46875 0.390625,0.28125 0.8125,0.3125 1,0.3125 0.921875,0 1.609375,-0.6875 1.609375,-1.453125 0,-0.375 -0.15625,-0.734375 -0.40625,-0.96875 C 3.78125,-4.25 4.140625,-4.296875 4.3125,-4.296875 c 0,0 0.078125,0 0.109375,0.015625 C 4.3125,-4.25 4.25,-4.140625 4.25,-4.015625 c 0,0.171875 0.140625,0.28125 0.296875,0.28125 0.09375,0 0.28125,-0.0625 0.28125,-0.296875 z m -1.75,1.078125 c 0,0.265625 0,0.59375 -0.15625,0.84375 C 2.84375,-2 2.609375,-1.71875 2.21875,-1.71875 c -0.875,0 -0.875,-1 -0.875,-1.21875 0,-0.265625 0.015625,-0.59375 0.15625,-0.84375 0.078125,-0.109375 0.3125,-0.390625 0.71875,-0.390625 0.859375,0 0.859375,0.984375 0.859375,1.21875 z m 1.09375,3.734375 c 0,0.546875 -0.703125,1.046875 -1.671875,1.046875 -1.015625,0 -1.703125,-0.515625 -1.703125,-1.046875 0,-0.453125 0.375,-0.828125 0.8125,-0.84375 h 0.59375 c 0.859375,0 1.96875,0 1.96875,0.84375 z m 0,0"
               style="stroke:none;stroke-width:0" />
          </g>
          <g
             transform="translate(201.847,134.765)"
             id="g2966">
            <path
               id="id-406db695-b5c5-40fd-b8a8-7fab3e71ea96"
               d="m 4.8125,-0.890625 v -0.5625 h -0.25 v 0.5625 C 4.5625,-0.3125 4.3125,-0.25 4.203125,-0.25 3.875,-0.25 3.84375,-0.703125 3.84375,-0.75 v -1.984375 c 0,-0.421875 0,-0.8125 -0.359375,-1.1875 C 3.09375,-4.3125 2.59375,-4.46875 2.109375,-4.46875 c -0.8125,0 -1.5,0.46875 -1.5,1.125 0,0.296875 0.203125,0.46875 0.453125,0.46875 0.28125,0 0.46875,-0.203125 0.46875,-0.453125 0,-0.125 -0.0625,-0.453125 -0.515625,-0.453125 C 1.28125,-4.140625 1.78125,-4.25 2.09375,-4.25 c 0.484375,0 1.0625,0.390625 1.0625,1.28125 v 0.359375 C 2.640625,-2.578125 1.9375,-2.546875 1.3125,-2.25 c -0.75,0.34375 -1,0.859375 -1,1.296875 0,0.8125 0.96875,1.0625 1.59375,1.0625 0.671875,0 1.125,-0.40625 1.3125,-0.859375 0.046875,0.390625 0.3125,0.8125 0.78125,0.8125 0.203125,0 0.8125,-0.140625 0.8125,-0.953125 z m -1.65625,-0.5 c 0,0.9375 -0.71875,1.28125 -1.171875,1.28125 -0.484375,0 -0.890625,-0.34375 -0.890625,-0.84375 0,-0.546875 0.40625,-1.375 2.0625,-1.4375 z m 0,0"
               style="stroke:none;stroke-width:0" />
          </g>
        </g>
      </g>
    </g>
    <path
       id="path3019"
       d="m 119.98013,122.81152 c 0.1271,-4.36974 -1.21232,-8.52675 -4.24708,-11.56151"
       style="fill:none;stroke:#000000;stroke-width:0.264583px;stroke-linecap:butt;stroke-linejoin:miter;stroke-opacity:1;marker-end:url(#Arrow1Mend)" />
    <path
       style="fill:none;stroke:#000000;stroke-width:0.264583px;stroke-linecap:butt;stroke-linejoin:miter;stroke-opacity:1;marker-end:url(#Arrow1Mend-0)"
       d="m 118.21837,133.67904 c -1.27012,4.18301 -3.86282,7.69765 -7.70557,9.60887"
       id="path3019-2" />
  </g>
</svg>
