<?xml version="1.0" encoding="UTF-8" standalone="no"?>
<svg
   xmlns:ns1="http://www.iki.fi/pav/software/textext/"
   xmlns:dc="http://purl.org/dc/elements/1.1/"
   xmlns:cc="http://creativecommons.org/ns#"
   xmlns:rdf="http://www.w3.org/1999/02/22-rdf-syntax-ns#"
   xmlns:svg="http://www.w3.org/2000/svg"
   xmlns="http://www.w3.org/2000/svg"
   xmlns:sodipodi="http://sodipodi.sourceforge.net/DTD/sodipodi-0.dtd"
   xmlns:inkscape="http://www.inkscape.org/namespaces/inkscape"
   sodipodi:docname="kassi-leka.svg"
   inkscape:version="1.0 (4035a4f, 2020-05-01)"
   id="svg8"
   version="1.1"
   viewBox="0 0 210 297"
   height="297mm"
   width="210mm">
  <defs
     id="defs2">
    <marker
       inkscape:stockid="Arrow1Mend"
       orient="auto"
       refY="0.0"
       refX="0.0"
       id="marker1359"
       style="overflow:visible;"
       inkscape:isstock="true">
      <path
         id="path1357"
         d="M 0.0,0.0 L 5.0,-5.0 L -12.5,0.0 L 5.0,5.0 L 0.0,0.0 z "
         style="fill-rule:evenodd;stroke:#000000;stroke-width:1pt;stroke-opacity:1;fill:#000000;fill-opacity:1"
         transform="scale(0.4) rotate(180) translate(10,0)" />
    </marker>
    <marker
       inkscape:collect="always"
       inkscape:isstock="true"
       style="overflow:visible;"
       id="Arrow1Mend"
       refX="0.0"
       refY="0.0"
       orient="auto"
       inkscape:stockid="Arrow1Mend">
      <path
         transform="scale(0.4) rotate(180) translate(10,0)"
         style="fill-rule:evenodd;stroke:#000000;stroke-width:1pt;stroke-opacity:1;fill:#000000;fill-opacity:1"
         d="M 0.0,0.0 L 5.0,-5.0 L -12.5,0.0 L 5.0,5.0 L 0.0,0.0 z "
         id="path877" />
    </marker>
  </defs>
  <sodipodi:namedview
     inkscape:window-maximized="0"
     inkscape:window-y="72"
     inkscape:window-x="178"
     inkscape:window-height="847"
     inkscape:window-width="1252"
     showgrid="false"
     inkscape:document-rotation="0"
     inkscape:current-layer="layer1"
     inkscape:document-units="mm"
     inkscape:cy="270.73405"
     inkscape:cx="379.12438"
     inkscape:zoom="1.8942271"
     inkscape:pageshadow="2"
     inkscape:pageopacity="0.0"
     borderopacity="1.0"
     bordercolor="#666666"
     pagecolor="#ffffff"
     id="base" />
  <metadata
     id="metadata5">
    <rdf:RDF>
      <cc:Work
         rdf:about="">
        <dc:format>image/svg+xml</dc:format>
        <dc:type
           rdf:resource="http://purl.org/dc/dcmitype/StillImage" />
        <dc:title></dc:title>
      </cc:Work>
    </rdf:RDF>
  </metadata>
  <g
     id="layer1"
     inkscape:groupmode="layer"
     inkscape:label="Layer 1">
    <rect
       y="66.035904"
       x="73.786598"
       height="21.701941"
       width="43.403881"
       id="rect833"
       style="fill:none;stroke:#000000;stroke-width:0.264999" />
    <path
       id="path835"
       d="m 73.786597,66.035903 5.811446,-10.06572"
       style="fill:none;stroke:#000000;stroke-width:0.264583px;stroke-linecap:butt;stroke-linejoin:miter;stroke-opacity:1" />
    <path
       style="fill:none;stroke:#000000;stroke-width:0.264583px;stroke-linecap:butt;stroke-linejoin:miter;stroke-opacity:1"
       d="m 117.19048,66.035904 5.81145,-10.06572"
       id="path835-3" />
    <path
       style="fill:none;stroke:#000000;stroke-width:0.264583px;stroke-linecap:butt;stroke-linejoin:miter;stroke-opacity:1"
       d="m 117.19048,87.737846 5.81145,-10.065721"
       id="path835-8" />
    <path
       id="path860"
       d="M 123.00193,77.672125 V 55.970183 l -43.403887,0"
       style="fill:none;stroke:#000000;stroke-width:0.264583px;stroke-linecap:butt;stroke-linejoin:miter;stroke-opacity:1" />
    <ellipse
       ry="2.0213742"
       rx="1.2492779"
       cy="71.550156"
       cx="120.49072"
       id="path862"
       style="fill:none;stroke:#000000;stroke-width:0.264999" />
    <path
       id="path866"
       d="m 132.13612,62.85545 c -1.83236,3.341423 -3.9238,6.361785 -7.12361,7.961691"
       style="fill:none;stroke:#000000;stroke-width:0.265;stroke-linecap:butt;stroke-linejoin:miter;stroke-miterlimit:4;stroke-dasharray:none;stroke-opacity:1;marker-end:url(#Arrow1Mend)" />
    <g
       transform="matrix(0.282222,0,0,0.282222,131.26307,59.309928)"
       ns1:version="1.3.1"
       ns1:texconverter="pdflatex"
       ns1:pdfconverter="inkscape"
       ns1:text="$A$"
       ns1:preamble="/Users/mbh/Library/Application Support/org.inkscape.Inkscape/config/inkscape/extensions/textext/default_packages.tex"
       ns1:scale="0.8"
       ns1:alignment="middle center"
       ns1:jacobian_sqrt="0.282222"
       id="g1179">
      <defs
         id="id-13f9081c-c49d-4c19-8cb1-6a15759f0e33">
        <g
           id="id-d0b76bf1-7f66-4d2a-953a-9b6d1961effc">
          <symbol
             id="id-4c61e23e-1dbc-4f89-aacb-7a67c323e004"
             overflow="visible">
            <path
               id="id-d748c593-f91f-4482-aaa5-73aabbd637ef"
               d=""
               style="stroke:none;stroke-width:0" />
          </symbol>
          <symbol
             id="id-29ec964b-f304-46c9-87a4-c6aeee6cc8b5"
             overflow="visible">
            <path
               id="id-7f1e69e4-d8d0-4f01-9bf3-76b3d52139e9"
               d="M 7.1875,-0.203125 C 7.1875,-0.3125 7.09375,-0.3125 6.953125,-0.3125 6.34375,-0.3125 6.34375,-0.375 6.3125,-0.671875 l -0.609375,-6.21875 c -0.015625,-0.203125 -0.015625,-0.25 -0.1875,-0.25 -0.15625,0 -0.203125,0.078125 -0.265625,0.171875 L 1.78125,-1.140625 C 1.390625,-0.484375 1,-0.34375 0.5625,-0.3125 0.4375,-0.296875 0.34375,-0.296875 0.34375,-0.109375 0.34375,-0.046875 0.40625,0 0.484375,0 0.75,0 1.0625,-0.03125 1.328125,-0.03125 c 0.34375,0 0.6875,0.03125 1,0.03125 0.0625,0 0.1875,0 0.1875,-0.1875 0,-0.109375 -0.078125,-0.125 -0.15625,-0.125 -0.21875,-0.015625 -0.46875,-0.09375 -0.46875,-0.34375 0,-0.125 0.0625,-0.234375 0.140625,-0.375 0.078125,-0.109375 0.078125,-0.109375 0.765625,-1.265625 h 2.5 c 0.015625,0.203125 0.15625,1.5625 0.15625,1.65625 0,0.296875 -0.515625,0.328125 -0.71875,0.328125 C 4.59375,-0.3125 4.5,-0.3125 4.5,-0.109375 4.5,0 4.640625,0 4.640625,0 5.046875,0 5.46875,-0.03125 5.875,-0.03125 6.125,-0.03125 6.765625,0 7.015625,0 7.0625,0 7.1875,0 7.1875,-0.203125 Z M 5.265625,-2.609375 H 2.984375 L 4.9375,-5.90625 Z m 0,0"
               style="stroke:none;stroke-width:0" />
          </symbol>
        </g>
      </defs>
      <g
         transform="translate(-149.056,-127.624)"
         id="id-8732d464-eaf6-49d4-ac85-a0f7779c8004">
        <g
           id="id-25898d3b-ba33-4c9a-ad5a-42245ba8b0d9"
           style="fill:#000000;fill-opacity:1">
          <g
             transform="translate(148.712,134.765)"
             id="g1175">
            <path
               id="id-c1b59737-57a2-42d4-9d30-39ff9c9594c5"
               d="M 7.1875,-0.203125 C 7.1875,-0.3125 7.09375,-0.3125 6.953125,-0.3125 6.34375,-0.3125 6.34375,-0.375 6.3125,-0.671875 l -0.609375,-6.21875 c -0.015625,-0.203125 -0.015625,-0.25 -0.1875,-0.25 -0.15625,0 -0.203125,0.078125 -0.265625,0.171875 L 1.78125,-1.140625 C 1.390625,-0.484375 1,-0.34375 0.5625,-0.3125 0.4375,-0.296875 0.34375,-0.296875 0.34375,-0.109375 0.34375,-0.046875 0.40625,0 0.484375,0 0.75,0 1.0625,-0.03125 1.328125,-0.03125 c 0.34375,0 0.6875,0.03125 1,0.03125 0.0625,0 0.1875,0 0.1875,-0.1875 0,-0.109375 -0.078125,-0.125 -0.15625,-0.125 -0.21875,-0.015625 -0.46875,-0.09375 -0.46875,-0.34375 0,-0.125 0.0625,-0.234375 0.140625,-0.375 0.078125,-0.109375 0.078125,-0.109375 0.765625,-1.265625 h 2.5 c 0.015625,0.203125 0.15625,1.5625 0.15625,1.65625 0,0.296875 -0.515625,0.328125 -0.71875,0.328125 C 4.59375,-0.3125 4.5,-0.3125 4.5,-0.109375 4.5,0 4.640625,0 4.640625,0 5.046875,0 5.46875,-0.03125 5.875,-0.03125 6.125,-0.03125 6.765625,0 7.015625,0 7.0625,0 7.1875,0 7.1875,-0.203125 Z M 5.265625,-2.609375 H 2.984375 L 4.9375,-5.90625 Z m 0,0"
               style="stroke:none;stroke-width:0" />
          </g>
        </g>
      </g>
    </g>
    <circle
       style="fill:#000000;fill-opacity:1;stroke:#000000;stroke-width:0.198321;stroke-miterlimit:4;stroke-dasharray:none"
       id="path1194-0"
       cx="83.667587"
       cy="73.890076"
       r="0.73173302" />
    <circle
       r="0.73173302"
       cy="77.382042"
       cx="97.635468"
       id="path1194-0-9"
       style="fill:#000000;fill-opacity:1;stroke:#000000;stroke-width:0.198321;stroke-miterlimit:4;stroke-dasharray:none" />
    <circle
       r="0.73173302"
       cy="71.655212"
       cx="102.6639"
       id="path1194-0-8"
       style="fill:#000000;fill-opacity:1;stroke:#000000;stroke-width:0.198321;stroke-miterlimit:4;stroke-dasharray:none" />
    <circle
       r="0.73173302"
       cy="78.499474"
       cx="107.27331"
       id="path1194-0-6"
       style="fill:#000000;fill-opacity:1;stroke:#000000;stroke-width:0.198321;stroke-miterlimit:4;stroke-dasharray:none" />
    <circle
       r="0.73173302"
       cy="79.197868"
       cx="91.070564"
       id="path1194-0-5"
       style="fill:#000000;fill-opacity:1;stroke:#000000;stroke-width:0.198321;stroke-miterlimit:4;stroke-dasharray:none" />
    <circle
       r="0.73173302"
       cy="83.248558"
       cx="84.365982"
       id="path1194-0-7"
       style="fill:#000000;fill-opacity:1;stroke:#000000;stroke-width:0.198321;stroke-miterlimit:4;stroke-dasharray:none" />
    <circle
       r="0.73173302"
       cy="73.052002"
       cx="90.791206"
       id="path1194-0-62"
       style="fill:#000000;fill-opacity:1;stroke:#000000;stroke-width:0.198321;stroke-miterlimit:4;stroke-dasharray:none" />
    <circle
       r="0.73173302"
       cy="70.817146"
       cx="78.359795"
       id="path1194-0-70"
       style="fill:#000000;fill-opacity:1;stroke:#000000;stroke-width:0.198321;stroke-miterlimit:4;stroke-dasharray:none" />
    <circle
       r="0.73173302"
       cy="78.220116"
       cx="79.477226"
       id="path1194-0-3"
       style="fill:#000000;fill-opacity:1;stroke:#000000;stroke-width:0.198321;stroke-miterlimit:4;stroke-dasharray:none" />
    <circle
       r="0.73173302"
       cy="83.807266"
       cx="78.080437"
       id="path1194-0-99"
       style="fill:#000000;fill-opacity:1;stroke:#000000;stroke-width:0.198321;stroke-miterlimit:4;stroke-dasharray:none" />
    <circle
       r="0.73173302"
       cy="83.108879"
       cx="99.730652"
       id="path1194-0-91"
       style="fill:#000000;fill-opacity:1;stroke:#000000;stroke-width:0.198321;stroke-miterlimit:4;stroke-dasharray:none" />
    <circle
       r="0.73173302"
       cy="74.58847"
       cx="113.41917"
       id="path1194-0-72"
       style="fill:#000000;fill-opacity:1;stroke:#000000;stroke-width:0.198321;stroke-miterlimit:4;stroke-dasharray:none" />
    <circle
       r="0.73173302"
       cy="69.839394"
       cx="109.22881"
       id="path1194-0-36"
       style="fill:#000000;fill-opacity:1;stroke:#000000;stroke-width:0.198321;stroke-miterlimit:4;stroke-dasharray:none" />
    <circle
       r="0.73173302"
       cy="62.855453"
       cx="111.60335"
       id="path1194-0-55"
       style="fill:#000000;fill-opacity:1;stroke:#000000;stroke-width:0.198321;stroke-miterlimit:4;stroke-dasharray:none" />
    <circle
       r="0.73173302"
       cy="59.363483"
       cx="111.74303"
       id="path1194-0-81"
       style="fill:#000000;fill-opacity:1;stroke:#000000;stroke-width:0.198321;stroke-miterlimit:4;stroke-dasharray:none" />
    <circle
       r="0.73173302"
       cy="60.62059"
       cx="102.94326"
       id="path1194-0-4"
       style="fill:#000000;fill-opacity:1;stroke:#000000;stroke-width:0.198321;stroke-miterlimit:4;stroke-dasharray:none" />
    <circle
       r="0.73173302"
       cy="63.414165"
       cx="91.768959"
       id="path1194-0-71"
       style="fill:#000000;fill-opacity:1;stroke:#000000;stroke-width:0.198321;stroke-miterlimit:4;stroke-dasharray:none" />
    <circle
       r="0.73173302"
       cy="59.922199"
       cx="86.740524"
       id="path1194-0-38"
       style="fill:#000000;fill-opacity:1;stroke:#000000;stroke-width:0.198321;stroke-miterlimit:4;stroke-dasharray:none" />
    <circle
       r="0.73173302"
       cy="62.01738"
       cx="80.035942"
       id="path1194-0-48"
       style="fill:#000000;fill-opacity:1;stroke:#000000;stroke-width:0.198321;stroke-miterlimit:4;stroke-dasharray:none" />
    <circle
       r="0.73173302"
       cy="60.899948"
       cx="95.95932"
       id="path1194-0-0"
       style="fill:#000000;fill-opacity:1;stroke:#000000;stroke-width:0.198321;stroke-miterlimit:4;stroke-dasharray:none" />
    <circle
       r="0.73173302"
       cy="82.131126"
       cx="114.11757"
       id="path1194-0-46"
       style="fill:#000000;fill-opacity:1;stroke:#000000;stroke-width:0.198321;stroke-miterlimit:4;stroke-dasharray:none" />
    <g
       transform="matrix(0.282222,0,0,0.282222,83.331758,68.443697)"
       ns1:version="1.3.1"
       ns1:texconverter="pdflatex"
       ns1:pdfconverter="inkscape"
       ns1:text="$P_0, T_0$"
       ns1:preamble="/Users/mbh/Library/Application Support/org.inkscape.Inkscape/config/inkscape/extensions/textext/default_packages.tex"
       ns1:scale="0.8"
       ns1:alignment="middle center"
       ns1:jacobian_sqrt="0.282222"
       id="g1473">
      <defs
         id="id-c48ca61d-bd25-46d9-b2b0-948ca90d849c">
        <g
           id="id-43ca6762-cd1f-462e-abff-59c6069595a9">
          <symbol
             id="id-71d13777-df23-4465-ae08-43eebb704cbb"
             overflow="visible">
            <path
               id="id-5c889235-1819-4577-a06f-8e39e88d88ac"
               d=""
               style="stroke:none;stroke-width:0" />
          </symbol>
          <symbol
             id="id-c62791f8-114f-4302-a0c7-379b2cb5105a"
             overflow="visible">
            <path
               id="id-9c5f27a3-5db1-4860-8e0c-2d516a1503f7"
               d="m 7.515625,-5.296875 c 0,-0.78125 -0.65625,-1.515625 -1.96875,-1.515625 h -3.21875 c -0.1875,0 -0.296875,0 -0.296875,0.1875 0,0.125 0.078125,0.125 0.28125,0.125 0.125,0 0.3125,0.015625 0.421875,0.015625 0.171875,0.03125 0.21875,0.046875 0.21875,0.171875 0,0.03125 0,0.0625 -0.03125,0.1875 l -1.34375,5.34375 c -0.09375,0.390625 -0.109375,0.46875 -0.90625,0.46875 -0.15625,0 -0.265625,0 -0.265625,0.1875 C 0.40625,0 0.515625,0 0.546875,0 L 1.8125,-0.03125 2.453125,-0.015625 C 2.671875,-0.015625 2.890625,0 3.09375,0 c 0.078125,0 0.203125,0 0.203125,-0.203125 0,-0.109375 -0.09375,-0.109375 -0.28125,-0.109375 -0.359375,0 -0.640625,0 -0.640625,-0.171875 0,-0.0625 0.015625,-0.109375 0.03125,-0.171875 l 0.609375,-2.5 H 4.71875 c 1.40625,0 2.796875,-1.03125 2.796875,-2.140625 z m -0.921875,-0.25 c 0,0.390625 -0.203125,1.25 -0.59375,1.609375 -0.5,0.453125 -1.09375,0.53125 -1.53125,0.53125 H 3.0625 L 3.734375,-6.125 C 3.828125,-6.46875 3.84375,-6.5 4.28125,-6.5 h 0.953125 c 0.828125,0 1.359375,0.265625 1.359375,0.953125 z m 0,0"
               style="stroke:none;stroke-width:0" />
          </symbol>
          <symbol
             id="id-07ca9e17-c334-4cca-84a3-20ddea48cc87"
             overflow="visible">
            <path
               id="id-05a537ab-9ee7-485a-a57f-d059c4f72a8f"
               d="m 2.03125,-0.015625 c 0,-0.65625 -0.25,-1.046875 -0.640625,-1.046875 -0.328125,0 -0.53125,0.25 -0.53125,0.53125 C 0.859375,-0.265625 1.0625,0 1.390625,0 1.5,0 1.640625,-0.046875 1.734375,-0.125 1.765625,-0.15625 1.78125,-0.15625 1.78125,-0.15625 c 0,0 0.015625,0 0.015625,0.140625 0,0.75 -0.34375,1.34375 -0.671875,1.671875 -0.109375,0.109375 -0.109375,0.125 -0.109375,0.15625 0,0.078125 0.046875,0.109375 0.09375,0.109375 0.109375,0 0.921875,-0.765625 0.921875,-1.9375 z m 0,0"
               style="stroke:none;stroke-width:0" />
          </symbol>
          <symbol
             id="id-cdab488f-05c3-43d6-b2fa-db6866f3d7f3"
             overflow="visible">
            <path
               id="id-dee393f3-abfe-4404-8257-d19dca097b07"
               d="M 6.734375,-4.734375 7,-6.46875 C 7.015625,-6.515625 7.015625,-6.609375 7.015625,-6.640625 7.015625,-6.75 6.921875,-6.75 6.75,-6.75 H 1.21875 c -0.234375,0 -0.25,0.015625 -0.328125,0.203125 l -0.59375,1.75 c 0,0.015625 -0.0625,0.1875 -0.0625,0.1875 0,0.046875 0.0625,0.109375 0.125,0.109375 0.09375,0 0.109375,-0.0625 0.171875,-0.21875 C 1.0625,-6.265625 1.328125,-6.4375 2.796875,-6.4375 H 3.1875 c 0.28125,0 0.28125,0.03125 0.28125,0.125 0,0.046875 -0.03125,0.171875 -0.046875,0.203125 L 2.09375,-0.78125 C 2,-0.421875 1.96875,-0.3125 0.90625,-0.3125 c -0.359375,0 -0.421875,0 -0.421875,0.1875 C 0.484375,0 0.59375,0 0.65625,0 0.921875,0 1.203125,-0.015625 1.46875,-0.015625 L 2.328125,-0.03125 3.15625,-0.015625 C 3.4375,-0.015625 3.734375,0 4.015625,0 c 0.09375,0 0.21875,0 0.21875,-0.203125 0,-0.109375 -0.078125,-0.109375 -0.34375,-0.109375 -0.234375,0 -0.375,0 -0.625,-0.015625 -0.296875,-0.03125 -0.375,-0.0625 -0.375,-0.21875 0,0 0,-0.0625 0.046875,-0.203125 L 4.25,-6.046875 c 0.078125,-0.28125 0.109375,-0.34375 0.234375,-0.375 0.09375,-0.015625 0.421875,-0.015625 0.625,-0.015625 1.015625,0 1.453125,0.03125 1.453125,0.8125 0,0.15625 -0.03125,0.546875 -0.078125,0.796875 0,0.046875 -0.03125,0.15625 -0.03125,0.1875 0,0.0625 0.03125,0.140625 0.125,0.140625 0.109375,0 0.125,-0.078125 0.15625,-0.234375 z m 0,0"
               style="stroke:none;stroke-width:0" />
          </symbol>
          <symbol
             id="id-a741e153-59f6-449f-9787-cefcadaefcb3"
             overflow="visible">
            <path
               id="id-96505ca9-9c98-4415-865c-557821bf96f6"
               d=""
               style="stroke:none;stroke-width:0" />
          </symbol>
          <symbol
             id="id-1e4a6916-2569-456d-914a-918696acb5e2"
             overflow="visible">
            <path
               id="id-965570ed-26c3-4fa5-af3e-e32ed0b1d31a"
               d="M 3.59375,-2.21875 C 3.59375,-2.984375 3.5,-3.546875 3.1875,-4.03125 2.96875,-4.34375 2.53125,-4.625 1.984375,-4.625 c -1.625,0 -1.625,1.90625 -1.625,2.40625 0,0.5 0,2.359375 1.625,2.359375 1.609375,0 1.609375,-1.859375 1.609375,-2.359375 z m -0.625,-0.09375 c 0,0.515625 0,1.03125 -0.09375,1.46875 -0.140625,0.640625 -0.609375,0.78125 -0.890625,0.78125 -0.328125,0 -0.75,-0.1875 -0.890625,-0.75 C 1,-1.21875 1,-1.796875 1,-2.3125 1,-2.828125 1,-3.359375 1.09375,-3.734375 1.25,-4.28125 1.6875,-4.4375 1.984375,-4.4375 c 0.375,0 0.734375,0.234375 0.859375,0.640625 0.109375,0.375 0.125,0.875 0.125,1.484375 z m 0,0"
               style="stroke:none;stroke-width:0" />
          </symbol>
        </g>
      </defs>
      <g
         transform="translate(-149.118,-127.953)"
         id="id-2d0cc72c-c4cc-4c83-b8e7-e9191962e1b6">
        <g
           id="id-4fc0d8e5-e908-4e50-ae17-c507d32c2729"
           style="fill:#000000;fill-opacity:1">
          <g
             transform="translate(148.712,134.765)"
             id="g1453">
            <path
               id="id-66c86380-99c9-4bc3-ad7f-fdd621c902d8"
               d="m 7.515625,-5.296875 c 0,-0.78125 -0.65625,-1.515625 -1.96875,-1.515625 h -3.21875 c -0.1875,0 -0.296875,0 -0.296875,0.1875 0,0.125 0.078125,0.125 0.28125,0.125 0.125,0 0.3125,0.015625 0.421875,0.015625 0.171875,0.03125 0.21875,0.046875 0.21875,0.171875 0,0.03125 0,0.0625 -0.03125,0.1875 l -1.34375,5.34375 c -0.09375,0.390625 -0.109375,0.46875 -0.90625,0.46875 -0.15625,0 -0.265625,0 -0.265625,0.1875 C 0.40625,0 0.515625,0 0.546875,0 L 1.8125,-0.03125 2.453125,-0.015625 C 2.671875,-0.015625 2.890625,0 3.09375,0 c 0.078125,0 0.203125,0 0.203125,-0.203125 0,-0.109375 -0.09375,-0.109375 -0.28125,-0.109375 -0.359375,0 -0.640625,0 -0.640625,-0.171875 0,-0.0625 0.015625,-0.109375 0.03125,-0.171875 l 0.609375,-2.5 H 4.71875 c 1.40625,0 2.796875,-1.03125 2.796875,-2.140625 z m -0.921875,-0.25 c 0,0.390625 -0.203125,1.25 -0.59375,1.609375 -0.5,0.453125 -1.09375,0.53125 -1.53125,0.53125 H 3.0625 L 3.734375,-6.125 C 3.828125,-6.46875 3.84375,-6.5 4.28125,-6.5 h 0.953125 c 0.828125,0 1.359375,0.265625 1.359375,0.953125 z m 0,0"
               style="stroke:none;stroke-width:0" />
          </g>
        </g>
        <g
           id="id-ea2e8433-0ede-4d9e-9dbd-8c34a225b589"
           style="fill:#000000;fill-opacity:1">
          <g
             transform="translate(155.108,136.259)"
             id="g1457">
            <path
               id="id-4282b1b2-ab00-410b-bbda-8fda72f449b8"
               d="M 3.59375,-2.21875 C 3.59375,-2.984375 3.5,-3.546875 3.1875,-4.03125 2.96875,-4.34375 2.53125,-4.625 1.984375,-4.625 c -1.625,0 -1.625,1.90625 -1.625,2.40625 0,0.5 0,2.359375 1.625,2.359375 1.609375,0 1.609375,-1.859375 1.609375,-2.359375 z m -0.625,-0.09375 c 0,0.515625 0,1.03125 -0.09375,1.46875 -0.140625,0.640625 -0.609375,0.78125 -0.890625,0.78125 -0.328125,0 -0.75,-0.1875 -0.890625,-0.75 C 1,-1.21875 1,-1.796875 1,-2.3125 1,-2.828125 1,-3.359375 1.09375,-3.734375 1.25,-4.28125 1.6875,-4.4375 1.984375,-4.4375 c 0.375,0 0.734375,0.234375 0.859375,0.640625 0.109375,0.375 0.125,0.875 0.125,1.484375 z m 0,0"
               style="stroke:none;stroke-width:0" />
          </g>
        </g>
        <g
           id="id-316e7d87-8e05-4e86-a302-0a4bf6f3ce52"
           style="fill:#000000;fill-opacity:1">
          <g
             transform="translate(159.578,134.765)"
             id="g1461">
            <path
               id="id-7ff1cd21-eb43-426c-9629-ed5b95de761a"
               d="m 2.03125,-0.015625 c 0,-0.65625 -0.25,-1.046875 -0.640625,-1.046875 -0.328125,0 -0.53125,0.25 -0.53125,0.53125 C 0.859375,-0.265625 1.0625,0 1.390625,0 1.5,0 1.640625,-0.046875 1.734375,-0.125 1.765625,-0.15625 1.78125,-0.15625 1.78125,-0.15625 c 0,0 0.015625,0 0.015625,0.140625 0,0.75 -0.34375,1.34375 -0.671875,1.671875 -0.109375,0.109375 -0.109375,0.125 -0.109375,0.15625 0,0.078125 0.046875,0.109375 0.09375,0.109375 0.109375,0 0.921875,-0.765625 0.921875,-1.9375 z m 0,0"
               style="stroke:none;stroke-width:0" />
          </g>
        </g>
        <g
           id="id-05b45ebf-a3ec-427c-892f-3c0a147bd47d"
           style="fill:#000000;fill-opacity:1">
          <g
             transform="translate(164.009,134.765)"
             id="g1465">
            <path
               id="id-193f7ee6-0ab8-4030-8d45-e82e33dc7d56"
               d="M 6.734375,-4.734375 7,-6.46875 C 7.015625,-6.515625 7.015625,-6.609375 7.015625,-6.640625 7.015625,-6.75 6.921875,-6.75 6.75,-6.75 H 1.21875 c -0.234375,0 -0.25,0.015625 -0.328125,0.203125 l -0.59375,1.75 c 0,0.015625 -0.0625,0.1875 -0.0625,0.1875 0,0.046875 0.0625,0.109375 0.125,0.109375 0.09375,0 0.109375,-0.0625 0.171875,-0.21875 C 1.0625,-6.265625 1.328125,-6.4375 2.796875,-6.4375 H 3.1875 c 0.28125,0 0.28125,0.03125 0.28125,0.125 0,0.046875 -0.03125,0.171875 -0.046875,0.203125 L 2.09375,-0.78125 C 2,-0.421875 1.96875,-0.3125 0.90625,-0.3125 c -0.359375,0 -0.421875,0 -0.421875,0.1875 C 0.484375,0 0.59375,0 0.65625,0 0.921875,0 1.203125,-0.015625 1.46875,-0.015625 L 2.328125,-0.03125 3.15625,-0.015625 C 3.4375,-0.015625 3.734375,0 4.015625,0 c 0.09375,0 0.21875,0 0.21875,-0.203125 0,-0.109375 -0.078125,-0.109375 -0.34375,-0.109375 -0.234375,0 -0.375,0 -0.625,-0.015625 -0.296875,-0.03125 -0.375,-0.0625 -0.375,-0.21875 0,0 0,-0.0625 0.046875,-0.203125 L 4.25,-6.046875 c 0.078125,-0.28125 0.109375,-0.34375 0.234375,-0.375 0.09375,-0.015625 0.421875,-0.015625 0.625,-0.015625 1.015625,0 1.453125,0.03125 1.453125,0.8125 0,0.15625 -0.03125,0.546875 -0.078125,0.796875 0,0.046875 -0.03125,0.15625 -0.03125,0.1875 0,0.0625 0.03125,0.140625 0.125,0.140625 0.109375,0 0.125,-0.078125 0.15625,-0.234375 z m 0,0"
               style="stroke:none;stroke-width:0" />
          </g>
        </g>
        <g
           id="id-1488a8e6-af3e-4210-82b0-63337f8206d9"
           style="fill:#000000;fill-opacity:1">
          <g
             transform="translate(169.827,136.259)"
             id="g1469">
            <path
               id="id-7904116a-39eb-4076-a798-37695d19eabb"
               d="M 3.59375,-2.21875 C 3.59375,-2.984375 3.5,-3.546875 3.1875,-4.03125 2.96875,-4.34375 2.53125,-4.625 1.984375,-4.625 c -1.625,0 -1.625,1.90625 -1.625,2.40625 0,0.5 0,2.359375 1.625,2.359375 1.609375,0 1.609375,-1.859375 1.609375,-2.359375 z m -0.625,-0.09375 c 0,0.515625 0,1.03125 -0.09375,1.46875 -0.140625,0.640625 -0.609375,0.78125 -0.890625,0.78125 -0.328125,0 -0.75,-0.1875 -0.890625,-0.75 C 1,-1.21875 1,-1.796875 1,-2.3125 1,-2.828125 1,-3.359375 1.09375,-3.734375 1.25,-4.28125 1.6875,-4.4375 1.984375,-4.4375 c 0.375,0 0.734375,0.234375 0.859375,0.640625 0.109375,0.375 0.125,0.875 0.125,1.484375 z m 0,0"
               style="stroke:none;stroke-width:0" />
          </g>
        </g>
      </g>
    </g>
  </g>
</svg>
