<?xml version="1.0" encoding="UTF-8" standalone="no"?>
<svg
   xmlns:ns14="http://www.iki.fi/pav/software/textext/"
   xmlns:dc="http://purl.org/dc/elements/1.1/"
   xmlns:cc="http://creativecommons.org/ns#"
   xmlns:rdf="http://www.w3.org/1999/02/22-rdf-syntax-ns#"
   xmlns:svg="http://www.w3.org/2000/svg"
   xmlns="http://www.w3.org/2000/svg"
   xmlns:sodipodi="http://sodipodi.sourceforge.net/DTD/sodipodi-0.dtd"
   xmlns:inkscape="http://www.inkscape.org/namespaces/inkscape"
   width="210mm"
   height="297mm"
   viewBox="0 0 210 297"
   version="1.1"
   id="svg4213"
   inkscape:version="1.0 (4035a4f, 2020-05-01)"
   sodipodi:docname="massi-kraftamyndB.svg">
  <defs
     id="defs4207">
    <marker
       inkscape:stockid="Arrow1Mend"
       orient="auto"
       refY="0.0"
       refX="0.0"
       id="Arrow1Mend"
       style="overflow:visible;"
       inkscape:isstock="true">
      <path
         id="path2348"
         d="M 0.0,0.0 L 5.0,-5.0 L -12.5,0.0 L 5.0,5.0 L 0.0,0.0 z "
         style="fill-rule:evenodd;stroke:#000000;stroke-width:1pt;stroke-opacity:1;fill:#000000;fill-opacity:1"
         transform="scale(0.4) rotate(180) translate(10,0)" />
    </marker>
    <g
       id="id-29a89fa7-9171-49f0-abe5-62c1dd932770">
      <symbol
         overflow="visible"
         id="id-2fbbb066-f2f6-4c56-a337-6b9d123b6e68">
        <path
           style="stroke:none;stroke-width:0"
           d=""
           id="id-c6bb252e-c1b4-402e-b4b9-ebbfe36c46da" />
      </symbol>
      <symbol
         overflow="visible"
         id="id-de76593e-49f7-4b44-86dc-629f4bd05e0d">
        <path
           style="stroke:none;stroke-width:0"
           d="m 8.453125,-1.421875 c 0,-0.109375 -0.09375,-0.109375 -0.125,-0.109375 -0.09375,0 -0.09375,0.03125 -0.140625,0.1875 -0.15625,0.53125 -0.46875,1.234375 -1.015625,1.234375 -0.171875,0 -0.25,-0.09375 -0.25,-0.328125 0,-0.25 0.09375,-0.484375 0.1875,-0.703125 0.1875,-0.53125 0.609375,-1.625 0.609375,-2.203125 0,-0.640625 -0.40625,-1.0625 -1.15625,-1.0625 -0.734375,0 -1.25,0.4375 -1.625,0.96875 0,-0.125 -0.03125,-0.46875 -0.3125,-0.703125 -0.25,-0.21875 -0.5625,-0.265625 -0.8125,-0.265625 -0.90625,0 -1.390625,0.640625 -1.5625,0.875 -0.046875,-0.578125 -0.46875,-0.875 -0.921875,-0.875 -0.453125,0 -0.640625,0.390625 -0.734375,0.5625 -0.171875,0.359375 -0.296875,0.9375 -0.296875,0.96875 0,0.109375 0.109375,0.109375 0.109375,0.109375 0.109375,0 0.109375,-0.015625 0.171875,-0.234375 0.171875,-0.703125 0.375,-1.1875 0.734375,-1.1875 0.15625,0 0.296875,0.078125 0.296875,0.453125 0,0.21875 -0.03125,0.328125 -0.15625,0.84375 L 0.875,-0.59375 c -0.03125,0.15625 -0.09375,0.390625 -0.09375,0.4375 0,0.171875 0.140625,0.265625 0.296875,0.265625 0.125,0 0.296875,-0.078125 0.375,-0.28125 0,-0.015625 0.125,-0.484375 0.1875,-0.734375 l 0.21875,-0.890625 C 1.90625,-2.03125 1.96875,-2.25 2.03125,-2.46875 l 0.125,-0.5 c 0.140625,-0.3125 0.671875,-1.21875 1.625,-1.21875 0.453125,0 0.53125,0.375 0.53125,0.703125 0,0.25 -0.0625,0.53125 -0.140625,0.828125 L 3.890625,-1.5 C 3.78125,-1.140625 3.78125,-1.078125 3.6875,-0.75 c -0.03125,0.203125 -0.125,0.546875 -0.125,0.59375 0,0.171875 0.140625,0.265625 0.28125,0.265625 0.3125,0 0.375,-0.25 0.453125,-0.5625 l 0.59375,-2.40625 c 0.03125,-0.125 0.5625,-1.328125 1.65625,-1.328125 0.421875,0 0.53125,0.34375 0.53125,0.703125 0,0.5625 -0.421875,1.703125 -0.625,2.234375 -0.078125,0.234375 -0.125,0.34375 -0.125,0.546875 0,0.46875 0.34375,0.8125 0.8125,0.8125 0.9375,0 1.3125,-1.453125 1.3125,-1.53125 z m 0,0"
           id="id-36f6523a-9dff-47ad-b63e-5839251a64eb" />
      </symbol>
    </g>
    <marker
       inkscape:isstock="true"
       style="overflow:visible"
       id="Arrow1Mend-1"
       refX="0"
       refY="0"
       orient="auto"
       inkscape:stockid="Arrow1Mend">
      <path
         transform="matrix(-0.4,0,0,-0.4,-4,0)"
         style="fill:#000000;fill-opacity:1;fill-rule:evenodd;stroke:#000000;stroke-width:1pt;stroke-opacity:1"
         d="M 0,0 5,-5 -12.5,0 5,5 Z"
         id="path2348-6" />
    </marker>
    <g
       id="id-aafef860-5633-40a7-9d02-db7492352e4a">
      <symbol
         overflow="visible"
         id="id-8654cd53-a5e5-4102-9f7e-48889ca118c8">
        <path
           style="stroke:none"
           d=""
           id="id-effca06a-2744-4639-aacb-022742d1a194" />
      </symbol>
      <symbol
         overflow="visible"
         id="id-2521a5f5-eb46-4c64-a992-be19324ab3f5">
        <path
           style="stroke:none"
           d="M 7.25,-4.78125 7.453125,-6.515625 C 7.484375,-6.78125 7.4375,-6.78125 7.1875,-6.78125 H 2.296875 c -0.1875,0 -0.296875,0 -0.296875,0.203125 0,0.109375 0.09375,0.109375 0.28125,0.109375 0.375,0 0.65625,0 0.65625,0.171875 0,0.046875 0,0.0625 -0.0625,0.25 L 1.5625,-0.78125 c -0.09375,0.390625 -0.109375,0.46875 -0.90625,0.46875 -0.171875,0 -0.28125,0 -0.28125,0.1875 C 0.375,0 0.5,0 0.53125,0 L 1.84375,-0.03125 3.328125,0 c 0.09375,0 0.203125,0 0.203125,-0.1875 0,-0.078125 -0.046875,-0.109375 -0.046875,-0.109375 C 3.453125,-0.3125 3.421875,-0.3125 3.203125,-0.3125 c -0.21875,0 -0.265625,0 -0.515625,-0.015625 -0.296875,-0.03125 -0.328125,-0.078125 -0.328125,-0.203125 0,0 0,-0.078125 0.046875,-0.21875 l 0.609375,-2.484375 h 0.96875 c 0.75,0 0.828125,0.15625 0.828125,0.4375 0,0.078125 0,0.1875 -0.0625,0.5 C 4.71875,-2.25 4.71875,-2.1875 4.71875,-2.1875 c 0,0.078125 0.0625,0.109375 0.109375,0.109375 0.109375,0 0.109375,-0.03125 0.15625,-0.203125 L 5.53125,-4.453125 c 0.03125,-0.109375 0.03125,-0.125 0.03125,-0.15625 0,0 -0.015625,-0.109375 -0.125,-0.109375 -0.09375,0 -0.109375,0.046875 -0.140625,0.21875 C 5.078125,-3.734375 4.859375,-3.546875 4,-3.546875 H 3.09375 l 0.640625,-2.53125 C 3.828125,-6.4375 3.84375,-6.46875 4.28125,-6.46875 h 1.3125 c 1.21875,0 1.453125,0.328125 1.453125,1.09375 0,0.234375 0,0.265625 -0.03125,0.546875 C 7,-4.703125 7,-4.6875 7,-4.65625 c 0,0.046875 0.03125,0.125 0.125,0.125 0.109375,0 0.109375,-0.0625 0.125,-0.25 z m 0,0"
           id="id-c59972e9-0592-4a74-8be2-546fce440e97" />
      </symbol>
      <symbol
         overflow="visible"
         id="id-7729321c-661a-45a5-b394-5636b1ed2499">
        <path
           style="stroke:none"
           d=""
           id="id-0998a9ae-3c10-4869-8a24-0cd68a62dc1c" />
      </symbol>
      <symbol
         overflow="visible"
         id="id-3f35941d-e49b-4ac7-9528-c9969f764a42">
        <path
           style="stroke:none"
           d="m 4.0625,-1.5 c 0,-0.859375 -0.703125,-1.578125 -1.59375,-1.578125 -0.390625,0 -0.796875,0.15625 -1.078125,0.4375 V -4.84375 L 0.34375,-4.765625 v 0.25 c 0.46875,0 0.515625,0.0625 0.515625,0.40625 v 4.90625 c 0,0.296875 -0.0625,0.296875 -0.515625,0.296875 v 0.265625 c 0,0 0.5,-0.03125 0.796875,-0.03125 0.25,0 0.734375,0.015625 0.796875,0.03125 V 1.09375 c -0.453125,0 -0.515625,0 -0.515625,-0.296875 v -1.125 C 1.453125,-0.296875 1.78125,0.0625 2.359375,0.0625 3.28125,0.0625 4.0625,-0.625 4.0625,-1.5 Z m -0.625,0 c 0,0.796875 -0.53125,1.375 -1.109375,1.375 -0.625,0 -0.890625,-0.53125 -0.90625,-0.578125 v -1.625 C 1.625,-2.671875 2.03125,-2.84375 2.390625,-2.84375 c 0.59375,0 1.046875,0.609375 1.046875,1.34375 z m 0,0"
           id="id-3b3ce98f-d8bf-4892-a249-1711b4d8c4cd" />
      </symbol>
      <symbol
         overflow="visible"
         id="id-e30f932b-b6df-4b74-a15e-128ccd62de4e">
        <path
           style="stroke:none"
           d="M 3.953125,-2.75 V -3 c -0.171875,0.015625 -0.34375,0.03125 -0.53125,0.03125 -0.1875,0 -0.4375,-0.015625 -0.625,-0.03125 v 0.25 c 0.296875,0.015625 0.296875,0.234375 0.296875,0.265625 0,0.03125 -0.015625,0.09375 -0.0625,0.203125 L 2.25,-0.5625 1.375,-2.453125 c 0,0 -0.03125,-0.09375 -0.03125,-0.140625 C 1.34375,-2.75 1.578125,-2.75 1.6875,-2.75 V -3 c 0,0 -0.5,0.03125 -0.78125,0.03125 -0.21875,0 -0.484375,-0.015625 -0.6875,-0.03125 v 0.25 c 0.375,0 0.46875,0.015625 0.5625,0.25 l 1.109375,2.421875 C 1.921875,0 1.96875,0.0625 2.078125,0.0625 2.21875,0.0625 2.25,0 2.28125,-0.0625 L 3.296875,-2.328125 C 3.5,-2.75 3.84375,-2.75 3.953125,-2.75 Z m 0,0"
           id="id-06d57a68-a861-422e-9473-765918649609" />
      </symbol>
      <symbol
         overflow="visible"
         id="id-ac3a7387-b98b-4918-8d21-a2564dd15200">
        <path
           style="stroke:none"
           d="m 3.265625,-0.84375 c 0,-0.015625 -0.015625,-0.09375 -0.125,-0.09375 -0.09375,0 -0.109375,0.046875 -0.125,0.109375 -0.21875,0.5625 -0.75,0.671875 -1,0.671875 C 1.6875,-0.15625 1.375,-0.296875 1.171875,-0.5625 0.90625,-0.890625 0.90625,-1.3125 0.90625,-1.59375 H 3.0625 c 0.15625,0 0.203125,0 0.203125,-0.140625 0,-0.625 -0.34375,-1.375 -1.390625,-1.375 -0.90625,0 -1.609375,0.71875 -1.609375,1.578125 0,0.890625 0.78125,1.59375 1.703125,1.59375 0.9375,0 1.296875,-0.75 1.296875,-0.90625 z M 2.78125,-1.765625 h -1.875 C 0.984375,-2.75 1.609375,-2.90625 1.875,-2.90625 c 0.859375,0 0.890625,0.96875 0.90625,1.140625 z m 0,0"
           id="id-66114a11-aac9-4dda-b73a-ecb7681b253f" />
      </symbol>
      <symbol
         overflow="visible"
         id="id-c6ea403d-fd73-4a5d-b8b1-848b7be91aac">
        <path
           style="stroke:none"
           d="m 2.84375,-2.625 c 0,-0.234375 -0.234375,-0.453125 -0.5625,-0.453125 -0.34375,0 -0.734375,0.21875 -0.9375,0.75 v -0.75 L 0.34375,-3 v 0.25 c 0.46875,0 0.515625,0.046875 0.515625,0.390625 v 1.8125 C 0.859375,-0.25 0.796875,-0.25 0.34375,-0.25 V 0 c 0.03125,0 0.5,-0.03125 0.796875,-0.03125 L 2.046875,0 V -0.25 H 1.90625 c -0.515625,0 -0.515625,-0.078125 -0.515625,-0.3125 v -1.03125 c 0,-0.578125 0.265625,-1.28125 0.9375,-1.28125 -0.0625,0.046875 -0.125,0.140625 -0.125,0.25 0,0.234375 0.1875,0.3125 0.3125,0.3125 0.171875,0 0.328125,-0.109375 0.328125,-0.3125 z m 0,0"
           id="id-ac512cfb-0f7a-42aa-88a7-0e75871b25b7" />
      </symbol>
    </g>
    <marker
       inkscape:stockid="Arrow1Mend"
       orient="auto"
       refY="0"
       refX="0"
       id="Arrow1Mend-0"
       style="overflow:visible"
       inkscape:isstock="true">
      <path
         id="path2348-5"
         d="M 0,0 5,-5 -12.5,0 5,5 Z"
         style="fill:#000000;fill-opacity:1;fill-rule:evenodd;stroke:#000000;stroke-width:1pt;stroke-opacity:1"
         transform="matrix(-0.4,0,0,-0.4,-4,0)" />
    </marker>
    <marker
       inkscape:isstock="true"
       style="overflow:visible"
       id="Arrow1Mend-1-6"
       refX="0"
       refY="0"
       orient="auto"
       inkscape:stockid="Arrow1Mend">
      <path
         transform="matrix(-0.4,0,0,-0.4,-4,0)"
         style="fill:#000000;fill-opacity:1;fill-rule:evenodd;stroke:#000000;stroke-width:1pt;stroke-opacity:1"
         d="M 0,0 5,-5 -12.5,0 5,5 Z"
         id="path2348-6-8" />
    </marker>
    <g
       id="g4826">
      <symbol
         overflow="visible"
         id="symbol4820">
        <path
           style="stroke:none;stroke-width:0"
           d=""
           id="path4818" />
      </symbol>
      <symbol
         overflow="visible"
         id="symbol4824">
        <path
           style="stroke:none;stroke-width:0"
           d="m 8.453125,-1.421875 c 0,-0.109375 -0.09375,-0.109375 -0.125,-0.109375 -0.09375,0 -0.09375,0.03125 -0.140625,0.1875 -0.15625,0.53125 -0.46875,1.234375 -1.015625,1.234375 -0.171875,0 -0.25,-0.09375 -0.25,-0.328125 0,-0.25 0.09375,-0.484375 0.1875,-0.703125 0.1875,-0.53125 0.609375,-1.625 0.609375,-2.203125 0,-0.640625 -0.40625,-1.0625 -1.15625,-1.0625 -0.734375,0 -1.25,0.4375 -1.625,0.96875 0,-0.125 -0.03125,-0.46875 -0.3125,-0.703125 -0.25,-0.21875 -0.5625,-0.265625 -0.8125,-0.265625 -0.90625,0 -1.390625,0.640625 -1.5625,0.875 -0.046875,-0.578125 -0.46875,-0.875 -0.921875,-0.875 -0.453125,0 -0.640625,0.390625 -0.734375,0.5625 -0.171875,0.359375 -0.296875,0.9375 -0.296875,0.96875 0,0.109375 0.109375,0.109375 0.109375,0.109375 0.109375,0 0.109375,-0.015625 0.171875,-0.234375 0.171875,-0.703125 0.375,-1.1875 0.734375,-1.1875 0.15625,0 0.296875,0.078125 0.296875,0.453125 0,0.21875 -0.03125,0.328125 -0.15625,0.84375 L 0.875,-0.59375 c -0.03125,0.15625 -0.09375,0.390625 -0.09375,0.4375 0,0.171875 0.140625,0.265625 0.296875,0.265625 0.125,0 0.296875,-0.078125 0.375,-0.28125 0,-0.015625 0.125,-0.484375 0.1875,-0.734375 l 0.21875,-0.890625 C 1.90625,-2.03125 1.96875,-2.25 2.03125,-2.46875 l 0.125,-0.5 c 0.140625,-0.3125 0.671875,-1.21875 1.625,-1.21875 0.453125,0 0.53125,0.375 0.53125,0.703125 0,0.25 -0.0625,0.53125 -0.140625,0.828125 L 3.890625,-1.5 C 3.78125,-1.140625 3.78125,-1.078125 3.6875,-0.75 c -0.03125,0.203125 -0.125,0.546875 -0.125,0.59375 0,0.171875 0.140625,0.265625 0.28125,0.265625 0.3125,0 0.375,-0.25 0.453125,-0.5625 l 0.59375,-2.40625 c 0.03125,-0.125 0.5625,-1.328125 1.65625,-1.328125 0.421875,0 0.53125,0.34375 0.53125,0.703125 0,0.5625 -0.421875,1.703125 -0.625,2.234375 -0.078125,0.234375 -0.125,0.34375 -0.125,0.546875 0,0.46875 0.34375,0.8125 0.8125,0.8125 0.9375,0 1.3125,-1.453125 1.3125,-1.53125 z m 0,0"
           id="path4822" />
      </symbol>
    </g>
    <g
       id="id-6b699091-d3fe-4a8e-a6d4-983c33a30c45">
      <symbol
         overflow="visible"
         id="id-97a5f795-ab81-47cd-a260-3475d1f393b2">
        <path
           style="stroke:none;stroke-width:0"
           d=""
           id="id-2174c310-2833-43fa-a53a-8af1358521e6" />
      </symbol>
      <symbol
         overflow="visible"
         id="id-dfd21380-bea2-4b4c-b33b-131514c41188">
        <path
           style="stroke:none;stroke-width:0"
           d="M 7.25,-4.78125 7.453125,-6.515625 C 7.484375,-6.78125 7.4375,-6.78125 7.1875,-6.78125 H 2.296875 c -0.1875,0 -0.296875,0 -0.296875,0.203125 0,0.109375 0.09375,0.109375 0.28125,0.109375 0.375,0 0.65625,0 0.65625,0.171875 0,0.046875 0,0.0625 -0.0625,0.25 L 1.5625,-0.78125 c -0.09375,0.390625 -0.109375,0.46875 -0.90625,0.46875 -0.171875,0 -0.28125,0 -0.28125,0.1875 C 0.375,0 0.5,0 0.53125,0 L 1.84375,-0.03125 3.328125,0 c 0.09375,0 0.203125,0 0.203125,-0.1875 0,-0.078125 -0.046875,-0.109375 -0.046875,-0.109375 C 3.453125,-0.3125 3.421875,-0.3125 3.203125,-0.3125 c -0.21875,0 -0.265625,0 -0.515625,-0.015625 -0.296875,-0.03125 -0.328125,-0.078125 -0.328125,-0.203125 0,0 0,-0.078125 0.046875,-0.21875 l 0.609375,-2.484375 h 0.96875 c 0.75,0 0.828125,0.15625 0.828125,0.4375 0,0.078125 0,0.1875 -0.0625,0.5 C 4.71875,-2.25 4.71875,-2.1875 4.71875,-2.1875 c 0,0.078125 0.0625,0.109375 0.109375,0.109375 0.109375,0 0.109375,-0.03125 0.15625,-0.203125 L 5.53125,-4.453125 c 0.03125,-0.109375 0.03125,-0.125 0.03125,-0.15625 0,0 -0.015625,-0.109375 -0.125,-0.109375 -0.09375,0 -0.109375,0.046875 -0.140625,0.21875 C 5.078125,-3.734375 4.859375,-3.546875 4,-3.546875 H 3.09375 l 0.640625,-2.53125 C 3.828125,-6.4375 3.84375,-6.46875 4.28125,-6.46875 h 1.3125 c 1.21875,0 1.453125,0.328125 1.453125,1.09375 0,0.234375 0,0.265625 -0.03125,0.546875 C 7,-4.703125 7,-4.6875 7,-4.65625 c 0,0.046875 0.03125,0.125 0.125,0.125 0.109375,0 0.109375,-0.0625 0.125,-0.25 z m 0,0"
           id="id-bc0a7746-9780-448e-8249-0272f59ccd9d" />
      </symbol>
      <symbol
         overflow="visible"
         id="id-28cec8f5-b6e5-4dc4-85c0-6b7d9ef1844c">
        <path
           style="stroke:none;stroke-width:0"
           d=""
           id="id-2181231f-5acd-4299-af31-0ae03cef0f00" />
      </symbol>
      <symbol
         overflow="visible"
         id="id-d7690cbf-6513-4397-a8d3-838d1eeed3dd">
        <path
           style="stroke:none;stroke-width:0"
           d="m 2.953125,0.46875 0.75,-3.046875 c 0.03125,-0.09375 0.03125,-0.140625 0.03125,-0.140625 0,-0.15625 -0.125,-0.21875 -0.234375,-0.21875 -0.15625,0 -0.296875,0.125 -0.328125,0.265625 -0.109375,-0.1875 -0.34375,-0.40625 -0.71875,-0.40625 -0.859375,0 -1.78125,0.9375 -1.78125,1.9375 C 0.671875,-0.421875 1.15625,0 1.734375,0 2.0625,0 2.359375,-0.15625 2.609375,-0.375 2.5,0.0625 2.5625,-0.1875 2.453125,0.25 2.375,0.546875 2.328125,0.734375 2.0625,0.96875 c -0.3125,0.25 -0.609375,0.25 -0.78125,0.25 -0.3125,0 -0.40625,-0.015625 -0.53125,-0.046875 0.171875,-0.078125 0.21875,-0.25 0.21875,-0.34375 0,-0.171875 -0.125,-0.25 -0.265625,-0.25 C 0.5,0.578125 0.296875,0.734375 0.296875,1 c 0,0.421875 0.609375,0.421875 1,0.421875 1.09375,0 1.546875,-0.5625 1.65625,-0.953125 z M 2.75,-0.921875 c -0.03125,0.09375 -0.03125,0.109375 -0.15625,0.25 C 2.359375,-0.375 2.015625,-0.1875 1.75,-0.1875 c -0.34375,0 -0.515625,-0.3125 -0.515625,-0.671875 0,-0.296875 0.1875,-1.078125 0.375,-1.390625 0.28125,-0.484375 0.609375,-0.625 0.84375,-0.625 0.5,0 0.625,0.515625 0.625,0.59375 0,0 0,0.015625 -0.015625,0.09375 z m 0,0"
           id="id-e790c325-7bbc-4e9a-8706-d105a42bea0a" />
      </symbol>
    </g>
    <g
       id="id-aafef860-5633-40a7-9d02-db7492352e4a-5">
      <symbol
         overflow="visible"
         id="id-8654cd53-a5e5-4102-9f7e-48889ca118c8-3">
        <path
           style="stroke:none"
           d=""
           id="id-effca06a-2744-4639-aacb-022742d1a194-7" />
      </symbol>
      <symbol
         overflow="visible"
         id="id-2521a5f5-eb46-4c64-a992-be19324ab3f5-6">
        <path
           style="stroke:none"
           d="M 7.25,-4.78125 7.453125,-6.515625 C 7.484375,-6.78125 7.4375,-6.78125 7.1875,-6.78125 H 2.296875 c -0.1875,0 -0.296875,0 -0.296875,0.203125 0,0.109375 0.09375,0.109375 0.28125,0.109375 0.375,0 0.65625,0 0.65625,0.171875 0,0.046875 0,0.0625 -0.0625,0.25 L 1.5625,-0.78125 c -0.09375,0.390625 -0.109375,0.46875 -0.90625,0.46875 -0.171875,0 -0.28125,0 -0.28125,0.1875 C 0.375,0 0.5,0 0.53125,0 L 1.84375,-0.03125 3.328125,0 c 0.09375,0 0.203125,0 0.203125,-0.1875 0,-0.078125 -0.046875,-0.109375 -0.046875,-0.109375 C 3.453125,-0.3125 3.421875,-0.3125 3.203125,-0.3125 c -0.21875,0 -0.265625,0 -0.515625,-0.015625 -0.296875,-0.03125 -0.328125,-0.078125 -0.328125,-0.203125 0,0 0,-0.078125 0.046875,-0.21875 l 0.609375,-2.484375 h 0.96875 c 0.75,0 0.828125,0.15625 0.828125,0.4375 0,0.078125 0,0.1875 -0.0625,0.5 C 4.71875,-2.25 4.71875,-2.1875 4.71875,-2.1875 c 0,0.078125 0.0625,0.109375 0.109375,0.109375 0.109375,0 0.109375,-0.03125 0.15625,-0.203125 L 5.53125,-4.453125 c 0.03125,-0.109375 0.03125,-0.125 0.03125,-0.15625 0,0 -0.015625,-0.109375 -0.125,-0.109375 -0.09375,0 -0.109375,0.046875 -0.140625,0.21875 C 5.078125,-3.734375 4.859375,-3.546875 4,-3.546875 H 3.09375 l 0.640625,-2.53125 C 3.828125,-6.4375 3.84375,-6.46875 4.28125,-6.46875 h 1.3125 c 1.21875,0 1.453125,0.328125 1.453125,1.09375 0,0.234375 0,0.265625 -0.03125,0.546875 C 7,-4.703125 7,-4.6875 7,-4.65625 c 0,0.046875 0.03125,0.125 0.125,0.125 0.109375,0 0.109375,-0.0625 0.125,-0.25 z m 0,0"
           id="id-c59972e9-0592-4a74-8be2-546fce440e97-8" />
      </symbol>
      <symbol
         overflow="visible"
         id="id-7729321c-661a-45a5-b394-5636b1ed2499-6">
        <path
           style="stroke:none"
           d=""
           id="id-0998a9ae-3c10-4869-8a24-0cd68a62dc1c-7" />
      </symbol>
      <symbol
         overflow="visible"
         id="id-3f35941d-e49b-4ac7-9528-c9969f764a42-1">
        <path
           style="stroke:none"
           d="m 4.0625,-1.5 c 0,-0.859375 -0.703125,-1.578125 -1.59375,-1.578125 -0.390625,0 -0.796875,0.15625 -1.078125,0.4375 V -4.84375 L 0.34375,-4.765625 v 0.25 c 0.46875,0 0.515625,0.0625 0.515625,0.40625 v 4.90625 c 0,0.296875 -0.0625,0.296875 -0.515625,0.296875 v 0.265625 c 0,0 0.5,-0.03125 0.796875,-0.03125 0.25,0 0.734375,0.015625 0.796875,0.03125 V 1.09375 c -0.453125,0 -0.515625,0 -0.515625,-0.296875 v -1.125 C 1.453125,-0.296875 1.78125,0.0625 2.359375,0.0625 3.28125,0.0625 4.0625,-0.625 4.0625,-1.5 Z m -0.625,0 c 0,0.796875 -0.53125,1.375 -1.109375,1.375 -0.625,0 -0.890625,-0.53125 -0.90625,-0.578125 v -1.625 C 1.625,-2.671875 2.03125,-2.84375 2.390625,-2.84375 c 0.59375,0 1.046875,0.609375 1.046875,1.34375 z m 0,0"
           id="id-3b3ce98f-d8bf-4892-a249-1711b4d8c4cd-8" />
      </symbol>
      <symbol
         overflow="visible"
         id="id-e30f932b-b6df-4b74-a15e-128ccd62de4e-4">
        <path
           style="stroke:none"
           d="M 3.953125,-2.75 V -3 c -0.171875,0.015625 -0.34375,0.03125 -0.53125,0.03125 -0.1875,0 -0.4375,-0.015625 -0.625,-0.03125 v 0.25 c 0.296875,0.015625 0.296875,0.234375 0.296875,0.265625 0,0.03125 -0.015625,0.09375 -0.0625,0.203125 L 2.25,-0.5625 1.375,-2.453125 c 0,0 -0.03125,-0.09375 -0.03125,-0.140625 C 1.34375,-2.75 1.578125,-2.75 1.6875,-2.75 V -3 c 0,0 -0.5,0.03125 -0.78125,0.03125 -0.21875,0 -0.484375,-0.015625 -0.6875,-0.03125 v 0.25 c 0.375,0 0.46875,0.015625 0.5625,0.25 l 1.109375,2.421875 C 1.921875,0 1.96875,0.0625 2.078125,0.0625 2.21875,0.0625 2.25,0 2.28125,-0.0625 L 3.296875,-2.328125 C 3.5,-2.75 3.84375,-2.75 3.953125,-2.75 Z m 0,0"
           id="id-06d57a68-a861-422e-9473-765918649609-9" />
      </symbol>
      <symbol
         overflow="visible"
         id="id-ac3a7387-b98b-4918-8d21-a2564dd15200-7">
        <path
           style="stroke:none"
           d="m 3.265625,-0.84375 c 0,-0.015625 -0.015625,-0.09375 -0.125,-0.09375 -0.09375,0 -0.109375,0.046875 -0.125,0.109375 -0.21875,0.5625 -0.75,0.671875 -1,0.671875 C 1.6875,-0.15625 1.375,-0.296875 1.171875,-0.5625 0.90625,-0.890625 0.90625,-1.3125 0.90625,-1.59375 H 3.0625 c 0.15625,0 0.203125,0 0.203125,-0.140625 0,-0.625 -0.34375,-1.375 -1.390625,-1.375 -0.90625,0 -1.609375,0.71875 -1.609375,1.578125 0,0.890625 0.78125,1.59375 1.703125,1.59375 0.9375,0 1.296875,-0.75 1.296875,-0.90625 z M 2.78125,-1.765625 h -1.875 C 0.984375,-2.75 1.609375,-2.90625 1.875,-2.90625 c 0.859375,0 0.890625,0.96875 0.90625,1.140625 z m 0,0"
           id="id-66114a11-aac9-4dda-b73a-ecb7681b253f-3" />
      </symbol>
      <symbol
         overflow="visible"
         id="id-c6ea403d-fd73-4a5d-b8b1-848b7be91aac-1">
        <path
           style="stroke:none"
           d="m 2.84375,-2.625 c 0,-0.234375 -0.234375,-0.453125 -0.5625,-0.453125 -0.34375,0 -0.734375,0.21875 -0.9375,0.75 v -0.75 L 0.34375,-3 v 0.25 c 0.46875,0 0.515625,0.046875 0.515625,0.390625 v 1.8125 C 0.859375,-0.25 0.796875,-0.25 0.34375,-0.25 V 0 c 0.03125,0 0.5,-0.03125 0.796875,-0.03125 L 2.046875,0 V -0.25 H 1.90625 c -0.515625,0 -0.515625,-0.078125 -0.515625,-0.3125 v -1.03125 c 0,-0.578125 0.265625,-1.28125 0.9375,-1.28125 -0.0625,0.046875 -0.125,0.140625 -0.125,0.25 0,0.234375 0.1875,0.3125 0.3125,0.3125 0.171875,0 0.328125,-0.109375 0.328125,-0.3125 z m 0,0"
           id="id-ac512cfb-0f7a-42aa-88a7-0e75871b25b7-0" />
      </symbol>
    </g>
    <marker
       inkscape:stockid="Arrow1Mend"
       orient="auto"
       refY="0"
       refX="0"
       id="Arrow1Mend-1-6-2"
       style="overflow:visible"
       inkscape:isstock="true">
      <path
         id="path2348-6-8-3"
         d="M 0,0 5,-5 -12.5,0 5,5 Z"
         style="fill:#000000;fill-opacity:1;fill-rule:evenodd;stroke:#000000;stroke-width:1pt;stroke-opacity:1"
         transform="matrix(-0.4,0,0,-0.4,-4,0)" />
    </marker>
  </defs>
  <sodipodi:namedview
     showguides="false"
     id="base"
     pagecolor="#ffffff"
     bordercolor="#666666"
     borderopacity="1.0"
     inkscape:pageopacity="0.0"
     inkscape:pageshadow="2"
     inkscape:zoom="2.2050868"
     inkscape:cx="323.85213"
     inkscape:cy="353.13768"
     inkscape:document-units="mm"
     inkscape:current-layer="layer1"
     inkscape:document-rotation="0"
     showgrid="false"
     inkscape:window-width="1252"
     inkscape:window-height="847"
     inkscape:window-x="356"
     inkscape:window-y="213"
     inkscape:window-maximized="0" />
  <metadata
     id="metadata4210">
    <rdf:RDF>
      <cc:Work
         rdf:about="">
        <dc:format>image/svg+xml</dc:format>
        <dc:type
           rdf:resource="http://purl.org/dc/dcmitype/StillImage" />
        <dc:title />
      </cc:Work>
    </rdf:RDF>
  </metadata>
  <g
     inkscape:label="Layer 1"
     inkscape:groupmode="layer"
     id="layer1">
    <rect
       style="fill:#ffffff;stroke:#000000;stroke-width:0.317582;stroke-miterlimit:4;stroke-dasharray:none"
       id="rect2127"
       width="5.5042934"
       height="5.5042934"
       x="82.162354"
       y="86.486084" />
    <g
       id="g2322"
       ns14:jacobian_sqrt="0.352778"
       ns14:alignment="middle center"
       ns14:scale="1.0000000850393187"
       ns14:preamble="/Users/mbh/Library/Application Support/org.inkscape.Inkscape/config/inkscape/extensions/textext/default_packages.tex"
       ns14:text="$m$"
       ns14:pdfconverter="inkscape"
       ns14:texconverter="pdflatex"
       ns14:version="1.3.1"
       transform="matrix(0.3201035,0,0,0.3201035,83.745314,88.615551)">
      <defs
         id="id-0fabce6d-5f23-4206-924a-ab0007f58803">
        <g
           id="g6254">
          <symbol
             overflow="visible"
             id="symbol6248">
            <path
               style="stroke:none;stroke-width:0"
               d=""
               id="path6246" />
          </symbol>
          <symbol
             overflow="visible"
             id="symbol6252">
            <path
               style="stroke:none;stroke-width:0"
               d="m 8.453125,-1.421875 c 0,-0.109375 -0.09375,-0.109375 -0.125,-0.109375 -0.09375,0 -0.09375,0.03125 -0.140625,0.1875 -0.15625,0.53125 -0.46875,1.234375 -1.015625,1.234375 -0.171875,0 -0.25,-0.09375 -0.25,-0.328125 0,-0.25 0.09375,-0.484375 0.1875,-0.703125 0.1875,-0.53125 0.609375,-1.625 0.609375,-2.203125 0,-0.640625 -0.40625,-1.0625 -1.15625,-1.0625 -0.734375,0 -1.25,0.4375 -1.625,0.96875 0,-0.125 -0.03125,-0.46875 -0.3125,-0.703125 -0.25,-0.21875 -0.5625,-0.265625 -0.8125,-0.265625 -0.90625,0 -1.390625,0.640625 -1.5625,0.875 -0.046875,-0.578125 -0.46875,-0.875 -0.921875,-0.875 -0.453125,0 -0.640625,0.390625 -0.734375,0.5625 -0.171875,0.359375 -0.296875,0.9375 -0.296875,0.96875 0,0.109375 0.109375,0.109375 0.109375,0.109375 0.109375,0 0.109375,-0.015625 0.171875,-0.234375 0.171875,-0.703125 0.375,-1.1875 0.734375,-1.1875 0.15625,0 0.296875,0.078125 0.296875,0.453125 0,0.21875 -0.03125,0.328125 -0.15625,0.84375 L 0.875,-0.59375 c -0.03125,0.15625 -0.09375,0.390625 -0.09375,0.4375 0,0.171875 0.140625,0.265625 0.296875,0.265625 0.125,0 0.296875,-0.078125 0.375,-0.28125 0,-0.015625 0.125,-0.484375 0.1875,-0.734375 l 0.21875,-0.890625 C 1.90625,-2.03125 1.96875,-2.25 2.03125,-2.46875 l 0.125,-0.5 c 0.140625,-0.3125 0.671875,-1.21875 1.625,-1.21875 0.453125,0 0.53125,0.375 0.53125,0.703125 0,0.25 -0.0625,0.53125 -0.140625,0.828125 L 3.890625,-1.5 C 3.78125,-1.140625 3.78125,-1.078125 3.6875,-0.75 c -0.03125,0.203125 -0.125,0.546875 -0.125,0.59375 0,0.171875 0.140625,0.265625 0.28125,0.265625 0.3125,0 0.375,-0.25 0.453125,-0.5625 l 0.59375,-2.40625 c 0.03125,-0.125 0.5625,-1.328125 1.65625,-1.328125 0.421875,0 0.53125,0.34375 0.53125,0.703125 0,0.5625 -0.421875,1.703125 -0.625,2.234375 -0.078125,0.234375 -0.125,0.34375 -0.125,0.546875 0,0.46875 0.34375,0.8125 0.8125,0.8125 0.9375,0 1.3125,-1.453125 1.3125,-1.53125 z m 0,0"
               id="path6250" />
          </symbol>
        </g>
      </defs>
      <g
         id="id-1f708f50-ac8c-44ab-a4fc-fef5da25d778"
         transform="translate(-149.009,-130.359)">
        <g
           style="fill:#000000;fill-opacity:1"
           id="id-43a0e58a-5c25-4927-a587-1de28bc8554c">
          <g
             id="g2318"
             transform="translate(148.712,134.765)">
            <path
               style="stroke:none;stroke-width:0"
               d="m 8.453125,-1.421875 c 0,-0.109375 -0.09375,-0.109375 -0.125,-0.109375 -0.09375,0 -0.09375,0.03125 -0.140625,0.1875 -0.15625,0.53125 -0.46875,1.234375 -1.015625,1.234375 -0.171875,0 -0.25,-0.09375 -0.25,-0.328125 0,-0.25 0.09375,-0.484375 0.1875,-0.703125 0.1875,-0.53125 0.609375,-1.625 0.609375,-2.203125 0,-0.640625 -0.40625,-1.0625 -1.15625,-1.0625 -0.734375,0 -1.25,0.4375 -1.625,0.96875 0,-0.125 -0.03125,-0.46875 -0.3125,-0.703125 -0.25,-0.21875 -0.5625,-0.265625 -0.8125,-0.265625 -0.90625,0 -1.390625,0.640625 -1.5625,0.875 -0.046875,-0.578125 -0.46875,-0.875 -0.921875,-0.875 -0.453125,0 -0.640625,0.390625 -0.734375,0.5625 -0.171875,0.359375 -0.296875,0.9375 -0.296875,0.96875 0,0.109375 0.109375,0.109375 0.109375,0.109375 0.109375,0 0.109375,-0.015625 0.171875,-0.234375 0.171875,-0.703125 0.375,-1.1875 0.734375,-1.1875 0.15625,0 0.296875,0.078125 0.296875,0.453125 0,0.21875 -0.03125,0.328125 -0.15625,0.84375 L 0.875,-0.59375 c -0.03125,0.15625 -0.09375,0.390625 -0.09375,0.4375 0,0.171875 0.140625,0.265625 0.296875,0.265625 0.125,0 0.296875,-0.078125 0.375,-0.28125 0,-0.015625 0.125,-0.484375 0.1875,-0.734375 l 0.21875,-0.890625 C 1.90625,-2.03125 1.96875,-2.25 2.03125,-2.46875 l 0.125,-0.5 c 0.140625,-0.3125 0.671875,-1.21875 1.625,-1.21875 0.453125,0 0.53125,0.375 0.53125,0.703125 0,0.25 -0.0625,0.53125 -0.140625,0.828125 L 3.890625,-1.5 C 3.78125,-1.140625 3.78125,-1.078125 3.6875,-0.75 c -0.03125,0.203125 -0.125,0.546875 -0.125,0.59375 0,0.171875 0.140625,0.265625 0.28125,0.265625 0.3125,0 0.375,-0.25 0.453125,-0.5625 l 0.59375,-2.40625 c 0.03125,-0.125 0.5625,-1.328125 1.65625,-1.328125 0.421875,0 0.53125,0.34375 0.53125,0.703125 0,0.5625 -0.421875,1.703125 -0.625,2.234375 -0.078125,0.234375 -0.125,0.34375 -0.125,0.546875 0,0.46875 0.34375,0.8125 0.8125,0.8125 0.9375,0 1.3125,-1.453125 1.3125,-1.53125 z m 0,0"
               id="id-a657712c-2583-4e42-bd3d-144a640cac8d" />
          </g>
        </g>
      </g>
    </g>
    <path
       style="fill:none;stroke:#000000;stroke-width:0.264999;stroke-linecap:butt;stroke-linejoin:miter;stroke-miterlimit:4;stroke-dasharray:none;stroke-opacity:1;marker-end:url(#Arrow1Mend-0)"
       d="m 85.027621,86.339731 v -6.60578"
       id="path4834"
       sodipodi:nodetypes="cc" />
    <path
       sodipodi:nodetypes="cc"
       id="path4834-1"
       d="m 84.938375,92.126675 v 6.605781"
       style="fill:none;stroke:#000000;stroke-width:0.264999;stroke-linecap:butt;stroke-linejoin:miter;stroke-miterlimit:4;stroke-dasharray:none;stroke-opacity:1;marker-end:url(#Arrow1Mend-1-6)" />
    <g
       id="g5040"
       ns14:jacobian_sqrt="0.352778"
       ns14:alignment="middle center"
       ns14:scale="1.0000000850393187"
       ns14:preamble="/Users/mbh/Library/Application Support/org.inkscape.Inkscape/config/inkscape/extensions/textext/default_packages.tex"
       ns14:text="$F_g$"
       ns14:pdfconverter="inkscape"
       ns14:texconverter="pdflatex"
       ns14:version="1.3.1"
       transform="matrix(0.35277801,0,0,0.35277801,86.664139,96.609497)">
      <defs
         id="id-f5c6a7e3-7404-477b-a96d-32ee51cc4ca1">
        <g
           id="g6280">
          <symbol
             overflow="visible"
             id="symbol6266">
            <path
               style="stroke:none;stroke-width:0"
               d=""
               id="path6264" />
          </symbol>
          <symbol
             overflow="visible"
             id="symbol6270">
            <path
               style="stroke:none;stroke-width:0"
               d="M 7.25,-4.78125 7.453125,-6.515625 C 7.484375,-6.78125 7.4375,-6.78125 7.1875,-6.78125 H 2.296875 c -0.1875,0 -0.296875,0 -0.296875,0.203125 0,0.109375 0.09375,0.109375 0.28125,0.109375 0.375,0 0.65625,0 0.65625,0.171875 0,0.046875 0,0.0625 -0.0625,0.25 L 1.5625,-0.78125 c -0.09375,0.390625 -0.109375,0.46875 -0.90625,0.46875 -0.171875,0 -0.28125,0 -0.28125,0.1875 C 0.375,0 0.5,0 0.53125,0 L 1.84375,-0.03125 3.328125,0 c 0.09375,0 0.203125,0 0.203125,-0.1875 0,-0.078125 -0.046875,-0.109375 -0.046875,-0.109375 C 3.453125,-0.3125 3.421875,-0.3125 3.203125,-0.3125 c -0.21875,0 -0.265625,0 -0.515625,-0.015625 -0.296875,-0.03125 -0.328125,-0.078125 -0.328125,-0.203125 0,0 0,-0.078125 0.046875,-0.21875 l 0.609375,-2.484375 h 0.96875 c 0.75,0 0.828125,0.15625 0.828125,0.4375 0,0.078125 0,0.1875 -0.0625,0.5 C 4.71875,-2.25 4.71875,-2.1875 4.71875,-2.1875 c 0,0.078125 0.0625,0.109375 0.109375,0.109375 0.109375,0 0.109375,-0.03125 0.15625,-0.203125 L 5.53125,-4.453125 c 0.03125,-0.109375 0.03125,-0.125 0.03125,-0.15625 0,0 -0.015625,-0.109375 -0.125,-0.109375 -0.09375,0 -0.109375,0.046875 -0.140625,0.21875 C 5.078125,-3.734375 4.859375,-3.546875 4,-3.546875 H 3.09375 l 0.640625,-2.53125 C 3.828125,-6.4375 3.84375,-6.46875 4.28125,-6.46875 h 1.3125 c 1.21875,0 1.453125,0.328125 1.453125,1.09375 0,0.234375 0,0.265625 -0.03125,0.546875 C 7,-4.703125 7,-4.6875 7,-4.65625 c 0,0.046875 0.03125,0.125 0.125,0.125 0.109375,0 0.109375,-0.0625 0.125,-0.25 z m 0,0"
               id="path6268" />
          </symbol>
          <symbol
             overflow="visible"
             id="symbol6274">
            <path
               style="stroke:none;stroke-width:0"
               d=""
               id="path6272" />
          </symbol>
          <symbol
             overflow="visible"
             id="symbol6278">
            <path
               style="stroke:none;stroke-width:0"
               d="m 2.953125,0.46875 0.75,-3.046875 c 0.03125,-0.09375 0.03125,-0.140625 0.03125,-0.140625 0,-0.15625 -0.125,-0.21875 -0.234375,-0.21875 -0.15625,0 -0.296875,0.125 -0.328125,0.265625 -0.109375,-0.1875 -0.34375,-0.40625 -0.71875,-0.40625 -0.859375,0 -1.78125,0.9375 -1.78125,1.9375 C 0.671875,-0.421875 1.15625,0 1.734375,0 2.0625,0 2.359375,-0.15625 2.609375,-0.375 2.5,0.0625 2.5625,-0.1875 2.453125,0.25 2.375,0.546875 2.328125,0.734375 2.0625,0.96875 c -0.3125,0.25 -0.609375,0.25 -0.78125,0.25 -0.3125,0 -0.40625,-0.015625 -0.53125,-0.046875 0.171875,-0.078125 0.21875,-0.25 0.21875,-0.34375 0,-0.171875 -0.125,-0.25 -0.265625,-0.25 C 0.5,0.578125 0.296875,0.734375 0.296875,1 c 0,0.421875 0.609375,0.421875 1,0.421875 1.09375,0 1.546875,-0.5625 1.65625,-0.953125 z M 2.75,-0.921875 c -0.03125,0.09375 -0.03125,0.109375 -0.15625,0.25 C 2.359375,-0.375 2.015625,-0.1875 1.75,-0.1875 c -0.34375,0 -0.515625,-0.3125 -0.515625,-0.671875 0,-0.296875 0.1875,-1.078125 0.375,-1.390625 0.28125,-0.484375 0.609375,-0.625 0.84375,-0.625 0.5,0 0.625,0.515625 0.625,0.59375 0,0 0,0.015625 -0.015625,0.09375 z m 0,0"
               id="path6276" />
          </symbol>
        </g>
      </defs>
      <g
         id="id-0e7a45fa-6f1e-4388-9792-1bcb2bb52e61"
         transform="translate(-149.087,-127.984)">
        <g
           style="fill:#000000;fill-opacity:1"
           id="id-94b1ecf3-22d3-44f9-86d6-41dc9422cc3d">
          <g
             id="g5032"
             transform="translate(148.712,134.765)">
            <path
               style="stroke:none;stroke-width:0"
               d="M 7.25,-4.78125 7.453125,-6.515625 C 7.484375,-6.78125 7.4375,-6.78125 7.1875,-6.78125 H 2.296875 c -0.1875,0 -0.296875,0 -0.296875,0.203125 0,0.109375 0.09375,0.109375 0.28125,0.109375 0.375,0 0.65625,0 0.65625,0.171875 0,0.046875 0,0.0625 -0.0625,0.25 L 1.5625,-0.78125 c -0.09375,0.390625 -0.109375,0.46875 -0.90625,0.46875 -0.171875,0 -0.28125,0 -0.28125,0.1875 C 0.375,0 0.5,0 0.53125,0 L 1.84375,-0.03125 3.328125,0 c 0.09375,0 0.203125,0 0.203125,-0.1875 0,-0.078125 -0.046875,-0.109375 -0.046875,-0.109375 C 3.453125,-0.3125 3.421875,-0.3125 3.203125,-0.3125 c -0.21875,0 -0.265625,0 -0.515625,-0.015625 -0.296875,-0.03125 -0.328125,-0.078125 -0.328125,-0.203125 0,0 0,-0.078125 0.046875,-0.21875 l 0.609375,-2.484375 h 0.96875 c 0.75,0 0.828125,0.15625 0.828125,0.4375 0,0.078125 0,0.1875 -0.0625,0.5 C 4.71875,-2.25 4.71875,-2.1875 4.71875,-2.1875 c 0,0.078125 0.0625,0.109375 0.109375,0.109375 0.109375,0 0.109375,-0.03125 0.15625,-0.203125 L 5.53125,-4.453125 c 0.03125,-0.109375 0.03125,-0.125 0.03125,-0.15625 0,0 -0.015625,-0.109375 -0.125,-0.109375 -0.09375,0 -0.109375,0.046875 -0.140625,0.21875 C 5.078125,-3.734375 4.859375,-3.546875 4,-3.546875 H 3.09375 l 0.640625,-2.53125 C 3.828125,-6.4375 3.84375,-6.46875 4.28125,-6.46875 h 1.3125 c 1.21875,0 1.453125,0.328125 1.453125,1.09375 0,0.234375 0,0.265625 -0.03125,0.546875 C 7,-4.703125 7,-4.6875 7,-4.65625 c 0,0.046875 0.03125,0.125 0.125,0.125 0.109375,0 0.109375,-0.0625 0.125,-0.25 z m 0,0"
               id="id-482bc4f9-ecef-4a35-9b95-f018514dc34d" />
          </g>
        </g>
        <g
           style="fill:#000000;fill-opacity:1"
           id="id-6f8d4f72-baf5-45bb-9a47-55cb6de40404">
          <g
             id="g5036"
             transform="translate(155.119,136.259)">
            <path
               style="stroke:none;stroke-width:0"
               d="m 2.953125,0.46875 0.75,-3.046875 c 0.03125,-0.09375 0.03125,-0.140625 0.03125,-0.140625 0,-0.15625 -0.125,-0.21875 -0.234375,-0.21875 -0.15625,0 -0.296875,0.125 -0.328125,0.265625 -0.109375,-0.1875 -0.34375,-0.40625 -0.71875,-0.40625 -0.859375,0 -1.78125,0.9375 -1.78125,1.9375 C 0.671875,-0.421875 1.15625,0 1.734375,0 2.0625,0 2.359375,-0.15625 2.609375,-0.375 2.5,0.0625 2.5625,-0.1875 2.453125,0.25 2.375,0.546875 2.328125,0.734375 2.0625,0.96875 c -0.3125,0.25 -0.609375,0.25 -0.78125,0.25 -0.3125,0 -0.40625,-0.015625 -0.53125,-0.046875 0.171875,-0.078125 0.21875,-0.25 0.21875,-0.34375 0,-0.171875 -0.125,-0.25 -0.265625,-0.25 C 0.5,0.578125 0.296875,0.734375 0.296875,1 c 0,0.421875 0.609375,0.421875 1,0.421875 1.09375,0 1.546875,-0.5625 1.65625,-0.953125 z M 2.75,-0.921875 c -0.03125,0.09375 -0.03125,0.109375 -0.15625,0.25 C 2.359375,-0.375 2.015625,-0.1875 1.75,-0.1875 c -0.34375,0 -0.515625,-0.3125 -0.515625,-0.671875 0,-0.296875 0.1875,-1.078125 0.375,-1.390625 0.28125,-0.484375 0.609375,-0.625 0.84375,-0.625 0.5,0 0.625,0.515625 0.625,0.59375 0,0 0,0.015625 -0.015625,0.09375 z m 0,0"
               id="id-05b410de-2c23-4bf6-91c3-f9df0df52d52" />
          </g>
        </g>
      </g>
    </g>
    <g
       id="g4908"
       ns14:jacobian_sqrt="0.352778"
       ns14:inkscapeversion="1.0"
       ns14:alignment="middle center"
       ns14:scale="1.0000000850393187"
       ns14:preamble="/Users/mbh/Library/Application Support/org.inkscape.Inkscape/config/inkscape/extensions/textext/default_packages.tex"
       ns14:text="$F_{\\text{\xfever}}$"
       ns14:pdfconverter="inkscape"
       ns14:texconverter="pdflatex"
       ns14:version="1.3.1"
       transform="matrix(0.35277801,0,0,0.35277801,86.86704,79.448144)">
      <defs
         id="id-acf80573-d979-4f9e-90ca-bdc9c87cd646">
        <g
           id="g6319">
          <symbol
             overflow="visible"
             id="symbol6293">
            <path
               style="stroke:none"
               d=""
               id="path6291" />
          </symbol>
          <symbol
             overflow="visible"
             id="symbol6297">
            <path
               style="stroke:none"
               d="M 7.25,-4.78125 7.453125,-6.515625 C 7.484375,-6.78125 7.4375,-6.78125 7.1875,-6.78125 H 2.296875 c -0.1875,0 -0.296875,0 -0.296875,0.203125 0,0.109375 0.09375,0.109375 0.28125,0.109375 0.375,0 0.65625,0 0.65625,0.171875 0,0.046875 0,0.0625 -0.0625,0.25 L 1.5625,-0.78125 c -0.09375,0.390625 -0.109375,0.46875 -0.90625,0.46875 -0.171875,0 -0.28125,0 -0.28125,0.1875 C 0.375,0 0.5,0 0.53125,0 L 1.84375,-0.03125 3.328125,0 c 0.09375,0 0.203125,0 0.203125,-0.1875 0,-0.078125 -0.046875,-0.109375 -0.046875,-0.109375 C 3.453125,-0.3125 3.421875,-0.3125 3.203125,-0.3125 c -0.21875,0 -0.265625,0 -0.515625,-0.015625 -0.296875,-0.03125 -0.328125,-0.078125 -0.328125,-0.203125 0,0 0,-0.078125 0.046875,-0.21875 l 0.609375,-2.484375 h 0.96875 c 0.75,0 0.828125,0.15625 0.828125,0.4375 0,0.078125 0,0.1875 -0.0625,0.5 C 4.71875,-2.25 4.71875,-2.1875 4.71875,-2.1875 c 0,0.078125 0.0625,0.109375 0.109375,0.109375 0.109375,0 0.109375,-0.03125 0.15625,-0.203125 L 5.53125,-4.453125 c 0.03125,-0.109375 0.03125,-0.125 0.03125,-0.15625 0,0 -0.015625,-0.109375 -0.125,-0.109375 -0.09375,0 -0.109375,0.046875 -0.140625,0.21875 C 5.078125,-3.734375 4.859375,-3.546875 4,-3.546875 H 3.09375 l 0.640625,-2.53125 C 3.828125,-6.4375 3.84375,-6.46875 4.28125,-6.46875 h 1.3125 c 1.21875,0 1.453125,0.328125 1.453125,1.09375 0,0.234375 0,0.265625 -0.03125,0.546875 C 7,-4.703125 7,-4.6875 7,-4.65625 c 0,0.046875 0.03125,0.125 0.125,0.125 0.109375,0 0.109375,-0.0625 0.125,-0.25 z m 0,0"
               id="path6295" />
          </symbol>
          <symbol
             overflow="visible"
             id="symbol6301">
            <path
               style="stroke:none"
               d=""
               id="path6299" />
          </symbol>
          <symbol
             overflow="visible"
             id="symbol6305">
            <path
               style="stroke:none"
               d="m 4.0625,-1.5 c 0,-0.859375 -0.703125,-1.578125 -1.59375,-1.578125 -0.390625,0 -0.796875,0.15625 -1.078125,0.4375 V -4.84375 L 0.34375,-4.765625 v 0.25 c 0.46875,0 0.515625,0.0625 0.515625,0.40625 v 4.90625 c 0,0.296875 -0.0625,0.296875 -0.515625,0.296875 v 0.265625 c 0,0 0.5,-0.03125 0.796875,-0.03125 0.25,0 0.734375,0.015625 0.796875,0.03125 V 1.09375 c -0.453125,0 -0.515625,0 -0.515625,-0.296875 v -1.125 C 1.453125,-0.296875 1.78125,0.0625 2.359375,0.0625 3.28125,0.0625 4.0625,-0.625 4.0625,-1.5 Z m -0.625,0 c 0,0.796875 -0.53125,1.375 -1.109375,1.375 -0.625,0 -0.890625,-0.53125 -0.90625,-0.578125 v -1.625 C 1.625,-2.671875 2.03125,-2.84375 2.390625,-2.84375 c 0.59375,0 1.046875,0.609375 1.046875,1.34375 z m 0,0"
               id="path6303" />
          </symbol>
          <symbol
             overflow="visible"
             id="symbol6309">
            <path
               style="stroke:none"
               d="M 3.953125,-2.75 V -3 c -0.171875,0.015625 -0.34375,0.03125 -0.53125,0.03125 -0.1875,0 -0.4375,-0.015625 -0.625,-0.03125 v 0.25 c 0.296875,0.015625 0.296875,0.234375 0.296875,0.265625 0,0.03125 -0.015625,0.09375 -0.0625,0.203125 L 2.25,-0.5625 1.375,-2.453125 c 0,0 -0.03125,-0.09375 -0.03125,-0.140625 C 1.34375,-2.75 1.578125,-2.75 1.6875,-2.75 V -3 c 0,0 -0.5,0.03125 -0.78125,0.03125 -0.21875,0 -0.484375,-0.015625 -0.6875,-0.03125 v 0.25 c 0.375,0 0.46875,0.015625 0.5625,0.25 l 1.109375,2.421875 C 1.921875,0 1.96875,0.0625 2.078125,0.0625 2.21875,0.0625 2.25,0 2.28125,-0.0625 L 3.296875,-2.328125 C 3.5,-2.75 3.84375,-2.75 3.953125,-2.75 Z m 0,0"
               id="path6307" />
          </symbol>
          <symbol
             overflow="visible"
             id="symbol6313">
            <path
               style="stroke:none"
               d="m 3.265625,-0.84375 c 0,-0.015625 -0.015625,-0.09375 -0.125,-0.09375 -0.09375,0 -0.109375,0.046875 -0.125,0.109375 -0.21875,0.5625 -0.75,0.671875 -1,0.671875 C 1.6875,-0.15625 1.375,-0.296875 1.171875,-0.5625 0.90625,-0.890625 0.90625,-1.3125 0.90625,-1.59375 H 3.0625 c 0.15625,0 0.203125,0 0.203125,-0.140625 0,-0.625 -0.34375,-1.375 -1.390625,-1.375 -0.90625,0 -1.609375,0.71875 -1.609375,1.578125 0,0.890625 0.78125,1.59375 1.703125,1.59375 0.9375,0 1.296875,-0.75 1.296875,-0.90625 z M 2.78125,-1.765625 h -1.875 C 0.984375,-2.75 1.609375,-2.90625 1.875,-2.90625 c 0.859375,0 0.890625,0.96875 0.90625,1.140625 z m 0,0"
               id="path6311" />
          </symbol>
          <symbol
             overflow="visible"
             id="symbol6317">
            <path
               style="stroke:none"
               d="m 2.84375,-2.625 c 0,-0.234375 -0.234375,-0.453125 -0.5625,-0.453125 -0.34375,0 -0.734375,0.21875 -0.9375,0.75 v -0.75 L 0.34375,-3 v 0.25 c 0.46875,0 0.515625,0.046875 0.515625,0.390625 v 1.8125 C 0.859375,-0.25 0.796875,-0.25 0.34375,-0.25 V 0 c 0.03125,0 0.5,-0.03125 0.796875,-0.03125 L 2.046875,0 V -0.25 H 1.90625 c -0.515625,0 -0.515625,-0.078125 -0.515625,-0.3125 v -1.03125 c 0,-0.578125 0.265625,-1.28125 0.9375,-1.28125 -0.0625,0.046875 -0.125,0.140625 -0.125,0.25 0,0.234375 0.1875,0.3125 0.3125,0.3125 0.171875,0 0.328125,-0.109375 0.328125,-0.3125 z m 0,0"
               id="path6315" />
          </symbol>
        </g>
      </defs>
      <g
         id="id-b9b3b9ed-9c6f-4b95-b085-ef86a15e5264"
         transform="translate(-149.087,-127.984)">
        <g
           style="fill:#000000;fill-opacity:1"
           id="id-cf304a99-2e98-49d7-8194-e1801d57662b">
          <g
             id="g5213"
             transform="translate(148.712,134.765)">
            <path
               style="stroke:none"
               d="M 7.25,-4.78125 7.453125,-6.515625 C 7.484375,-6.78125 7.4375,-6.78125 7.1875,-6.78125 H 2.296875 c -0.1875,0 -0.296875,0 -0.296875,0.203125 0,0.109375 0.09375,0.109375 0.28125,0.109375 0.375,0 0.65625,0 0.65625,0.171875 0,0.046875 0,0.0625 -0.0625,0.25 L 1.5625,-0.78125 c -0.09375,0.390625 -0.109375,0.46875 -0.90625,0.46875 -0.171875,0 -0.28125,0 -0.28125,0.1875 C 0.375,0 0.5,0 0.53125,0 L 1.84375,-0.03125 3.328125,0 c 0.09375,0 0.203125,0 0.203125,-0.1875 0,-0.078125 -0.046875,-0.109375 -0.046875,-0.109375 C 3.453125,-0.3125 3.421875,-0.3125 3.203125,-0.3125 c -0.21875,0 -0.265625,0 -0.515625,-0.015625 -0.296875,-0.03125 -0.328125,-0.078125 -0.328125,-0.203125 0,0 0,-0.078125 0.046875,-0.21875 l 0.609375,-2.484375 h 0.96875 c 0.75,0 0.828125,0.15625 0.828125,0.4375 0,0.078125 0,0.1875 -0.0625,0.5 C 4.71875,-2.25 4.71875,-2.1875 4.71875,-2.1875 c 0,0.078125 0.0625,0.109375 0.109375,0.109375 0.109375,0 0.109375,-0.03125 0.15625,-0.203125 L 5.53125,-4.453125 c 0.03125,-0.109375 0.03125,-0.125 0.03125,-0.15625 0,0 -0.015625,-0.109375 -0.125,-0.109375 -0.09375,0 -0.109375,0.046875 -0.140625,0.21875 C 5.078125,-3.734375 4.859375,-3.546875 4,-3.546875 H 3.09375 l 0.640625,-2.53125 C 3.828125,-6.4375 3.84375,-6.46875 4.28125,-6.46875 h 1.3125 c 1.21875,0 1.453125,0.328125 1.453125,1.09375 0,0.234375 0,0.265625 -0.03125,0.546875 C 7,-4.703125 7,-4.6875 7,-4.65625 c 0,0.046875 0.03125,0.125 0.125,0.125 0.109375,0 0.109375,-0.0625 0.125,-0.25 z m 0,0"
               id="id-9306ab56-1251-4087-baa4-1d93d64cbc86" />
          </g>
        </g>
        <g
           style="fill:#000000;fill-opacity:1"
           id="id-49bb74af-e3be-462f-ac4c-d084f2359a14">
          <g
             id="g5217"
             transform="translate(155.119,136.259)">
            <path
               style="stroke:none"
               d="m 4.0625,-1.5 c 0,-0.859375 -0.703125,-1.578125 -1.59375,-1.578125 -0.390625,0 -0.796875,0.15625 -1.078125,0.4375 V -4.84375 L 0.34375,-4.765625 v 0.25 c 0.46875,0 0.515625,0.0625 0.515625,0.40625 v 4.90625 c 0,0.296875 -0.0625,0.296875 -0.515625,0.296875 v 0.265625 c 0,0 0.5,-0.03125 0.796875,-0.03125 0.25,0 0.734375,0.015625 0.796875,0.03125 V 1.09375 c -0.453125,0 -0.515625,0 -0.515625,-0.296875 v -1.125 C 1.453125,-0.296875 1.78125,0.0625 2.359375,0.0625 3.28125,0.0625 4.0625,-0.625 4.0625,-1.5 Z m -0.625,0 c 0,0.796875 -0.53125,1.375 -1.109375,1.375 -0.625,0 -0.890625,-0.53125 -0.90625,-0.578125 v -1.625 C 1.625,-2.671875 2.03125,-2.84375 2.390625,-2.84375 c 0.59375,0 1.046875,0.609375 1.046875,1.34375 z m 0,0"
               id="id-941bca36-4350-42a8-88ac-4be3bba88673" />
          </g>
          <g
             id="g5220"
             transform="translate(159.519,136.259)">
            <path
               style="stroke:none"
               d="M 3.953125,-2.75 V -3 c -0.171875,0.015625 -0.34375,0.03125 -0.53125,0.03125 -0.1875,0 -0.4375,-0.015625 -0.625,-0.03125 v 0.25 c 0.296875,0.015625 0.296875,0.234375 0.296875,0.265625 0,0.03125 -0.015625,0.09375 -0.0625,0.203125 L 2.25,-0.5625 1.375,-2.453125 c 0,0 -0.03125,-0.09375 -0.03125,-0.140625 C 1.34375,-2.75 1.578125,-2.75 1.6875,-2.75 V -3 c 0,0 -0.5,0.03125 -0.78125,0.03125 -0.21875,0 -0.484375,-0.015625 -0.6875,-0.03125 v 0.25 c 0.375,0 0.46875,0.015625 0.5625,0.25 l 1.109375,2.421875 C 1.921875,0 1.96875,0.0625 2.078125,0.0625 2.21875,0.0625 2.25,0 2.28125,-0.0625 L 3.296875,-2.328125 C 3.5,-2.75 3.84375,-2.75 3.953125,-2.75 Z m 0,0"
               id="id-44032515-7873-4355-a161-ad625e7cca13" />
          </g>
        </g>
        <g
           style="fill:#000000;fill-opacity:1"
           id="id-ee69ab9b-a6e8-4e57-9fd3-963e291f4e2d">
          <g
             id="g5224"
             transform="translate(163.489,136.259)">
            <path
               style="stroke:none"
               d="m 3.265625,-0.84375 c 0,-0.015625 -0.015625,-0.09375 -0.125,-0.09375 -0.09375,0 -0.109375,0.046875 -0.125,0.109375 -0.21875,0.5625 -0.75,0.671875 -1,0.671875 C 1.6875,-0.15625 1.375,-0.296875 1.171875,-0.5625 0.90625,-0.890625 0.90625,-1.3125 0.90625,-1.59375 H 3.0625 c 0.15625,0 0.203125,0 0.203125,-0.140625 0,-0.625 -0.34375,-1.375 -1.390625,-1.375 -0.90625,0 -1.609375,0.71875 -1.609375,1.578125 0,0.890625 0.78125,1.59375 1.703125,1.59375 0.9375,0 1.296875,-0.75 1.296875,-0.90625 z M 2.78125,-1.765625 h -1.875 C 0.984375,-2.75 1.609375,-2.90625 1.875,-2.90625 c 0.859375,0 0.890625,0.96875 0.90625,1.140625 z m 0,0"
               id="id-4b738be2-0e93-4d82-ae01-c771fffe520e" />
          </g>
          <g
             id="g5227"
             transform="translate(167.031,136.259)">
            <path
               style="stroke:none"
               d="m 2.84375,-2.625 c 0,-0.234375 -0.234375,-0.453125 -0.5625,-0.453125 -0.34375,0 -0.734375,0.21875 -0.9375,0.75 v -0.75 L 0.34375,-3 v 0.25 c 0.46875,0 0.515625,0.046875 0.515625,0.390625 v 1.8125 C 0.859375,-0.25 0.796875,-0.25 0.34375,-0.25 V 0 c 0.03125,0 0.5,-0.03125 0.796875,-0.03125 L 2.046875,0 V -0.25 H 1.90625 c -0.515625,0 -0.515625,-0.078125 -0.515625,-0.3125 v -1.03125 c 0,-0.578125 0.265625,-1.28125 0.9375,-1.28125 -0.0625,0.046875 -0.125,0.140625 -0.125,0.25 0,0.234375 0.1875,0.3125 0.3125,0.3125 0.171875,0 0.328125,-0.109375 0.328125,-0.3125 z m 0,0"
               id="id-0066e18d-a540-433f-887b-ceb15b11cd2a" />
          </g>
        </g>
      </g>
    </g>
    <path
       style="fill:none;stroke:#000000;stroke-width:0.264999;stroke-linecap:butt;stroke-linejoin:miter;stroke-miterlimit:4;stroke-dasharray:none;stroke-opacity:1;marker-end:url(#Arrow1Mend-1-6-2)"
       d="M 82.082939,89.310175 H 75.477158"
       id="path4834-1-7"
       sodipodi:nodetypes="cc" />
    <g
       transform="matrix(0.352778,0,0,0.352778,71.546302,84.18449)"
       ns14:version="1.3.1"
       ns14:texconverter="pdflatex"
       ns14:pdfconverter="inkscape"
       ns14:text="$F_{\\text{n\xfan}}$"
       ns14:preamble="/Users/mbh/Library/Application Support/org.inkscape.Inkscape/config/inkscape/extensions/textext/default_packages.tex"
       ns14:scale="1.0000000850393187"
       ns14:alignment="middle center"
       ns14:inkscapeversion="1.0"
       ns14:jacobian_sqrt="0.352778"
       id="g6656">
      <defs
         id="id-bfe13399-0135-4de2-bfb1-fc5eb29a97a0">
        <g
           id="id-ee60b109-d89c-478d-a2b7-d77c503d19ac">
          <symbol
             id="id-a9a05e2f-3f35-4610-ab36-1fca55528a2e"
             overflow="visible">
            <path
               id="id-d6d93cf5-d0aa-4286-8f38-f776d62b6c54"
               d=""
               style="stroke:none;stroke-width:0" />
          </symbol>
          <symbol
             id="id-8b417fc0-3abd-4390-a355-a66e48923cd7"
             overflow="visible">
            <path
               id="id-f070b5eb-85cc-4c35-a793-6bf3c779cc11"
               d="M 7.25,-4.78125 7.453125,-6.515625 C 7.484375,-6.78125 7.4375,-6.78125 7.1875,-6.78125 H 2.296875 c -0.1875,0 -0.296875,0 -0.296875,0.203125 0,0.109375 0.09375,0.109375 0.28125,0.109375 0.375,0 0.65625,0 0.65625,0.171875 0,0.046875 0,0.0625 -0.0625,0.25 L 1.5625,-0.78125 c -0.09375,0.390625 -0.109375,0.46875 -0.90625,0.46875 -0.171875,0 -0.28125,0 -0.28125,0.1875 C 0.375,0 0.5,0 0.53125,0 L 1.84375,-0.03125 3.328125,0 c 0.09375,0 0.203125,0 0.203125,-0.1875 0,-0.078125 -0.046875,-0.109375 -0.046875,-0.109375 C 3.453125,-0.3125 3.421875,-0.3125 3.203125,-0.3125 c -0.21875,0 -0.265625,0 -0.515625,-0.015625 -0.296875,-0.03125 -0.328125,-0.078125 -0.328125,-0.203125 0,0 0,-0.078125 0.046875,-0.21875 l 0.609375,-2.484375 h 0.96875 c 0.75,0 0.828125,0.15625 0.828125,0.4375 0,0.078125 0,0.1875 -0.0625,0.5 C 4.71875,-2.25 4.71875,-2.1875 4.71875,-2.1875 c 0,0.078125 0.0625,0.109375 0.109375,0.109375 0.109375,0 0.109375,-0.03125 0.15625,-0.203125 L 5.53125,-4.453125 c 0.03125,-0.109375 0.03125,-0.125 0.03125,-0.15625 0,0 -0.015625,-0.109375 -0.125,-0.109375 -0.09375,0 -0.109375,0.046875 -0.140625,0.21875 C 5.078125,-3.734375 4.859375,-3.546875 4,-3.546875 H 3.09375 l 0.640625,-2.53125 C 3.828125,-6.4375 3.84375,-6.46875 4.28125,-6.46875 h 1.3125 c 1.21875,0 1.453125,0.328125 1.453125,1.09375 0,0.234375 0,0.265625 -0.03125,0.546875 C 7,-4.703125 7,-4.6875 7,-4.65625 c 0,0.046875 0.03125,0.125 0.125,0.125 0.109375,0 0.109375,-0.0625 0.125,-0.25 z m 0,0"
               style="stroke:none;stroke-width:0" />
          </symbol>
          <symbol
             id="id-45febcf4-d66a-4ca2-a3f0-9724ec7b7026"
             overflow="visible">
            <path
               id="id-8a487ca7-b6e2-467c-ae89-0c94cc1beaaa"
               d=""
               style="stroke:none;stroke-width:0" />
          </symbol>
          <symbol
             id="id-4e51b661-3bc5-478f-84b0-54c09d3ae162"
             overflow="visible">
            <path
               id="id-9f8b9913-bc2a-4b92-b4d5-8b5c856d4ade"
               d="m 4.109375,0 v -0.25 c -0.453125,0 -0.515625,0 -0.515625,-0.296875 v -1.5625 c 0,-0.609375 -0.296875,-0.96875 -1.046875,-0.96875 -0.578125,0 -0.9375,0.3125 -1.140625,0.6875 v -0.6875 L 0.375,-3 v 0.25 c 0.46875,0 0.53125,0.046875 0.53125,0.390625 v 1.8125 C 0.90625,-0.25 0.828125,-0.25 0.375,-0.25 V 0 c 0,0 0.5,-0.03125 0.796875,-0.03125 C 1.421875,-0.03125 1.90625,0 1.96875,0 v -0.25 c -0.453125,0 -0.515625,0 -0.515625,-0.296875 V -1.8125 c 0,-0.71875 0.578125,-1.0625 1.03125,-1.0625 0.484375,0 0.546875,0.375 0.546875,0.734375 v 1.59375 C 3.03125,-0.25 2.96875,-0.25 2.515625,-0.25 V 0 c 0,0 0.5,-0.03125 0.796875,-0.03125 C 3.5625,-0.03125 4.046875,0 4.109375,0 Z m 0,0"
               style="stroke:none;stroke-width:0" />
          </symbol>
          <symbol
             id="id-732167b7-6930-40a1-a619-1b434106ac8e"
             overflow="visible">
            <path
               id="id-b7b25f7a-f63e-4e20-92ad-42936b57caf0"
               d="m 4.109375,0 v -0.25 c -0.46875,0 -0.515625,-0.046875 -0.515625,-0.390625 v -2.4375 L 2.515625,-3 v 0.25 c 0.46875,0 0.515625,0.046875 0.515625,0.390625 v 1.203125 c 0,0.609375 -0.390625,1.03125 -0.921875,1.03125 -0.625,0 -0.65625,-0.296875 -0.65625,-0.65625 V -3.078125 L 0.375,-3 v 0.25 c 0.53125,0 0.53125,0.03125 0.53125,0.640625 V -1.0625 c 0,0.484375 0,1.125 1.15625,1.125 0.15625,0 0.65625,0 1,-0.578125 V 0.0625 Z M 3.15625,-4.578125 c 0,-0.125 -0.125,-0.28125 -0.28125,-0.28125 -0.109375,0 -0.171875,0.0625 -0.234375,0.140625 L 1.71875,-3.703125 1.875,-3.53125 2.984375,-4.328125 c 0.109375,-0.0625 0.171875,-0.125 0.171875,-0.25 z m 0,0"
               style="stroke:none;stroke-width:0" />
          </symbol>
        </g>
      </defs>
      <g
         transform="translate(-149.087,-127.984)"
         id="id-d4c9ac02-c800-4194-be60-272138960438">
        <g
           id="id-9712cbfc-6b5d-4f84-bdb6-7a93eafe69d4"
           style="fill:#000000;fill-opacity:1">
          <g
             transform="translate(148.712,134.765)"
             id="g6641">
            <path
               id="id-cd070028-a74b-4387-967f-4a325abbf02a"
               d="M 7.25,-4.78125 7.453125,-6.515625 C 7.484375,-6.78125 7.4375,-6.78125 7.1875,-6.78125 H 2.296875 c -0.1875,0 -0.296875,0 -0.296875,0.203125 0,0.109375 0.09375,0.109375 0.28125,0.109375 0.375,0 0.65625,0 0.65625,0.171875 0,0.046875 0,0.0625 -0.0625,0.25 L 1.5625,-0.78125 c -0.09375,0.390625 -0.109375,0.46875 -0.90625,0.46875 -0.171875,0 -0.28125,0 -0.28125,0.1875 C 0.375,0 0.5,0 0.53125,0 L 1.84375,-0.03125 3.328125,0 c 0.09375,0 0.203125,0 0.203125,-0.1875 0,-0.078125 -0.046875,-0.109375 -0.046875,-0.109375 C 3.453125,-0.3125 3.421875,-0.3125 3.203125,-0.3125 c -0.21875,0 -0.265625,0 -0.515625,-0.015625 -0.296875,-0.03125 -0.328125,-0.078125 -0.328125,-0.203125 0,0 0,-0.078125 0.046875,-0.21875 l 0.609375,-2.484375 h 0.96875 c 0.75,0 0.828125,0.15625 0.828125,0.4375 0,0.078125 0,0.1875 -0.0625,0.5 C 4.71875,-2.25 4.71875,-2.1875 4.71875,-2.1875 c 0,0.078125 0.0625,0.109375 0.109375,0.109375 0.109375,0 0.109375,-0.03125 0.15625,-0.203125 L 5.53125,-4.453125 c 0.03125,-0.109375 0.03125,-0.125 0.03125,-0.15625 0,0 -0.015625,-0.109375 -0.125,-0.109375 -0.09375,0 -0.109375,0.046875 -0.140625,0.21875 C 5.078125,-3.734375 4.859375,-3.546875 4,-3.546875 H 3.09375 l 0.640625,-2.53125 C 3.828125,-6.4375 3.84375,-6.46875 4.28125,-6.46875 h 1.3125 c 1.21875,0 1.453125,0.328125 1.453125,1.09375 0,0.234375 0,0.265625 -0.03125,0.546875 C 7,-4.703125 7,-4.6875 7,-4.65625 c 0,0.046875 0.03125,0.125 0.125,0.125 0.109375,0 0.109375,-0.0625 0.125,-0.25 z m 0,0"
               style="stroke:none;stroke-width:0" />
          </g>
        </g>
        <g
           id="id-32c5b941-a858-41de-8ed4-476ade1c41c8"
           style="fill:#000000;fill-opacity:1">
          <g
             transform="translate(155.119,136.259)"
             id="g6645">
            <path
               id="id-2b02bc9d-d0d8-4022-9b38-46b99343ac41"
               d="m 4.109375,0 v -0.25 c -0.453125,0 -0.515625,0 -0.515625,-0.296875 v -1.5625 c 0,-0.609375 -0.296875,-0.96875 -1.046875,-0.96875 -0.578125,0 -0.9375,0.3125 -1.140625,0.6875 v -0.6875 L 0.375,-3 v 0.25 c 0.46875,0 0.53125,0.046875 0.53125,0.390625 v 1.8125 C 0.90625,-0.25 0.828125,-0.25 0.375,-0.25 V 0 c 0,0 0.5,-0.03125 0.796875,-0.03125 C 1.421875,-0.03125 1.90625,0 1.96875,0 v -0.25 c -0.453125,0 -0.515625,0 -0.515625,-0.296875 V -1.8125 c 0,-0.71875 0.578125,-1.0625 1.03125,-1.0625 0.484375,0 0.546875,0.375 0.546875,0.734375 v 1.59375 C 3.03125,-0.25 2.96875,-0.25 2.515625,-0.25 V 0 c 0,0 0.5,-0.03125 0.796875,-0.03125 C 3.5625,-0.03125 4.046875,0 4.109375,0 Z m 0,0"
               style="stroke:none;stroke-width:0" />
          </g>
        </g>
        <g
           id="id-b4f06b1b-8d69-465f-95fa-d38f402be0f0"
           style="fill:#000000;fill-opacity:1">
          <g
             transform="translate(159.303,136.259)"
             id="g6649">
            <path
               id="id-a52ad08e-accd-4263-8e52-429231ae572c"
               d="m 4.109375,0 v -0.25 c -0.46875,0 -0.515625,-0.046875 -0.515625,-0.390625 v -2.4375 L 2.515625,-3 v 0.25 c 0.46875,0 0.515625,0.046875 0.515625,0.390625 v 1.203125 c 0,0.609375 -0.390625,1.03125 -0.921875,1.03125 -0.625,0 -0.65625,-0.296875 -0.65625,-0.65625 V -3.078125 L 0.375,-3 v 0.25 c 0.53125,0 0.53125,0.03125 0.53125,0.640625 V -1.0625 c 0,0.484375 0,1.125 1.15625,1.125 0.15625,0 0.65625,0 1,-0.578125 V 0.0625 Z M 3.15625,-4.578125 c 0,-0.125 -0.125,-0.28125 -0.28125,-0.28125 -0.109375,0 -0.171875,0.0625 -0.234375,0.140625 L 1.71875,-3.703125 1.875,-3.53125 2.984375,-4.328125 c 0.109375,-0.0625 0.171875,-0.125 0.171875,-0.25 z m 0,0"
               style="stroke:none;stroke-width:0" />
          </g>
          <g
             transform="translate(163.704,136.259)"
             id="g6652">
            <path
               id="id-51376579-7d3a-4ea0-b722-d096b3aa5ee8"
               d="m 4.109375,0 v -0.25 c -0.453125,0 -0.515625,0 -0.515625,-0.296875 v -1.5625 c 0,-0.609375 -0.296875,-0.96875 -1.046875,-0.96875 -0.578125,0 -0.9375,0.3125 -1.140625,0.6875 v -0.6875 L 0.375,-3 v 0.25 c 0.46875,0 0.53125,0.046875 0.53125,0.390625 v 1.8125 C 0.90625,-0.25 0.828125,-0.25 0.375,-0.25 V 0 c 0,0 0.5,-0.03125 0.796875,-0.03125 C 1.421875,-0.03125 1.90625,0 1.96875,0 v -0.25 c -0.453125,0 -0.515625,0 -0.515625,-0.296875 V -1.8125 c 0,-0.71875 0.578125,-1.0625 1.03125,-1.0625 0.484375,0 0.546875,0.375 0.546875,0.734375 v 1.59375 C 3.03125,-0.25 2.96875,-0.25 2.515625,-0.25 V 0 c 0,0 0.5,-0.03125 0.796875,-0.03125 C 3.5625,-0.03125 4.046875,0 4.109375,0 Z m 0,0"
               style="stroke:none;stroke-width:0" />
          </g>
        </g>
      </g>
    </g>
  </g>
</svg>
