<?xml version="1.0" encoding="UTF-8" standalone="no"?>
<svg
   xmlns:ns1="http://www.iki.fi/pav/software/textext/"
   xmlns:dc="http://purl.org/dc/elements/1.1/"
   xmlns:cc="http://creativecommons.org/ns#"
   xmlns:rdf="http://www.w3.org/1999/02/22-rdf-syntax-ns#"
   xmlns:svg="http://www.w3.org/2000/svg"
   xmlns="http://www.w3.org/2000/svg"
   xmlns:sodipodi="http://sodipodi.sourceforge.net/DTD/sodipodi-0.dtd"
   xmlns:inkscape="http://www.inkscape.org/namespaces/inkscape"
   sodipodi:docname="segulsvid1.svg"
   inkscape:version="1.0 (4035a4f, 2020-05-01)"
   id="svg8240"
   version="1.1"
   viewBox="0 0 210 297"
   height="297mm"
   width="210mm">
  <defs
     id="defs8234">
    <marker
       inkscape:stockid="Arrow1Mend"
       orient="auto"
       refY="0.0"
       refX="0.0"
       id="marker12713"
       style="overflow:visible;"
       inkscape:isstock="true">
      <path
         id="path12711"
         d="M 0.0,0.0 L 5.0,-5.0 L -12.5,0.0 L 5.0,5.0 L 0.0,0.0 z "
         style="fill-rule:evenodd;stroke:#000000;stroke-width:1pt;stroke-opacity:1;fill:#000000;fill-opacity:1"
         transform="scale(0.4) rotate(180) translate(10,0)" />
    </marker>
    <marker
       inkscape:collect="always"
       inkscape:isstock="true"
       style="overflow:visible;"
       id="Arrow1Mend"
       refX="0.0"
       refY="0.0"
       orient="auto"
       inkscape:stockid="Arrow1Mend">
      <path
         transform="scale(0.4) rotate(180) translate(10,0)"
         style="fill-rule:evenodd;stroke:#000000;stroke-width:1pt;stroke-opacity:1;fill:#000000;fill-opacity:1"
         d="M 0.0,0.0 L 5.0,-5.0 L -12.5,0.0 L 5.0,5.0 L 0.0,0.0 z "
         id="path8861" />
    </marker>
  </defs>
  <sodipodi:namedview
     inkscape:window-maximized="0"
     inkscape:window-y="72"
     inkscape:window-x="57"
     inkscape:window-height="847"
     inkscape:window-width="1252"
     showgrid="false"
     inkscape:document-rotation="0"
     inkscape:current-layer="layer1"
     inkscape:document-units="mm"
     inkscape:cy="432.43477"
     inkscape:cx="297.72108"
     inkscape:zoom="1.9128522"
     inkscape:pageshadow="2"
     inkscape:pageopacity="0.0"
     borderopacity="1.0"
     bordercolor="#666666"
     pagecolor="#ffffff"
     id="base" />
  <metadata
     id="metadata8237">
    <rdf:RDF>
      <cc:Work
         rdf:about="">
        <dc:format>image/svg+xml</dc:format>
        <dc:type
           rdf:resource="http://purl.org/dc/dcmitype/StillImage" />
        <dc:title></dc:title>
      </cc:Work>
    </rdf:RDF>
  </metadata>
  <g
     id="layer1"
     inkscape:groupmode="layer"
     inkscape:label="Layer 1">
    <circle
       r="4.1588607"
       cy="111.50945"
       cx="69.038651"
       id="path8803"
       style="fill:none;stroke:#000000;stroke-width:0.264999" />
    <g
       transform="matrix(0.352778,0,0,0.352778,66.605039,110.48799)"
       ns1:version="1.3.1"
       ns1:texconverter="pdflatex"
       ns1:pdfconverter="inkscape"
       ns1:text="$+q$"
       ns1:preamble="/Users/mbh/Library/Application Support/org.inkscape.Inkscape/config/inkscape/extensions/textext/default_packages.tex"
       ns1:scale="1.0"
       ns1:alignment="middle center"
       ns1:jacobian_sqrt="0.352778"
       id="g8828">
      <defs
         id="id-5100d882-7b54-4553-9539-6b9813fc213f">
        <g
           id="id-e5fd43c2-e652-45d2-b742-c5e2836b914c">
          <symbol
             id="id-80f65f88-e34f-4cf9-9f19-252261e90ba9"
             overflow="visible">
            <path
               id="id-c415f0e9-2726-451b-bce3-500229463b7f"
               d=""
               style="stroke:none;stroke-width:0" />
          </symbol>
          <symbol
             id="id-10172ab3-3fd8-4878-902e-67015c44ab87"
             overflow="visible">
            <path
               id="id-96daf08e-0b3c-436b-8624-34f3ac900dea"
               d="M 7.1875,-2.5 C 7.1875,-2.6875 7,-2.6875 6.859375,-2.6875 h -2.78125 v -2.796875 c 0,-0.140625 0,-0.328125 -0.203125,-0.328125 -0.203125,0 -0.203125,0.1875 -0.203125,0.328125 V -2.6875 h -2.78125 c -0.140625,0 -0.328125,0 -0.328125,0.1875 0,0.203125 0.1875,0.203125 0.328125,0.203125 h 2.78125 V 0.5 c 0,0.140625 0,0.328125 0.203125,0.328125 0.203125,0 0.203125,-0.1875 0.203125,-0.328125 v -2.796875 h 2.78125 c 0.140625,0 0.328125,0 0.328125,-0.203125 z m 0,0"
               style="stroke:none;stroke-width:0" />
          </symbol>
          <symbol
             id="id-5bcf198a-fc6f-4800-801e-7925ff87fb46"
             overflow="visible">
            <path
               id="id-77f1e940-36ab-4e23-b310-5679930f74bf"
               d=""
               style="stroke:none;stroke-width:0" />
          </symbol>
          <symbol
             id="id-0ea81bfb-addd-473f-8c35-00ae5bb87327"
             overflow="visible">
            <path
               id="id-9e989063-4cd9-40b5-a2e7-e3c0904085b6"
               d="M 3.828125,1.734375 C 3.828125,1.625 3.734375,1.625 3.5625,1.625 3.09375,1.625 3.09375,1.5625 3.09375,1.46875 3.09375,1.390625 3.109375,1.328125 3.125,1.25 L 4.5,-4.296875 c 0,-0.046875 -0.03125,-0.09375 -0.09375,-0.09375 -0.109375,0 -0.515625,0.390625 -0.671875,0.6875 C 3.515625,-4.25 3.125,-4.40625 2.796875,-4.40625 c -1.171875,0 -2.390625,1.46875 -2.390625,2.921875 0,0.96875 0.578125,1.59375 1.3125,1.59375 0.421875,0 0.8125,-0.234375 1.171875,-0.59375 L 2.4375,1.296875 C 2.359375,1.578125 2.28125,1.609375 1.71875,1.625 1.59375,1.625 1.5,1.625 1.5,1.828125 c 0,0 0,0.109375 0.125,0.109375 0.3125,0 0.671875,-0.03125 1,-0.03125 0.328125,0 0.6875,0.03125 1.03125,0.03125 0.046875,0 0.171875,0 0.171875,-0.203125 z M 3.59375,-3.3125 c 0,0.0625 -0.546875,2.25 -0.578125,2.28125 C 2.859375,-0.75 2.296875,-0.109375 1.75,-0.109375 c -0.609375,0 -0.640625,-0.765625 -0.640625,-0.9375 0,-0.484375 0.28125,-1.5625 0.453125,-1.984375 0.3125,-0.734375 0.828125,-1.15625 1.234375,-1.15625 0.65625,0 0.796875,0.8125 0.796875,0.875 z m 0,0"
               style="stroke:none;stroke-width:0" />
          </symbol>
        </g>
      </defs>
      <g
         transform="translate(-149.275,-128.952)"
         id="id-03327744-b884-4fb9-b2a8-c2b12b5d3d61">
        <g
           id="id-ba496ff4-4453-4dca-9df6-f9eec6563552"
           style="fill:#000000;fill-opacity:1">
          <g
             transform="translate(148.712,134.765)"
             id="g8820">
            <path
               id="id-e98610eb-f316-429d-8de7-edd0fd81d911"
               d="M 7.1875,-2.5 C 7.1875,-2.6875 7,-2.6875 6.859375,-2.6875 h -2.78125 v -2.796875 c 0,-0.140625 0,-0.328125 -0.203125,-0.328125 -0.203125,0 -0.203125,0.1875 -0.203125,0.328125 V -2.6875 h -2.78125 c -0.140625,0 -0.328125,0 -0.328125,0.1875 0,0.203125 0.1875,0.203125 0.328125,0.203125 h 2.78125 V 0.5 c 0,0.140625 0,0.328125 0.203125,0.328125 0.203125,0 0.203125,-0.1875 0.203125,-0.328125 v -2.796875 h 2.78125 c 0.140625,0 0.328125,0 0.328125,-0.203125 z m 0,0"
               style="stroke:none;stroke-width:0" />
          </g>
        </g>
        <g
           id="id-3d7beccc-481d-4580-9fc9-ddc27960cefd"
           style="fill:#000000;fill-opacity:1">
          <g
             transform="translate(156.461,134.765)"
             id="g8824">
            <path
               id="id-12e3ef2e-ab64-47b4-8074-8489d54de9e8"
               d="M 3.828125,1.734375 C 3.828125,1.625 3.734375,1.625 3.5625,1.625 3.09375,1.625 3.09375,1.5625 3.09375,1.46875 3.09375,1.390625 3.109375,1.328125 3.125,1.25 L 4.5,-4.296875 c 0,-0.046875 -0.03125,-0.09375 -0.09375,-0.09375 -0.109375,0 -0.515625,0.390625 -0.671875,0.6875 C 3.515625,-4.25 3.125,-4.40625 2.796875,-4.40625 c -1.171875,0 -2.390625,1.46875 -2.390625,2.921875 0,0.96875 0.578125,1.59375 1.3125,1.59375 0.421875,0 0.8125,-0.234375 1.171875,-0.59375 L 2.4375,1.296875 C 2.359375,1.578125 2.28125,1.609375 1.71875,1.625 1.59375,1.625 1.5,1.625 1.5,1.828125 c 0,0 0,0.109375 0.125,0.109375 0.3125,0 0.671875,-0.03125 1,-0.03125 0.328125,0 0.6875,0.03125 1.03125,0.03125 0.046875,0 0.171875,0 0.171875,-0.203125 z M 3.59375,-3.3125 c 0,0.0625 -0.546875,2.25 -0.578125,2.28125 C 2.859375,-0.75 2.296875,-0.109375 1.75,-0.109375 c -0.609375,0 -0.640625,-0.765625 -0.640625,-0.9375 0,-0.484375 0.28125,-1.5625 0.453125,-1.984375 0.3125,-0.734375 0.828125,-1.15625 1.234375,-1.15625 0.65625,0 0.796875,0.8125 0.796875,0.875 z m 0,0"
               style="stroke:none;stroke-width:0" />
          </g>
        </g>
      </g>
    </g>
    <path
       id="path8850"
       d="m 73.270687,111.83246 h 7.388098"
       style="fill:none;stroke:#000000;stroke-width:0.265;stroke-linecap:butt;stroke-linejoin:miter;stroke-miterlimit:4;stroke-dasharray:none;stroke-opacity:1;marker-end:url(#Arrow1Mend)" />
    <g
       transform="matrix(0.352778,0,0,0.352778,78.373074,108.00508)"
       ns1:version="1.3.1"
       ns1:texconverter="pdflatex"
       ns1:pdfconverter="inkscape"
       ns1:text="$v$"
       ns1:preamble="/Users/mbh/Library/Application Support/org.inkscape.Inkscape/config/inkscape/extensions/textext/default_packages.tex"
       ns1:scale="1.0"
       ns1:alignment="middle center"
       ns1:jacobian_sqrt="0.352778"
       id="g9164">
      <defs
         id="id-d6046286-7987-4309-ad90-972ab023b28b">
        <g
           id="id-69cf59ba-a2ac-48fb-afce-0211410c538c">
          <symbol
             id="id-0de3597b-3db9-45a7-8cd8-b56ec5142746"
             overflow="visible">
            <path
               id="id-50c74a1f-8de9-4bb6-a427-77d991ebc71d"
               d=""
               style="stroke:none;stroke-width:0" />
          </symbol>
          <symbol
             id="id-f5a93ac8-44c9-40cb-bbea-6e7f6bc13abc"
             overflow="visible">
            <path
               id="id-ecdbe768-337e-453f-b07b-1bc44b73ddc6"
               d="m 4.671875,-3.703125 c 0,-0.546875 -0.265625,-0.703125 -0.4375,-0.703125 -0.25,0 -0.5,0.265625 -0.5,0.484375 0,0.125 0.046875,0.1875 0.15625,0.296875 0.21875,0.203125 0.34375,0.453125 0.34375,0.8125 0,0.421875 -0.609375,2.703125 -1.765625,2.703125 -0.515625,0 -0.75,-0.34375 -0.75,-0.875 0,-0.546875 0.28125,-1.28125 0.578125,-2.109375 0.078125,-0.171875 0.125,-0.3125 0.125,-0.5 0,-0.4375 -0.3125,-0.8125 -0.8125,-0.8125 -0.9375,0 -1.3125,1.453125 -1.3125,1.53125 0,0.109375 0.109375,0.109375 0.109375,0.109375 0.109375,0 0.109375,-0.03125 0.15625,-0.1875 0.296875,-1 0.71875,-1.234375 1.015625,-1.234375 0.078125,0 0.25,0 0.25,0.3125 0,0.25 -0.109375,0.53125 -0.171875,0.703125 -0.4375,1.15625 -0.5625,1.609375 -0.5625,2.046875 0,1.078125 0.875,1.234375 1.328125,1.234375 1.671875,0 2.25,-3.296875 2.25,-3.8125 z m 0,0"
               style="stroke:none;stroke-width:0" />
          </symbol>
        </g>
      </defs>
      <g
         transform="translate(-149.009,-130.359)"
         id="id-9a664e2a-8f90-4dd5-a772-292376c2a81d">
        <g
           id="id-5ddcb535-d74b-4a34-ae34-5efddce95e00"
           style="fill:#000000;fill-opacity:1">
          <g
             transform="translate(148.712,134.765)"
             id="g9160">
            <path
               id="id-37943cd4-7821-4f92-9d89-51a448a92c84"
               d="m 4.671875,-3.703125 c 0,-0.546875 -0.265625,-0.703125 -0.4375,-0.703125 -0.25,0 -0.5,0.265625 -0.5,0.484375 0,0.125 0.046875,0.1875 0.15625,0.296875 0.21875,0.203125 0.34375,0.453125 0.34375,0.8125 0,0.421875 -0.609375,2.703125 -1.765625,2.703125 -0.515625,0 -0.75,-0.34375 -0.75,-0.875 0,-0.546875 0.28125,-1.28125 0.578125,-2.109375 0.078125,-0.171875 0.125,-0.3125 0.125,-0.5 0,-0.4375 -0.3125,-0.8125 -0.8125,-0.8125 -0.9375,0 -1.3125,1.453125 -1.3125,1.53125 0,0.109375 0.109375,0.109375 0.109375,0.109375 0.109375,0 0.109375,-0.03125 0.15625,-0.1875 0.296875,-1 0.71875,-1.234375 1.015625,-1.234375 0.078125,0 0.25,0 0.25,0.3125 0,0.25 -0.109375,0.53125 -0.171875,0.703125 -0.4375,1.15625 -0.5625,1.609375 -0.5625,2.046875 0,1.078125 0.875,1.234375 1.328125,1.234375 1.671875,0 2.25,-3.296875 2.25,-3.8125 z m 0,0"
               style="stroke:none;stroke-width:0" />
          </g>
        </g>
      </g>
    </g>
    <path
       style="fill:none;stroke:#ffffff;stroke-width:0.0881944;stroke-linecap:square;stroke-linejoin:miter;stroke-miterlimit:10;stroke-opacity:1"
       d="m 86.042955,99.542944 1.628841,1.628846"
       id="path14024" />
    <path
       style="fill:none;stroke:#ffffff;stroke-width:0.0881944;stroke-linecap:square;stroke-linejoin:miter;stroke-miterlimit:10;stroke-opacity:1"
       d="m 87.671796,99.542944 -1.628841,1.628846"
       id="path14026" />
    <path
       style="fill:none;stroke:#732e7f;stroke-width:0.176389;stroke-linecap:square;stroke-linejoin:miter;stroke-miterlimit:10;stroke-opacity:1"
       d="m 86.042955,99.542944 1.628841,1.628846"
       id="path14028" />
    <path
       style="fill:none;stroke:#732e7f;stroke-width:0.176389;stroke-linecap:square;stroke-linejoin:miter;stroke-miterlimit:10;stroke-opacity:1"
       d="m 87.671796,99.542944 -1.628841,1.628846"
       id="path14030" />
    <path
       style="fill:none;stroke:#2e2e2b;stroke-width:0.176389;stroke-linecap:butt;stroke-linejoin:miter;stroke-miterlimit:4;stroke-opacity:1"
       d="m 88.126546,100.35736 c 0,0.70142 -0.567751,1.26918 -1.269172,1.26918 -0.701429,0 -1.26918,-0.56776 -1.26918,-1.26918 0,-0.700039 0.567751,-1.269166 1.26918,-1.269166 0.701421,0 1.269172,0.569127 1.269172,1.269166 z m 0,0"
       id="path14050" />
    <path
       style="fill:none;stroke:#ffffff;stroke-width:0.0881944;stroke-linecap:square;stroke-linejoin:miter;stroke-miterlimit:10;stroke-opacity:1"
       d="m 73.542955,99.542944 1.628841,1.628846"
       id="path14024-9" />
    <path
       style="fill:none;stroke:#ffffff;stroke-width:0.0881944;stroke-linecap:square;stroke-linejoin:miter;stroke-miterlimit:10;stroke-opacity:1"
       d="m 75.171796,99.542944 -1.628841,1.628846"
       id="path14026-6" />
    <path
       style="fill:none;stroke:#732e7f;stroke-width:0.176389;stroke-linecap:square;stroke-linejoin:miter;stroke-miterlimit:10;stroke-opacity:1"
       d="m 73.542955,99.542944 1.628841,1.628846"
       id="path14028-0" />
    <path
       style="fill:none;stroke:#732e7f;stroke-width:0.176389;stroke-linecap:square;stroke-linejoin:miter;stroke-miterlimit:10;stroke-opacity:1"
       d="m 75.171796,99.542944 -1.628841,1.628846"
       id="path14030-1" />
    <path
       style="fill:none;stroke:#2e2e2b;stroke-width:0.176389;stroke-linecap:butt;stroke-linejoin:miter;stroke-miterlimit:4;stroke-opacity:1"
       d="m 75.626546,100.35736 c 0,0.70142 -0.567751,1.26918 -1.269172,1.26918 -0.701429,0 -1.26918,-0.56776 -1.26918,-1.26918 0,-0.700036 0.567751,-1.269166 1.26918,-1.269166 0.701421,0 1.269172,0.56913 1.269172,1.269166 z m 0,0"
       id="path14050-2" />
    <path
       style="fill:none;stroke:#ffffff;stroke-width:0.0881944;stroke-linecap:square;stroke-linejoin:miter;stroke-miterlimit:10;stroke-opacity:1"
       d="m 57.542955,99.542944 1.628841,1.628846"
       id="path14024-3" />
    <path
       style="fill:none;stroke:#ffffff;stroke-width:0.0881944;stroke-linecap:square;stroke-linejoin:miter;stroke-miterlimit:10;stroke-opacity:1"
       d="m 59.171796,99.542944 -1.628841,1.628846"
       id="path14026-2" />
    <path
       style="fill:none;stroke:#732e7f;stroke-width:0.176389;stroke-linecap:square;stroke-linejoin:miter;stroke-miterlimit:10;stroke-opacity:1"
       d="m 57.542955,99.542944 1.628841,1.628846"
       id="path14028-1" />
    <path
       style="fill:none;stroke:#732e7f;stroke-width:0.176389;stroke-linecap:square;stroke-linejoin:miter;stroke-miterlimit:10;stroke-opacity:1"
       d="m 59.171796,99.542944 -1.628841,1.628846"
       id="path14030-10" />
    <path
       style="fill:none;stroke:#2e2e2b;stroke-width:0.176389;stroke-linecap:butt;stroke-linejoin:miter;stroke-miterlimit:4;stroke-opacity:1"
       d="m 59.626546,100.35736 c 0,0.70142 -0.567751,1.26918 -1.269172,1.26918 -0.701429,0 -1.26918,-0.56776 -1.26918,-1.26918 0,-0.700039 0.567751,-1.269166 1.26918,-1.269166 0.701421,0 1.269172,0.569127 1.269172,1.269166 z m 0,0"
       id="path14050-1" />
    <path
       style="fill:none;stroke:#ffffff;stroke-width:0.0881944;stroke-linecap:square;stroke-linejoin:miter;stroke-miterlimit:10;stroke-opacity:1"
       d="m 57.593591,110.54294 1.628841,1.62885"
       id="path14024-38" />
    <path
       style="fill:none;stroke:#ffffff;stroke-width:0.0881944;stroke-linecap:square;stroke-linejoin:miter;stroke-miterlimit:10;stroke-opacity:1"
       d="m 59.222432,110.54294 -1.628841,1.62885"
       id="path14026-0" />
    <path
       style="fill:none;stroke:#732e7f;stroke-width:0.176389;stroke-linecap:square;stroke-linejoin:miter;stroke-miterlimit:10;stroke-opacity:1"
       d="m 57.593591,110.54294 1.628841,1.62885"
       id="path14028-09" />
    <path
       style="fill:none;stroke:#732e7f;stroke-width:0.176389;stroke-linecap:square;stroke-linejoin:miter;stroke-miterlimit:10;stroke-opacity:1"
       d="m 59.222432,110.54294 -1.628841,1.62885"
       id="path14030-4" />
    <path
       style="fill:none;stroke:#2e2e2b;stroke-width:0.176389;stroke-linecap:butt;stroke-linejoin:miter;stroke-miterlimit:4;stroke-opacity:1"
       d="m 59.626546,111.35736 c 0,0.70142 -0.567751,1.26918 -1.269172,1.26918 -0.701429,0 -1.26918,-0.56776 -1.26918,-1.26918 0,-0.70004 0.567751,-1.26917 1.26918,-1.26917 0.701421,0 1.269172,0.56913 1.269172,1.26917 z m 0,0"
       id="path14050-24" />
    <path
       style="fill:none;stroke:#ffffff;stroke-width:0.0881944;stroke-linecap:square;stroke-linejoin:miter;stroke-miterlimit:10;stroke-opacity:1"
       d="m 57.542955,123.54294 1.628841,1.62885"
       id="path14024-0" />
    <path
       style="fill:none;stroke:#ffffff;stroke-width:0.0881944;stroke-linecap:square;stroke-linejoin:miter;stroke-miterlimit:10;stroke-opacity:1"
       d="m 59.171796,123.54294 -1.628841,1.62885"
       id="path14026-29" />
    <path
       style="fill:none;stroke:#732e7f;stroke-width:0.176389;stroke-linecap:square;stroke-linejoin:miter;stroke-miterlimit:10;stroke-opacity:1"
       d="m 57.542955,123.54294 1.628841,1.62885"
       id="path14028-7" />
    <path
       style="fill:none;stroke:#732e7f;stroke-width:0.176389;stroke-linecap:square;stroke-linejoin:miter;stroke-miterlimit:10;stroke-opacity:1"
       d="m 59.171796,123.54294 -1.628841,1.62885"
       id="path14030-9" />
    <path
       style="fill:none;stroke:#2e2e2b;stroke-width:0.176389;stroke-linecap:butt;stroke-linejoin:miter;stroke-miterlimit:4;stroke-opacity:1"
       d="m 59.626546,124.35736 c 0,0.70142 -0.567751,1.26918 -1.269172,1.26918 -0.701429,0 -1.26918,-0.56776 -1.26918,-1.26918 0,-0.70004 0.567751,-1.26917 1.26918,-1.26917 0.701421,0 1.269172,0.56913 1.269172,1.26917 z m 0,0"
       id="path14050-22" />
    <path
       style="fill:none;stroke:#ffffff;stroke-width:0.0881944;stroke-linecap:square;stroke-linejoin:miter;stroke-miterlimit:10;stroke-opacity:1"
       d="m 73.542955,123.54294 1.628841,1.62885"
       id="path14024-31" />
    <path
       style="fill:none;stroke:#ffffff;stroke-width:0.0881944;stroke-linecap:square;stroke-linejoin:miter;stroke-miterlimit:10;stroke-opacity:1"
       d="m 75.171796,123.54294 -1.628841,1.62885"
       id="path14026-3" />
    <path
       style="fill:none;stroke:#732e7f;stroke-width:0.176389;stroke-linecap:square;stroke-linejoin:miter;stroke-miterlimit:10;stroke-opacity:1"
       d="m 73.542955,123.54294 1.628841,1.62885"
       id="path14028-2" />
    <path
       style="fill:none;stroke:#732e7f;stroke-width:0.176389;stroke-linecap:square;stroke-linejoin:miter;stroke-miterlimit:10;stroke-opacity:1"
       d="m 75.171796,123.54294 -1.628841,1.62885"
       id="path14030-16" />
    <path
       style="fill:none;stroke:#2e2e2b;stroke-width:0.176389;stroke-linecap:butt;stroke-linejoin:miter;stroke-miterlimit:4;stroke-opacity:1"
       d="m 75.626546,124.35736 c 0,0.70142 -0.567751,1.26918 -1.269172,1.26918 -0.701429,0 -1.26918,-0.56776 -1.26918,-1.26918 0,-0.70004 0.567751,-1.26917 1.26918,-1.26917 0.701421,0 1.269172,0.56913 1.269172,1.26917 z m 0,0"
       id="path14050-8" />
    <path
       style="fill:none;stroke:#ffffff;stroke-width:0.0881944;stroke-linecap:square;stroke-linejoin:miter;stroke-miterlimit:10;stroke-opacity:1"
       d="m 86.042955,123.19678 1.628841,1.62885"
       id="path14024-1" />
    <path
       style="fill:none;stroke:#ffffff;stroke-width:0.0881944;stroke-linecap:square;stroke-linejoin:miter;stroke-miterlimit:10;stroke-opacity:1"
       d="m 87.671796,123.19678 -1.628841,1.62885"
       id="path14026-06" />
    <path
       style="fill:none;stroke:#732e7f;stroke-width:0.176389;stroke-linecap:square;stroke-linejoin:miter;stroke-miterlimit:10;stroke-opacity:1"
       d="m 86.042955,123.19678 1.628841,1.62885"
       id="path14028-04" />
    <path
       style="fill:none;stroke:#732e7f;stroke-width:0.176389;stroke-linecap:square;stroke-linejoin:miter;stroke-miterlimit:10;stroke-opacity:1"
       d="m 87.671796,123.19678 -1.628841,1.62885"
       id="path14030-99" />
    <path
       style="fill:none;stroke:#2e2e2b;stroke-width:0.176389;stroke-linecap:butt;stroke-linejoin:miter;stroke-miterlimit:4;stroke-opacity:1"
       d="m 88.126546,124.0112 c 0,0.70142 -0.567751,1.26918 -1.269172,1.26918 -0.701429,0 -1.26918,-0.56776 -1.26918,-1.26918 0,-0.70004 0.567751,-1.26917 1.26918,-1.26917 0.701421,0 1.269172,0.56913 1.269172,1.26917 z m 0,0"
       id="path14050-4" />
    <path
       style="fill:none;stroke:#ffffff;stroke-width:0.0881944;stroke-linecap:square;stroke-linejoin:miter;stroke-miterlimit:10;stroke-opacity:1"
       d="m 97.542955,99.542944 1.628841,1.628846"
       id="path14024-02" />
    <path
       style="fill:none;stroke:#ffffff;stroke-width:0.0881944;stroke-linecap:square;stroke-linejoin:miter;stroke-miterlimit:10;stroke-opacity:1"
       d="m 99.171796,99.542944 -1.628841,1.628846"
       id="path14026-09" />
    <path
       style="fill:none;stroke:#732e7f;stroke-width:0.176389;stroke-linecap:square;stroke-linejoin:miter;stroke-miterlimit:10;stroke-opacity:1"
       d="m 97.542955,99.542944 1.628841,1.628846"
       id="path14028-5" />
    <path
       style="fill:none;stroke:#732e7f;stroke-width:0.176389;stroke-linecap:square;stroke-linejoin:miter;stroke-miterlimit:10;stroke-opacity:1"
       d="m 99.171796,99.542944 -1.628841,1.628846"
       id="path14030-3" />
    <path
       style="fill:none;stroke:#2e2e2b;stroke-width:0.176389;stroke-linecap:butt;stroke-linejoin:miter;stroke-miterlimit:4;stroke-opacity:1"
       d="m 99.626546,100.35736 c 0,0.70142 -0.567751,1.26918 -1.269172,1.26918 -0.701429,0 -1.26918,-0.56776 -1.26918,-1.26918 0,-0.700036 0.567751,-1.269166 1.26918,-1.269166 0.701421,0 1.269172,0.56913 1.269172,1.269166 z m 0,0"
       id="path14050-5" />
    <path
       style="fill:none;stroke:#ffffff;stroke-width:0.0881944;stroke-linecap:square;stroke-linejoin:miter;stroke-miterlimit:10;stroke-opacity:1"
       d="m 97.542955,110.54294 1.628839,1.62885"
       id="path14024-98" />
    <path
       style="fill:none;stroke:#ffffff;stroke-width:0.0881944;stroke-linecap:square;stroke-linejoin:miter;stroke-miterlimit:10;stroke-opacity:1"
       d="m 99.171794,110.54294 -1.628839,1.62885"
       id="path14026-9" />
    <path
       style="fill:none;stroke:#732e7f;stroke-width:0.176389;stroke-linecap:square;stroke-linejoin:miter;stroke-miterlimit:10;stroke-opacity:1"
       d="m 97.542955,110.54294 1.628839,1.62885"
       id="path14028-12" />
    <path
       style="fill:none;stroke:#732e7f;stroke-width:0.176389;stroke-linecap:square;stroke-linejoin:miter;stroke-miterlimit:10;stroke-opacity:1"
       d="m 99.171794,110.54294 -1.628839,1.62885"
       id="path14030-84" />
    <path
       style="fill:none;stroke:#2e2e2b;stroke-width:0.176389;stroke-linecap:butt;stroke-linejoin:miter;stroke-miterlimit:4;stroke-opacity:1"
       d="m 99.626544,111.35736 c 0,0.70142 -0.567749,1.26918 -1.26917,1.26918 -0.701429,0 -1.26918,-0.56776 -1.26918,-1.26918 0,-0.70004 0.567751,-1.26917 1.26918,-1.26917 0.701421,0 1.26917,0.56913 1.26917,1.26917 z m 0,0"
       id="path14050-0" />
    <path
       style="fill:none;stroke:#ffffff;stroke-width:0.0881944;stroke-linecap:square;stroke-linejoin:miter;stroke-miterlimit:10;stroke-opacity:1"
       d="m 97.542955,122.98515 1.628839,1.62885"
       id="path14024-10" />
    <path
       style="fill:none;stroke:#ffffff;stroke-width:0.0881944;stroke-linecap:square;stroke-linejoin:miter;stroke-miterlimit:10;stroke-opacity:1"
       d="M 99.171794,122.98515 97.542955,124.614"
       id="path14026-8" />
    <path
       style="fill:none;stroke:#732e7f;stroke-width:0.176389;stroke-linecap:square;stroke-linejoin:miter;stroke-miterlimit:10;stroke-opacity:1"
       d="m 97.542955,122.98515 1.628839,1.62885"
       id="path14028-14" />
    <path
       style="fill:none;stroke:#732e7f;stroke-width:0.176389;stroke-linecap:square;stroke-linejoin:miter;stroke-miterlimit:10;stroke-opacity:1"
       d="M 99.171794,122.98515 97.542955,124.614"
       id="path14030-95" />
    <path
       style="fill:none;stroke:#2e2e2b;stroke-width:0.176389;stroke-linecap:butt;stroke-linejoin:miter;stroke-miterlimit:4;stroke-opacity:1"
       d="m 99.626544,123.79957 c 0,0.70142 -0.56775,1.26918 -1.26917,1.26918 -0.701429,0 -1.26918,-0.56776 -1.26918,-1.26918 0,-0.70004 0.567751,-1.26917 1.26918,-1.26917 0.70142,0 1.26917,0.56913 1.26917,1.26917 z m 0,0"
       id="path14050-9" />
    <path
       id="path14024-5"
       d="m 86.042955,110.54294 1.628841,1.62885"
       style="fill:none;stroke:#ffffff;stroke-width:0.0881944;stroke-linecap:square;stroke-linejoin:miter;stroke-miterlimit:10;stroke-opacity:1" />
    <path
       id="path14026-69"
       d="m 87.671796,110.54294 -1.628841,1.62885"
       style="fill:none;stroke:#ffffff;stroke-width:0.0881944;stroke-linecap:square;stroke-linejoin:miter;stroke-miterlimit:10;stroke-opacity:1" />
    <path
       id="path14028-4"
       d="m 86.042955,110.54294 1.628841,1.62885"
       style="fill:none;stroke:#732e7f;stroke-width:0.176389;stroke-linecap:square;stroke-linejoin:miter;stroke-miterlimit:10;stroke-opacity:1" />
    <path
       id="path14030-36"
       d="m 87.671796,110.54294 -1.628841,1.62885"
       style="fill:none;stroke:#732e7f;stroke-width:0.176389;stroke-linecap:square;stroke-linejoin:miter;stroke-miterlimit:10;stroke-opacity:1" />
    <path
       id="path14050-3"
       d="m 88.126546,111.35736 c 0,0.70142 -0.567751,1.26918 -1.269172,1.26918 -0.701429,0 -1.26918,-0.56776 -1.26918,-1.26918 0,-0.70004 0.567751,-1.26917 1.26918,-1.26917 0.701421,0 1.269172,0.56913 1.269172,1.26917 z m 0,0"
       style="fill:none;stroke:#2e2e2b;stroke-width:0.176389;stroke-linecap:butt;stroke-linejoin:miter;stroke-miterlimit:4;stroke-opacity:1" />
    <path
       id="path12709"
       d="m 68.918957,107.09709 v -6.11512"
       style="fill:none;stroke:#000000;stroke-width:0.26458300000000001px;stroke-linecap:butt;stroke-linejoin:miter;stroke-opacity:1;marker-end:url(#marker12713)" />
    <g
       transform="matrix(0.352778,0,0,0.352778,65.70537,97.107012)"
       ns1:version="1.3.1"
       ns1:texconverter="pdflatex"
       ns1:pdfconverter="inkscape"
       ns1:text="$F_B$"
       ns1:preamble="/Users/mbh/Library/Application Support/org.inkscape.Inkscape/config/inkscape/extensions/textext/default_packages.tex"
       ns1:scale="1.0"
       ns1:alignment="middle center"
       ns1:jacobian_sqrt="0.352778"
       id="g12852">
      <defs
         id="id-c7f63e0d-c0ec-4eb3-ac06-c6c0cd34896f">
        <g
           id="id-8101a53c-3429-478a-8838-2b66293b4ff6">
          <symbol
             id="id-2efe0035-baab-4076-9493-c67c0880768a"
             overflow="visible">
            <path
               id="id-af6e15c1-b520-4d04-800c-c6aad7b7daae"
               d=""
               style="stroke:none;stroke-width:0" />
          </symbol>
          <symbol
             id="id-2dd97380-c519-43a5-a4e3-0c2292466d52"
             overflow="visible">
            <path
               id="id-051187e2-0b05-4d3d-824f-94b0caea6b1e"
               d="M 7.25,-4.78125 7.453125,-6.515625 C 7.484375,-6.78125 7.4375,-6.78125 7.1875,-6.78125 H 2.296875 c -0.1875,0 -0.296875,0 -0.296875,0.203125 0,0.109375 0.09375,0.109375 0.28125,0.109375 0.375,0 0.65625,0 0.65625,0.171875 0,0.046875 0,0.0625 -0.0625,0.25 L 1.5625,-0.78125 c -0.09375,0.390625 -0.109375,0.46875 -0.90625,0.46875 -0.171875,0 -0.28125,0 -0.28125,0.1875 C 0.375,0 0.5,0 0.53125,0 L 1.84375,-0.03125 3.328125,0 c 0.09375,0 0.203125,0 0.203125,-0.1875 0,-0.078125 -0.046875,-0.109375 -0.046875,-0.109375 C 3.453125,-0.3125 3.421875,-0.3125 3.203125,-0.3125 c -0.21875,0 -0.265625,0 -0.515625,-0.015625 -0.296875,-0.03125 -0.328125,-0.078125 -0.328125,-0.203125 0,0 0,-0.078125 0.046875,-0.21875 l 0.609375,-2.484375 h 0.96875 c 0.75,0 0.828125,0.15625 0.828125,0.4375 0,0.078125 0,0.1875 -0.0625,0.5 C 4.71875,-2.25 4.71875,-2.1875 4.71875,-2.1875 c 0,0.078125 0.0625,0.109375 0.109375,0.109375 0.109375,0 0.109375,-0.03125 0.15625,-0.203125 L 5.53125,-4.453125 c 0.03125,-0.109375 0.03125,-0.125 0.03125,-0.15625 0,0 -0.015625,-0.109375 -0.125,-0.109375 -0.09375,0 -0.109375,0.046875 -0.140625,0.21875 C 5.078125,-3.734375 4.859375,-3.546875 4,-3.546875 H 3.09375 l 0.640625,-2.53125 C 3.828125,-6.4375 3.84375,-6.46875 4.28125,-6.46875 h 1.3125 c 1.21875,0 1.453125,0.328125 1.453125,1.09375 0,0.234375 0,0.265625 -0.03125,0.546875 C 7,-4.703125 7,-4.6875 7,-4.65625 c 0,0.046875 0.03125,0.125 0.125,0.125 0.109375,0 0.109375,-0.0625 0.125,-0.25 z m 0,0"
               style="stroke:none;stroke-width:0" />
          </symbol>
          <symbol
             id="id-f527c30e-c2fc-4743-bd09-b9305c6b7f92"
             overflow="visible">
            <path
               id="id-93c4b10d-8db5-4dc3-bc91-73664f1e2955"
               d=""
               style="stroke:none;stroke-width:0" />
          </symbol>
          <symbol
             id="id-ff80437b-77f4-4844-b9cc-fe9873651c08"
             overflow="visible">
            <path
               id="id-7185eec8-85f8-49fe-a9b2-9b2e47a427e7"
               d="m 5.484375,-1.484375 c 0,-0.5 -0.453125,-0.921875 -1.203125,-1 0.84375,-0.15625 1.546875,-0.6875 1.546875,-1.28125 0,-0.53125 -0.53125,-1 -1.4375,-1 h -2.53125 c -0.140625,0 -0.234375,0 -0.234375,0.15625 0,0.09375 0.09375,0.09375 0.234375,0.09375 0,0 0.140625,0 0.265625,0.015625 0.140625,0.015625 0.15625,0.03125 0.15625,0.109375 0,0 0,0.046875 -0.03125,0.140625 L 1.328125,-0.546875 C 1.265625,-0.3125 1.25,-0.25 0.703125,-0.25 0.59375,-0.25 0.5,-0.25 0.5,-0.109375 0.5,0 0.578125,0 0.703125,0 H 3.40625 C 4.578125,0 5.484375,-0.796875 5.484375,-1.484375 Z M 5.15625,-3.78125 c 0,0.5625 -0.640625,1.203125 -1.578125,1.203125 H 2.4375 l 0.421875,-1.6875 c 0.0625,-0.21875 0.0625,-0.25 0.359375,-0.25 h 1.0625 c 0.703125,0 0.875,0.46875 0.875,0.734375 z m -0.375,2.234375 C 4.78125,-0.84375 4.0625,-0.25 3.21875,-0.25 H 2.109375 C 1.890625,-0.25 1.875,-0.265625 1.875,-0.328125 c 0,0 0,-0.03125 0.03125,-0.140625 L 2.390625,-2.375 H 3.875 c 0.640625,0 0.90625,0.4375 0.90625,0.828125 z m 0,0"
               style="stroke:none;stroke-width:0" />
          </symbol>
        </g>
      </defs>
      <g
         transform="translate(-149.087,-127.984)"
         id="id-d7dc8ba2-3c47-4f86-b1d0-3c58b1ce8721">
        <g
           id="id-0b94446e-58b0-44ff-9471-cddc7997d5c7"
           style="fill:#000000;fill-opacity:1">
          <g
             transform="translate(148.712,134.765)"
             id="g12844">
            <path
               id="id-d3348726-5feb-41d0-916a-65ed9c46ca99"
               d="M 7.25,-4.78125 7.453125,-6.515625 C 7.484375,-6.78125 7.4375,-6.78125 7.1875,-6.78125 H 2.296875 c -0.1875,0 -0.296875,0 -0.296875,0.203125 0,0.109375 0.09375,0.109375 0.28125,0.109375 0.375,0 0.65625,0 0.65625,0.171875 0,0.046875 0,0.0625 -0.0625,0.25 L 1.5625,-0.78125 c -0.09375,0.390625 -0.109375,0.46875 -0.90625,0.46875 -0.171875,0 -0.28125,0 -0.28125,0.1875 C 0.375,0 0.5,0 0.53125,0 L 1.84375,-0.03125 3.328125,0 c 0.09375,0 0.203125,0 0.203125,-0.1875 0,-0.078125 -0.046875,-0.109375 -0.046875,-0.109375 C 3.453125,-0.3125 3.421875,-0.3125 3.203125,-0.3125 c -0.21875,0 -0.265625,0 -0.515625,-0.015625 -0.296875,-0.03125 -0.328125,-0.078125 -0.328125,-0.203125 0,0 0,-0.078125 0.046875,-0.21875 l 0.609375,-2.484375 h 0.96875 c 0.75,0 0.828125,0.15625 0.828125,0.4375 0,0.078125 0,0.1875 -0.0625,0.5 C 4.71875,-2.25 4.71875,-2.1875 4.71875,-2.1875 c 0,0.078125 0.0625,0.109375 0.109375,0.109375 0.109375,0 0.109375,-0.03125 0.15625,-0.203125 L 5.53125,-4.453125 c 0.03125,-0.109375 0.03125,-0.125 0.03125,-0.15625 0,0 -0.015625,-0.109375 -0.125,-0.109375 -0.09375,0 -0.109375,0.046875 -0.140625,0.21875 C 5.078125,-3.734375 4.859375,-3.546875 4,-3.546875 H 3.09375 l 0.640625,-2.53125 C 3.828125,-6.4375 3.84375,-6.46875 4.28125,-6.46875 h 1.3125 c 1.21875,0 1.453125,0.328125 1.453125,1.09375 0,0.234375 0,0.265625 -0.03125,0.546875 C 7,-4.703125 7,-4.6875 7,-4.65625 c 0,0.046875 0.03125,0.125 0.125,0.125 0.109375,0 0.109375,-0.0625 0.125,-0.25 z m 0,0"
               style="stroke:none;stroke-width:0" />
          </g>
        </g>
        <g
           id="id-6c33c792-015d-4084-9bd5-18572761535d"
           style="fill:#000000;fill-opacity:1">
          <g
             transform="translate(155.119,136.259)"
             id="g12848">
            <path
               id="id-282db0d4-fd5a-4223-8faf-b1a87f6c01b6"
               d="m 5.484375,-1.484375 c 0,-0.5 -0.453125,-0.921875 -1.203125,-1 0.84375,-0.15625 1.546875,-0.6875 1.546875,-1.28125 0,-0.53125 -0.53125,-1 -1.4375,-1 h -2.53125 c -0.140625,0 -0.234375,0 -0.234375,0.15625 0,0.09375 0.09375,0.09375 0.234375,0.09375 0,0 0.140625,0 0.265625,0.015625 0.140625,0.015625 0.15625,0.03125 0.15625,0.109375 0,0 0,0.046875 -0.03125,0.140625 L 1.328125,-0.546875 C 1.265625,-0.3125 1.25,-0.25 0.703125,-0.25 0.59375,-0.25 0.5,-0.25 0.5,-0.109375 0.5,0 0.578125,0 0.703125,0 H 3.40625 C 4.578125,0 5.484375,-0.796875 5.484375,-1.484375 Z M 5.15625,-3.78125 c 0,0.5625 -0.640625,1.203125 -1.578125,1.203125 H 2.4375 l 0.421875,-1.6875 c 0.0625,-0.21875 0.0625,-0.25 0.359375,-0.25 h 1.0625 c 0.703125,0 0.875,0.46875 0.875,0.734375 z m -0.375,2.234375 C 4.78125,-0.84375 4.0625,-0.25 3.21875,-0.25 H 2.109375 C 1.890625,-0.25 1.875,-0.265625 1.875,-0.328125 c 0,0 0,-0.03125 0.03125,-0.140625 L 2.390625,-2.375 H 3.875 c 0.640625,0 0.90625,0.4375 0.90625,0.828125 z m 0,0"
               style="stroke:none;stroke-width:0" />
          </g>
        </g>
      </g>
    </g>
    <g
       transform="matrix(0.352778,0,0,0.352778,88.474403,120.77858)"
       ns1:version="1.3.1"
       ns1:texconverter="pdflatex"
       ns1:pdfconverter="inkscape"
       ns1:text="$B$"
       ns1:preamble="/Users/mbh/Library/Application Support/org.inkscape.Inkscape/config/inkscape/extensions/textext/default_packages.tex"
       ns1:scale="1.0"
       ns1:alignment="middle center"
       ns1:jacobian_sqrt="0.352778"
       id="g12997">
      <defs
         id="id-560c70d9-b00f-4bf9-83ff-93e224762357">
        <g
           id="id-19147225-1358-44ff-a78d-f21d38cb5df2">
          <symbol
             id="id-e9bbe4f0-76a8-4e3c-aa34-2feb44b474ed"
             overflow="visible">
            <path
               id="id-24f919dd-a84b-41de-879f-58f024f973d4"
               d=""
               style="stroke:none;stroke-width:0" />
          </symbol>
          <symbol
             id="id-b35594af-d6fe-481a-91c4-f45ac6195e42"
             overflow="visible">
            <path
               id="id-24dd4184-0b9d-467b-ab18-b61613bdf7d0"
               d="M 7,-2.15625 C 7,-2.875 6.421875,-3.453125 5.453125,-3.5625 6.484375,-3.75 7.53125,-4.484375 7.53125,-5.4375 c 0,-0.734375 -0.65625,-1.375 -1.84375,-1.375 H 2.328125 c -0.1875,0 -0.28125,0 -0.28125,0.203125 0,0.109375 0.09375,0.109375 0.28125,0.109375 0,0 0.203125,0 0.375,0.015625 0.171875,0.03125 0.265625,0.03125 0.265625,0.171875 0,0.03125 -0.015625,0.0625 -0.03125,0.1875 L 1.59375,-0.78125 C 1.5,-0.390625 1.46875,-0.3125 0.6875,-0.3125 c -0.171875,0 -0.265625,0 -0.265625,0.203125 C 0.421875,0 0.515625,0 0.6875,0 H 4.25 C 5.828125,0 7,-1.171875 7,-2.15625 Z m -0.375,-3.3125 c 0,0.875 -0.859375,1.8125 -2.0625,1.8125 H 3.09375 L 3.71875,-6.125 C 3.8125,-6.46875 3.828125,-6.5 4.25,-6.5 h 1.296875 c 0.875,0 1.078125,0.59375 1.078125,1.03125 z M 6.078125,-2.265625 C 6.078125,-1.28125 5.1875,-0.3125 4,-0.3125 H 2.65625 c -0.140625,0 -0.15625,0 -0.21875,0 -0.109375,-0.015625 -0.140625,-0.03125 -0.140625,-0.109375 0,-0.03125 0,-0.046875 0.0625,-0.21875 l 0.6875,-2.78125 h 1.875 c 0.953125,0 1.15625,0.734375 1.15625,1.15625 z m 0,0"
               style="stroke:none;stroke-width:0" />
          </symbol>
        </g>
      </defs>
      <g
         transform="translate(-149.134,-127.953)"
         id="id-db977c7d-b5e7-46eb-97d1-0558fd50c0ee">
        <g
           id="id-2f773f6a-59e9-4d10-afbe-627c5b6c99e6"
           style="fill:#000000;fill-opacity:1">
          <g
             transform="translate(148.712,134.765)"
             id="g12993">
            <path
               id="id-a2942044-ffc4-4bdc-b924-69885145db14"
               d="M 7,-2.15625 C 7,-2.875 6.421875,-3.453125 5.453125,-3.5625 6.484375,-3.75 7.53125,-4.484375 7.53125,-5.4375 c 0,-0.734375 -0.65625,-1.375 -1.84375,-1.375 H 2.328125 c -0.1875,0 -0.28125,0 -0.28125,0.203125 0,0.109375 0.09375,0.109375 0.28125,0.109375 0,0 0.203125,0 0.375,0.015625 0.171875,0.03125 0.265625,0.03125 0.265625,0.171875 0,0.03125 -0.015625,0.0625 -0.03125,0.1875 L 1.59375,-0.78125 C 1.5,-0.390625 1.46875,-0.3125 0.6875,-0.3125 c -0.171875,0 -0.265625,0 -0.265625,0.203125 C 0.421875,0 0.515625,0 0.6875,0 H 4.25 C 5.828125,0 7,-1.171875 7,-2.15625 Z m -0.375,-3.3125 c 0,0.875 -0.859375,1.8125 -2.0625,1.8125 H 3.09375 L 3.71875,-6.125 C 3.8125,-6.46875 3.828125,-6.5 4.25,-6.5 h 1.296875 c 0.875,0 1.078125,0.59375 1.078125,1.03125 z M 6.078125,-2.265625 C 6.078125,-1.28125 5.1875,-0.3125 4,-0.3125 H 2.65625 c -0.140625,0 -0.15625,0 -0.21875,0 -0.109375,-0.015625 -0.140625,-0.03125 -0.140625,-0.109375 0,-0.03125 0,-0.046875 0.0625,-0.21875 l 0.6875,-2.78125 h 1.875 c 0.953125,0 1.15625,0.734375 1.15625,1.15625 z m 0,0"
               style="stroke:none;stroke-width:0" />
          </g>
        </g>
      </g>
    </g>
  </g>
</svg>
