<?xml version="1.0" encoding="UTF-8" standalone="no"?>
<svg
   xmlns:ns1="http://www.iki.fi/pav/software/textext/"
   xmlns:dc="http://purl.org/dc/elements/1.1/"
   xmlns:cc="http://creativecommons.org/ns#"
   xmlns:rdf="http://www.w3.org/1999/02/22-rdf-syntax-ns#"
   xmlns:svg="http://www.w3.org/2000/svg"
   xmlns="http://www.w3.org/2000/svg"
   xmlns:sodipodi="http://sodipodi.sourceforge.net/DTD/sodipodi-0.dtd"
   xmlns:inkscape="http://www.inkscape.org/namespaces/inkscape"
   sodipodi:docname="sleppa-massi.svg"
   inkscape:version="1.0 (4035a4f, 2020-05-01)"
   id="svg2701"
   version="1.1"
   viewBox="0 0 210 297"
   height="297mm"
   width="210mm">
  <defs
     id="defs2695">
    <g
       id="id-5a02d36d-ad35-443c-9c61-4ddfeacc1ddc">
      <symbol
         overflow="visible"
         id="id-48b93063-c69e-4c76-94cf-63e48dcb08e8">
        <path
           style="stroke:none;stroke-width:0"
           d=""
           id="id-b0fb4bed-3e4b-4f25-b55b-b7be9bc0103c" />
      </symbol>
      <symbol
         overflow="visible"
         id="id-9f633ed7-864b-4c44-9157-fa48a02a3022">
        <path
           style="stroke:none;stroke-width:0"
           d="m 4.890625,-1.421875 c 0,-0.109375 -0.09375,-0.109375 -0.125,-0.109375 -0.09375,0 -0.109375,0.046875 -0.140625,0.1875 -0.203125,0.71875 -0.421875,1.234375 -0.859375,1.234375 -0.203125,0 -0.328125,-0.109375 -0.328125,-0.46875 0,-0.171875 0.046875,-0.40625 0.078125,-0.5625 C 3.5625,-1.3125 3.5625,-1.34375 3.5625,-1.453125 3.5625,-2.09375 2.9375,-2.375 2.078125,-2.5 2.390625,-2.671875 2.71875,-2.984375 2.9375,-3.234375 3.421875,-3.765625 3.875,-4.1875 4.359375,-4.1875 c 0.0625,0 0.078125,0 0.09375,0.015625 0.125,0.015625 0.125,0.015625 0.21875,0.078125 0.015625,0 0.015625,0.015625 0.03125,0.03125 -0.46875,0.03125 -0.5625,0.421875 -0.5625,0.546875 0,0.15625 0.109375,0.34375 0.375,0.34375 0.265625,0 0.546875,-0.21875 0.546875,-0.609375 0,-0.296875 -0.234375,-0.625 -0.671875,-0.625 -0.28125,0 -0.734375,0.078125 -1.453125,0.875 -0.34375,0.375 -0.734375,0.78125 -1.109375,0.921875 L 2.859375,-6.8125 c 0,0 0,-0.109375 -0.125,-0.109375 -0.234375,0 -0.953125,0.078125 -1.21875,0.109375 -0.078125,0 -0.1875,0.015625 -0.1875,0.1875 0,0.125 0.09375,0.125 0.234375,0.125 0.484375,0 0.5,0.0625 0.5,0.171875 L 2.03125,-6.125 0.59375,-0.390625 c -0.046875,0.140625 -0.046875,0.15625 -0.046875,0.21875 0,0.234375 0.203125,0.28125 0.296875,0.28125 0.125,0 0.265625,-0.09375 0.328125,-0.203125 0.046875,-0.09375 0.5,-1.9375 0.5625,-2.1875 0.34375,0.03125 1.15625,0.1875 1.15625,0.84375 0,0.078125 0,0.109375 -0.03125,0.21875 -0.015625,0.109375 -0.03125,0.234375 -0.03125,0.34375 0,0.578125 0.390625,0.984375 0.90625,0.984375 0.296875,0 0.578125,-0.15625 0.796875,-0.53125 0.25,-0.4375 0.359375,-1 0.359375,-1 z m 0,0"
           id="id-07efee3f-1484-47f2-a2d3-8bd80cb0e744" />
      </symbol>
    </g>
  </defs>
  <sodipodi:namedview
     inkscape:window-maximized="0"
     inkscape:window-y="139"
     inkscape:window-x="27"
     inkscape:window-height="847"
     inkscape:window-width="1252"
     showgrid="false"
     inkscape:document-rotation="0"
     inkscape:current-layer="layer1"
     inkscape:document-units="mm"
     inkscape:cy="359.40682"
     inkscape:cx="310.02461"
     inkscape:zoom="2.3766239"
     inkscape:pageshadow="2"
     inkscape:pageopacity="0.0"
     borderopacity="1.0"
     bordercolor="#666666"
     pagecolor="#ffffff"
     id="base" />
  <metadata
     id="metadata2698">
    <rdf:RDF>
      <cc:Work
         rdf:about="">
        <dc:format>image/svg+xml</dc:format>
        <dc:type
           rdf:resource="http://purl.org/dc/dcmitype/StillImage" />
        <dc:title></dc:title>
      </cc:Work>
    </rdf:RDF>
  </metadata>
  <g
     id="layer1"
     inkscape:groupmode="layer"
     inkscape:label="Layer 1">
    <path
       id="path3264"
       d="M 62.446696,86.870293 H 87.425375"
       style="fill:none;stroke:#000000;stroke-width:0.264583px;stroke-linecap:butt;stroke-linejoin:miter;stroke-opacity:1" />
    <path
       sodipodi:nodetypes="cc"
       id="path3268"
       d="m 87.425373,86.870293 0,15.212067"
       style="fill:none;stroke:#000000;stroke-width:0.264583px;stroke-linecap:butt;stroke-linejoin:miter;stroke-opacity:1" />
    <path
       id="path3270"
       d="m 84.921282,86.921572 5.161201,-2.349504"
       style="fill:none;stroke:#000000;stroke-width:0.190865px;stroke-linecap:butt;stroke-linejoin:miter;stroke-opacity:1" />
    <path
       id="path3272"
       d="M 87.347816,89.271074 90.96836,86.151243"
       style="fill:none;stroke:#000000;stroke-width:0.190865px;stroke-linecap:butt;stroke-linejoin:miter;stroke-opacity:1" />
    <circle
       r="1.8873051"
       cy="84.45652"
       cx="91.969788"
       id="path3274"
       style="fill:none;stroke:#000000;stroke-width:0.191165;stroke-miterlimit:4;stroke-dasharray:none;stroke-dashoffset:0" />
    <path
       id="path3276"
       d="M 62.446696,86.870293 V 73.878505"
       style="fill:none;stroke:#000000;stroke-width:0.264583px;stroke-linecap:butt;stroke-linejoin:miter;stroke-opacity:1" />
    <path
       id="path3278"
       d="m 60.234541,76.04481 2.125313,-1.036738"
       style="fill:none;stroke:#000000;stroke-width:0.264583px;stroke-linecap:butt;stroke-linejoin:miter;stroke-opacity:1" />
    <path
       style="fill:none;stroke:#000000;stroke-width:0.264583px;stroke-linecap:butt;stroke-linejoin:miter;stroke-opacity:1"
       d="m 60.234541,78.690645 2.125313,-1.036738"
       id="path3278-5" />
    <path
       style="fill:none;stroke:#000000;stroke-width:0.264583px;stroke-linecap:butt;stroke-linejoin:miter;stroke-opacity:1"
       d="m 60.234541,81.33648 2.125313,-1.036738"
       id="path3278-58" />
    <path
       id="path3278-5-3"
       d="m 60.234541,83.982315 2.125313,-1.036738"
       style="fill:none;stroke:#000000;stroke-width:0.264583px;stroke-linecap:butt;stroke-linejoin:miter;stroke-opacity:1" />
    <path
       style="fill:none;stroke:#000000;stroke-width:0.264583px;stroke-linecap:butt;stroke-linejoin:miter;stroke-opacity:1"
       d="m 60.234541,86.62815 2.125313,-1.036738"
       id="path3278-5-3-2" />
    <path
       style="fill:none;stroke:#000000;stroke-width:0.122151;stroke-linecap:butt;stroke-linejoin:miter;stroke-miterlimit:10;stroke-opacity:1"
       d="m 76.574006,83.419219 c -0.05413,1.109321 -0.376619,1.999531 -0.765725,1.999531 -0.389102,0 -0.711619,-0.89021 -0.765721,-1.999531 -0.05413,-1.110699 0.161255,-2.000909 0.442161,-2.000909 0.280904,0 0.496268,0.89021 0.442166,2.000909 -0.05413,1.109321 -0.376619,1.999531 -0.765728,1.999531 -0.389099,0 -0.711616,-0.89021 -0.765718,-1.999531 -0.05413,-1.110699 0.161255,-2.000909 0.442159,-2.000909 0.281945,0 0.496267,0.89021 0.443208,2.000909 -0.05413,1.109321 -0.37662,1.999531 -0.765726,1.999531 -0.389099,0 -0.712659,-0.89021 -0.765718,-1.999531 -0.05413,-1.110699 0.160213,-2.000909 0.442158,-2.000909 0.280904,0 0.496268,0.89021 0.442166,2.000909 -0.05413,1.109321 -0.376619,1.999531 -0.765725,1.999531 -0.389099,0 -0.711624,-0.89021 -0.765718,-1.999531 -0.05413,-1.110699 0.161255,-2.000909 0.442158,-2.000909 0.280904,0 0.496268,0.89021 0.442166,2.000909 -0.05413,1.109321 -0.376619,1.999531 -0.765725,1.999531 -0.389099,0 -0.711625,-0.89021 -0.765718,-1.999531 -0.05413,-1.110699 0.161255,-2.000909 0.442158,-2.000909 0.281945,0 0.496268,0.89021 0.442166,2.000909 -0.05307,1.109321 -0.376619,1.999531 -0.764684,1.999531 -0.389106,0 -0.712666,-0.89021 -0.765725,-1.999531 -0.05413,-1.110699 0.16022,-2.000909 0.442166,-2.000909 0.280903,0 0.496267,0.89021 0.442166,2.000909 -0.05413,1.109321 -0.376619,1.999531 -0.765726,1.999531 -0.389106,0 -0.711624,-0.89021 -0.765725,-1.999531 -0.05413,-1.110699 0.161262,-2.000909 0.442166,-2.000909 0.280903,0 0.496267,0.89021 0.442166,2.000909 -0.05413,1.109321 -0.376619,1.999531 -0.765726,1.999531 -0.389106,0 -0.711624,-0.89021 -0.765718,-1.999531 -0.05413,-1.110699 0.161255,-2.000909 0.442159,-2.000909 0.281945,0 0.496267,0.89021 0.442166,2.000909 -0.05308,1.109321 -0.37662,1.999531 -0.765726,1.999531 -0.389099,0 -0.711624,-0.89021 -0.764683,-1.999531 -0.05413,-1.110699 0.16022,-2.000909 0.442165,-2.000909 0.280903,0 0.49626,0.89021 0.442166,2.000909 -0.05413,1.109321 -0.37662,1.999531 -0.765726,1.999531 -0.389106,0 -0.711624,-0.89021 -0.765726,-1.999531 -0.05413,-1.110699 0.161264,-2.000909 0.442166,-2.000909 0.280904,0 0.496268,0.89021 0.442166,2.000909 -0.05413,1.109321 -0.376618,1.999531 -0.765725,1.999531 -0.389106,0 -0.711624,-0.89021 -0.765726,-1.999531 -0.05413,-1.110699 0.161263,-2.000909 0.442167,-2.000909 0.281945,0 0.496268,0.89021 0.442166,2.000909 -0.05308,1.109321 -0.376619,1.999531 -0.765726,1.999531 -0.389107,0 -0.711624,-0.89021 -0.764683,-1.999531 -0.05413,-1.110699 0.16022,-2.000909 0.442166,-2.000909 0.280902,0 0.49626,0.89021 0.442166,2.000909 -0.05413,1.109321 -0.37662,1.999531 -0.765727,1.999531 -0.389105,0 -0.711624,-0.89021 -0.765725,-1.999531 -0.05413,-1.110699 0.161262,-2.000909 0.442166,-2.000909 0.280903,0 0.49626,0.89021 0.442166,2.000909 -0.05413,1.109321 -0.376619,1.999531 -0.765726,1.999531 -0.389106,0 -0.711624,-0.89021 -0.765725,-1.999531 -0.05413,-1.110699 0.161262,-2.000909 0.442166,-2.000909 0.281946,0 0.49626,0.89021 0.442167,2.000909 -0.05307,1.109321 -0.37662,1.999531 -0.765726,1.999531 -0.389107,0 -0.711624,-0.89021 -0.765726,-1.999531 -0.05308,-1.110699 0.161263,-2.000909 0.443207,-2.000909 0.280904,0 0.496261,0.89021 0.44216,2.000909 -0.05413,1.109321 -0.37662,1.999531 -0.765719,1.999531 -0.389106,0 -0.711624,-0.89021 -0.765726,-1.999531 -0.05413,-1.110699 0.161263,-2.000909 0.442166,-2.000909 0.280904,0 0.49626,0.89021 0.442159,2.000909 -0.05413,1.109321 -0.376619,1.999531 -0.765718,1.999531 -0.389107,0 -0.711624,-0.89021 -0.765726,-1.999531 -0.05413,-1.110699 0.161263,-2.000909 0.442167,-2.000909 0.281944,0 0.496259,0.89021 0.442158,2.000909 -0.05308,1.109321 -0.376612,1.999531 -0.765718,1.999531 -0.389107,0 -0.711625,-0.89021 -0.765726,-1.999531 -0.05307,-1.110699 0.161262,-2.000909 0.443208,-2.000909 0.280903,0 0.495219,0.89021 0.442159,2.000909 -0.05413,1.109321 -0.37662,1.999531 -0.765719,1.999531 -0.389106,0 -0.711624,-0.89021 -0.765725,-1.999531 -0.05413,-1.110699 0.161262,-2.000909 0.442166,-2.000909 0.280903,0 0.49626,0.89021 0.442158,2.000909 -0.05413,1.109321 -0.376619,1.999531 -0.765718,1.999531 -0.389106,0 -0.711624,-0.89021 -0.765726,-1.999531 h -0.349568"
       id="path7229-3" />
    <rect
       y="80.852234"
       x="76.590988"
       height="5.9179945"
       width="5.9179945"
       id="rect4022"
       style="fill:none;stroke:#000000;stroke-width:0.264999;stroke-miterlimit:4;stroke-dasharray:none;stroke-dashoffset:0" />
    <g
       transform="matrix(0.282222,0,0,0.282222,64.290601,75.401847)"
       ns1:version="1.3.1"
       ns1:texconverter="pdflatex"
       ns1:pdfconverter="inkscape"
       ns1:text="$k = \\SI{500}{N/m}$"
       ns1:preamble="/Users/mbh/Library/Application Support/org.inkscape.Inkscape/config/inkscape/extensions/textext/default_packages.tex"
       ns1:scale="0.8"
       ns1:alignment="middle center"
       ns1:jacobian_sqrt="0.282222"
       id="g4084">
      <defs
         id="id-c8562e47-367e-459c-81b0-73dd0e06c96b">
        <g
           id="id-edb92b07-dce0-4ae4-a630-6c58d471d630">
          <symbol
             id="id-749a5e7f-9bfb-41bb-97df-381eb6da8c90"
             overflow="visible">
            <path
               id="id-e9ffadca-b313-464d-b443-a4f890906771"
               d=""
               style="stroke:none" />
          </symbol>
          <symbol
             id="id-95f7a13a-f3fc-41ed-9e74-cf0941a1850d"
             overflow="visible">
            <path
               id="id-b5008545-d22d-42be-ba37-a6e1df9617cd"
               d="m 4.890625,-1.421875 c 0,-0.109375 -0.09375,-0.109375 -0.125,-0.109375 -0.09375,0 -0.109375,0.046875 -0.140625,0.1875 -0.203125,0.71875 -0.421875,1.234375 -0.859375,1.234375 -0.203125,0 -0.328125,-0.109375 -0.328125,-0.46875 0,-0.171875 0.046875,-0.40625 0.078125,-0.5625 C 3.5625,-1.3125 3.5625,-1.34375 3.5625,-1.453125 3.5625,-2.09375 2.9375,-2.375 2.078125,-2.5 2.390625,-2.671875 2.71875,-2.984375 2.9375,-3.234375 3.421875,-3.765625 3.875,-4.1875 4.359375,-4.1875 c 0.0625,0 0.078125,0 0.09375,0.015625 0.125,0.015625 0.125,0.015625 0.21875,0.078125 0.015625,0 0.015625,0.015625 0.03125,0.03125 -0.46875,0.03125 -0.5625,0.421875 -0.5625,0.546875 0,0.15625 0.109375,0.34375 0.375,0.34375 0.265625,0 0.546875,-0.21875 0.546875,-0.609375 0,-0.296875 -0.234375,-0.625 -0.671875,-0.625 -0.28125,0 -0.734375,0.078125 -1.453125,0.875 -0.34375,0.375 -0.734375,0.78125 -1.109375,0.921875 L 2.859375,-6.8125 c 0,0 0,-0.109375 -0.125,-0.109375 -0.234375,0 -0.953125,0.078125 -1.21875,0.109375 -0.078125,0 -0.1875,0.015625 -0.1875,0.1875 0,0.125 0.09375,0.125 0.234375,0.125 0.484375,0 0.5,0.0625 0.5,0.171875 L 2.03125,-6.125 0.59375,-0.390625 c -0.046875,0.140625 -0.046875,0.15625 -0.046875,0.21875 0,0.234375 0.203125,0.28125 0.296875,0.28125 0.125,0 0.265625,-0.09375 0.328125,-0.203125 0.046875,-0.09375 0.5,-1.9375 0.5625,-2.1875 0.34375,0.03125 1.15625,0.1875 1.15625,0.84375 0,0.078125 0,0.109375 -0.03125,0.21875 -0.015625,0.109375 -0.03125,0.234375 -0.03125,0.34375 0,0.578125 0.390625,0.984375 0.90625,0.984375 0.296875,0 0.578125,-0.15625 0.796875,-0.53125 0.25,-0.4375 0.359375,-1 0.359375,-1 z m 0,0"
               style="stroke:none" />
          </symbol>
          <symbol
             id="id-ad1921ed-21dc-49bf-b0fa-67955ecfcfe3"
             overflow="visible">
            <path
               id="id-428cbd01-1cec-40aa-b01b-0f1255bc07f9"
               d="m 4.421875,-7.28125 c 0,-0.109375 -0.078125,-0.203125 -0.1875,-0.203125 -0.078125,0 -0.140625,0.03125 -0.171875,0.09375 l -3.46875,9.5 C 0.546875,2.25 0.546875,2.296875 0.546875,2.296875 0.546875,2.40625 0.640625,2.5 0.75,2.5 0.875,2.5 0.90625,2.421875 0.96875,2.25 L 4.375,-7.09375 c 0.046875,-0.140625 0.046875,-0.1875 0.046875,-0.1875 z m 0,0"
               style="stroke:none" />
          </symbol>
          <symbol
             id="id-14fe35d3-dbaa-442b-be20-aef8e35ba04a"
             overflow="visible">
            <path
               id="id-a5ed1eca-e607-4979-bc76-970e4ac94f48"
               d=""
               style="stroke:none" />
          </symbol>
          <symbol
             id="id-19aadc5b-e1c0-436f-82b9-c4cbe82537b8"
             overflow="visible">
            <path
               id="id-cf896a68-9542-42f9-a022-8ad349cd8df6"
               d="M 7.1875,-3.453125 C 7.1875,-3.65625 7,-3.65625 6.859375,-3.65625 h -5.96875 c -0.140625,0 -0.328125,0 -0.328125,0.203125 0,0.1875 0.1875,0.1875 0.328125,0.1875 H 6.84375 c 0.15625,0 0.34375,0 0.34375,-0.1875 z m 0,1.921875 c 0,-0.1875 -0.1875,-0.1875 -0.34375,-0.1875 H 0.890625 c -0.140625,0 -0.328125,0 -0.328125,0.1875 0,0.203125 0.1875,0.203125 0.328125,0.203125 h 5.96875 c 0.140625,0 0.328125,0 0.328125,-0.203125 z m 0,0"
               style="stroke:none" />
          </symbol>
          <symbol
             id="id-ce3fdaec-643b-4fa1-b419-e58eec614291"
             overflow="visible">
            <path
               id="id-36e2f370-0a4b-478b-98c7-ae7964c29977"
               d="m 4.46875,-2 c 0,-1.1875 -0.8125,-2.1875 -1.890625,-2.1875 -0.46875,0 -0.90625,0.15625 -1.265625,0.515625 V -5.625 c 0.203125,0.0625 0.53125,0.125 0.84375,0.125 1.234375,0 1.9375,-0.90625 1.9375,-1.03125 0,-0.0625 -0.03125,-0.109375 -0.109375,-0.109375 0,0 -0.03125,0 -0.078125,0.03125 C 3.703125,-6.515625 3.21875,-6.3125 2.546875,-6.3125 2.15625,-6.3125 1.6875,-6.390625 1.21875,-6.59375 1.140625,-6.625 1.109375,-6.625 1.109375,-6.625 1,-6.625 1,-6.546875 1,-6.390625 V -3.4375 c 0,0.171875 0,0.25 0.140625,0.25 0.078125,0 0.09375,-0.015625 0.140625,-0.078125 C 1.390625,-3.421875 1.75,-3.96875 2.5625,-3.96875 c 0.515625,0 0.765625,0.453125 0.84375,0.640625 0.15625,0.375 0.1875,0.75 0.1875,1.25 0,0.359375 0,0.953125 -0.25,1.375 C 3.109375,-0.3125 2.734375,-0.0625 2.28125,-0.0625 c -0.71875,0 -1.296875,-0.53125 -1.46875,-1.109375 0.03125,0 0.0625,0.015625 0.171875,0.015625 0.328125,0 0.5,-0.25 0.5,-0.484375 0,-0.25 -0.171875,-0.5 -0.5,-0.5 C 0.84375,-2.140625 0.5,-2.0625 0.5,-1.609375 0.5,-0.75 1.1875,0.21875 2.296875,0.21875 3.453125,0.21875 4.46875,-0.734375 4.46875,-2 Z m 0,0"
               style="stroke:none" />
          </symbol>
          <symbol
             id="id-2c7763f2-87c5-44fb-bc20-cad2af54fe88"
             overflow="visible">
            <path
               id="id-71fb76d5-cace-4bb9-9112-e09b300e49df"
               d="m 4.578125,-3.1875 c 0,-0.796875 -0.046875,-1.59375 -0.390625,-2.328125 -0.453125,-0.96875 -1.28125,-1.125 -1.6875,-1.125 -0.609375,0 -1.328125,0.265625 -1.75,1.1875 -0.3125,0.6875 -0.359375,1.46875 -0.359375,2.265625 0,0.75 0.03125,1.640625 0.453125,2.40625 0.421875,0.796875 1.15625,1 1.640625,1 0.53125,0 1.296875,-0.203125 1.734375,-1.15625 0.3125,-0.6875 0.359375,-1.46875 0.359375,-2.25 z m -0.8125,-0.125 c 0,0.75 0,1.421875 -0.109375,2.0625 C 3.5,-0.296875 2.9375,0 2.484375,0 2.09375,0 1.5,-0.25 1.328125,-1.203125 1.21875,-1.796875 1.21875,-2.71875 1.21875,-3.3125 c 0,-0.640625 0,-1.296875 0.078125,-1.828125 0.1875,-1.1875 0.9375,-1.28125 1.1875,-1.28125 0.328125,0 0.984375,0.1875 1.171875,1.171875 0.109375,0.5625 0.109375,1.3125 0.109375,1.9375 z m 0,0"
               style="stroke:none" />
          </symbol>
          <symbol
             id="id-a9035c4d-5fc4-4494-9443-ac7d99a3358a"
             overflow="visible">
            <path
               id="id-dcdba620-a25c-4a2a-a2db-f55445c5d137"
               d="M 7.140625,-6.5 V -6.8125 L 5.96875,-6.78125 4.8125,-6.8125 V -6.5 c 1.015625,0 1.015625,0.46875 1.015625,0.734375 V -1.5 L 2.3125,-6.671875 C 2.21875,-6.796875 2.21875,-6.8125 2.03125,-6.8125 H 0.328125 V -6.5 H 0.625 c 0.140625,0 0.34375,0.015625 0.484375,0.015625 0.234375,0.03125 0.25,0.046875 0.25,0.234375 v 5.203125 c 0,0.265625 0,0.734375 -1.03125,0.734375 V 0 L 1.5,-0.03125 2.65625,0 v -0.3125 c -1.015625,0 -1.015625,-0.46875 -1.015625,-0.734375 v -5.1875 c 0.046875,0.046875 0.046875,0.0625 0.09375,0.125 L 5.796875,-0.125 C 5.890625,-0.015625 5.90625,0 5.96875,0 6.109375,0 6.109375,-0.0625 6.109375,-0.265625 v -5.5 c 0,-0.265625 0,-0.734375 1.03125,-0.734375 z m 0,0"
               style="stroke:none" />
          </symbol>
          <symbol
             id="id-f599ccf0-1745-4087-8056-a7c300dcf316"
             overflow="visible">
            <path
               id="id-b1f11579-df98-45cf-a8ed-3a5c4bd7389c"
               d="m 8.109375,0 v -0.3125 c -0.515625,0 -0.765625,0 -0.78125,-0.296875 v -1.90625 c 0,-0.859375 0,-1.15625 -0.3125,-1.515625 -0.140625,-0.171875 -0.46875,-0.375 -1.046875,-0.375 -0.828125,0 -1.28125,0.59375 -1.4375,0.984375 C 4.390625,-4.296875 3.65625,-4.40625 3.203125,-4.40625 2.46875,-4.40625 2,-3.984375 1.71875,-3.359375 V -4.40625 L 0.3125,-4.296875 v 0.3125 c 0.703125,0 0.78125,0.0625 0.78125,0.5625 V -0.75 c 0,0.4375 -0.109375,0.4375 -0.78125,0.4375 V 0 L 1.453125,-0.03125 2.5625,0 v -0.3125 c -0.671875,0 -0.78125,0 -0.78125,-0.4375 V -2.59375 C 1.78125,-3.625 2.5,-4.1875 3.125,-4.1875 c 0.640625,0 0.75,0.53125 0.75,1.109375 V -0.75 c 0,0.4375 -0.109375,0.4375 -0.78125,0.4375 V 0 L 4.21875,-0.03125 5.328125,0 v -0.3125 c -0.65625,0 -0.765625,0 -0.765625,-0.4375 v -1.84375 c 0,-1.03125 0.703125,-1.59375 1.34375,-1.59375 0.625,0 0.734375,0.53125 0.734375,1.109375 V -0.75 c 0,0.4375 -0.109375,0.4375 -0.78125,0.4375 V 0 l 1.125,-0.03125 z m 0,0"
               style="stroke:none" />
          </symbol>
        </g>
      </defs>
      <g
         transform="translate(-149.259,-127.281)"
         id="id-8275287d-ff7d-4268-be64-203b30e4497b">
        <g
           id="id-e18ebeab-cb5c-483b-bfe0-161834ba9c62"
           style="fill:#000000;fill-opacity:1">
          <g
             transform="translate(148.712,134.765)"
             id="g4164">
            <path
               id="id-be88376d-c736-4eb1-a782-59f4ba0fd91b"
               d="m 4.890625,-1.421875 c 0,-0.109375 -0.09375,-0.109375 -0.125,-0.109375 -0.09375,0 -0.109375,0.046875 -0.140625,0.1875 -0.203125,0.71875 -0.421875,1.234375 -0.859375,1.234375 -0.203125,0 -0.328125,-0.109375 -0.328125,-0.46875 0,-0.171875 0.046875,-0.40625 0.078125,-0.5625 C 3.5625,-1.3125 3.5625,-1.34375 3.5625,-1.453125 3.5625,-2.09375 2.9375,-2.375 2.078125,-2.5 2.390625,-2.671875 2.71875,-2.984375 2.9375,-3.234375 3.421875,-3.765625 3.875,-4.1875 4.359375,-4.1875 c 0.0625,0 0.078125,0 0.09375,0.015625 0.125,0.015625 0.125,0.015625 0.21875,0.078125 0.015625,0 0.015625,0.015625 0.03125,0.03125 -0.46875,0.03125 -0.5625,0.421875 -0.5625,0.546875 0,0.15625 0.109375,0.34375 0.375,0.34375 0.265625,0 0.546875,-0.21875 0.546875,-0.609375 0,-0.296875 -0.234375,-0.625 -0.671875,-0.625 -0.28125,0 -0.734375,0.078125 -1.453125,0.875 -0.34375,0.375 -0.734375,0.78125 -1.109375,0.921875 L 2.859375,-6.8125 c 0,0 0,-0.109375 -0.125,-0.109375 -0.234375,0 -0.953125,0.078125 -1.21875,0.109375 -0.078125,0 -0.1875,0.015625 -0.1875,0.1875 0,0.125 0.09375,0.125 0.234375,0.125 0.484375,0 0.5,0.0625 0.5,0.171875 L 2.03125,-6.125 0.59375,-0.390625 c -0.046875,0.140625 -0.046875,0.15625 -0.046875,0.21875 0,0.234375 0.203125,0.28125 0.296875,0.28125 0.125,0 0.265625,-0.09375 0.328125,-0.203125 0.046875,-0.09375 0.5,-1.9375 0.5625,-2.1875 0.34375,0.03125 1.15625,0.1875 1.15625,0.84375 0,0.078125 0,0.109375 -0.03125,0.21875 -0.015625,0.109375 -0.03125,0.234375 -0.03125,0.34375 0,0.578125 0.390625,0.984375 0.90625,0.984375 0.296875,0 0.578125,-0.15625 0.796875,-0.53125 0.25,-0.4375 0.359375,-1 0.359375,-1 z m 0,0"
               style="stroke:none" />
          </g>
        </g>
        <g
           id="id-9a14fa46-5e84-469d-add9-8830b6f93f38"
           style="fill:#000000;fill-opacity:1">
          <g
             transform="translate(156.98,134.765)"
             id="g4168">
            <path
               id="id-0766150e-67ee-4292-8078-7aa6ec43e0d0"
               d="M 7.1875,-3.453125 C 7.1875,-3.65625 7,-3.65625 6.859375,-3.65625 h -5.96875 c -0.140625,0 -0.328125,0 -0.328125,0.203125 0,0.1875 0.1875,0.1875 0.328125,0.1875 H 6.84375 c 0.15625,0 0.34375,0 0.34375,-0.1875 z m 0,1.921875 c 0,-0.1875 -0.1875,-0.1875 -0.34375,-0.1875 H 0.890625 c -0.140625,0 -0.328125,0 -0.328125,0.1875 0,0.203125 0.1875,0.203125 0.328125,0.203125 h 5.96875 c 0.140625,0 0.328125,0 0.328125,-0.203125 z m 0,0"
               style="stroke:none" />
          </g>
        </g>
        <g
           id="id-89dac6ed-0ad1-4e0d-bd88-a31b869af6c2"
           style="fill:#000000;fill-opacity:1">
          <g
             transform="translate(167.499,134.765)"
             id="g4172">
            <path
               id="id-5650be2c-3c05-44f7-b825-e83f3746fd35"
               d="m 4.46875,-2 c 0,-1.1875 -0.8125,-2.1875 -1.890625,-2.1875 -0.46875,0 -0.90625,0.15625 -1.265625,0.515625 V -5.625 c 0.203125,0.0625 0.53125,0.125 0.84375,0.125 1.234375,0 1.9375,-0.90625 1.9375,-1.03125 0,-0.0625 -0.03125,-0.109375 -0.109375,-0.109375 0,0 -0.03125,0 -0.078125,0.03125 C 3.703125,-6.515625 3.21875,-6.3125 2.546875,-6.3125 2.15625,-6.3125 1.6875,-6.390625 1.21875,-6.59375 1.140625,-6.625 1.109375,-6.625 1.109375,-6.625 1,-6.625 1,-6.546875 1,-6.390625 V -3.4375 c 0,0.171875 0,0.25 0.140625,0.25 0.078125,0 0.09375,-0.015625 0.140625,-0.078125 C 1.390625,-3.421875 1.75,-3.96875 2.5625,-3.96875 c 0.515625,0 0.765625,0.453125 0.84375,0.640625 0.15625,0.375 0.1875,0.75 0.1875,1.25 0,0.359375 0,0.953125 -0.25,1.375 C 3.109375,-0.3125 2.734375,-0.0625 2.28125,-0.0625 c -0.71875,0 -1.296875,-0.53125 -1.46875,-1.109375 0.03125,0 0.0625,0.015625 0.171875,0.015625 0.328125,0 0.5,-0.25 0.5,-0.484375 0,-0.25 -0.171875,-0.5 -0.5,-0.5 C 0.84375,-2.140625 0.5,-2.0625 0.5,-1.609375 0.5,-0.75 1.1875,0.21875 2.296875,0.21875 3.453125,0.21875 4.46875,-0.734375 4.46875,-2 Z m 0,0"
               style="stroke:none" />
          </g>
          <g
             transform="translate(172.48,134.765)"
             id="g4175">
            <path
               id="id-5d349ef4-2447-4996-8e28-2f55989eddde"
               d="m 4.578125,-3.1875 c 0,-0.796875 -0.046875,-1.59375 -0.390625,-2.328125 -0.453125,-0.96875 -1.28125,-1.125 -1.6875,-1.125 -0.609375,0 -1.328125,0.265625 -1.75,1.1875 -0.3125,0.6875 -0.359375,1.46875 -0.359375,2.265625 0,0.75 0.03125,1.640625 0.453125,2.40625 0.421875,0.796875 1.15625,1 1.640625,1 0.53125,0 1.296875,-0.203125 1.734375,-1.15625 0.3125,-0.6875 0.359375,-1.46875 0.359375,-2.25 z m -0.8125,-0.125 c 0,0.75 0,1.421875 -0.109375,2.0625 C 3.5,-0.296875 2.9375,0 2.484375,0 2.09375,0 1.5,-0.25 1.328125,-1.203125 1.21875,-1.796875 1.21875,-2.71875 1.21875,-3.3125 c 0,-0.640625 0,-1.296875 0.078125,-1.828125 0.1875,-1.1875 0.9375,-1.28125 1.1875,-1.28125 0.328125,0 0.984375,0.1875 1.171875,1.171875 0.109375,0.5625 0.109375,1.3125 0.109375,1.9375 z m 0,0"
               style="stroke:none" />
          </g>
          <g
             transform="translate(177.461,134.765)"
             id="g4178">
            <path
               id="id-7a861458-e6c5-40b1-8bba-6694ced6b1c2"
               d="m 4.578125,-3.1875 c 0,-0.796875 -0.046875,-1.59375 -0.390625,-2.328125 -0.453125,-0.96875 -1.28125,-1.125 -1.6875,-1.125 -0.609375,0 -1.328125,0.265625 -1.75,1.1875 -0.3125,0.6875 -0.359375,1.46875 -0.359375,2.265625 0,0.75 0.03125,1.640625 0.453125,2.40625 0.421875,0.796875 1.15625,1 1.640625,1 0.53125,0 1.296875,-0.203125 1.734375,-1.15625 0.3125,-0.6875 0.359375,-1.46875 0.359375,-2.25 z m -0.8125,-0.125 c 0,0.75 0,1.421875 -0.109375,2.0625 C 3.5,-0.296875 2.9375,0 2.484375,0 2.09375,0 1.5,-0.25 1.328125,-1.203125 1.21875,-1.796875 1.21875,-2.71875 1.21875,-3.3125 c 0,-0.640625 0,-1.296875 0.078125,-1.828125 0.1875,-1.1875 0.9375,-1.28125 1.1875,-1.28125 0.328125,0 0.984375,0.1875 1.171875,1.171875 0.109375,0.5625 0.109375,1.3125 0.109375,1.9375 z m 0,0"
               style="stroke:none" />
          </g>
        </g>
        <g
           id="id-e3a85558-8621-4779-af5c-13ef98659816"
           style="fill:#000000;fill-opacity:1">
          <g
             transform="translate(184.096,134.765)"
             id="g4182">
            <path
               id="id-6efa0261-b54b-4e41-a1a7-5a88e1502262"
               d="M 7.140625,-6.5 V -6.8125 L 5.96875,-6.78125 4.8125,-6.8125 V -6.5 c 1.015625,0 1.015625,0.46875 1.015625,0.734375 V -1.5 L 2.3125,-6.671875 C 2.21875,-6.796875 2.21875,-6.8125 2.03125,-6.8125 H 0.328125 V -6.5 H 0.625 c 0.140625,0 0.34375,0.015625 0.484375,0.015625 0.234375,0.03125 0.25,0.046875 0.25,0.234375 v 5.203125 c 0,0.265625 0,0.734375 -1.03125,0.734375 V 0 L 1.5,-0.03125 2.65625,0 v -0.3125 c -1.015625,0 -1.015625,-0.46875 -1.015625,-0.734375 v -5.1875 c 0.046875,0.046875 0.046875,0.0625 0.09375,0.125 L 5.796875,-0.125 C 5.890625,-0.015625 5.90625,0 5.96875,0 6.109375,0 6.109375,-0.0625 6.109375,-0.265625 v -5.5 c 0,-0.265625 0,-0.734375 1.03125,-0.734375 z m 0,0"
               style="stroke:none" />
          </g>
        </g>
        <g
           id="id-3d22fa45-2173-45d8-a03a-31a4d5adbf44"
           style="fill:#000000;fill-opacity:1">
          <g
             transform="translate(191.572,134.765)"
             id="g4186">
            <path
               id="id-70cb2d04-c2fc-4174-97fd-fd1ff8427a26"
               d="m 4.421875,-7.28125 c 0,-0.109375 -0.078125,-0.203125 -0.1875,-0.203125 -0.078125,0 -0.140625,0.03125 -0.171875,0.09375 l -3.46875,9.5 C 0.546875,2.25 0.546875,2.296875 0.546875,2.296875 0.546875,2.40625 0.640625,2.5 0.75,2.5 0.875,2.5 0.90625,2.421875 0.96875,2.25 L 4.375,-7.09375 c 0.046875,-0.140625 0.046875,-0.1875 0.046875,-0.1875 z m 0,0"
               style="stroke:none" />
          </g>
        </g>
        <g
           id="id-c10d6ca2-cbca-46d1-b903-3bb18dd763f1"
           style="fill:#000000;fill-opacity:1">
          <g
             transform="translate(196.554,134.765)"
             id="g4190">
            <path
               id="id-42f531a6-6ef6-4553-8f15-b00547af7b36"
               d="m 8.109375,0 v -0.3125 c -0.515625,0 -0.765625,0 -0.78125,-0.296875 v -1.90625 c 0,-0.859375 0,-1.15625 -0.3125,-1.515625 -0.140625,-0.171875 -0.46875,-0.375 -1.046875,-0.375 -0.828125,0 -1.28125,0.59375 -1.4375,0.984375 C 4.390625,-4.296875 3.65625,-4.40625 3.203125,-4.40625 2.46875,-4.40625 2,-3.984375 1.71875,-3.359375 V -4.40625 L 0.3125,-4.296875 v 0.3125 c 0.703125,0 0.78125,0.0625 0.78125,0.5625 V -0.75 c 0,0.4375 -0.109375,0.4375 -0.78125,0.4375 V 0 L 1.453125,-0.03125 2.5625,0 v -0.3125 c -0.671875,0 -0.78125,0 -0.78125,-0.4375 V -2.59375 C 1.78125,-3.625 2.5,-4.1875 3.125,-4.1875 c 0.640625,0 0.75,0.53125 0.75,1.109375 V -0.75 c 0,0.4375 -0.109375,0.4375 -0.78125,0.4375 V 0 L 4.21875,-0.03125 5.328125,0 v -0.3125 c -0.65625,0 -0.765625,0 -0.765625,-0.4375 v -1.84375 c 0,-1.03125 0.703125,-1.59375 1.34375,-1.59375 0.625,0 0.734375,0.53125 0.734375,1.109375 V -0.75 c 0,0.4375 -0.109375,0.4375 -0.78125,0.4375 V 0 l 1.125,-0.03125 z m 0,0"
               style="stroke:none" />
          </g>
        </g>
      </g>
    </g>
    <rect
       style="fill:none;stroke:#000000;stroke-width:0.264999;stroke-miterlimit:4;stroke-dasharray:none;stroke-dashoffset:0"
       id="rect4022-9"
       width="5.9179945"
       height="5.9179945"
       x="91.18409"
       y="90.895897" />
    <path
       id="path4256"
       d="m 82.514263,82.63682 9.545146,-0.09297 v 0"
       style="fill:none;stroke:#000000;stroke-width:0.15;stroke-linecap:butt;stroke-linejoin:miter;stroke-miterlimit:4;stroke-dasharray:none;stroke-opacity:1" />
    <path
       id="path4258"
       d="m 93.85535,84.418701 v 6.384088"
       style="fill:none;stroke:#000000;stroke-width:0.15;stroke-linecap:butt;stroke-linejoin:miter;stroke-miterlimit:4;stroke-dasharray:none;stroke-opacity:1" />
    <g
       transform="matrix(0.282222,0,0,0.282222,77.955582,83.292205)"
       ns1:version="1.3.1"
       ns1:texconverter="pdflatex"
       ns1:pdfconverter="inkscape"
       ns1:text="$m_1$"
       ns1:preamble="/Users/mbh/Library/Application Support/org.inkscape.Inkscape/config/inkscape/extensions/textext/default_packages.tex"
       ns1:scale="0.8"
       ns1:alignment="middle center"
       ns1:jacobian_sqrt="0.282222"
       id="g4347">
      <defs
         id="id-e5e5d893-4706-4dcb-93da-562167d0daad">
        <g
           id="id-38a579eb-c2dc-4561-b401-297e527cc666">
          <symbol
             id="id-f1db1180-87c7-4ece-8cc4-1e48af5aa816"
             overflow="visible">
            <path
               id="id-29b1046c-45cf-45b2-af14-29f133dfad5f"
               d=""
               style="stroke:none;stroke-width:0" />
          </symbol>
          <symbol
             id="id-56ed59ad-2e41-4e84-ae80-b311f9c0b71e"
             overflow="visible">
            <path
               id="id-10d5f102-c491-49d2-8758-52b4e4dad35d"
               d="m 8.453125,-1.421875 c 0,-0.109375 -0.09375,-0.109375 -0.125,-0.109375 -0.09375,0 -0.09375,0.03125 -0.140625,0.1875 -0.15625,0.53125 -0.46875,1.234375 -1.015625,1.234375 -0.171875,0 -0.25,-0.09375 -0.25,-0.328125 0,-0.25 0.09375,-0.484375 0.1875,-0.703125 0.1875,-0.53125 0.609375,-1.625 0.609375,-2.203125 0,-0.640625 -0.40625,-1.0625 -1.15625,-1.0625 -0.734375,0 -1.25,0.4375 -1.625,0.96875 0,-0.125 -0.03125,-0.46875 -0.3125,-0.703125 -0.25,-0.21875 -0.5625,-0.265625 -0.8125,-0.265625 -0.90625,0 -1.390625,0.640625 -1.5625,0.875 -0.046875,-0.578125 -0.46875,-0.875 -0.921875,-0.875 -0.453125,0 -0.640625,0.390625 -0.734375,0.5625 -0.171875,0.359375 -0.296875,0.9375 -0.296875,0.96875 0,0.109375 0.109375,0.109375 0.109375,0.109375 0.109375,0 0.109375,-0.015625 0.171875,-0.234375 0.171875,-0.703125 0.375,-1.1875 0.734375,-1.1875 0.15625,0 0.296875,0.078125 0.296875,0.453125 0,0.21875 -0.03125,0.328125 -0.15625,0.84375 L 0.875,-0.59375 c -0.03125,0.15625 -0.09375,0.390625 -0.09375,0.4375 0,0.171875 0.140625,0.265625 0.296875,0.265625 0.125,0 0.296875,-0.078125 0.375,-0.28125 0,-0.015625 0.125,-0.484375 0.1875,-0.734375 l 0.21875,-0.890625 C 1.90625,-2.03125 1.96875,-2.25 2.03125,-2.46875 l 0.125,-0.5 c 0.140625,-0.3125 0.671875,-1.21875 1.625,-1.21875 0.453125,0 0.53125,0.375 0.53125,0.703125 0,0.25 -0.0625,0.53125 -0.140625,0.828125 L 3.890625,-1.5 C 3.78125,-1.140625 3.78125,-1.078125 3.6875,-0.75 c -0.03125,0.203125 -0.125,0.546875 -0.125,0.59375 0,0.171875 0.140625,0.265625 0.28125,0.265625 0.3125,0 0.375,-0.25 0.453125,-0.5625 l 0.59375,-2.40625 c 0.03125,-0.125 0.5625,-1.328125 1.65625,-1.328125 0.421875,0 0.53125,0.34375 0.53125,0.703125 0,0.5625 -0.421875,1.703125 -0.625,2.234375 -0.078125,0.234375 -0.125,0.34375 -0.125,0.546875 0,0.46875 0.34375,0.8125 0.8125,0.8125 0.9375,0 1.3125,-1.453125 1.3125,-1.53125 z m 0,0"
               style="stroke:none;stroke-width:0" />
          </symbol>
          <symbol
             id="id-0ac90a0e-e37b-4e59-8d8f-752ae38ede2b"
             overflow="visible">
            <path
               id="id-40e9feb8-dab9-4511-a2f3-7ba3e837c8dc"
               d=""
               style="stroke:none;stroke-width:0" />
          </symbol>
          <symbol
             id="id-116acf20-fdec-4675-affb-b4be67217d76"
             overflow="visible">
            <path
               id="id-1cc73b14-aa16-4e3c-82d5-5906ea2702c8"
               d="M 3.296875,0 V -0.25 H 3.03125 c -0.703125,0 -0.703125,-0.09375 -0.703125,-0.328125 V -4.4375 c 0,-0.1875 0,-0.1875 -0.203125,-0.1875 -0.453125,0.4375 -1.078125,0.4375 -1.359375,0.4375 v 0.25 c 0.15625,0 0.625,0 1,-0.1875 v 3.546875 c 0,0.234375 0,0.328125 -0.6875,0.328125 H 0.8125 V 0 l 1.234375,-0.03125 z m 0,0"
               style="stroke:none;stroke-width:0" />
          </symbol>
        </g>
      </defs>
      <g
         transform="translate(-149.009,-130.359)"
         id="id-8e0a8729-e5d7-4979-881b-5d08a15d9636">
        <g
           id="id-7438e642-a195-4e9e-b4d8-ec25cb69be93"
           style="fill:#000000;fill-opacity:1">
          <g
             transform="translate(148.712,134.765)"
             id="g4339">
            <path
               id="id-082fc0d5-8395-45da-88e0-986efb59c257"
               d="m 8.453125,-1.421875 c 0,-0.109375 -0.09375,-0.109375 -0.125,-0.109375 -0.09375,0 -0.09375,0.03125 -0.140625,0.1875 -0.15625,0.53125 -0.46875,1.234375 -1.015625,1.234375 -0.171875,0 -0.25,-0.09375 -0.25,-0.328125 0,-0.25 0.09375,-0.484375 0.1875,-0.703125 0.1875,-0.53125 0.609375,-1.625 0.609375,-2.203125 0,-0.640625 -0.40625,-1.0625 -1.15625,-1.0625 -0.734375,0 -1.25,0.4375 -1.625,0.96875 0,-0.125 -0.03125,-0.46875 -0.3125,-0.703125 -0.25,-0.21875 -0.5625,-0.265625 -0.8125,-0.265625 -0.90625,0 -1.390625,0.640625 -1.5625,0.875 -0.046875,-0.578125 -0.46875,-0.875 -0.921875,-0.875 -0.453125,0 -0.640625,0.390625 -0.734375,0.5625 -0.171875,0.359375 -0.296875,0.9375 -0.296875,0.96875 0,0.109375 0.109375,0.109375 0.109375,0.109375 0.109375,0 0.109375,-0.015625 0.171875,-0.234375 0.171875,-0.703125 0.375,-1.1875 0.734375,-1.1875 0.15625,0 0.296875,0.078125 0.296875,0.453125 0,0.21875 -0.03125,0.328125 -0.15625,0.84375 L 0.875,-0.59375 c -0.03125,0.15625 -0.09375,0.390625 -0.09375,0.4375 0,0.171875 0.140625,0.265625 0.296875,0.265625 0.125,0 0.296875,-0.078125 0.375,-0.28125 0,-0.015625 0.125,-0.484375 0.1875,-0.734375 l 0.21875,-0.890625 C 1.90625,-2.03125 1.96875,-2.25 2.03125,-2.46875 l 0.125,-0.5 c 0.140625,-0.3125 0.671875,-1.21875 1.625,-1.21875 0.453125,0 0.53125,0.375 0.53125,0.703125 0,0.25 -0.0625,0.53125 -0.140625,0.828125 L 3.890625,-1.5 C 3.78125,-1.140625 3.78125,-1.078125 3.6875,-0.75 c -0.03125,0.203125 -0.125,0.546875 -0.125,0.59375 0,0.171875 0.140625,0.265625 0.28125,0.265625 0.3125,0 0.375,-0.25 0.453125,-0.5625 l 0.59375,-2.40625 c 0.03125,-0.125 0.5625,-1.328125 1.65625,-1.328125 0.421875,0 0.53125,0.34375 0.53125,0.703125 0,0.5625 -0.421875,1.703125 -0.625,2.234375 -0.078125,0.234375 -0.125,0.34375 -0.125,0.546875 0,0.46875 0.34375,0.8125 0.8125,0.8125 0.9375,0 1.3125,-1.453125 1.3125,-1.53125 z m 0,0"
               style="stroke:none;stroke-width:0" />
          </g>
        </g>
        <g
           id="id-d2db2e3a-2af9-4f5a-942b-2fb0a824258b"
           style="fill:#000000;fill-opacity:1">
          <g
             transform="translate(157.46,136.259)"
             id="g4343">
            <path
               id="id-b39a6cd6-a529-4bf7-9688-6b9aecb24baa"
               d="M 3.296875,0 V -0.25 H 3.03125 c -0.703125,0 -0.703125,-0.09375 -0.703125,-0.328125 V -4.4375 c 0,-0.1875 0,-0.1875 -0.203125,-0.1875 -0.453125,0.4375 -1.078125,0.4375 -1.359375,0.4375 v 0.25 c 0.15625,0 0.625,0 1,-0.1875 v 3.546875 c 0,0.234375 0,0.328125 -0.6875,0.328125 H 0.8125 V 0 l 1.234375,-0.03125 z m 0,0"
               style="stroke:none;stroke-width:0" />
          </g>
        </g>
      </g>
    </g>
    <g
       transform="matrix(0.282222,0,0,0.282222,92.439492,93.085263)"
       ns1:version="1.3.1"
       ns1:texconverter="pdflatex"
       ns1:pdfconverter="inkscape"
       ns1:text="$m_2$"
       ns1:preamble="/Users/mbh/Library/Application Support/org.inkscape.Inkscape/config/inkscape/extensions/textext/default_packages.tex"
       ns1:scale="0.8"
       ns1:alignment="middle center"
       ns1:jacobian_sqrt="0.282222"
       id="g4474">
      <defs
         id="id-6902e5c7-6fe7-40d8-a862-09728d21dd38">
        <g
           id="id-c6da2087-bde0-44bd-9709-354f0f07e575">
          <symbol
             id="id-a3252807-04d6-4cd4-9286-5561c9061b1b"
             overflow="visible">
            <path
               id="id-1c1e569c-0825-438a-b51c-98456eb9448f"
               d=""
               style="stroke:none;stroke-width:0" />
          </symbol>
          <symbol
             id="id-118ab73b-f22f-49f6-8d7d-4057161fc13c"
             overflow="visible">
            <path
               id="id-754fd6fd-b9b5-40c5-a4bf-8dc7170044b3"
               d="m 8.453125,-1.421875 c 0,-0.109375 -0.09375,-0.109375 -0.125,-0.109375 -0.09375,0 -0.09375,0.03125 -0.140625,0.1875 -0.15625,0.53125 -0.46875,1.234375 -1.015625,1.234375 -0.171875,0 -0.25,-0.09375 -0.25,-0.328125 0,-0.25 0.09375,-0.484375 0.1875,-0.703125 0.1875,-0.53125 0.609375,-1.625 0.609375,-2.203125 0,-0.640625 -0.40625,-1.0625 -1.15625,-1.0625 -0.734375,0 -1.25,0.4375 -1.625,0.96875 0,-0.125 -0.03125,-0.46875 -0.3125,-0.703125 -0.25,-0.21875 -0.5625,-0.265625 -0.8125,-0.265625 -0.90625,0 -1.390625,0.640625 -1.5625,0.875 -0.046875,-0.578125 -0.46875,-0.875 -0.921875,-0.875 -0.453125,0 -0.640625,0.390625 -0.734375,0.5625 -0.171875,0.359375 -0.296875,0.9375 -0.296875,0.96875 0,0.109375 0.109375,0.109375 0.109375,0.109375 0.109375,0 0.109375,-0.015625 0.171875,-0.234375 0.171875,-0.703125 0.375,-1.1875 0.734375,-1.1875 0.15625,0 0.296875,0.078125 0.296875,0.453125 0,0.21875 -0.03125,0.328125 -0.15625,0.84375 L 0.875,-0.59375 c -0.03125,0.15625 -0.09375,0.390625 -0.09375,0.4375 0,0.171875 0.140625,0.265625 0.296875,0.265625 0.125,0 0.296875,-0.078125 0.375,-0.28125 0,-0.015625 0.125,-0.484375 0.1875,-0.734375 l 0.21875,-0.890625 C 1.90625,-2.03125 1.96875,-2.25 2.03125,-2.46875 l 0.125,-0.5 c 0.140625,-0.3125 0.671875,-1.21875 1.625,-1.21875 0.453125,0 0.53125,0.375 0.53125,0.703125 0,0.25 -0.0625,0.53125 -0.140625,0.828125 L 3.890625,-1.5 C 3.78125,-1.140625 3.78125,-1.078125 3.6875,-0.75 c -0.03125,0.203125 -0.125,0.546875 -0.125,0.59375 0,0.171875 0.140625,0.265625 0.28125,0.265625 0.3125,0 0.375,-0.25 0.453125,-0.5625 l 0.59375,-2.40625 c 0.03125,-0.125 0.5625,-1.328125 1.65625,-1.328125 0.421875,0 0.53125,0.34375 0.53125,0.703125 0,0.5625 -0.421875,1.703125 -0.625,2.234375 -0.078125,0.234375 -0.125,0.34375 -0.125,0.546875 0,0.46875 0.34375,0.8125 0.8125,0.8125 0.9375,0 1.3125,-1.453125 1.3125,-1.53125 z m 0,0"
               style="stroke:none;stroke-width:0" />
          </symbol>
          <symbol
             id="id-fa364803-91b7-4657-9cdc-fb945957f261"
             overflow="visible">
            <path
               id="id-6ba30e86-b8cf-45d7-9453-3a83af04533d"
               d=""
               style="stroke:none;stroke-width:0" />
          </symbol>
          <symbol
             id="id-2a74a513-efdc-4dbc-a6f8-6e2b75278d5d"
             overflow="visible">
            <path
               id="id-329a0295-dc24-43d5-ab47-58bb3ae2b427"
               d="M 3.515625,-1.265625 H 3.28125 c -0.015625,0.15625 -0.09375,0.5625 -0.1875,0.625 C 3.046875,-0.59375 2.515625,-0.59375 2.40625,-0.59375 H 1.125 c 0.734375,-0.640625 0.984375,-0.84375 1.390625,-1.171875 0.515625,-0.40625 1,-0.84375 1,-1.5 0,-0.84375 -0.734375,-1.359375 -1.625,-1.359375 -0.859375,0 -1.453125,0.609375 -1.453125,1.25 0,0.34375 0.296875,0.390625 0.375,0.390625 0.15625,0 0.359375,-0.125 0.359375,-0.375 0,-0.125 -0.046875,-0.375 -0.40625,-0.375 C 0.984375,-4.21875 1.453125,-4.375 1.78125,-4.375 c 0.703125,0 1.0625,0.546875 1.0625,1.109375 0,0.609375 -0.4375,1.078125 -0.65625,1.328125 L 0.515625,-0.265625 C 0.4375,-0.203125 0.4375,-0.1875 0.4375,0 h 2.875 z m 0,0"
               style="stroke:none;stroke-width:0" />
          </symbol>
        </g>
      </defs>
      <g
         transform="translate(-149.009,-130.359)"
         id="id-fc5302da-a8e3-45da-b1c8-d00405da7037">
        <g
           id="id-2570d674-25c4-41ff-949f-4f09561e88b3"
           style="fill:#000000;fill-opacity:1">
          <g
             transform="translate(148.712,134.765)"
             id="g4466">
            <path
               id="id-08823e01-e789-498d-9dd7-3449dfa9afad"
               d="m 8.453125,-1.421875 c 0,-0.109375 -0.09375,-0.109375 -0.125,-0.109375 -0.09375,0 -0.09375,0.03125 -0.140625,0.1875 -0.15625,0.53125 -0.46875,1.234375 -1.015625,1.234375 -0.171875,0 -0.25,-0.09375 -0.25,-0.328125 0,-0.25 0.09375,-0.484375 0.1875,-0.703125 0.1875,-0.53125 0.609375,-1.625 0.609375,-2.203125 0,-0.640625 -0.40625,-1.0625 -1.15625,-1.0625 -0.734375,0 -1.25,0.4375 -1.625,0.96875 0,-0.125 -0.03125,-0.46875 -0.3125,-0.703125 -0.25,-0.21875 -0.5625,-0.265625 -0.8125,-0.265625 -0.90625,0 -1.390625,0.640625 -1.5625,0.875 -0.046875,-0.578125 -0.46875,-0.875 -0.921875,-0.875 -0.453125,0 -0.640625,0.390625 -0.734375,0.5625 -0.171875,0.359375 -0.296875,0.9375 -0.296875,0.96875 0,0.109375 0.109375,0.109375 0.109375,0.109375 0.109375,0 0.109375,-0.015625 0.171875,-0.234375 0.171875,-0.703125 0.375,-1.1875 0.734375,-1.1875 0.15625,0 0.296875,0.078125 0.296875,0.453125 0,0.21875 -0.03125,0.328125 -0.15625,0.84375 L 0.875,-0.59375 c -0.03125,0.15625 -0.09375,0.390625 -0.09375,0.4375 0,0.171875 0.140625,0.265625 0.296875,0.265625 0.125,0 0.296875,-0.078125 0.375,-0.28125 0,-0.015625 0.125,-0.484375 0.1875,-0.734375 l 0.21875,-0.890625 C 1.90625,-2.03125 1.96875,-2.25 2.03125,-2.46875 l 0.125,-0.5 c 0.140625,-0.3125 0.671875,-1.21875 1.625,-1.21875 0.453125,0 0.53125,0.375 0.53125,0.703125 0,0.25 -0.0625,0.53125 -0.140625,0.828125 L 3.890625,-1.5 C 3.78125,-1.140625 3.78125,-1.078125 3.6875,-0.75 c -0.03125,0.203125 -0.125,0.546875 -0.125,0.59375 0,0.171875 0.140625,0.265625 0.28125,0.265625 0.3125,0 0.375,-0.25 0.453125,-0.5625 l 0.59375,-2.40625 c 0.03125,-0.125 0.5625,-1.328125 1.65625,-1.328125 0.421875,0 0.53125,0.34375 0.53125,0.703125 0,0.5625 -0.421875,1.703125 -0.625,2.234375 -0.078125,0.234375 -0.125,0.34375 -0.125,0.546875 0,0.46875 0.34375,0.8125 0.8125,0.8125 0.9375,0 1.3125,-1.453125 1.3125,-1.53125 z m 0,0"
               style="stroke:none;stroke-width:0" />
          </g>
        </g>
        <g
           id="id-09b80ed0-831f-49e6-a735-0afc44494989"
           style="fill:#000000;fill-opacity:1">
          <g
             transform="translate(157.46,136.259)"
             id="g4470">
            <path
               id="id-d949cbe8-fbac-4e9d-9b6f-c4c274907976"
               d="M 3.515625,-1.265625 H 3.28125 c -0.015625,0.15625 -0.09375,0.5625 -0.1875,0.625 C 3.046875,-0.59375 2.515625,-0.59375 2.40625,-0.59375 H 1.125 c 0.734375,-0.640625 0.984375,-0.84375 1.390625,-1.171875 0.515625,-0.40625 1,-0.84375 1,-1.5 0,-0.84375 -0.734375,-1.359375 -1.625,-1.359375 -0.859375,0 -1.453125,0.609375 -1.453125,1.25 0,0.34375 0.296875,0.390625 0.375,0.390625 0.15625,0 0.359375,-0.125 0.359375,-0.375 0,-0.125 -0.046875,-0.375 -0.40625,-0.375 C 0.984375,-4.21875 1.453125,-4.375 1.78125,-4.375 c 0.703125,0 1.0625,0.546875 1.0625,1.109375 0,0.609375 -0.4375,1.078125 -0.65625,1.328125 L 0.515625,-0.265625 C 0.4375,-0.203125 0.4375,-0.1875 0.4375,0 h 2.875 z m 0,0"
               style="stroke:none;stroke-width:0" />
          </g>
        </g>
      </g>
    </g>
    <circle
       r="0.45940417"
       cy="84.389442"
       cx="91.994682"
       id="path4514"
       style="fill:#000000;fill-opacity:1;stroke:#000000;stroke-width:0.109687;stroke-miterlimit:4;stroke-dasharray:none;stroke-dashoffset:0" />
  </g>
</svg>
