<?xml version="1.0" encoding="UTF-8" standalone="no"?>
<svg
   xmlns:dc="http://purl.org/dc/elements/1.1/"
   xmlns:cc="http://creativecommons.org/ns#"
   xmlns:rdf="http://www.w3.org/1999/02/22-rdf-syntax-ns#"
   xmlns:svg="http://www.w3.org/2000/svg"
   xmlns="http://www.w3.org/2000/svg"
   xmlns:sodipodi="http://sodipodi.sourceforge.net/DTD/sodipodi-0.dtd"
   xmlns:inkscape="http://www.inkscape.org/namespaces/inkscape"
   sodipodi:docname="sokkva-hjarta.svg"
   inkscape:version="1.0 (4035a4f, 2020-05-01)"
   id="svg919"
   version="1.1"
   viewBox="0 0 210 297"
   height="297mm"
   width="210mm">
  <defs
     id="defs913">
    <g
       id="id-7396df7e-e4a4-4ecc-8d36-311f2d073386">
      <symbol
         id="id-34647ba8-5458-48d1-afc5-6b473006754e"
         overflow="visible">
        <path
           id="id-890aec51-a38a-4656-9f95-37fa78c226de"
           d=""
           style="stroke:none;stroke-width:0" />
      </symbol>
      <symbol
         id="id-e90dd744-adfc-48cc-af99-3fd38f57ee4d"
         overflow="visible">
        <path
           id="id-f05feda3-934e-44e8-8997-e5680eec624d"
           d="m 4.9375,-1.421875 c 0,-0.109375 -0.078125,-0.109375 -0.109375,-0.109375 -0.09375,0 -0.109375,0.046875 -0.140625,0.109375 -0.328125,1.078125 -1,1.3125 -1.3125,1.3125 -0.390625,0 -0.546875,-0.3125 -0.546875,-0.65625 0,-0.21875 0.046875,-0.4375 0.15625,-0.875 l 0.34375,-1.375 C 3.390625,-3.265625 3.625,-4.1875 4.3125,-4.1875 c 0.046875,0 0.296875,0 0.5,0.125 C 4.53125,-4 4.34375,-3.765625 4.34375,-3.515625 c 0,0.15625 0.109375,0.34375 0.375,0.34375 0.21875,0 0.53125,-0.171875 0.53125,-0.578125 0,-0.515625 -0.578125,-0.65625 -0.921875,-0.65625 -0.578125,0 -0.921875,0.53125 -1.046875,0.75 -0.25,-0.65625 -0.78125,-0.75 -1.078125,-0.75 -1.03125,0 -1.609375,1.28125 -1.609375,1.53125 0,0.109375 0.125,0.109375 0.125,0.109375 0.078125,0 0.109375,-0.03125 0.125,-0.109375 0.34375,-1.0625 1,-1.3125 1.34375,-1.3125 0.1875,0 0.53125,0.09375 0.53125,0.671875 0,0.3125 -0.171875,0.96875 -0.53125,2.375 -0.15625,0.609375 -0.515625,1.03125 -0.953125,1.03125 -0.0625,0 -0.28125,0 -0.5,-0.125 0.25,-0.0625 0.46875,-0.265625 0.46875,-0.546875 0,-0.265625 -0.21875,-0.34375 -0.359375,-0.34375 -0.3125,0 -0.546875,0.25 -0.546875,0.578125 0,0.453125 0.484375,0.65625 0.921875,0.65625 0.671875,0 1.03125,-0.703125 1.046875,-0.75 0.125,0.359375 0.484375,0.75 1.078125,0.75 1.03125,0 1.59375,-1.28125 1.59375,-1.53125 z m 0,0"
           style="stroke:none;stroke-width:0" />
      </symbol>
    </g>
  </defs>
  <sodipodi:namedview
     inkscape:window-maximized="0"
     inkscape:window-y="25"
     inkscape:window-x="0"
     inkscape:window-height="847"
     inkscape:window-width="1252"
     showgrid="false"
     inkscape:document-rotation="0"
     inkscape:current-layer="layer1"
     inkscape:document-units="mm"
     inkscape:cy="478.15946"
     inkscape:cx="341.26342"
     inkscape:zoom="2.6622698"
     inkscape:pageshadow="2"
     inkscape:pageopacity="0.0"
     borderopacity="1.0"
     bordercolor="#666666"
     pagecolor="#ffffff"
     id="base" />
  <metadata
     id="metadata916">
    <rdf:RDF>
      <cc:Work
         rdf:about="">
        <dc:format>image/svg+xml</dc:format>
        <dc:type
           rdf:resource="http://purl.org/dc/dcmitype/StillImage" />
        <dc:title></dc:title>
      </cc:Work>
    </rdf:RDF>
  </metadata>
  <g
     id="layer1"
     inkscape:groupmode="layer"
     inkscape:label="Layer 1">
    <g
       transform="matrix(0.08782743,0,0,0.08782743,94.568875,118.44075)"
       id="g1577">
      <g
         id="#fefefeff">
        <path
           fill="#fefefe"
           opacity="1"
           d="M 0,0 H 80 V 80 H 0 V 0 m 6.59,15.61 c -2.95,6.1 -1.86,13.26 0.46,19.38 4.8,12.42 14.08,22.34 23.35,31.6 3.23,3.28 6.29,6.85 10.38,9.11 C 50.8,65.37 61.86,55.72 69.21,43.17 72.5,37.3 75.6,30.89 75.44,24 75.56,18.9 73.47,13.74 69.7,10.29 64.05,5.12 55.18,3.97 48.32,7.27 44.77,8.92 42.39,12.13 40.03,15.11 38.27,12.85 36.57,10.46 34.24,8.73 25.51,2.1 11.25,5.72 6.59,15.61 Z"
           id="path1556" />
        <path
           fill="#fefefe"
           opacity="1"
           d="m 9.77,18.65 c 2.72,-8.09 13.08,-11.34 20.46,-7.77 4.65,2.87 6.98,8.08 9.85,12.51 3.1,-4.78 5.56,-10.86 11.26,-13.07 5.15,-1.58 11.42,-1 15.44,2.87 3.59,3.16 5.16,8.17 4.63,12.85 -0.64,5.8 -3.39,11.08 -6.37,16 C 58.4,52.83 49.21,61.7 40.07,70.35 30.95,61.33 21.43,52.44 14.66,41.42 10.61,34.69 7.74,26.53 9.77,18.65 Z"
           id="path1558" />
      </g>
      <g
         id="#010101ff">
        <path
           fill="#010101"
           opacity="1"
           d="M 6.59,15.61 C 11.25,5.72 25.51,2.1 34.24,8.73 c 2.33,1.73 4.03,4.12 5.79,6.38 2.36,-2.98 4.74,-6.19 8.29,-7.84 6.86,-3.3 15.73,-2.15 21.38,3.02 3.77,3.45 5.86,8.61 5.74,13.71 C 75.6,30.89 72.5,37.3 69.21,43.17 61.86,55.72 50.8,65.37 40.78,75.7 36.69,73.44 33.63,69.87 30.4,66.59 21.13,57.33 11.85,47.41 7.05,34.99 4.73,28.87 3.64,21.71 6.59,15.61 m 3.18,3.04 c -2.03,7.88 0.84,16.04 4.89,22.77 6.77,11.02 16.29,19.91 25.41,28.93 9.14,-8.65 18.33,-17.52 24.97,-28.31 2.98,-4.92 5.73,-10.2 6.37,-16 C 71.94,21.36 70.37,16.35 66.78,13.19 62.76,9.32 56.49,8.74 51.34,10.32 45.64,12.53 43.18,18.61 40.08,23.39 37.21,18.96 34.88,13.75 30.23,10.88 22.85,7.31 12.49,10.56 9.77,18.65 Z"
           id="path1561" />
      </g>
    </g>
    <path
       style="fill:none;stroke:#000000;stroke-width:0.3;stroke-linecap:butt;stroke-linejoin:miter;stroke-miterlimit:4;stroke-dasharray:none;stroke-opacity:1"
       d="m 88.441808,111.74738 v 30.63731"
       id="path852" />
    <path
       style="fill:none;stroke:#000000;stroke-width:0.3;stroke-linecap:butt;stroke-linejoin:miter;stroke-miterlimit:4;stroke-dasharray:none;stroke-opacity:1"
       d="m 88.4111,117.87428 c 1.223437,0.25536 2.90386,-0.92344 4.090693,-0.52783 0.873551,0.29118 2.162129,1.25866 3.166989,0.92371 1.32431,-0.44144 2.48003,-1.13495 3.95873,-0.92371 1.173948,0.16771 2.032688,1.26671 3.298948,1.05566 1.41583,-0.23597 2.12422,-1.31957 3.56286,-1.31957"
       id="path892" />
    <path
       id="path852-6"
       d="m 106.43729,111.77012 v 30.63732"
       style="fill:none;stroke:#000000;stroke-width:0.3;stroke-linecap:butt;stroke-linejoin:miter;stroke-miterlimit:4;stroke-dasharray:none;stroke-opacity:1" />
    <path
       style="fill:none;stroke:#000000;stroke-width:0.264583px;stroke-linecap:butt;stroke-linejoin:miter;stroke-opacity:1"
       d="m 88.441806,142.38469 17.995484,0.0228"
       id="path1554" />
  </g>
</svg>
