<?xml version="1.0" encoding="UTF-8" standalone="no"?>
<svg
   xmlns:ns1="http://www.iki.fi/pav/software/textext/"
   xmlns:dc="http://purl.org/dc/elements/1.1/"
   xmlns:cc="http://creativecommons.org/ns#"
   xmlns:rdf="http://www.w3.org/1999/02/22-rdf-syntax-ns#"
   xmlns:svg="http://www.w3.org/2000/svg"
   xmlns="http://www.w3.org/2000/svg"
   xmlns:sodipodi="http://sodipodi.sourceforge.net/DTD/sodipodi-0.dtd"
   xmlns:inkscape="http://www.inkscape.org/namespaces/inkscape"
   sodipodi:docname="vkasta.svg"
   inkscape:version="1.0 (4035a4f, 2020-05-01)"
   width="210mm"
   height="297mm"
   viewBox="0 0 210 297"
   version="1.1"
   id="svg892">
  <defs
     id="defs886">
    <marker
       inkscape:stockid="Arrow2Mend"
       orient="auto"
       refY="0.0"
       refX="0.0"
       id="marker1870"
       style="overflow:visible;"
       inkscape:isstock="true">
      <path
         id="path1868"
         style="fill-rule:evenodd;stroke-width:0.625;stroke-linejoin:round;stroke:#000000;stroke-opacity:1;fill:#000000;fill-opacity:1"
         d="M 8.7185878,4.0337352 L -2.2072895,0.016013256 L 8.7185884,-4.0017078 C 6.9730900,-1.6296469 6.9831476,1.6157441 8.7185878,4.0337352 z "
         transform="scale(0.6) rotate(180) translate(0,0)" />
    </marker>
    <marker
       inkscape:collect="always"
       inkscape:isstock="true"
       style="overflow:visible;"
       id="Arrow2Mend"
       refX="0.0"
       refY="0.0"
       orient="auto"
       inkscape:stockid="Arrow2Mend">
      <path
         transform="scale(0.6) rotate(180) translate(0,0)"
         d="M 8.7185878,4.0337352 L -2.2072895,0.016013256 L 8.7185884,-4.0017078 C 6.9730900,-1.6296469 6.9831476,1.6157441 8.7185878,4.0337352 z "
         style="fill-rule:evenodd;stroke-width:0.625;stroke-linejoin:round;stroke:#000000;stroke-opacity:1;fill:#000000;fill-opacity:1"
         id="path1507" />
    </marker>
    <marker
       inkscape:isstock="true"
       style="overflow:visible;"
       id="Arrow1Send"
       refX="0.0"
       refY="0.0"
       orient="auto"
       inkscape:stockid="Arrow1Send">
      <path
         transform="scale(0.2) rotate(180) translate(6,0)"
         style="fill-rule:evenodd;stroke:#000000;stroke-width:1pt;stroke-opacity:1;fill:#000000;fill-opacity:1"
         d="M 0.0,0.0 L 5.0,-5.0 L -12.5,0.0 L 5.0,5.0 L 0.0,0.0 z "
         id="path1495" />
    </marker>
    <marker
       inkscape:isstock="true"
       style="overflow:visible;"
       id="Arrow1Mend"
       refX="0.0"
       refY="0.0"
       orient="auto"
       inkscape:stockid="Arrow1Mend">
      <path
         transform="scale(0.4) rotate(180) translate(10,0)"
         style="fill-rule:evenodd;stroke:#000000;stroke-width:1pt;stroke-opacity:1;fill:#000000;fill-opacity:1"
         d="M 0.0,0.0 L 5.0,-5.0 L -12.5,0.0 L 5.0,5.0 L 0.0,0.0 z "
         id="path1489" />
    </marker>
  </defs>
  <sodipodi:namedview
     inkscape:window-maximized="0"
     inkscape:window-y="84"
     inkscape:window-x="125"
     inkscape:window-height="847"
     inkscape:window-width="1252"
     showgrid="false"
     inkscape:document-rotation="0"
     inkscape:current-layer="layer1"
     inkscape:document-units="mm"
     inkscape:cy="282.27527"
     inkscape:cx="314.19213"
     inkscape:zoom="4.9252959"
     inkscape:pageshadow="2"
     inkscape:pageopacity="0.0"
     borderopacity="1.0"
     bordercolor="#666666"
     pagecolor="#ffffff"
     id="base" />
  <metadata
     id="metadata889">
    <rdf:RDF>
      <cc:Work
         rdf:about="">
        <dc:format>image/svg+xml</dc:format>
        <dc:type
           rdf:resource="http://purl.org/dc/dcmitype/StillImage" />
        <dc:title></dc:title>
      </cc:Work>
    </rdf:RDF>
  </metadata>
  <g
     id="layer1"
     inkscape:groupmode="layer"
     inkscape:label="Layer 1">
    <circle
       r="13.359855"
       cy="72.949051"
       cx="86.09684"
       id="path1455"
       style="fill:none;stroke:#000000;stroke-width:0.264999" />
    <circle
       r="0.54938102"
       cy="72.921181"
       cx="86.106331"
       id="path1457"
       style="fill:#000000;stroke:#000000;stroke-width:0.265;stroke-miterlimit:4;stroke-dasharray:none" />
    <circle
       style="fill:#000000;stroke:#000000;stroke-width:0.170248;stroke-miterlimit:4;stroke-dasharray:none"
       id="path1457-9"
       cx="85.779121"
       cy="85.966957"
       r="0.35294795" />
    <path
       id="path1476"
       d="M 86.113235,72.411187 V 85.820665"
       style="fill:none;stroke:#000000;stroke-width:0.264583;stroke-linecap:butt;stroke-linejoin:miter;stroke-miterlimit:4;stroke-dasharray:0.793749, 0.793749;stroke-dashoffset:0;stroke-opacity:1" />
    <path
       id="path1478"
       d="M 85.573035,85.91784 81.845297,80.592716"
       style="fill:none;stroke:#000000;stroke-width:0.25;stroke-linecap:butt;stroke-linejoin:miter;stroke-opacity:1;marker-end:url(#Arrow2Mend);stroke-miterlimit:4;stroke-dasharray:none" />
    <g
       transform="matrix(0.32668762,-0.13314471,0.13314471,0.32668762,83.894028,82.041238)"
       ns1:version="1.3.1"
       ns1:texconverter="pdflatex"
       ns1:pdfconverter="inkscape"
       ns1:text="$\\theta$"
       ns1:preamble="/Users/mbh/Library/Application Support/org.inkscape.Inkscape/config/inkscape/extensions/textext/default_packages.tex"
       ns1:scale="1.0"
       ns1:alignment="middle center"
       ns1:jacobian_sqrt="0.352778"
       id="g1851">
      <defs
         id="id-e7d850d3-3705-4774-8a73-a98c0868ec39">
        <g
           id="id-2eedbdaf-4d53-4322-84e3-7c9d96ab248c">
          <symbol
             id="id-4c8d88e0-6538-4289-bafe-97d0c83626f4"
             overflow="visible">
            <path
               id="id-f95d7f9b-507d-4e90-b08c-7d70ab72a381"
               d=""
               style="stroke:none;stroke-width:0" />
          </symbol>
          <symbol
             id="id-3427bfbe-872f-48e7-9010-35f9e559bc52"
             overflow="visible">
            <path
               id="id-cb670d01-3f07-4040-b0d7-3efd2c481c28"
               d="m 4.53125,-4.984375 c 0,-0.65625 -0.171875,-2.046875 -1.1875,-2.046875 -1.390625,0 -2.921875,2.8125 -2.921875,5.09375 0,0.9375 0.28125,2.046875 1.1875,2.046875 1.40625,0 2.921875,-2.859375 2.921875,-5.09375 z M 3.5625,-3.625 H 1.46875 C 1.640625,-4.25 1.84375,-5.046875 2.25,-5.765625 2.515625,-6.25 2.875,-6.8125 3.328125,-6.8125 c 0.484375,0 0.546875,0.640625 0.546875,1.203125 0,0.5 -0.078125,1 -0.3125,1.984375 z M 3.46875,-3.296875 C 3.359375,-2.84375 3.15625,-2 2.765625,-1.28125 c -0.34375,0.6875 -0.71875,1.171875 -1.15625,1.171875 -0.328125,0 -0.53125,-0.296875 -0.53125,-1.21875 0,-0.421875 0.0625,-1 0.3125,-1.96875 z m 0,0"
               style="stroke:none;stroke-width:0" />
          </symbol>
        </g>
      </defs>
      <g
         transform="translate(-149.134,-127.734)"
         id="id-9e468850-d1b9-4201-9756-2a6eeb383d04">
        <g
           id="id-0fb46208-7cb5-40d1-b3f2-b8a1009fbf97"
           style="fill:#000000;fill-opacity:1">
          <g
             transform="translate(148.712,134.765)"
             id="g1847">
            <path
               id="id-c03d3ff5-1aaf-46e5-b5a8-bec24e0c5e91"
               d="m 4.53125,-4.984375 c 0,-0.65625 -0.171875,-2.046875 -1.1875,-2.046875 -1.390625,0 -2.921875,2.8125 -2.921875,5.09375 0,0.9375 0.28125,2.046875 1.1875,2.046875 1.40625,0 2.921875,-2.859375 2.921875,-5.09375 z M 3.5625,-3.625 H 1.46875 C 1.640625,-4.25 1.84375,-5.046875 2.25,-5.765625 2.515625,-6.25 2.875,-6.8125 3.328125,-6.8125 c 0.484375,0 0.546875,0.640625 0.546875,1.203125 0,0.5 -0.078125,1 -0.3125,1.984375 z M 3.46875,-3.296875 C 3.359375,-2.84375 3.15625,-2 2.765625,-1.28125 c -0.34375,0.6875 -0.71875,1.171875 -1.15625,1.171875 -0.328125,0 -0.53125,-0.296875 -0.53125,-1.21875 0,-0.421875 0.0625,-1 0.3125,-1.96875 z m 0,0"
               style="stroke:none;stroke-width:0" />
          </g>
        </g>
      </g>
    </g>
    <path
       id="path1866"
       d="m 89.855232,73.978298 c 0.189675,-1.972302 -0.46791,-2.951099 -2.326791,-3.627056"
       style="fill:none;stroke:#000000;stroke-width:0.26458300000000001px;stroke-linecap:butt;stroke-linejoin:miter;stroke-opacity:1;marker-end:url(#marker1870)" />
    <g
       transform="matrix(0.352778,0,0,0.352778,90.557968,70.651245)"
       ns1:version="1.3.1"
       ns1:texconverter="pdflatex"
       ns1:pdfconverter="inkscape"
       ns1:text="$\\omega$"
       ns1:preamble="/Users/mbh/Library/Application Support/org.inkscape.Inkscape/config/inkscape/extensions/textext/default_packages.tex"
       ns1:scale="1.0"
       ns1:alignment="middle center"
       ns1:jacobian_sqrt="0.352778"
       id="g1947">
      <defs
         id="id-a0e9d604-1418-4c7d-8d49-e27c7a219f10">
        <g
           id="id-e9631962-0109-4d14-b021-35af8d6e3ef7">
          <symbol
             id="id-0fb8957a-9fc9-4a7f-99c7-07cc58e1f8a3"
             overflow="visible">
            <path
               id="id-8ddd4ad4-6250-402c-a9cb-cc255dc67e79"
               d=""
               style="stroke:none;stroke-width:0" />
          </symbol>
          <symbol
             id="id-be7d4013-e326-4cd7-99ea-2b2a6426264a"
             overflow="visible">
            <path
               id="id-fd7873d2-9680-4e98-b901-13490d0cf194"
               d="M 5.796875,-2.375 C 5.90625,-2.8125 6.015625,-3.3125 6.015625,-3.703125 6.015625,-3.96875 5.96875,-4.1875 5.828125,-4.3125 5.765625,-4.375 5.6875,-4.40625 5.59375,-4.40625 c -0.125,0 -0.25,0.0625 -0.34375,0.15625 -0.09375,0.109375 -0.140625,0.21875 -0.140625,0.328125 0,0.09375 0.03125,0.171875 0.109375,0.25 0.25,0.21875 0.375,0.515625 0.375,0.875 0,0.109375 -0.015625,0.25 -0.046875,0.359375 -0.21875,0.90625 -0.796875,1.828125 -1.59375,1.828125 -0.546875,0 -0.875,-0.375 -0.96875,-0.890625 0.125,-0.28125 0.21875,-0.578125 0.296875,-0.875 0.015625,-0.09375 0.03125,-0.1875 0.03125,-0.265625 0,-0.15625 -0.046875,-0.265625 -0.1875,-0.265625 -0.1875,0 -0.28125,0.25 -0.328125,0.46875 C 2.71875,-2.125 2.671875,-1.828125 2.65625,-1.53125 2.328125,-1 1.859375,-0.609375 1.3125,-0.609375 c -0.609375,0 -0.875,-0.5 -0.875,-1.125 C 0.4375,-1.9375 0.46875,-2.15625 0.515625,-2.375 0.671875,-2.984375 1.03125,-3.53125 1.40625,-4.0625 1.4375,-4.109375 1.453125,-4.15625 1.453125,-4.203125 1.453125,-4.25 1.421875,-4.3125 1.359375,-4.34375 1.328125,-4.359375 1.3125,-4.359375 1.28125,-4.359375 c -0.0625,0 -0.140625,0.03125 -0.1875,0.09375 C 0.6875,-3.703125 0.4375,-3.0625 0.28125,-2.4375 0.171875,-2.046875 0.125,-1.671875 0.125,-1.3125 c 0,0.796875 0.296875,1.421875 1.046875,1.421875 0.625,0 1.15625,-0.4375 1.53125,-1.0625 0.109375,0.625 0.453125,1.0625 1.125,1.0625 1.03125,0 1.671875,-1.28125 1.96875,-2.484375 z m 0,0"
               style="stroke:none;stroke-width:0" />
          </symbol>
        </g>
      </defs>
      <g
         transform="translate(-148.837,-130.359)"
         id="id-0e744067-99c9-47d9-8741-417e72b67d6d">
        <g
           id="id-10df4cad-58f7-4949-acfb-808462d46017"
           style="fill:#000000;fill-opacity:1">
          <g
             transform="translate(148.712,134.765)"
             id="g1943">
            <path
               id="id-ce17deb6-b28e-475b-afe3-aef75ba05a6b"
               d="M 5.796875,-2.375 C 5.90625,-2.8125 6.015625,-3.3125 6.015625,-3.703125 6.015625,-3.96875 5.96875,-4.1875 5.828125,-4.3125 5.765625,-4.375 5.6875,-4.40625 5.59375,-4.40625 c -0.125,0 -0.25,0.0625 -0.34375,0.15625 -0.09375,0.109375 -0.140625,0.21875 -0.140625,0.328125 0,0.09375 0.03125,0.171875 0.109375,0.25 0.25,0.21875 0.375,0.515625 0.375,0.875 0,0.109375 -0.015625,0.25 -0.046875,0.359375 -0.21875,0.90625 -0.796875,1.828125 -1.59375,1.828125 -0.546875,0 -0.875,-0.375 -0.96875,-0.890625 0.125,-0.28125 0.21875,-0.578125 0.296875,-0.875 0.015625,-0.09375 0.03125,-0.1875 0.03125,-0.265625 0,-0.15625 -0.046875,-0.265625 -0.1875,-0.265625 -0.1875,0 -0.28125,0.25 -0.328125,0.46875 C 2.71875,-2.125 2.671875,-1.828125 2.65625,-1.53125 2.328125,-1 1.859375,-0.609375 1.3125,-0.609375 c -0.609375,0 -0.875,-0.5 -0.875,-1.125 C 0.4375,-1.9375 0.46875,-2.15625 0.515625,-2.375 0.671875,-2.984375 1.03125,-3.53125 1.40625,-4.0625 1.4375,-4.109375 1.453125,-4.15625 1.453125,-4.203125 1.453125,-4.25 1.421875,-4.3125 1.359375,-4.34375 1.328125,-4.359375 1.3125,-4.359375 1.28125,-4.359375 c -0.0625,0 -0.140625,0.03125 -0.1875,0.09375 C 0.6875,-3.703125 0.4375,-3.0625 0.28125,-2.4375 0.171875,-2.046875 0.125,-1.671875 0.125,-1.3125 c 0,0.796875 0.296875,1.421875 1.046875,1.421875 0.625,0 1.15625,-0.4375 1.53125,-1.0625 0.109375,0.625 0.453125,1.0625 1.125,1.0625 1.03125,0 1.671875,-1.28125 1.96875,-2.484375 z m 0,0"
               style="stroke:none;stroke-width:0" />
          </g>
        </g>
      </g>
    </g>
    <g
       transform="matrix(0.352778,0,0,0.352778,87.380496,78.102653)"
       ns1:version="1.3.1"
       ns1:texconverter="pdflatex"
       ns1:pdfconverter="inkscape"
       ns1:text="$r$"
       ns1:preamble="/Users/mbh/Library/Application Support/org.inkscape.Inkscape/config/inkscape/extensions/textext/default_packages.tex"
       ns1:scale="1.0"
       ns1:alignment="middle center"
       ns1:jacobian_sqrt="0.352778"
       id="g2012">
      <defs
         id="id-d6c2f8d1-9ab9-47fa-9bbc-a8fbd1ca2e33">
        <g
           id="id-4bbb12dd-a65f-496e-81b6-c519b40f9e97">
          <symbol
             id="id-29485c57-d142-4ead-ae74-f0c65a496204"
             overflow="visible">
            <path
               id="id-f9977532-e7c6-47c6-b9c4-0699d1dce349"
               d=""
               style="stroke:none;stroke-width:0" />
          </symbol>
          <symbol
             id="id-d82eb1e4-0d53-4e0d-a328-8dbc9d9d843d"
             overflow="visible">
            <path
               id="id-541bd4a0-1cc1-4716-8d41-0c21e4023b84"
               d="m 4.34375,-3.765625 c 0,-0.34375 -0.3125,-0.640625 -0.828125,-0.640625 C 2.875,-4.40625 2.4375,-3.921875 2.25,-3.640625 2.15625,-4.09375 1.796875,-4.40625 1.328125,-4.40625 0.875,-4.40625 0.6875,-4.015625 0.59375,-3.84375 0.421875,-3.5 0.296875,-2.90625 0.296875,-2.875 c 0,0.109375 0.109375,0.109375 0.109375,0.109375 0.109375,0 0.109375,-0.015625 0.171875,-0.234375 0.171875,-0.703125 0.375,-1.1875 0.734375,-1.1875 0.15625,0 0.296875,0.078125 0.296875,0.453125 0,0.21875 -0.03125,0.328125 -0.15625,0.84375 L 0.875,-0.59375 c -0.03125,0.15625 -0.09375,0.390625 -0.09375,0.4375 0,0.171875 0.140625,0.265625 0.296875,0.265625 0.125,0 0.296875,-0.078125 0.375,-0.28125 C 1.46875,-0.203125 1.796875,-1.5625 1.84375,-1.75 l 0.3125,-1.296875 c 0.046875,-0.125 0.328125,-0.59375 0.5625,-0.8125 0.078125,-0.0625 0.375,-0.328125 0.796875,-0.328125 0.265625,0 0.421875,0.125 0.421875,0.125 -0.296875,0.046875 -0.515625,0.28125 -0.515625,0.546875 0,0.15625 0.109375,0.34375 0.375,0.34375 0.265625,0 0.546875,-0.234375 0.546875,-0.59375 z m 0,0"
               style="stroke:none;stroke-width:0" />
          </symbol>
        </g>
      </defs>
      <g
         transform="translate(-149.009,-130.359)"
         id="id-2f723187-7747-4938-afe9-14618857f030">
        <g
           id="id-b3b0677b-5aec-46e2-a181-bf80cd53a183"
           style="fill:#000000;fill-opacity:1">
          <g
             transform="translate(148.712,134.765)"
             id="g2008">
            <path
               id="id-43dfa2cf-c135-417a-8975-f96b0299995b"
               d="m 4.34375,-3.765625 c 0,-0.34375 -0.3125,-0.640625 -0.828125,-0.640625 C 2.875,-4.40625 2.4375,-3.921875 2.25,-3.640625 2.15625,-4.09375 1.796875,-4.40625 1.328125,-4.40625 0.875,-4.40625 0.6875,-4.015625 0.59375,-3.84375 0.421875,-3.5 0.296875,-2.90625 0.296875,-2.875 c 0,0.109375 0.109375,0.109375 0.109375,0.109375 0.109375,0 0.109375,-0.015625 0.171875,-0.234375 0.171875,-0.703125 0.375,-1.1875 0.734375,-1.1875 0.15625,0 0.296875,0.078125 0.296875,0.453125 0,0.21875 -0.03125,0.328125 -0.15625,0.84375 L 0.875,-0.59375 c -0.03125,0.15625 -0.09375,0.390625 -0.09375,0.4375 0,0.171875 0.140625,0.265625 0.296875,0.265625 0.125,0 0.296875,-0.078125 0.375,-0.28125 C 1.46875,-0.203125 1.796875,-1.5625 1.84375,-1.75 l 0.3125,-1.296875 c 0.046875,-0.125 0.328125,-0.59375 0.5625,-0.8125 0.078125,-0.0625 0.375,-0.328125 0.796875,-0.328125 0.265625,0 0.421875,0.125 0.421875,0.125 -0.296875,0.046875 -0.515625,0.28125 -0.515625,0.546875 0,0.15625 0.109375,0.34375 0.375,0.34375 0.265625,0 0.546875,-0.234375 0.546875,-0.59375 z m 0,0"
               style="stroke:none;stroke-width:0" />
          </g>
        </g>
      </g>
    </g>
  </g>
</svg>
